<svg height='100px' width='100px'  fill="#000000" xmlns="http://www.w3.org/2000/svg" xmlns:xlink="http://www.w3.org/1999/xlink" viewBox="0 0 61 60" version="1.1" x="0px" y="0px"><title>48 -Web Design- (Solid)</title><desc>Created with Sketch.</desc><g stroke="none" stroke-width="1" fill="none" fill-rule="evenodd"><g transform="translate(-959.000000, -850.000000)" fill="#000000"><g transform="translate(959.000000, 850.000000)"><path d="M6.0096,2.0002 L11.0096,2.0002 C11.5626,2.0002 12.0096,1.5522 12.0096,1.0002 C12.0096,0.4482 11.5626,0.0002 11.0096,0.0002 L6.0096,0.0002 C5.4566,0.0002 5.0096,0.4482 5.0096,1.0002 C5.0096,1.5522 5.4566,2.0002 6.0096,2.0002"></path><path d="M1.0096,2.0002 L2.0096,2.0002 C2.5626,2.0002 3.0096,1.5522 3.0096,1.0002 C3.0096,0.4482 2.5626,0.0002 2.0096,0.0002 L1.0096,0.0002 C0.4566,0.0002 0.0096,0.4482 0.0096,1.0002 C0.0096,1.5522 0.4566,2.0002 1.0096,2.0002"></path><path d="M1.0096,6.0002 L5.0096,6.0002 C5.5626,6.0002 6.0096,5.5522 6.0096,5.0002 C6.0096,4.4482 5.5626,4.0002 5.0096,4.0002 L1.0096,4.0002 C0.4566,4.0002 0.0096,4.4482 0.0096,5.0002 C0.0096,5.5522 0.4566,6.0002 1.0096,6.0002"></path><path d="M11.0096,4.0002 L9.0096,4.0002 C8.4566,4.0002 8.0096,4.4482 8.0096,5.0002 C8.0096,5.5522 8.4566,6.0002 9.0096,6.0002 L11.0096,6.0002 C11.5626,6.0002 12.0096,5.5522 12.0096,5.0002 C12.0096,4.4482 11.5626,4.0002 11.0096,4.0002"></path><path d="M59.0096,54.0002 L54.0096,54.0002 C53.4566,54.0002 53.0096,54.4482 53.0096,55.0002 C53.0096,55.5522 53.4566,56.0002 54.0096,56.0002 L59.0096,56.0002 C59.5626,56.0002 60.0096,55.5522 60.0096,55.0002 C60.0096,54.4482 59.5626,54.0002 59.0096,54.0002"></path><path d="M49.0096,56.0002 L50.0096,56.0002 C50.5626,56.0002 51.0096,55.5522 51.0096,55.0002 C51.0096,54.4482 50.5626,54.0002 50.0096,54.0002 L49.0096,54.0002 C48.4566,54.0002 48.0096,54.4482 48.0096,55.0002 C48.0096,55.5522 48.4566,56.0002 49.0096,56.0002"></path><path d="M53.0096,58.0002 L49.0096,58.0002 C48.4566,58.0002 48.0096,58.4482 48.0096,59.0002 C48.0096,59.5522 48.4566,60.0002 49.0096,60.0002 L53.0096,60.0002 C53.5626,60.0002 54.0096,59.5522 54.0096,59.0002 C54.0096,58.4482 53.5626,58.0002 53.0096,58.0002"></path><path d="M59.0096,58.0002 L57.0096,58.0002 C56.4566,58.0002 56.0096,58.4482 56.0096,59.0002 C56.0096,59.5522 56.4566,60.0002 57.0096,60.0002 L59.0096,60.0002 C59.5626,60.0002 60.0096,59.5522 60.0096,59.0002 C60.0096,58.4482 59.5626,58.0002 59.0096,58.0002"></path><path d="M45.0096,7.0002 L47.0096,7.0002 L47.0096,9.0002 C47.0096,9.5522 47.4566,10.0002 48.0096,10.0002 C48.5626,10.0002 49.0096,9.5522 49.0096,9.0002 L49.0096,7.0002 L51.0096,7.0002 C51.5626,7.0002 52.0096,6.5522 52.0096,6.0002 C52.0096,5.4482 51.5626,5.0002 51.0096,5.0002 L49.0096,5.0002 L49.0096,3.0002 C49.0096,2.4482 48.5626,2.0002 48.0096,2.0002 C47.4566,2.0002 47.0096,2.4482 47.0096,3.0002 L47.0096,5.0002 L45.0096,5.0002 C44.4566,5.0002 44.0096,5.4482 44.0096,6.0002 C44.0096,6.5522 44.4566,7.0002 45.0096,7.0002"></path><path d="M15.7166,52.2932 C15.3256,51.9022 14.6936,51.9022 14.3026,52.2932 L12.0096,54.5862 L9.7166,52.2932 C9.3256,51.9022 8.6936,51.9022 8.3026,52.2932 C7.9116,52.6842 7.9116,53.3162 8.3026,53.7072 L10.5956,56.0002 L8.3026,58.2932 C7.9116,58.6842 7.9116,59.3162 8.3026,59.7072 C8.4976,59.9022 8.7536,60.0002 9.0096,60.0002 C9.2656,60.0002 9.5216,59.9022 9.7166,59.7072 L12.0096,57.4142 L14.3026,59.7072 C14.4976,59.9022 14.7536,60.0002 15.0096,60.0002 C15.2656,60.0002 15.5216,59.9022 15.7166,59.7072 C16.1076,59.3162 16.1076,58.6842 15.7166,58.2932 L13.4236,56.0002 L15.7166,53.7072 C16.1076,53.3162 16.1076,52.6842 15.7166,52.2932"></path><path d="M31.0096,38.382 L31.0096,28.677 L35.0096,27.077 L39.0096,25.477 L39.0096,34.382 L31.0096,38.382 Z M21.0096,25.477 L25.0096,27.077 L29.0096,28.677 L29.0096,38.382 L21.0096,34.382 L21.0096,25.477 Z M51.0096,24 L59.0096,24 C59.5626,24 60.0096,23.552 60.0096,23 L60.0096,15 C60.0096,14.448 59.5626,14 59.0096,14 L51.0096,14 C50.4566,14 50.0096,14.448 50.0096,15 L50.0096,18 L46.0096,18 C45.7756,18 45.5486,18.082 45.3686,18.232 L39.8716,22.813 L31.0096,18.382 L31.0096,12 L34.0096,12 C34.5626,12 35.0096,11.552 35.0096,11 L35.0096,3 C35.0096,2.448 34.5626,2 34.0096,2 L26.0096,2 C25.4566,2 25.0096,2.448 25.0096,3 L25.0096,11 C25.0096,11.552 25.4566,12 26.0096,12 L29.0096,12 L29.0096,18.382 L20.1476,22.813 L14.6506,18.232 C14.4706,18.082 14.2436,18 14.0096,18 L10.0096,18 L10.0096,15 C10.0096,14.448 9.5626,14 9.0096,14 L1.0096,14 C0.4566,14 0.0096,14.448 0.0096,15 L0.0096,23 C0.0096,23.552 0.4566,24 1.0096,24 L9.0096,24 C9.5626,24 10.0096,23.552 10.0096,23 L10.0096,20 L13.6476,20 L19.0096,24.469 L19.0096,34.531 L13.6476,39 L10.0096,39 L10.0096,36 C10.0096,35.448 9.5626,35 9.0096,35 L1.0096,35 C0.4566,35 0.0096,35.448 0.0096,36 L0.0096,44 C0.0096,44.552 0.4566,45 1.0096,45 L9.0096,45 C9.5626,45 10.0096,44.552 10.0096,44 L10.0096,41 L14.0096,41 C14.2436,41 14.4706,40.918 14.6506,40.768 L20.1476,36.187 L29.0096,40.618 L29.0096,48 L26.0096,48 C25.4566,48 25.0096,48.448 25.0096,49 L25.0096,57 C25.0096,57.552 25.4566,58 26.0096,58 L34.0096,58 C34.5626,58 35.0096,57.552 35.0096,57 L35.0096,49 C35.0096,48.448 34.5626,48 34.0096,48 L31.0096,48 L31.0096,40.618 L39.8716,36.187 L45.3686,40.768 C45.5486,40.918 45.7756,41 46.0096,41 L50.0096,41 L50.0096,44 C50.0096,44.552 50.4566,45 51.0096,45 L59.0096,45 C59.5626,45 60.0096,44.552 60.0096,44 L60.0096,36 C60.0096,35.448 59.5626,35 59.0096,35 L51.0096,35 C50.4566,35 50.0096,35.448 50.0096,36 L50.0096,39 L46.3716,39 L41.0096,34.531 L41.0096,24.469 L46.3716,20 L50.0096,20 L50.0096,23 C50.0096,23.552 50.4566,24 51.0096,24 L51.0096,24 Z"></path></g></g></g></svg>