<svg height='100px' width='100px'  fill="#000000" xmlns="http://www.w3.org/2000/svg" xmlns:xlink="http://www.w3.org/1999/xlink" version="1.0" x="0px" y="0px" viewBox="0 0 100 100" enable-background="new 0 0 100 100" xml:space="preserve"><g><g><path d="M70.5976563,65.3745117c-0.1933594-0.1811523-0.4433594-0.2729492-0.7177734-0.2685547    c-0.2646484,0.0092773-0.515625,0.1235352-0.6962891,0.3173828l-5.8076172,6.2255859    c-0.3769531,0.4038086-0.3544922,1.0366211,0.0488281,1.4130859l6.2255859,5.8081055    c0.1855469,0.1733398,0.4296875,0.269043,0.6826172,0.269043c0.0117188,0,0.0234375,0,0.0351563-0.0004883    c0.2646484-0.0092773,0.515625-0.1235352,0.6962891-0.3173828l5.8076172-6.2255859    c0.3769531-0.4038086,0.3544922-1.0366211-0.0488281-1.4130859L70.5976563,65.3745117z M70.2841797,76.7255859    l-4.7636719-4.4433594l4.4433594-4.7631836l4.7636719,4.4433594L70.2841797,76.7255859z"></path><path d="M33.0400391,65.9433594c-3.3291016,0-6.0380859,2.7084961-6.0380859,6.0380859s2.7089844,6.0380859,6.0380859,6.0380859    s6.0380859-2.7084961,6.0380859-6.0380859S36.3691406,65.9433594,33.0400391,65.9433594z M33.0400391,76.0195313    c-2.2265625,0-4.0380859-1.8115234-4.0380859-4.0380859s1.8115234-4.0380859,4.0380859-4.0380859    s4.0380859,1.8115234,4.0380859,4.0380859S35.2666016,76.0195313,33.0400391,76.0195313z"></path><path d="M63,34c2.7568359,0,5-2.2431641,5-5s-2.2431641-5-5-5s-5,2.2431641-5,5S60.2431641,34,63,34z M63,26    c1.6542969,0,3,1.3457031,3,3s-1.3457031,3-3,3s-3-1.3457031-3-3S61.3457031,26,63,26z"></path><path d="M37,34c2.7568359,0,5-2.2431641,5-5s-2.2431641-5-5-5s-5,2.2431641-5,5S34.2431641,34,37,34z M37,26    c1.6542969,0,3,1.3457031,3,3s-1.3457031,3-3,3s-3-1.3457031-3-3S35.3457031,26,37,26z"></path><path d="M76.3671875,48c0.0390625-0.3237305,0.0644531-0.6523438,0.0644531-0.9882813    c0.0029297-3.3535156-1.0546875-5.9833984-3.1435547-7.8168945c-2.84375-2.496582-7.5410156-3.3955078-13.5849609-2.6030273    c-3.8476563,0.5053711-6.5527344,2.7705078-7.8222656,6.550293C51.3701172,44.6557617,51.1396484,46.253418,51.1542969,48    h-2.9609375c0.3417969-2.8339844,0.4306641-6.2246094-1.7294922-8.8505859    c-1.7548828-2.1303711-4.8876953-3.1240234-9.5556641-3.0649414c-2.8388672,0.0415039-6.8837891,0.40625-9.2226563,3.0805664    C25.7666016,41.3608398,24.2695313,44.9589844,24.4570313,48H20.5v2h4.375    c0.7324219,2.0195313,1.8808594,4.0405273,3.1806641,5.5668945c1.1396484,1.3383789,2.5351563,2.7509766,4.2548828,3.081543    c0.2548828,0.0488281,0.4873047,0.0703125,0.7001953,0.0703125c0.7802734,0,1.2949219-0.2861328,1.6103516-0.5600586    c0.3974609-0.3461914,0.8574219-1.0107422,0.7949219-2.2114258C35.328125,54.2817383,33.8710938,51.7480469,32.7294922,50    h8.2548828l0.0048828,0.0258789l-0.6806641,5.5986328l-3.5996094,3.8574219    c-0.3769531,0.4038086-0.3544922,1.0366211,0.0488281,1.4130859l6.2255859,5.8085938    c0.1933594,0.1801758,0.4384766,0.269043,0.6826172,0.269043c0.2675781,0,0.5341797-0.1069336,0.7314453-0.3178711    l5.8085938-6.2255859c0.3769531-0.4038086,0.3544922-1.0366211-0.0488281-1.4130859l-3.7255859-3.4760742    C47.2978516,53.2084961,47.7451172,50.9580078,47.9111328,50h3.5146484    c0.5107422,2.0483398,1.6972656,5.1108398,3.2285156,7.1044922c-0.5683594,0.878418-0.9023438,1.9223633-0.9023438,3.0439453    c0,3.0996094,2.5214844,5.6210938,5.6210938,5.6210938s5.6210938-2.5214844,5.6210938-5.6210938    c0-2.6757813-1.8808594-4.9169922-4.3886719-5.480957c-0.2070313-0.5776367-0.5136719-1.1020508-0.7724609-1.5366211    c-0.1806641-0.3051758-0.3613281-0.6035156-0.4921875-0.8959961L58.3447266,50h10.3056641    c-1,1.7324219-2.3828125,4.3388672-2.6669922,5.9521484c-0.2070313,1.1806641,0.3203125,1.8510742,0.6523438,2.1459961    c0.6953125,0.6157227,1.8056641,0.7739258,2.9667969,0.4213867c2.2011719-0.6674805,3.4091797-2.8525391,4.3798828-4.6079102    c0.1240234-0.2246094,0.2451172-0.4433594,0.3642578-0.6518555C74.9101563,52.2744141,75.4882813,51.1850586,75.8945313,50H79.5    v-2H76.3671875z M48.0615234,59.7958984l-4.4443359,4.7631836l-4.7636719-4.4438477l2.3730469-2.5429688    c0.6171875,0.5375977,1.5400391,1.121582,2.5722656,0.9882813c0.5058594-0.0668945,1.1640625-0.3310547,1.7353516-1.1225586    L48.0615234,59.7958984z M44.8359375,54.0512695c-0.1855469,0.5556641-0.3945313,1.1240234-0.6318359,1.684082    c-0.0498047,0.1171875-0.1015625,0.222168-0.1542969,0.3178711c-0.171875,0.3115234-0.3535156,0.5029297-0.5107422,0.5244141    c-0.25,0.0263672-0.6171875-0.1904297-0.9482422-0.4677734c-0.1025391-0.0859375-0.203125-0.1767578-0.2939453-0.269043    l0.3232422-2.6582031l0.3730469-3.0620117C42.9980469,50.0805664,42.9902344,50.0400391,42.9902344,50    c0-0.0571289,0.0048828-0.1147461-0.0048828-0.1713867L42.6669922,48l-0.6816406-3.9213867    c-0.0947266-0.5439453-0.6142578-0.9057617-1.15625-0.8139648c-0.5449219,0.0947266-0.9091797,0.612793-0.8144531,1.1567383    L40.6367188,48h-8.6503906l1.2646484-2.9379883c0.21875-0.5073242-0.0146484-1.0952148-0.5224609-1.3139648    c-0.5068359-0.2192383-1.0966797,0.015625-1.3134766,0.5229492L29.8085938,48l-0.1259766,0.2924805    C29.5410156,48.6210938,29.5849609,49,29.7998047,49.2866211C29.9609375,49.5024414,30.1357422,49.7441406,30.3154297,50    c1.3310547,1.8955078,3.0332031,4.7226563,3.1025391,6.0522461c0.0175781,0.331543-0.0429688,0.5390625-0.1103516,0.5981445    c-0.0546875,0.046875-0.2470703,0.1044922-0.6191406,0.0341797c-1.1113281-0.2138672-2.1953125-1.340332-3.109375-2.4140625    C28.5732422,53.0898438,27.6796875,51.5668945,27.0292969,50c-0.1152344-0.2773438-0.2382813-0.5532227-0.3359375-0.831543    C26.5673828,48.8095703,26.5019531,48.4125977,26.4677734,48c-0.2041016-2.4448242,1.0888672-5.6469727,2.7236328-7.5185547    c1.8125-2.0737305,5.2890625-2.3613281,7.7460938-2.3969727c4.0322266-0.0644531,6.6396484,0.7055664,7.9814453,2.3359375    C46.5390625,42.3901367,46.5253906,45.0952148,46.1738281,48c-0.0498047,0.4072266-0.1054688,0.8178711-0.1640625,1.2314453    C46.0087891,49.2412109,45.9658203,49.5297852,45.8779297,50C45.7128906,50.8779297,45.3828125,52.4091797,44.8359375,54.0512695z     M62.9941406,60.1484375c0,1.996582-1.6240234,3.6210938-3.6210938,3.6210938s-3.6210938-1.6245117-3.6210938-3.6210938    c0-0.5727539,0.1455078-1.1069336,0.3828125-1.5888672c0.2763672,0.1860352,0.5585938,0.3354492,0.8466797,0.4238281    c0.2070313,0.0634766,0.4716797,0.1171875,0.7734375,0.1171875c0.7158203,0,1.6425781-0.3032227,2.5068359-1.5    c0.1982422-0.2758789,0.3212891-0.5498047,0.4140625-0.8212891    C62.0283203,57.3041992,62.9941406,58.6118164,62.9941406,60.1484375z M72.6103516,52.2670898    c-0.1230469,0.2158203-0.2490234,0.4433594-0.3779297,0.6767578c-0.8378906,1.5141602-1.7861328,3.2299805-3.2099609,3.6616211    c-0.5576172,0.1674805-0.9648438,0.0795898-1.0595703-0.0043945c-0.0224609-0.0195313-0.0400391-0.1269531-0.0087891-0.3032227    C68.21875,54.7905273,69.9638672,51.675293,70.9746094,50c0.1533203-0.2539063,0.2910156-0.4765625,0.4023438-0.6538086    c0.1523438-0.2421875,0.1943359-0.5380859,0.1142578-0.8129883L71.3359375,48l-1.0634766-3.6542969    c-0.1542969-0.5292969-0.7099609-0.8393555-1.2392578-0.6806641c-0.5302734,0.1542969-0.8349609,0.7089844-0.6806641,1.2392578    L69.2529297,48h-10.640625l0.6230469-3.5786133c0.0947266-0.5439453-0.2695313-1.0620117-0.8144531-1.1567383    c-0.5449219-0.0913086-1.0605469,0.2700195-1.15625,0.8139648L56.5830078,48l-0.3183594,1.8286133    C56.2548828,49.8857422,56.2607422,49.9428711,56.2607422,50c0,0.1396484,0.0185547,0.2783203,0.0761719,0.4072266    l1.1777344,2.6425781c0.1699219,0.3793945,0.3886719,0.7475586,0.5996094,1.1030273    c0.1005859,0.168457,0.1884766,0.3212891,0.2695313,0.4667969c0.46875,0.8413086,0.6064453,1.3242188,0.2558594,1.8110352    c-0.0634766,0.0878906-0.1230469,0.1601563-0.1806641,0.2275391c-0.4658203,0.5390625-0.7587891,0.4541016-0.8916016,0.4130859    c-0.0146484-0.0043945-0.0292969-0.0146484-0.0439453-0.0195313c-0.4912109-0.1708984-1.0068359-0.6904297-1.5048828-1.4033203    C54.9550781,54.1274414,53.9707031,51.7363281,53.4794922,50c-0.1953125-0.6918945-0.3164063-1.2851563-0.328125-1.6694336    C53.1474609,48.2172852,53.1552734,48.1113281,53.1542969,48c-0.015625-1.527832,0.1826172-2.9155273,0.6220703-4.2202148    c1.0244141-3.0493164,3.1064453-4.800293,6.1865234-5.2045898c3.8056641-0.5,8.9765625-0.5366211,12.0058594,2.1225586    c1.6367188,1.4365234,2.4648438,3.5605469,2.4628906,6.3125c0,0.3359375-0.0361328,0.6645508-0.0869141,0.9897461    c-0.1083984,0.6889648-0.3154297,1.3549805-0.5839844,2C73.4345703,50.7836914,73.0263672,51.5385742,72.6103516,52.2670898z"></path><path d="M52.1923828,67.9770508c-0.1962891-0.2973633-0.5185547-0.4707031-0.8945313-0.4467773    c-0.3564453,0.0214844-0.6748047,0.2314453-0.8339844,0.5512695l-4.5732422,9.1557617    c-0.1601563,0.3193359-0.1367188,0.7001953,0.0605469,0.9980469c0.1855469,0.28125,0.4990234,0.4487305,0.8339844,0.4487305    c0.0195313,0,0.0400391-0.0004883,0.0605469-0.0019531l10.2158203-0.6171875    c0.3564453-0.0214844,0.6748047-0.2314453,0.8339844-0.5512695c0.1601563-0.3193359,0.1367188-0.7001953-0.0605469-0.9980469    L52.1923828,67.9770508z M48.4541016,76.581543l3.0253906-6.0566406l3.7324219,5.6484375L48.4541016,76.581543z"></path></g></g></svg>