<svg height='100px' width='100px'  fill="#000000" xmlns="http://www.w3.org/2000/svg" xmlns:xlink="http://www.w3.org/1999/xlink" version="1.1" x="0px" y="0px" viewBox="0 0 50 50" enable-background="new 0 0 50 50" xml:space="preserve"><g><path fill-rule="evenodd" clip-rule="evenodd" d="M33.594,12.818c0,4.749-3.844,8.592-8.593,8.592   c-4.745,0-8.593-3.847-8.593-8.592c0-4.753,3.841-8.593,8.593-8.593C29.75,4.224,33.594,8.068,33.594,12.818 M25,19.25   c3.55,0,6.433-2.882,6.433-6.432S28.551,6.385,25,6.385c-3.551,0-6.433,2.881-6.433,6.433C18.568,16.366,21.452,19.25,25,19.25z    M25,8.852c2.194,0,3.966,1.772,3.966,3.966c0,2.193-1.773,3.966-3.966,3.966c-2.192,0-3.966-1.773-3.966-3.966   c0-1.094,0.445-2.087,1.162-2.804C22.914,9.296,23.906,8.852,25,8.852z M31.088,25.853l8.804,22.718L50,44.654l-8.803-22.718   l-3.751,1.455l-2.186-5.621c0.724-1.497,1.13-3.177,1.13-4.952c0-6.286-5.103-11.389-11.389-11.389   c-6.281,0-11.389,5.108-11.389,11.389c0,1.774,0.406,3.454,1.13,4.951l-2.186,5.622l-3.752-1.455L0,44.654l10.108,3.918   l8.804-22.718l-3.758-1.456l1.493-3.839c2.162,2.332,5.171,3.648,8.353,3.648c3.173,0,6.201-1.328,8.353-3.648l1.493,3.839   L31.088,25.853z"></path></g></svg>