<svg height='100px' width='100px'  fill="#000000" xmlns="http://www.w3.org/2000/svg" data-name="Layer 1" viewBox="0 0 98 98" x="0px" y="0px"><title>01</title><g data-name="Group"><path data-name="Compound Path" d="M49,50.3a9.1,9.1,0,1,0-9.1-9.1A9.2,9.2,0,0,0,49,50.3Zm0-14.2a5.1,5.1,0,1,1-5.1,5.1A5.1,5.1,0,0,1,49,36.1Z"></path><path data-name="Compound Path" d="M68.3,47H65.9a12.5,12.5,0,0,0-10.4,5.4A11.9,11.9,0,0,0,50.2,51H47.8a11.9,11.9,0,0,0-5.3,1.4A12.5,12.5,0,0,0,32.1,47H29.7C22.7,47,17,52.2,17,59.1v4.8A2.2,2.2,0,0,0,19.1,66H35v2.1A2.1,2.1,0,0,0,37.2,70H60.8A2.1,2.1,0,0,0,63,68.1V66H78.9A2.2,2.2,0,0,0,81,63.9V59.1C81,52.2,75.3,47,68.3,47ZM35.4,62H21V59.1c0-4.7,3.9-8.1,8.7-8.1h2.4a8.4,8.4,0,0,1,7.2,3.6A12.2,12.2,0,0,0,35.4,62ZM59,66H39V64a9.1,9.1,0,0,1,8.8-9h2.4A9.1,9.1,0,0,1,59,64Zm18-4H62.6a12.6,12.6,0,0,0-3.8-7.4A8.4,8.4,0,0,1,65.9,51h2.4c4.8,0,8.7,3.4,8.7,8.1Z"></path><path data-name="Compound Path" d="M67.2,46.2A9.2,9.2,0,1,0,58,37,9.2,9.2,0,0,0,67.2,46.2Zm0-14.3A5.2,5.2,0,1,1,62,37,5.1,5.1,0,0,1,67.2,31.9Z"></path><path data-name="Compound Path" d="M30.9,46.2A9.2,9.2,0,1,0,21.8,37,9.2,9.2,0,0,0,30.9,46.2Zm0-14.3A5.2,5.2,0,1,1,25.8,37,5.1,5.1,0,0,1,30.9,31.9Z"></path><path data-name="Compound Path" d="M49,5.1A43.9,43.9,0,1,0,92.9,49,44,44,0,0,0,49,5.1Zm2,83.8V81.3a2,2,0,0,0-4,0v7.6A40.2,40.2,0,0,1,9.1,51h7.6a2,2,0,1,0,0-4H9.1A40.2,40.2,0,0,1,47,9.1v7.6a2,2,0,1,0,4,0V9.1A40.2,40.2,0,0,1,88.9,47H81.3a2,2,0,0,0,0,4h7.6A40.2,40.2,0,0,1,51,88.9Z"></path></g></svg>