<svg xmlns="http://www.w3.org/2000/svg" width="21.427" height="23.743" viewBox="0 0 21.427 23.743"><defs><style>.a{fill:#f9d649;}</style></defs><g transform="translate(-21.614 -18.965)"><path class="a" d="M36.074,22.1h-16.3a1.171,1.171,0,0,0,0,2.342h16.3a1.171,1.171,0,0,0,0-2.342Z" transform="matrix(0.819, -0.574, 0.574, 0.819, -6.298, 22.224)"/><path class="a" d="M36.074,47h-16.3a1.171,1.171,0,1,0,0,2.342h16.3a1.171,1.171,0,1,0,0-2.342Z" transform="translate(5.796 -17.612)"/><path class="a" d="M36.074,71.8h-16.3a1.171,1.171,0,1,0,0,2.342h16.3a1.171,1.171,0,1,0,0-2.342Z" transform="translate(55.029 -38.029) rotate(40)"/></g></svg>