<svg xmlns="http://www.w3.org/2000/svg" width="15.113" height="14.776" viewBox="0 0 15.113 14.776"><defs><style>.a{fill:#fff;stroke:#fff;stroke-width:0.3px;}</style></defs><g transform="translate(-10.288 -10.916)"><path class="a" d="M35.587,13.135l-1.99-1.99a.268.268,0,0,0-.38,0l-1.279,1.279L26.251,18.11l-.569.569a.267.267,0,0,0-.066.109L24.693,21.7a.269.269,0,0,0,.256.35.272.272,0,0,0,.081-.013l2.914-.924a.267.267,0,0,0,.109-.066l.569-.569,5.686-5.686,1.279-1.279A.269.269,0,0,0,35.587,13.135Zm-7.868,7.488-2.358.748.748-2.358.332-.332,1.61,1.61Zm.712-.712-1.61-1.61,5.307-5.306,1.61,1.61Zm5.686-5.686-1.61-1.61.9-.9,1.61,1.61Z" transform="translate(-10.415 0)"/><path class="a" d="M23.606,21.309a.269.269,0,0,0-.269.269v6.987H10.975V16.471h7.256a.269.269,0,1,0,0-.537H10.707a.269.269,0,0,0-.269.269v12.63a.269.269,0,0,0,.269.269h12.9a.268.268,0,0,0,.269-.269V21.577A.268.268,0,0,0,23.606,21.309Z" transform="translate(0 -3.56)"/></g></svg>