<svg xmlns="http://www.w3.org/2000/svg" width="14.092" height="14.839" viewBox="0 0 14.092 14.839"><defs><style>.a{fill:#fff;stroke:#fff;stroke-width:0.3px;}</style></defs><g transform="translate(-8.507 21.189) rotate(-90)"><path class="a" d="M27.335,14.558a.34.34,0,0,0-.115-.078.351.351,0,0,0-.263,0,.343.343,0,0,0-.115.076l-4.136,4.136a.347.347,0,0,0,0,.489.355.355,0,0,0,.489,0l3.545-3.545V26.9a.346.346,0,1,0,.692,0V15.636l3.545,3.545a.355.355,0,0,0,.49,0,.347.347,0,0,0,0-.489Z" transform="translate(-13.318 -4.794)"/><path class="a" d="M20.692,8.657H6.846A.347.347,0,0,0,6.5,9v3.071a.346.346,0,1,0,.692,0V9.349H20.346v2.724a.346.346,0,1,0,.692,0V9A.347.347,0,0,0,20.692,8.657Z"/></g></svg>