<svg xmlns="http://www.w3.org/2000/svg" width="17.084" height="18.077" viewBox="0 0 17.084 18.077"><defs><style>.a{fill:#fff;stroke:#fff;stroke-width:0.2px;}</style></defs><path class="a" d="M66.539,46.305a4.675,4.675,0,1,1-9.35,0H57.9a3.963,3.963,0,1,0,1.156-2.795l.879.879H57.65V42.1l.9.9a4.674,4.674,0,0,1,7.984,3.3Zm-5.032-2.87v3.228h3.228v-.715H62.222V43.435ZM62.142,33.1H51.568a1.915,1.915,0,0,0-1.912,1.912V45.59A1.915,1.915,0,0,0,51.568,47.5h4.051v-.715H51.568a1.2,1.2,0,0,1-1.2-1.2V35.016a1.2,1.2,0,0,1,1.2-1.2H62.142a1.2,1.2,0,0,1,1.2,1.2v5.258h.715V35.016A1.915,1.915,0,0,0,62.142,33.1Z" transform="translate(-49.555 -33.003)"/></svg>