<svg xmlns="http://www.w3.org/2000/svg" width="22.85" height="12.889" viewBox="0 0 22.85 12.889"><defs><style>.a{fill:#f9d649;}</style></defs><g transform="translate(-20.191 -24.1)"><path class="a" d="M36.074,22.1h-16.3a1.171,1.171,0,0,0,0,2.342h16.3a1.171,1.171,0,0,0,0-2.342Z" transform="translate(2 2)"/><path class="a" d="M36.074,47h-16.3a1.171,1.171,0,1,0,0,2.342h16.3a1.171,1.171,0,1,0,0-2.342Z" transform="translate(5.796 -17.612)"/><path class="a" d="M36.074,71.8h-16.3a1.171,1.171,0,1,0,0,2.342h16.3a1.171,1.171,0,1,0,0-2.342Z" transform="translate(1.591 -37.153)"/></g></svg>