<svg xmlns="http://www.w3.org/2000/svg" width="17.059" height="12.701" viewBox="0 0 17.059 12.701"><defs><style>.a{fill:none;stroke:#fff;stroke-miterlimit:10;stroke-width:0.7px;}</style></defs><g transform="translate(-231.784 -479.797)"><path class="a" d="M106.859,157.881l-2.762,7.882c-.157.429-.329.738-.738.738H91.238a.736.736,0,0,1-.738-.738l2.715-8.93c.143-.443.376-.833.786-.833h3.667c.319,0,1.248,1.143,1.572,1.143h6.882A.736.736,0,0,1,106.859,157.881Z" transform="translate(141.634 325.648)"/><path class="a" d="M90.5,135.716v-10.43a.787.787,0,0,1,.786-.786h12.073a.787.787,0,0,1,.786.786V126.5" transform="translate(141.634 355.647)"/></g></svg>