<svg xmlns="http://www.w3.org/2000/svg" width="19.359" height="13.162" viewBox="0 0 19.359 13.162"><defs><style>.a{fill:none;stroke:#fff;stroke-linecap:round;stroke-linejoin:round;stroke-miterlimit:10;stroke-width:0.9px;}</style></defs><g transform="translate(4193.55 -1608.246)"><path class="a" d="M-4193.1,1614.808a11.715,11.715,0,0,1,5.895-5.492,10.076,10.076,0,0,1,6.929.115,10.99,10.99,0,0,1,4.169,3.249,12.434,12.434,0,0,1,1.466,2.156,14.447,14.447,0,0,1-1.265,1.9,11.574,11.574,0,0,1-4.111,3.393,10,10,0,0,1-7.073.23A11.822,11.822,0,0,1-4193.1,1614.808Z" transform="translate(0 0)"/><circle class="a" cx="3.421" cy="3.421" r="3.421" transform="translate(-4187.292 1611.387)"/><path class="a" d="M-4169.4,1623.815a2.429,2.429,0,0,1,2.416-2.415" transform="translate(-16.886 -9.007)"/></g></svg>