<svg xmlns="http://www.w3.org/2000/svg" width="16.694" height="16.536" viewBox="0 0 16.694 16.536"><defs><style>.a{fill:#fff;stroke:#fff;stroke-width:0.3px;}</style></defs><path class="a" d="M-518.285,566.8a2.392,2.392,0,0,0-1.7-.7,2.433,2.433,0,0,0-1.7.7.225.225,0,0,0,0,.326.225.225,0,0,0,.326,0,1.916,1.916,0,0,1,1.372-.558,2.017,2.017,0,0,1,1.372.558,1.937,1.937,0,0,1,0,2.721c-.023.023-.023.023-.023.047-.023,0-.023.023-.047.023l-.861.861-2.884-2.884h0l-1.186-1.186a.225.225,0,0,0-.326,0l-4.234,4.234a.225.225,0,0,0,0,.326.251.251,0,0,0,.163.07.251.251,0,0,0,.163-.07l4.071-4.071.861.861-9.281,9.281a.211.211,0,0,0-.07.163.211.211,0,0,0,.07.163l.465.465-1.465,1.465a.225.225,0,0,0,0,.326l.744.744-1.279,1.279a.225.225,0,0,0,0,.326.252.252,0,0,0,.163.07.252.252,0,0,0,.163-.07l1.279-1.279.744.744a.251.251,0,0,0,.163.07.251.251,0,0,0,.163-.07l1.465-1.465.465.465a.251.251,0,0,0,.163.07.251.251,0,0,0,.163-.07l9.444-9.444h0l1.023-1.023c.023-.023.023-.023.023-.047.023,0,.023-.023.047-.023A2.437,2.437,0,0,0-518.285,566.8Zm-12.956,14.445-1.489-1.489,1.3-1.3,1.489,1.489Zm2.233-1-2.722-2.722,9.118-9.118,2.721,2.722Z" transform="translate(533.971 -565.95)"/></svg>