<svg xmlns="http://www.w3.org/2000/svg" width="19.352" height="19.169" viewBox="0 0 19.352 19.169"><defs><style>.a{fill:#fff;stroke:#fff;stroke-width:0.3px;}</style></defs><path class="a" d="M10.765,24.742l2.1-1.17a7.423,7.423,0,0,0,2.379,1.4v2.4H20.3v-2.4a7.422,7.422,0,0,0,2.379-1.4l2.1,1.17,2.467-4.42-2.092-1.168a7.41,7.41,0,0,0,0-2.441l2.092-1.168-2.467-4.42-2.1,1.17A7.421,7.421,0,0,0,20.3,10.9V8.5H15.239v2.4a7.418,7.418,0,0,0-2.379,1.4l-2.1-1.17L8.3,15.546l2.092,1.168a7.416,7.416,0,0,0,0,2.441L8.3,20.323Zm.238-5.3-.038-.2a6.883,6.883,0,0,1,0-2.626L11,16.426,9.046,15.334l1.931-3.46,1.96,1.094.146-.134A6.883,6.883,0,0,1,15.6,11.354l.189-.062V9.05H19.75v2.242l.189.062a6.883,6.883,0,0,1,2.517,1.481l.146.134,1.96-1.094,1.931,3.46-1.957,1.092.038.195a6.894,6.894,0,0,1,0,2.626l-.038.195,1.957,1.092-1.931,3.46L22.6,22.9l-.146.135a6.886,6.886,0,0,1-2.517,1.481l-.189.062v2.242H15.788V24.578l-.189-.062a6.886,6.886,0,0,1-2.517-1.481l-.146-.135-1.96,1.094-1.931-3.46Zm6.767,3.189a4.7,4.7,0,1,0-4.7-4.7A4.7,4.7,0,0,0,17.769,22.632Zm0-8.845a4.148,4.148,0,1,1-4.148,4.148A4.152,4.152,0,0,1,17.769,13.787Z" transform="translate(-8.094 -8.35)"/></svg>