<svg xmlns="http://www.w3.org/2000/svg" width="29.045" height="29.045" viewBox="0 0 29.045 29.045"><defs><style>.a{fill:#fff;}.b{fill:#4d4d4d;}</style></defs><g transform="translate(-2799 -1383)"><circle class="a" cx="14.5" cy="14.5" r="14.5" transform="translate(2799 1383)"/><path class="b" d="M14.523,0A14.523,14.523,0,1,0,29.045,14.523,14.53,14.53,0,0,0,14.523,0Zm.685,15.116a1.84,1.84,0,0,0-.868.023h-.023a2.9,2.9,0,0,0-1.964.571c-.205.183-.708.913-.936.868a2.255,2.255,0,0,1-1.461-1.233,24.843,24.843,0,0,1,.114-6.759,8.808,8.808,0,0,0,3.859.068,8.632,8.632,0,0,0,2.352-.571,3.678,3.678,0,0,0,3.22,2.124,23.542,23.542,0,0,1-.069,5.069l-.023.023a2.307,2.307,0,0,1-1.484,1.279c-.228.046-.731-.685-.936-.868A3.083,3.083,0,0,0,15.208,15.116Zm.959,1.827a13.475,13.475,0,0,1-2.146.023h-.046a3.044,3.044,0,0,1-.639-.069c-.228-.046-.137-.388.091-.342.114.023.228.023.342.046h.023a20.552,20.552,0,0,0,2.375-.023C16.4,16.555,16.4,16.92,16.167,16.943Zm-3.9,6.142c.137-.754.183-1.553.251-2.329a5.953,5.953,0,0,0,2.055.571c.023,0,.046.023.091.023a.137.137,0,0,0,.091-.023,6.356,6.356,0,0,0,2.124-.594,20.424,20.424,0,0,0,.274,2.375c.251,1.3-1.53,1.553-2.443,1.713C13.792,24.638,12.034,24.387,12.262,23.086Zm11.668,1.53-.685-1.1c-.114-.183-.3-.616-.525-.731-1.644-.891-3.745-.822-5.435-1.621h-.023c-.023-.228-.023-.434-.046-.662a6.2,6.2,0,0,0,.868-.708,6.234,6.234,0,0,0,1.393-2.831,9.949,9.949,0,0,0,.365-1.9.638.638,0,0,0,.8-.388,2.737,2.737,0,0,0,.068-.868,7.13,7.13,0,0,1,.3-1.347c.068-.411.114-1.21-.32-1.461-.023,0-.023-.023-.046-.023-.137-1.987.913-7.033-2.283-6.8-.183-.685-1.1-1.187-1.69-1.393a7.928,7.928,0,0,0-3.654-.3,3.92,3.92,0,0,0-2.169,1.073,7.365,7.365,0,0,1-1.279,1.1c-.32.228-.845.228-1.05.548-.023.046-.046.137,0,.183a2.762,2.762,0,0,0,.365.365c.206.137-.708.274-.891.32a.2.2,0,0,0-.137.228,1.424,1.424,0,0,0,.731.685,6.449,6.449,0,0,0-.662.411.174.174,0,0,0,.046.274c.046.023.685.3.708.206a5.713,5.713,0,0,0-.114,1.073c-.046.457-.068.936-.068,1.393a3.879,3.879,0,0,0,.046.639c0,.023-.023.046-.023.068-.342.3-.3,1.028-.251,1.393a7.13,7.13,0,0,1,.3,1.347,2.206,2.206,0,0,0,.068.868.633.633,0,0,0,.776.388,9.382,9.382,0,0,0,.365,1.872,6.235,6.235,0,0,0,1.393,2.831,5.642,5.642,0,0,0,.936.754,5.2,5.2,0,0,0-.046.594.084.084,0,0,0-.068.023c-1.69.8-3.768.731-5.435,1.621-.228.114-.388.525-.525.731-.251.434-.525.845-.8,1.279a13.809,13.809,0,1,1,18.7-.137ZM19.98,12.331c-.023-.3-.023-.594-.046-.868.023-.023.068-.023.091-.069.137-.183.251-.228.342-.183.023.023.046.068.091.068a1.868,1.868,0,0,1,.251,1.1,8.163,8.163,0,0,1-.228.8c-.068.251-.023,1.667-.548,1.53A20.806,20.806,0,0,0,19.98,12.331Zm-10.527,2.4c-.5.068-.457-1.279-.525-1.53-.091-.274-.16-.525-.228-.8s.183-1.69.685-.982l.046.046c-.023.3-.023.594-.046.891A16.882,16.882,0,0,0,9.453,14.728Z" transform="translate(2799 1383)"/></g></svg>