<svg xmlns="http://www.w3.org/2000/svg" width="17.146" height="18.659" viewBox="0 0 17.146 18.659"><defs><style>.a{fill:#fff;stroke:#fff;stroke-width:0.3px;}</style></defs><path class="a" d="M52.915,31.85a2.959,2.959,0,0,0-2.668,1.684L44.84,31.542a2.943,2.943,0,0,0-.543-2.6l4.572-4.366a2.956,2.956,0,1,0-.376-.392l-4.572,4.366a2.952,2.952,0,1,0,.731,3.5l5.408,1.992a2.957,2.957,0,1,0,2.856-2.193Zm-2.11-11.909a2.41,2.41,0,1,1-2.413,2.409A2.415,2.415,0,0,1,50.806,19.941ZM41.983,33.192A2.411,2.411,0,1,1,44.25,31.61l0,0h0A2.418,2.418,0,0,1,41.983,33.192Zm10.932,4.023a2.411,2.411,0,1,1,2.414-2.409A2.414,2.414,0,0,1,52.915,37.214Z" transform="translate(-38.877 -19.248)"/></svg>