<svg xmlns="http://www.w3.org/2000/svg" width="21.303" height="20.153" viewBox="0 0 21.303 20.153"><defs><style>.a{fill:none;stroke:#000;stroke-linecap:round;stroke-width:0.9px;}</style></defs><g transform="translate(-943.849 -335.899)"><path d="M42.168,14.383l-3.191-3.191a.43.43,0,0,0-.609,0l-2.051,2.051L27.2,22.36l-.912.912a.429.429,0,0,0-.106.174L24.7,28.119a.431.431,0,0,0,.411.561.436.436,0,0,0,.13-.02l4.672-1.481a.429.429,0,0,0,.174-.106L31,26.161l9.117-9.117,2.051-2.051A.431.431,0,0,0,42.168,14.383ZM29.553,26.389l-3.78,1.2,1.2-3.78.533-.533,2.582,2.582ZM30.7,25.246l-2.582-2.582,8.508-8.508L39.2,16.739Zm9.117-9.117L37.23,13.548l1.442-1.442,2.582,2.582Z" transform="translate(919.185 324.833)"/><line class="a" x2="20.403" transform="translate(944.299 355.601)"/></g></svg>