<svg xmlns="http://www.w3.org/2000/svg" width="166.118" height="108.216" viewBox="0 0 166.118 108.216"><defs><style>.a{fill:#fff;}.b{fill:#6d9f13;}.c{fill:#ffbc49;}</style></defs><g transform="translate(-562 -120)"><g transform="translate(562 120)"><path class="a" d="M52.281,49.39a5.569,5.569,0,0,1,1.691-2.846c2.963-2.889,5.811-5.878,8.818-8.709,4.076-3.866,7.936-7.947,12.026-11.813,3.252-3.061,6.331-6.295,9.555-9.385,4.567-4.369,9.006-8.853,13.516-13.265a6.875,6.875,0,0,1,3.093-2.141,5.608,5.608,0,0,1,5.58,1.653c7.083,7.056,14.108,14.156,21.264,21.126,7.719,7.5,15.264,15.162,22.954,22.678a5.114,5.114,0,0,1,1.59,3.909V93.985c0,2.774-.014,5.562,0,8.335a5.454,5.454,0,0,1-5.507,5.49q-44.406-.065-88.811.014a5.631,5.631,0,0,1-5.767-4.541Z" transform="translate(-16.245 -0.328)"/><path d="M57.7,108.217a6.4,6.4,0,0,1-6.476-5.145l-.014-.057V48.993l.014-.072a6.208,6.208,0,0,1,1.894-3.2c1.229-1.207,2.472-2.443,3.672-3.65,1.677-1.681,3.4-3.42,5.146-5.073,2.009-1.9,3.99-3.895,5.912-5.806,1.98-1.983,4.033-4.038,6.114-5.993,1.72-1.624,3.426-3.32,5.074-4.972C80.5,18.77,82,17.261,83.518,15.809c2.876-2.745,5.738-5.59,8.514-8.335,1.634-1.624,3.324-3.291,5-4.929l.216-.216A7.05,7.05,0,0,1,100.474.2a6.345,6.345,0,0,1,6.259,1.84c1.836,1.84,3.686,3.693,5.536,5.533C117.4,12.705,122.706,18.008,128,23.153c4.091,3.981,8.2,8.062,12.171,12.015,3.527,3.507,7.169,7.128,10.783,10.664a5.907,5.907,0,0,1,1.807,4.426v51.737a6.035,6.035,0,0,1-1.778,4.369,6.35,6.35,0,0,1-4.438,1.84h-.014c-34.3-.043-62.518-.043-88.825.014Zm-5.03-5.317a4.954,4.954,0,0,0,5.03,3.88h.014c26.279-.057,54.509-.057,88.811-.014a4.936,4.936,0,0,0,3.426-1.409,4.623,4.623,0,0,0,1.359-3.349c-.014-1.926,0-3.88,0-5.777V50.272a4.451,4.451,0,0,0-1.373-3.392c-3.614-3.535-7.271-7.171-10.8-10.678-3.975-3.952-8.08-8.034-12.157-12.015-5.3-5.145-10.61-10.462-15.742-15.593-1.85-1.84-3.686-3.693-5.536-5.533a4.853,4.853,0,0,0-4.9-1.466,5.776,5.776,0,0,0-2.544,1.753l-.216.216C96.383,5.2,94.692,6.87,93.059,8.494c-2.776,2.759-5.652,5.6-8.529,8.35-1.5,1.437-3.007,2.946-4.467,4.383-1.648,1.653-3.368,3.363-5.1,5-2.067,1.94-4.105,4-6.086,5.964-1.922,1.926-3.917,3.923-5.941,5.835C61.2,39.666,59.48,41.4,57.817,43.072c-1.2,1.207-2.443,2.457-3.686,3.665a4.929,4.929,0,0,0-1.474,2.414V102.9Z" transform="translate(-15.913 -0.002)"/><path class="a" d="M141.3,18.328a7.325,7.325,0,0,1,3.469,1.02,6.147,6.147,0,0,1,3.065,5.289q.043,35.612.014,71.21c0,.991,0,.991-1,.991H65.176c-.983,0-.983,0-.983-1.006V25.2a6.658,6.658,0,0,1,5.2-6.7c.448-.115.925.043,1.344-.172Z" transform="translate(-19.946 -5.696)"/><path d="M107.607,97.226H64.85c-.607,0-1.041,0-1.373-.345-.333-.33-.333-.747-.333-1.379V24.866a7.376,7.376,0,0,1,5.753-7.4,2.774,2.774,0,0,1,.737-.072,1.065,1.065,0,0,0,.463-.057l.145-.072h70.771a8.141,8.141,0,0,1,3.8,1.135,6.881,6.881,0,0,1,3.382,5.892c.014,18.913.014,38.156.014,56.753V95.5a1.808,1.808,0,0,1-.332,1.379c-.333.345-.781.345-1.388.345Zm-43-1.437h82.205V81.059c0-18.6,0-37.84-.014-56.753a5.452,5.452,0,0,0-2.732-4.685,6.686,6.686,0,0,0-3.107-.905H70.574a3.156,3.156,0,0,1-.911.129,1.663,1.663,0,0,0-.4.029A6,6,0,0,0,64.6,24.88V95.789Z" transform="translate(-19.62 -5.366)"/><path class="a" d="M134.061,52.022a16.439,16.439,0,0,1-1.836,6.05,16.187,16.187,0,0,1-12.257,8.637,16.006,16.006,0,0,1-9.888-1.437,16.394,16.394,0,0,1-8.745-10.3,15.107,15.107,0,0,1-.68-4.929,16.724,16.724,0,0,1,18.473-16.3,15.931,15.931,0,0,1,9.28,4,16.594,16.594,0,0,1,5.522,9.7,4.316,4.316,0,0,0,.144,1.135C134.061,49.723,134.061,50.872,134.061,52.022Z" transform="translate(-31.272 -10.462)"/><path d="M116.808,67.326a16.184,16.184,0,0,1-7.386-1.725,17.119,17.119,0,0,1-9.107-10.735,15.731,15.731,0,0,1-.708-5.159A17.436,17.436,0,0,1,118.861,32.72a16.832,16.832,0,0,1,9.7,4.168,17.435,17.435,0,0,1,5.753,10.1,2.634,2.634,0,0,1,.043.561.914.914,0,0,0,.043.388l.072.144v3.693a17.291,17.291,0,0,1-14.7,15.334A21.169,21.169,0,0,1,116.808,67.326Zm.261-33.255a15.928,15.928,0,0,0-16.016,15.665,14.948,14.948,0,0,0,.65,4.7,15.708,15.708,0,0,0,8.384,9.859,16.217,16.217,0,0,0,21.19-6.913,15.092,15.092,0,0,0,1.749-5.749V48.371a2.529,2.529,0,0,1-.116-.819,2.112,2.112,0,0,0-.014-.316,15.7,15.7,0,0,0-5.29-9.284,15.375,15.375,0,0,0-8.876-3.823C118.167,34.1,117.6,34.071,117.069,34.071Z" transform="translate(-30.946 -10.144)"/><path class="a" d="M102.362,130.873c-14.932,0-29.864-.028-44.81.029a5.364,5.364,0,0,1-5.2-4.685c-.072-.934-.116-1.854-.116-2.788V76.808c0-.417-.217-1.006.159-1.207.4-.23.809.259,1.185.489q6.158,4.031,12.316,8.091,6.57,4.311,13.168,8.637,6.353,4.16,12.691,8.306c2.472,1.609,4.929,3.233,7.415,4.815a4.608,4.608,0,0,0,5.291-.115c4.22-2.687,8.427-5.418,12.634-8.12q8.868-5.692,17.721-11.382,6.635-4.247,13.256-8.479c1.228-.79,2.472-1.567,3.686-2.357.405-.259.622-.244.607.287v.575c0,16.4-.029,32.81.029,49.208a5.528,5.528,0,0,1-5.377,5.36C132.139,130.83,117.25,130.873,102.362,130.873Z" transform="translate(-16.21 -23.406)"/><path d="M146.716,131.274h-.028c-11.044-.057-22.261-.043-33.116-.043H90.848c-11.015,0-22.4-.014-33.622.028h-.014a6.072,6.072,0,0,1-5.912-5.346c-.072-.934-.116-1.882-.116-2.845V76.433a2.2,2.2,0,0,0-.029-.273,1.438,1.438,0,0,1,.535-1.566,1.5,1.5,0,0,1,1.735.359c.072.057.145.115.2.158l7.936,5.217c1.46.963,2.92,1.926,4.38,2.874q5.486,3.6,10.957,7.186l3.859,2.53q5.529,3.622,11.043,7.228l1.474.963c1.937,1.265,3.946,2.587,5.926,3.852a3.864,3.864,0,0,0,4.51-.115c2.834-1.8,5.7-3.65,8.471-5.432,1.388-.891,2.775-1.8,4.163-2.687,5.334-3.42,11.535-7.416,17.722-11.382q4.9-3.147,9.8-6.266l3.455-2.213c.4-.259.824-.517,1.229-.79.809-.517,1.648-1.049,2.457-1.581a1.2,1.2,0,0,1,1.228-.172,1.093,1.093,0,0,1,.491,1.092V88.39c0,12.058-.014,24.518.029,36.776a6.062,6.062,0,0,1-1.85,4.268A5.857,5.857,0,0,1,146.716,131.274Zm-21.667-1.48c7.2,0,14.469.014,21.654.043h.014a4.808,4.808,0,0,0,4.626-4.627c-.043-12.259-.043-24.733-.029-36.791V76.06c-.65.417-1.315.834-1.951,1.25-.4.259-.824.517-1.228.776L144.679,80.3c-3.267,2.084-6.534,4.182-9.8,6.266-6.186,3.967-12.388,7.947-17.721,11.382-1.388.891-2.776,1.782-4.163,2.687-2.776,1.782-5.638,3.636-8.471,5.432a5.36,5.36,0,0,1-6.071.115c-1.995-1.265-4-2.587-5.941-3.865l-1.474-.963q-5.529-3.622-11.044-7.229L76.148,91.6q-5.486-3.6-10.957-7.186l-4.38-2.889c-2.6-1.71-5.29-3.478-7.936-5.2-.087-.057-.159-.115-.231-.172a1.912,1.912,0,0,1,.014.287c-.014,14.573-.014,29.821,0,46.621,0,.92.043,1.84.116,2.731a4.643,4.643,0,0,0,4.467,4.024h.014c11.2-.029,22.607-.029,33.622-.029H113.6C117.358,129.794,121.189,129.794,125.049,129.794Z" transform="translate(-15.885 -23.06)"/><path class="b" d="M116.849,61.968a1.8,1.8,0,0,1-1.1-.46q-2.927-2.867-5.883-5.705a1.713,1.713,0,0,1-.622-1.6,1.559,1.559,0,0,1,2.617-.719c.651.6,1.258,1.25,1.893,1.868.911.877,1.851,1.725,2.761,2.616.3.3.506.244.766-.043.593-.618,1.215-1.222,1.836-1.825q4.488-4.4,9.005-8.81a1.613,1.613,0,0,1,2.139-.23,1.531,1.531,0,0,1,.116,2.242,28.281,28.281,0,0,1-2.978,2.9,6.653,6.653,0,0,0-.578.532c-2.833,2.8-5.652,5.619-8.471,8.422A2.21,2.21,0,0,1,116.849,61.968Z" transform="translate(-33.936 -14.529)"/><path class="c" d="M9.622,139.448c-.058-.446.231-.747.622-.992,3.4-2.055,6.808-4.11,10.205-6.166,1.619-.977,3.238-1.969,4.857-2.946.723-.431,1.388-.388,1.735.13.376.589.159,1.279-.593,1.739q-7.2,4.354-14.4,8.68a7.555,7.555,0,0,1-.983.575C10.229,140.813,9.622,140.382,9.622,139.448Z" transform="translate(-2.988 -40.1)"/><path class="c" d="M205.906,130.217a1.029,1.029,0,0,1,1.648-.977c2.92,1.739,5.826,3.493,8.746,5.261l6.331,3.837c.376.23.766.46.838.92a1.006,1.006,0,0,1-.332,1.106,1.111,1.111,0,0,1-1.344.014l-4.423-2.673q-5.356-3.233-10.682-6.481C206.282,130.964,205.776,130.749,205.906,130.217Z" transform="translate(-63.973 -40.095)"/><path class="c" d="M26.055,96.458c-.607.086-1-.3-1.417-.531q-7.35-4.161-14.672-8.35c-.752-.431-.968-1.035-.607-1.638.3-.517.954-.632,1.662-.244,2.472,1.38,4.915,2.788,7.372,4.182,2.559,1.452,5.117,2.917,7.676,4.369a3.414,3.414,0,0,1,.694.5,1.015,1.015,0,0,1,.231,1.193A.8.8,0,0,1,26.055,96.458Z" transform="translate(-2.855 -26.557)"/><path class="c" d="M206.932,96.461a.854.854,0,0,1-.968-.589,1.041,1.041,0,0,1,.4-1.322c1.07-.632,2.154-1.265,3.224-1.883,3.6-2.055,7.2-4.1,10.8-6.151.578-.331,1.171-.661,1.778-.949a1.059,1.059,0,0,1,1.489.417,1.121,1.121,0,0,1-.549,1.509q-7.242,4.117-14.5,8.221A3.62,3.62,0,0,1,206.932,96.461Z" transform="translate(-63.973 -26.545)"/><path class="c" d="M221.833,116.124H213.1c-1,0-1.315-.258-1.315-1.006,0-.776.376-1.092,1.344-1.092,4.308-.014,8.615,0,12.923,0h4.7a1.075,1.075,0,0,1,1.055.618,1.008,1.008,0,0,1-.087,1.078c-.26.417-.664.4-1.084.4Z" transform="translate(-65.807 -35.43)"/><path class="c" d="M10.147,116.127H1.33c-.94,0-1.33-.3-1.33-1.035,0-.618.535-1.064,1.359-1.064H18.777a1.582,1.582,0,0,1,.766.144.989.989,0,0,1,.593,1.178.935.935,0,0,1-1.026.791C16.117,116.113,13.139,116.127,10.147,116.127Z" transform="translate(0 -35.433)"/><path class="a" d="M56.536,138.691a5.436,5.436,0,0,1-4.018-4.427,4.443,4.443,0,0,1,.477-2.27c1.055-2.975,3.238-4.9,5.9-6.482,4.308-2.543,8.557-5.2,12.822-7.818q5.833-3.557,11.651-7.129c4-2.457,7.993-4.915,12.012-7.344,1.59-.963,3.065-2.17,4.943-2.587a8.794,8.794,0,0,1,6.78,1.078c6.374,3.952,12.763,7.861,19.152,11.8,4.669,2.874,9.324,5.777,13.992,8.651,2.328,1.437,4.684,2.817,6.982,4.3a11.113,11.113,0,0,1,5.044,8.221,2.9,2.9,0,0,1-.983,2.227,5.361,5.361,0,0,1-2.8,1.8Q102.5,138.684,56.536,138.691Z" transform="translate(-16.308 -31.194)"/><path d="M148.252,139.078H56.117l-.1-.029a6.125,6.125,0,0,1-4.51-4.972,4.316,4.316,0,0,1,.376-2.314,3.014,3.014,0,0,0,.116-.331c.983-2.788,2.905-4.9,6.2-6.855,3.05-1.811,6.129-3.693,9.107-5.533,1.243-.762,2.472-1.523,3.715-2.285l6.678-4.1,4.958-3.032c1.113-.675,2.212-1.351,3.325-2.041,2.847-1.753,5.8-3.55,8.7-5.317.361-.216.737-.46,1.1-.7a12.285,12.285,0,0,1,4.061-1.983,9.523,9.523,0,0,1,7.315,1.164c3.859,2.4,7.805,4.814,11.622,7.157q3.773,2.307,7.531,4.642,3.88,2.392,7.762,4.8,3.122,1.941,6.23,3.852c.838.518,1.676,1.035,2.5,1.523,1.474.891,3.007,1.825,4.481,2.774a11.785,11.785,0,0,1,5.363,8.723,3.5,3.5,0,0,1-1.084,2.716l-.058.072a6.107,6.107,0,0,1-3.165,2.026Zm-91.919-1.437H148.05a4.661,4.661,0,0,0,2.341-1.524l.058-.072c.535-.647.853-1.078.766-1.609a10.245,10.245,0,0,0-4.713-7.7c-1.46-.934-2.978-1.853-4.452-2.745-.824-.5-1.677-1.02-2.515-1.538-2.082-1.279-4.163-2.572-6.23-3.852-2.588-1.595-5.175-3.2-7.763-4.8-2.515-1.552-5.016-3.09-7.531-4.642-3.816-2.343-7.747-4.771-11.622-7.157a8.033,8.033,0,0,0-6.23-.992,11.156,11.156,0,0,0-3.585,1.782c-.376.245-.751.489-1.142.719-2.905,1.754-5.854,3.564-8.687,5.3-1.113.675-2.212,1.365-3.325,2.04l-4.958,3.033-6.678,4.1c-1.243.762-2.472,1.523-3.715,2.285-2.978,1.84-6.057,3.737-9.121,5.547-2.992,1.768-4.712,3.65-5.58,6.093l-.13.345a3.027,3.027,0,0,0-.318,1.552A4.676,4.676,0,0,0,56.333,137.641Z" transform="translate(-15.99 -30.862)"/></g></g></svg>