<svg xmlns="http://www.w3.org/2000/svg" xmlns:xlink="http://www.w3.org/1999/xlink" width="118" height="118" viewBox="0 0 118 118"><defs><style>.a{fill:#fff;}.b{fill:#81b621;}.c{filter:url(#a);}</style><filter id="a" x="0" y="0" width="118" height="118" filterUnits="userSpaceOnUse"><feOffset dx="-1" dy="2" input="SourceAlpha"/><feGaussianBlur stdDeviation="3" result="b"/><feFlood flood-opacity="0.161"/><feComposite operator="in" in2="b"/><feComposite in="SourceGraphic"/></filter></defs><g transform="translate(-623 -319)"><g class="c" transform="matrix(1, 0, 0, 1, 623, 319)"><circle class="a" cx="50" cy="50" r="50" transform="translate(10 7)"/></g><path class="b" d="M34.393,59.328a1.408,1.408,0,0,0-1.971,2.011ZM46.682,73.341,45.7,74.347a1.408,1.408,0,0,0,1.809.136ZM80.691,50.55a1.408,1.408,0,0,0-1.647-2.284ZM32.423,61.34,45.7,74.347l1.971-2.011L34.393,59.328ZM47.505,74.483,80.691,50.55l-1.647-2.284L45.858,72.2Z" transform="translate(626 315)"/></g></svg>