<svg height='100px' width='100px'  fill="#000000" xmlns="http://www.w3.org/2000/svg" xmlns:xlink="http://www.w3.org/1999/xlink" version="1.1" x="0px" y="0px" viewBox="0 0 66 66" enable-background="new 0 0 66 66" xml:space="preserve"><g><path d="M44.4,27.2l-3.9,11.6c-0.1,0.3-0.4,0.5-0.7,0.5H26.2c-0.3,0-0.6-0.2-0.7-0.5l-3.9-11.6H44.4z"></path><path d="M44.4,21.8v3.9H21.7v-3.9c0-0.4,0.3-0.8,0.8-0.8h21.2C44,21,44.4,21.3,44.4,21.8z"></path><g><g><path d="M43.1,10.2c0,2.3-0.9,4.4-2.5,6c-1.6,1.6-3.7,2.5-6,2.5c-0.4,0-0.8-0.3-0.8-0.8c0-4.7,3.8-8.5,8.5-8.5     C42.8,9.5,43.1,9.8,43.1,10.2z"></path><path d="M36,6.8c0,2.3-0.9,4.4-2.5,6C33.4,13,33.2,13,33,13c-0.2,0-0.4-0.1-0.5-0.2c-1.6-1.6-2.5-3.7-2.5-6c0-2.3,0.9-4.4,2.5-6     c0.3-0.3,0.8-0.3,1.1,0C35.1,2.5,36,4.6,36,6.8z"></path><path d="M32.1,17.9c0,0.4-0.3,0.8-0.8,0.8c-2.3,0-4.4-0.9-6-2.5c-1.6-1.6-2.5-3.7-2.5-6c0-0.4,0.3-0.8,0.8-0.8     C28.3,9.5,32.1,13.3,32.1,17.9z"></path></g></g><path d="M53.1,52.4H37.2c-0.4,0-0.8,0.3-0.8,0.8v11.5c0,0.4,0.3,0.8,0.8,0.8h15.9c0.4,0,0.8-0.3,0.8-0.8V53.1   C53.8,52.7,53.5,52.4,53.1,52.4z M42.9,61.3c-1.1,0-2.1-0.9-2.1-2.1c0-1.1,0.9-2.1,2.1-2.1c1.1,0,2.1,0.9,2.1,2.1   C44.9,60.3,44,61.3,42.9,61.3z"></path><path d="M64.8,25.9v11.3c0,0.6-0.2,1.1-0.6,1.5L53.7,51c-0.2,0-0.4-0.1-0.6-0.1H38.3v-1.8c0-1,0.4-2,1.1-2.7l10.9-10.9   c2.5-2.5,7.5,0.3,4.8,3.4l-1.9,2.1C53,41.2,53,41.7,53.3,42c0.3,0.3,0.8,0.2,1.1-0.1l1.9-2.1c2.5-2.8,1.6-11,1.8-13.9   c0-1.8,1.5-3.4,3.4-3.4C63.3,22.6,64.8,24.1,64.8,25.9z"></path><path d="M12.2,53.1v11.5c0,0.4,0.3,0.8,0.8,0.8h15.9c0.4,0,0.8-0.3,0.8-0.8V53.1c0-0.4-0.3-0.8-0.8-0.8H12.9   C12.5,52.4,12.2,52.7,12.2,53.1z M21.1,59.2c0-1.1,0.9-2.1,2.1-2.1c1.1,0,2.1,0.9,2.1,2.1c0,1.1-0.9,2.1-2.1,2.1   C22,61.3,21.1,60.3,21.1,59.2z"></path><path d="M1.2,25.9v11.3c0,0.6,0.2,1.1,0.6,1.5L12.3,51c0.2,0,0.4-0.1,0.6-0.1h14.8v-1.8c0-1-0.4-2-1.1-2.7L15.7,35.5   c-2.5-2.5-7.5,0.3-4.8,3.4l1.9,2.1c0.3,0.3,0.3,0.8-0.1,1.1c-0.3,0.3-0.8,0.2-1.1-0.1l-1.9-2.1c-2.5-2.8-1.6-11-1.8-13.9   c0-1.8-1.5-3.4-3.4-3.4C2.7,22.6,1.2,24.1,1.2,25.9z"></path></g></svg>