<svg height='100px' width='100px'  fill="#000000" xmlns:x="http://ns.adobe.com/Extensibility/1.0/" xmlns:i="http://ns.adobe.com/AdobeIllustrator/10.0/" xmlns:graph="http://ns.adobe.com/Graphs/1.0/" xmlns="http://www.w3.org/2000/svg" xmlns:xlink="http://www.w3.org/1999/xlink" version="1.1" x="0px" y="0px" viewBox="0 0 100 100" style="enable-background:new 0 0 100 100;" xml:space="preserve"><g><g i:extraneous="self"><g><circle cx="18.7" cy="50" r="16.2"></circle><path d="M61.3,40.7c-1.1-1.1-2.8-1.1-3.8,0s-1.1,2.8,0,3.8l2.8,2.8H44.1c-1.5,0-2.7,1.2-2.7,2.7s1.2,2.7,2.7,2.7h16.2l-2.8,2.8     c-1.1,1.1-1.1,2.8,0,3.8c0.5,0.5,1.2,0.8,1.9,0.8c0.7,0,1.4-0.3,1.9-0.8l7.4-7.4c1-1.1,1-2.8,0-3.8L61.3,40.7z"></path><circle cx="86.8" cy="50" r="10.7"></circle></g></g></g></svg>