<svg xmlns="http://www.w3.org/2000/svg" xmlns:xlink="http://www.w3.org/1999/xlink" width="100" height="100" viewBox="0 0 100 100"><svg viewBox="0 0 99.999997 99.999997"><g transform="translate(-149.6453,-589.21878)"><path d="m 199.64552,591.21879 a 48.000099,48.000099 0 0 0 -48.00022,48.00022 48.000099,48.000099 0 0 0 48.00022,47.99977 48.000099,48.000099 0 0 0 47.99977,-47.99977 48.000099,48.000099 0 0 0 -47.99977,-48.00022 z m 0,5.42088 a 42.107528,42.578935 0 0 1 42.10718,42.57934 42.107528,42.578935 0 0 1 -42.10718,42.57887 42.107528,42.578935 0 0 1 -42.10763,-42.57887 42.107528,42.578935 0 0 1 42.10763,-42.57934 z" fill="#000000"></path></g></svg><g transform="translate(50 50) scale(0.69 0.69) rotate(0) translate(-50 -50)" style="fill:#000000"><svg fill="#000000" xmlns="http://www.w3.org/2000/svg" data-name="Layer 1" viewBox="0 0 100 100" x="0px" y="0px"><title>Artboard 24</title><path d="M84.68,43.09c0,.67,0,1.34,0,2,0,.33,0,.66,0,1a1.89,1.89,0,0,1-2,2.06l-1.73,0H79.47A2,2,0,0,1,77.41,46l0-2.17a4.36,4.36,0,0,0-.08-1,4.86,4.86,0,0,0-.94-.2,20.93,20.93,0,0,1-5.87-1.69c-1.7-.82-2-1.5-1.51-3.31.3-1.11.61-2.21,1-3.31.18-.57.51-1.64,1.56-1.64a2.87,2.87,0,0,1,1.31.42,17.58,17.58,0,0,0,6.06,1.81,7.18,7.18,0,0,0,3.77-.49,2.53,2.53,0,0,0,.6-4.48,9.25,9.25,0,0,0-2.19-1.28c-.66-.29-1.33-.56-2-.83a31.4,31.4,0,0,1-4.52-2.1c-3.93-2.35-5.72-5.41-5.48-9.34.28-4.6,2.79-7.8,7.46-9.5,1.28-.47,1.28-.47,1.28-1.75V4.5c0-.4,0-.8,0-1.2,0-1.73.56-2.24,2.27-2.29h1.62c3,0,3.21.49,3.23,3.55,0,1.46,0,1.46,1.45,1.68A18.52,18.52,0,0,1,91,7.62a2,2,0,0,1,1.23,2.55L92,11.23c-.25.9-.51,1.79-.8,2.68-.22.67-.65,2.24-2.81,1.2a13.55,13.55,0,0,0-6.74-1.34A4.61,4.61,0,0,0,80,14.1a2.2,2.2,0,0,0-1.42,1.67,2.14,2.14,0,0,0,.91,1.93,11.78,11.78,0,0,0,2.9,1.63l.66.27a48,48,0,0,1,5,2.29,11.2,11.2,0,0,1,5.67,7.67,10.48,10.48,0,0,1-2.23,8.64A11.42,11.42,0,0,1,85.53,42C84.84,42.19,84.65,42.44,84.68,43.09Zm5.53,11.28a2.29,2.29,0,0,0-4.07.18l-.82,1.79-.13.28L57.94,46.45a3.22,3.22,0,0,0-2.68,5.83l25.48,14-.13.28-.82,1.79a2.29,2.29,0,0,0,2.52,3.2L95.13,69.1a2.29,2.29,0,0,0,1.55-3.39ZM19,5.31a9.19,9.19,0,1,0,9.19,9.19A9.19,9.19,0,0,0,19,5.31ZM8.72,94.64a4.36,4.36,0,0,0,8.73,0V69.22a1.66,1.66,0,0,1,1.33-1.66,1.6,1.6,0,0,1,1.87,1.58v25.5a4.36,4.36,0,1,0,8.72,0V37.73l8.18,6.75a4.11,4.11,0,0,0,5.16.06L54.79,35a4.22,4.22,0,0,0,1.1-5.47,4.11,4.11,0,0,0-6.05-1.09L40.22,36l-9.66-8A4.09,4.09,0,0,0,28,27.12H10.09A7.08,7.08,0,0,0,3,34.19V52a7.08,7.08,0,0,0,5.71,6.94Zm81-18H83.36a3.27,3.27,0,0,0-3.27,3.27V95.74A3.26,3.26,0,0,0,83.35,99h6.33a3.26,3.26,0,0,0,3.26-3.26V79.87A3.27,3.27,0,0,0,89.68,76.61ZM70.76,68.36H64.44a3.27,3.27,0,0,0-3.27,3.27V95.74A3.26,3.26,0,0,0,64.43,99h6.33A3.26,3.26,0,0,0,74,95.74V71.63A3.27,3.27,0,0,0,70.76,68.36ZM41.71,60V95.74A3.26,3.26,0,0,0,45,99H51.3a3.26,3.26,0,0,0,3.26-3.26V60a3.27,3.27,0,0,0-3.27-3.27H45A3.27,3.27,0,0,0,41.71,60Z"></path></svg></g></svg>