<svg height='100px' width='100px'  fill="#000000" xmlns:x="http://ns.adobe.com/Extensibility/1.0/" xmlns:i="http://ns.adobe.com/AdobeIllustrator/10.0/" xmlns:graph="http://ns.adobe.com/Graphs/1.0/" xmlns="http://www.w3.org/2000/svg" xmlns:xlink="http://www.w3.org/1999/xlink" version="1.1" x="0px" y="0px" viewBox="0 0 100 100" style="enable-background:new 0 0 100 100;" xml:space="preserve"><g><g i:extraneous="self"><g><path d="M5273.1,2400.1v-2c0-2.8-5-4-9.7-4s-9.7,1.3-9.7,4v2c0,1.8,0.7,3.6,2,4.9l5,4.9c0.3,0.3,0.4,0.6,0.4,1v6.4     c0,0.4,0.2,0.7,0.6,0.8l2.9,0.9c0.5,0.1,1-0.2,1-0.8v-7.2c0-0.4,0.2-0.7,0.4-1l5.1-5C5272.4,2403.7,5273.1,2401.9,5273.1,2400.1z      M5263.4,2400c-4.8,0-7.4-1.3-7.5-1.8v0c0.1-0.5,2.7-1.8,7.5-1.8c4.8,0,7.3,1.3,7.5,1.8C5270.7,2398.7,5268.2,2400,5263.4,2400z"></path><path d="M5268.4,2410.3c-0.6,0-1,0.4-1,1c0,0.6,0.4,1,1,1h4.3c0.6,0,1-0.4,1-1c0-0.6-0.4-1-1-1H5268.4z"></path><path d="M5272.7,2413.7h-4.3c-0.6,0-1,0.4-1,1c0,0.6,0.4,1,1,1h4.3c0.6,0,1-0.4,1-1C5273.7,2414.1,5273.3,2413.7,5272.7,2413.7z"></path><path d="M5272.7,2417h-4.3c-0.6,0-1,0.4-1,1c0,0.6,0.4,1,1,1h4.3c0.6,0,1-0.4,1-1C5273.7,2417.5,5273.3,2417,5272.7,2417z"></path></g><g><path d="M38.1,11.8h-3c-2.2,0-4,1.6-4.3,3.8l-0.4,3.5c-0.1,0.5,0.2,0.9,0.7,1c0.6,0.1,1.3,0.2,2,0.3l0.5,8.3     c0,0.7,0.6,1.2,1.2,1.2h3.8c0.7,0,1.2-0.5,1.2-1.2l0.5-8.3c0.7-0.1,1.3-0.2,2-0.3c0.5-0.1,0.7-0.5,0.7-1l-0.4-3.5     C42.1,13.4,40.3,11.8,38.1,11.8z"></path><circle cx="36.6" cy="6.6" r="4.1"></circle><path d="M65,11.8h-3c-2.2,0-4,1.6-4.3,3.8l-0.4,3.5c-0.1,0.5,0.2,0.9,0.7,1c0.6,0.1,1.3,0.2,2,0.3l0.5,8.3c0,0.7,0.6,1.2,1.2,1.2     h3.8c0.7,0,1.2-0.5,1.2-1.2l0.5-8.3c0.7-0.1,1.3-0.2,2-0.3c0.5-0.1,0.7-0.5,0.7-1l-0.4-3.5C69,13.4,67.2,11.8,65,11.8z"></path><circle cx="63.4" cy="6.6" r="4.1"></circle><path d="M24.6,28.7h-3c-2.2,0-4,1.6-4.3,3.8l-0.4,3.5c-0.1,0.5,0.2,0.9,0.7,1c0.6,0.1,1.3,0.2,2,0.3l0.5,8.3     c0,0.7,0.6,1.2,1.2,1.2H25c0.7,0,1.2-0.5,1.2-1.2l0.5-8.3c0.7-0.1,1.3-0.2,2-0.3c0.5-0.1,0.7-0.5,0.7-1L29,32.5     C28.7,30.3,26.8,28.7,24.6,28.7z"></path><circle cx="23.1" cy="23.5" r="4.1"></circle><path d="M51.5,28.7h-3c-2.2,0-4,1.6-4.3,3.8l-0.4,3.5c-0.1,0.5,0.2,0.9,0.7,1c0.6,0.1,1.3,0.2,2,0.3l0.5,8.3     c0,0.7,0.6,1.2,1.2,1.2h3.8c0.7,0,1.2-0.5,1.2-1.2l0.5-8.3c0.7-0.1,1.3-0.2,2-0.3c0.5-0.1,0.7-0.5,0.7-1l-0.4-3.5     C55.6,30.3,53.7,28.7,51.5,28.7z"></path><circle cx="50" cy="23.5" r="4.1"></circle><path d="M78.4,28.7h-3c-2.2,0-4,1.6-4.3,3.8l-0.4,3.5c-0.1,0.5,0.2,0.9,0.7,1c0.6,0.1,1.3,0.2,2,0.3l0.5,8.3     c0,0.7,0.6,1.2,1.2,1.2h3.8c0.7,0,1.2-0.5,1.2-1.2l0.5-8.3c0.7-0.1,1.3-0.2,2-0.3c0.5-0.1,0.7-0.5,0.7-1l-0.4-3.5     C82.5,30.3,80.6,28.7,78.4,28.7z"></path><circle cx="76.9" cy="23.5" r="4.1"></circle><path d="M11.2,45.6h-3c-2.2,0-4,1.6-4.3,3.8L3.4,53c-0.1,0.5,0.2,0.9,0.7,1c0.6,0.1,1.3,0.2,2,0.3l0.5,8.3c0,0.7,0.6,1.2,1.2,1.2     h3.8c0.7,0,1.2-0.5,1.2-1.2l0.5-8.3c0.7-0.1,1.3-0.2,2-0.3c0.5-0.1,0.7-0.5,0.7-1l-0.4-3.5C15.3,47.2,13.4,45.6,11.2,45.6z"></path><circle cx="9.7" cy="40.4" r="4.1"></circle><path d="M38.1,45.6h-3c-2.2,0-4,1.6-4.3,3.8L30.3,53c-0.1,0.5,0.2,0.9,0.7,1c0.6,0.1,1.3,0.2,2,0.3l0.5,8.3     c0,0.7,0.6,1.2,1.2,1.2h3.8c0.7,0,1.2-0.5,1.2-1.2l0.5-8.3c0.7-0.1,1.3-0.2,2-0.3c0.5-0.1,0.7-0.5,0.7-1l-0.4-3.5     C42.1,47.2,40.3,45.6,38.1,45.6z"></path><circle cx="36.6" cy="40.4" r="4.1"></circle><path d="M65,45.6h-3c-2.2,0-4,1.6-4.3,3.8L57.2,53c-0.1,0.5,0.2,0.9,0.7,1c0.6,0.1,1.3,0.2,2,0.3l0.5,8.3c0,0.7,0.6,1.2,1.2,1.2     h3.8c0.7,0,1.2-0.5,1.2-1.2l0.5-8.3c0.7-0.1,1.3-0.2,2-0.3c0.5-0.1,0.7-0.5,0.7-1l-0.4-3.5C69,47.2,67.2,45.6,65,45.6z"></path><circle cx="63.4" cy="40.4" r="4.1"></circle><path d="M96.1,49.4c-0.3-2.2-2.1-3.8-4.3-3.8h-3c-2.2,0-4,1.6-4.3,3.8L84.1,53c-0.1,0.5,0.2,0.9,0.7,1c0.6,0.1,1.3,0.2,2,0.3     l0.5,8.3c0,0.7,0.6,1.2,1.2,1.2h3.8c0.7,0,1.2-0.5,1.2-1.2l0.5-8.3c0.7-0.1,1.3-0.2,2-0.3c0.5-0.1,0.7-0.5,0.7-1L96.1,49.4z"></path><circle cx="90.3" cy="40.4" r="4.1"></circle><path d="M24.6,62.5h-3c-2.2,0-4,1.6-4.3,3.8l-0.4,3.5c-0.1,0.5,0.2,0.9,0.7,1c0.6,0.1,1.3,0.2,2,0.3l0.5,8.3     c0,0.7,0.6,1.2,1.2,1.2H25c0.7,0,1.2-0.5,1.2-1.2l0.5-8.3c0.7-0.1,1.3-0.2,2-0.3c0.5-0.1,0.7-0.5,0.7-1L29,66.3     C28.7,64.1,26.8,62.5,24.6,62.5z"></path><circle cx="23.1" cy="57.3" r="4.1"></circle><path d="M51.5,62.5h-3c-2.2,0-4,1.6-4.3,3.8l-0.4,3.5c-0.1,0.5,0.2,0.9,0.7,1c0.6,0.1,1.3,0.2,2,0.3l0.5,8.3     c0,0.7,0.6,1.2,1.2,1.2h3.8c0.7,0,1.2-0.5,1.2-1.2l0.5-8.3c0.7-0.1,1.3-0.2,2-0.3c0.5-0.1,0.7-0.5,0.7-1l-0.4-3.5     C55.6,64.1,53.7,62.5,51.5,62.5z"></path><circle cx="50" cy="57.3" r="4.1"></circle><path d="M78.4,62.5h-3c-2.2,0-4,1.6-4.3,3.8l-0.4,3.5c-0.1,0.5,0.2,0.9,0.7,1c0.6,0.1,1.3,0.2,2,0.3l0.5,8.3     c0,0.7,0.6,1.2,1.2,1.2h3.8c0.7,0,1.2-0.5,1.2-1.2l0.5-8.3c0.7-0.1,1.3-0.2,2-0.3c0.5-0.1,0.7-0.5,0.7-1l-0.4-3.5     C82.5,64.1,80.6,62.5,78.4,62.5z"></path><circle cx="76.9" cy="57.3" r="4.1"></circle><path d="M38.1,79.4h-3c-2.2,0-4,1.6-4.3,3.8l-0.4,3.5c-0.1,0.5,0.2,0.9,0.7,1c0.6,0.1,1.3,0.2,2,0.3l0.5,8.3     c0,0.7,0.6,1.2,1.2,1.2h3.8c0.7,0,1.2-0.5,1.2-1.2l0.5-8.3c0.7-0.1,1.3-0.2,2-0.3c0.5-0.1,0.7-0.5,0.7-1l-0.4-3.5     C42.1,81,40.3,79.4,38.1,79.4z"></path><circle cx="36.6" cy="74.2" r="4.1"></circle><path d="M65,79.4h-3c-2.2,0-4,1.6-4.3,3.8l-0.4,3.5c-0.1,0.5,0.2,0.9,0.7,1c0.6,0.1,1.3,0.2,2,0.3l0.5,8.3c0,0.7,0.6,1.2,1.2,1.2     h3.8c0.7,0,1.2-0.5,1.2-1.2l0.5-8.3c0.7-0.1,1.3-0.2,2-0.3c0.5-0.1,0.7-0.5,0.7-1l-0.4-3.5C69,81,67.2,79.4,65,79.4z"></path><circle cx="63.4" cy="74.2" r="4.1"></circle></g></g></g></svg>