<svg height='100px' width='100px'  fill="#000000" xmlns="http://www.w3.org/2000/svg" xmlns:xlink="http://www.w3.org/1999/xlink" version="1.1" x="0px" y="0px" viewBox="0 0 26 26" style="enable-background:new 0 0 26 26;" xml:space="preserve"><g><path d="M13,0C5.82,0,0,5.82,0,13s5.82,13,13,13s13-5.82,13-13S20.18,0,13,0z M8,9c1.104,0,2,0.896,2,2c0,1.104-0.896,2-2,2   c-1.104,0-2-0.896-2-2C6,9.896,6.896,9,8,9z M18.585,20.778C18.508,20.665,16.67,18,13,18c-3.69,0-5.565,2.75-5.584,2.777   l-0.832-0.555C6.672,20.091,8.781,17,13,17c4.219,0,6.328,3.091,6.416,3.223L18.585,20.778z M18,13c-1.104,0-2-0.896-2-2   c0-1.104,0.896-2,2-2c1.104,0,2,0.896,2,2C20,12.104,19.104,13,18,13z"></path></g></svg>