<svg height='100px' width='100px'  fill="#000000" xmlns="http://www.w3.org/2000/svg" xmlns:xlink="http://www.w3.org/1999/xlink" version="1.1" x="0px" y="0px" viewBox="0 0 64 64" style="enable-background:new 0 0 64 64;" xml:space="preserve"><g><text transform="matrix(1 0 0 1 -170.7197 -117)"><tspan x="0" y="0" style="" font-family="&apos;Montserrat-Regular&apos;" font-size="10px">c</tspan><tspan x="6.95" y="0" style="" font-family="&apos;Montserrat-Regular&apos;" font-size="10px">ar</tspan><tspan x="-3.475" y="12" style="" font-family="&apos;Montserrat-Regular&apos;" font-size="10px">l</tspan><tspan x="1.765" y="12" style="" font-family="&apos;Montserrat-Regular&apos;" font-size="10px">o</tspan><tspan x="9.715" y="12" style="" font-family="&apos;Montserrat-Regular&apos;" font-size="10px">an</tspan></text><text transform="matrix(1 0 0 1 -96.6499 -117)"><tspan x="0" y="0" style="" font-family="&apos;Montserrat-Regular&apos;" font-size="10px">a</tspan><tspan x="7.09" y="0" style="" font-family="&apos;Montserrat-Regular&apos;" font-size="10px">c</tspan><tspan x="13.92" y="0" style="" font-family="&apos;Montserrat-Regular&apos;" font-size="10px">cep</tspan><tspan x="34.15" y="0" style="" font-family="&apos;Montserrat-Regular&apos;" font-size="10px">t</tspan><tspan x="39.15" y="0" style="" font-family="&apos;Montserrat-Regular&apos;" font-size="10px">able</tspan></text><text transform="matrix(1 0 0 1 -95.7998 -21)"><tspan x="0" y="0" style="" font-family="&apos;Montserrat-Regular&apos;" font-size="10px">m</tspan><tspan x="9.39" y="0" style="" font-family="&apos;Montserrat-Regular&apos;" font-size="10px">o</tspan><tspan x="17.4" y="0" style="" font-family="&apos;Montserrat-Regular&apos;" font-size="10px">ti</tspan><tspan x="26.03" y="0" style="" font-family="&apos;Montserrat-Regular&apos;" font-size="10px">v</tspan><tspan x="32.32" y="0" style="" font-family="&apos;Montserrat-Regular&apos;" font-size="10px">a</tspan><tspan x="38.91" y="0" style="" font-family="&apos;Montserrat-Regular&apos;" font-size="10px">tion</tspan></text><text transform="matrix(1 0 0 1 2.895 -117)"><tspan x="0" y="0" style="" font-family="&apos;Montserrat-Regular&apos;" font-size="10px">sign</tspan><tspan x="24.57" y="0" style="" font-family="&apos;Montserrat-Regular&apos;" font-size="10px">a</tspan><tspan x="31.16" y="0" style="" font-family="&apos;Montserrat-Regular&apos;" font-size="10px">ture</tspan></text><text transform="matrix(1 0 0 1 110.2451 -117)" style="" font-family="&apos;Montserrat-Regular&apos;" font-size="10px">check</text><text transform="matrix(1 0 0 1 195.4702 -117)"><tspan x="0" y="0" style="" font-family="&apos;Montserrat-Regular&apos;" font-size="10px">appr</tspan><tspan x="27.91" y="0" style="" font-family="&apos;Montserrat-Regular&apos;" font-size="10px">o</tspan><tspan x="35.94" y="0" style="" font-family="&apos;Montserrat-Regular&apos;" font-size="10px">ved</tspan></text><text transform="matrix(1 0 0 1 290.9204 -117)"><tspan x="0" y="0" style="" font-family="&apos;Montserrat-Regular&apos;" font-size="10px">c</tspan><tspan x="6.95" y="0" style="" font-family="&apos;Montserrat-Regular&apos;" font-size="10px">alcu</tspan><tspan x="34.06" y="0" style="" font-family="&apos;Montserrat-Regular&apos;" font-size="10px">l</tspan><tspan x="39.369" y="0" style="" font-family="&apos;Montserrat-Regular&apos;" font-size="10px">a</tspan><tspan x="45.959" y="0" style="" font-family="&apos;Montserrat-Regular&apos;" font-size="10px">te</tspan></text><text transform="matrix(1 0 0 1 -188.1699 -21)"><tspan x="0" y="0" style="" font-family="&apos;Montserrat-Regular&apos;" font-size="10px">s</tspan><tspan x="6.16" y="0" style="" font-family="&apos;Montserrat-Regular&apos;" font-size="10px">t</tspan><tspan x="11.16" y="0" style="" font-family="&apos;Montserrat-Regular&apos;" font-size="10px">an</tspan><tspan x="26.36" y="0" style="" font-family="&apos;Montserrat-Regular&apos;" font-size="10px">d</tspan><tspan x="34.02" y="0" style="" font-family="&apos;Montserrat-Regular&apos;" font-size="10px">ard</tspan></text><text transform="matrix(1 0 0 1 9.585 -21)"><tspan x="0" y="0" style="" font-family="&apos;Montserrat-Regular&apos;" font-size="10px">p</tspan><tspan x="6.3" y="0" style="" font-family="&apos;Montserrat-Regular&apos;" font-size="10px">a</tspan><tspan x="13.49" y="0" style="" font-family="&apos;Montserrat-Regular&apos;" font-size="10px">ssion</tspan></text><text transform="matrix(1 0 0 1 100.2305 -21)"><tspan x="0" y="0" style="" font-family="&apos;Montserrat-Regular&apos;" font-size="10px">c</tspan><tspan x="6.83" y="0" style="" font-family="&apos;Montserrat-Regular&apos;" font-size="10px">ontr</tspan><tspan x="35.79" y="0" style="" font-family="&apos;Montserrat-Regular&apos;" font-size="10px">a</tspan><tspan x="42.88" y="0" style="" font-family="&apos;Montserrat-Regular&apos;" font-size="10px">ct</tspan></text><text transform="matrix(1 0 0 1 198.4253 -21)"><tspan x="0" y="0" style="" font-family="&apos;Montserrat-Regular&apos;" font-size="10px">w</tspan><tspan x="10.32" y="0" style="" font-family="&apos;Montserrat-Regular&apos;" font-size="10px">orking</tspan><tspan x="9.255" y="12" style="" font-family="&apos;Montserrat-Regular&apos;" font-size="10px">r</tspan><tspan x="16.485" y="12" style="" font-family="&apos;Montserrat-Regular&apos;" font-size="10px">o</tspan><tspan x="24.385" y="12" style="" font-family="&apos;Montserrat-Regular&apos;" font-size="10px">om</tspan></text><text transform="matrix(1 0 0 1 296.9653 -21)"><tspan x="0" y="0" style="" font-family="&apos;Montserrat-Regular&apos;" font-size="10px">re</tspan><tspan x="13.76" y="0" style="" font-family="&apos;Montserrat-Regular&apos;" font-size="10px">w</tspan><tspan x="23.75" y="0" style="" font-family="&apos;Montserrat-Regular&apos;" font-size="10px">ard</tspan></text><text transform="matrix(1 0 0 1 -197.4497 75)" style="" font-family="&apos;Montserrat-Regular&apos;" font-size="10px">appointment</text><text transform="matrix(1 0 0 1 -71.4951 75)"><tspan x="0" y="0" style="" font-family="&apos;Montserrat-Regular&apos;" font-size="10px">Q</tspan><tspan x="8" y="0" style="" font-family="&apos;Montserrat-Regular&apos;" font-size="10px">C</tspan></text><text transform="matrix(1 0 0 1 14.4004 75)" style="" font-family="&apos;Montserrat-Regular&apos;" font-size="10px">trend</text><text transform="matrix(1 0 0 1 103.4653 75)"><tspan x="0" y="0" style="" font-family="&apos;Montserrat-Regular&apos;" font-size="10px">risk and</tspan><tspan x="1.5" y="12" style="" font-family="&apos;Montserrat-Regular&apos;" font-size="10px">re</tspan><tspan x="15.26" y="12" style="" font-family="&apos;Montserrat-Regular&apos;" font-size="10px">w</tspan><tspan x="25.25" y="12" style="" font-family="&apos;Montserrat-Regular&apos;" font-size="10px">ard</tspan></text><text transform="matrix(1 0 0 1 199.5405 75)"><tspan x="0" y="0" style="" font-family="&apos;Montserrat-Regular&apos;" font-size="10px">p</tspan><tspan x="6.71" y="0" style="" font-family="&apos;Montserrat-Regular&apos;" font-size="10px">l</tspan><tspan x="12.02" y="0" style="" font-family="&apos;Montserrat-Regular&apos;" font-size="10px">anner</tspan></text><text transform="matrix(1 0 0 1 295.6504 75)"><tspan x="0" y="0" style="" font-family="&apos;Montserrat-Regular&apos;" font-size="10px">c</tspan><tspan x="6.83" y="0" style="" font-family="&apos;Montserrat-Regular&apos;" font-size="10px">ontent</tspan><tspan x="-6.43" y="12" style="" font-family="&apos;Montserrat-Regular&apos;" font-size="10px">marketing</tspan></text><text transform="matrix(1 0 0 1 -172.2749 171)"><tspan x="0" y="0" style="" font-family="&apos;Montserrat-Regular&apos;" font-size="10px">time</tspan><tspan x="-25.35" y="12" style="" font-family="&apos;Montserrat-Regular&apos;" font-size="10px">man</tspan><tspan x="-0.76" y="12" style="" font-family="&apos;Montserrat-Regular&apos;" font-size="10px">a</tspan><tspan x="6.33" y="12" style="" font-family="&apos;Montserrat-Regular&apos;" font-size="10px">gement</tspan></text><text transform="matrix(1 0 0 1 -76.4248 171)" style="" font-family="&apos;Montserrat-Regular&apos;" font-size="10px">mail</text><text transform="matrix(1 0 0 1 7.2705 171)" style="" font-family="&apos;Montserrat-Regular&apos;" font-size="10px">security</text><text transform="matrix(1 0 0 1 108.8604 171)"><tspan x="0" y="0" style="" font-family="&apos;Montserrat-Regular&apos;" font-size="10px">money</tspan><tspan x="-7.71" y="12" style="" font-family="&apos;Montserrat-Regular&apos;" font-size="10px">transfer</tspan></text><text transform="matrix(1 0 0 1 200.585 171)"><tspan x="0" y="0" style="" font-family="&apos;Montserrat-Regular&apos;" font-size="10px">gr</tspan><tspan x="14.74" y="0" style="" font-family="&apos;Montserrat-Regular&apos;" font-size="10px">o</tspan><tspan x="22.77" y="0" style="" font-family="&apos;Montserrat-Regular&apos;" font-size="10px">wth</tspan></text><text transform="matrix(1 0 0 1 298.4253 171)"><tspan x="0" y="0" style="" font-family="&apos;Montserrat-Regular&apos;" font-size="10px">market</tspan><tspan x="-6.355" y="12" style="" font-family="&apos;Montserrat-Regular&apos;" font-size="10px">research</tspan></text><text transform="matrix(1 0 0 1 -199.0547 267)" style="" font-family="&apos;Montserrat-Regular&apos;" font-size="10px">professional</text><text transform="matrix(1 0 0 1 -74.8047 267)" style="" font-family="&apos;Montserrat-Regular&apos;" font-size="10px">R&amp;D</text><text transform="matrix(1 0 0 1 16.5 267)"><tspan x="0" y="0" style="" font-family="&apos;Montserrat-Regular&apos;" font-size="10px">s</tspan><tspan x="6.09" y="0" style="" font-family="&apos;Montserrat-Regular&apos;" font-size="10px">afty</tspan></text><text transform="matrix(1 0 0 1 102.2251 267)"><tspan x="0" y="0" style="" font-family="&apos;Montserrat-Regular&apos;" font-size="10px">l</tspan><tspan x="5.24" y="0" style="" font-family="&apos;Montserrat-Regular&apos;" font-size="10px">o</tspan><tspan x="13.14" y="0" style="" font-family="&apos;Montserrat-Regular&apos;" font-size="10px">gistics</tspan></text><text transform="matrix(1 0 0 1 191.2256 267)" style="" font-family="&apos;Montserrat-Regular&apos;" font-size="10px">investment</text><text transform="matrix(1 0 0 1 306.02 267)"><tspan x="0" y="0" style="" font-family="&apos;Montserrat-Regular&apos;" font-size="10px">g</tspan><tspan x="7.51" y="0" style="" font-family="&apos;Montserrat-Regular&apos;" font-size="10px">o</tspan><tspan x="15.46" y="0" style="" font-family="&apos;Montserrat-Regular&apos;" font-size="10px">al</tspan></text><text transform="matrix(1 0 0 1 -183.2646 363)" style="" font-family="&apos;Montserrat-Regular&apos;" font-size="10px">meeting</text><text transform="matrix(1 0 0 1 -83.3647 363)"><tspan x="0" y="0" style="" font-family="&apos;Montserrat-Regular&apos;" font-size="10px">online</tspan><tspan x="2.73" y="12" style="" font-family="&apos;Montserrat-Regular&apos;" font-size="10px">s</tspan><tspan x="8.89" y="12" style="" font-family="&apos;Montserrat-Regular&apos;" font-size="10px">t</tspan><tspan x="14.12" y="12" style="" font-family="&apos;Montserrat-Regular&apos;" font-size="10px">ore</tspan></text><text transform="matrix(1 0 0 1 -4.5244 363)" style="" font-family="&apos;Montserrat-Regular&apos;" font-size="10px">opportunity</text><text transform="matrix(1 0 0 1 97.6851 363)" style="" font-family="&apos;Montserrat-Regular&apos;" font-size="10px">insurance</text><text transform="matrix(1 0 0 1 195.6802 363)" style="" font-family="&apos;Montserrat-Regular&apos;" font-size="10px">specialist</text><text transform="matrix(1 0 0 1 284.6006 363)" style="" font-family="&apos;Montserrat-Regular&apos;" font-size="10px">centralized</text></g><path d="M61.496,6.132l-7-4C54.345,2.045,54.174,2,54,2h-7h-7H28c-0.552,0-1,0.448-1,1v8c0,0.552,0.448,1,1,1h1v2H10  c-0.174,0-0.345,0.045-0.496,0.132l-7,4C2.192,18.31,2,18.641,2,19s0.192,0.69,0.504,0.868l7,4C9.655,23.955,9.826,24,10,24h19v2h-1  c-0.552,0-1,0.448-1,1v8c0,0.552,0.448,1,1,1h1v20h-2c-0.552,0-1,0.448-1,1v4c0,0.552,0.448,1,1,1h10c0.552,0,1-0.448,1-1v-4  c0-0.552-0.448-1-1-1h-2V36h19c0.174,0,0.345-0.045,0.496-0.132l7-4C61.808,31.69,62,31.359,62,31s-0.192-0.69-0.504-0.868l-7-4  C54.345,26.045,54.174,26,54,26H35v-2h1c0.552,0,1-0.448,1-1v-8c0-0.552-0.448-1-1-1h-1v-2h13h6c0.174,0,0.345-0.045,0.497-0.132  l0.636-0.364c0,0,0,0,0,0l6.363-3.636C61.808,7.69,62,7.359,62,7S61.808,6.31,61.496,6.132z M39.586,4l6,6h-4.172l-6-6H39.586z   M32.586,4l6,6H34h-0.586L29,5.586V4H32.586z M29,10V8.414L30.586,10H30H29z M29,28h1h2v6h-2h-1V28z M37,28v6h-3v-6H37z M52,34h-3  v-6h3V34z M47,34h-3v-6h3V34z M42,34h-3v-6h3V34z M36,60h-8v-2h2h4h2V60z M33,56h-2V36h2V56z M58.984,31L54,33.848v-5.696L58.984,31  z M33,26h-2v-2h2V26z M35,22h-1h-4H10.266l-5.25-3l5.25-3H30h4h1V22z M33,14h-2v-2h2V14z M48.414,10l-6-6h4.172l6,6H48.414z   M54.803,9.389L49.414,4h4.32l5.25,3L54.803,9.389z"></path><rect x="11" y="17" width="2" height="2"></rect><rect x="15" y="17" width="2" height="2"></rect><rect x="19" y="17" width="2" height="2"></rect><rect x="23" y="17" width="2" height="2"></rect><rect x="27" y="17" width="2" height="2"></rect><rect x="31" y="17" width="2" height="2"></rect><rect x="4" y="2" width="2" height="2"></rect><polygon points="4,14 6,14 6,11 8,11 8,9 6,9 6,6 4,6 4,9 2,9 2,11 4,11 "></polygon><rect x="50" y="41" width="2" height="2"></rect><polygon points="50,48 48,48 48,50 50,50 50,53 52,53 52,50 54,50 54,48 52,48 52,45 50,45 "></polygon><path d="M58,15c0-0.552-0.448-1-1-1s-1,0.448-1,1c0,1.654-1.346,3-3,3c-0.552,0-1,0.448-1,1s0.448,1,1,1c1.654,0,3,1.346,3,3  c0,0.552,0.448,1,1,1s1-0.448,1-1c0-1.654,1.346-3,3-3c0.552,0,1-0.448,1-1s-0.448-1-1-1C59.346,18,58,16.654,58,15z M57,20.003  c-0.285-0.379-0.624-0.718-1.003-1.003c0.379-0.285,0.718-0.624,1.003-1.003c0.285,0.379,0.624,0.718,1.003,1.003  C57.624,19.285,57.285,19.624,57,20.003z"></path><path d="M3,52c1.654,0,3,1.346,3,3c0,0.552,0.448,1,1,1s1-0.448,1-1c0-1.654,1.346-3,3-3c0.552,0,1-0.448,1-1s-0.448-1-1-1  c-1.654,0-3-1.346-3-3c0-0.552-0.448-1-1-1s-1,0.448-1,1c0,1.654-1.346,3-3,3c-0.552,0-1,0.448-1,1S2.448,52,3,52z M7,49.997  C7.285,50.376,7.624,50.715,8.003,51C7.624,51.285,7.285,51.624,7,52.003C6.715,51.624,6.376,51.285,5.997,51  C6.376,50.715,6.715,50.376,7,49.997z"></path><rect x="19" y="29" width="2" height="2"></rect><polygon points="19,36 17,36 17,38 19,38 19,41 21,41 21,38 23,38 23,36 21,36 21,33 19,33 "></polygon></svg>