<svg height='100px' width='100px'  fill="#000000" xmlns="http://www.w3.org/2000/svg" xmlns:xlink="http://www.w3.org/1999/xlink" version="1.1" x="0px" y="0px" viewBox="0 0 64 64" enable-background="new 0 0 64 64" xml:space="preserve"><g><path d="M16.505,0c-6.065,0-11,4.935-11,11v42c0,6.065,4.935,11,11,11h18c4.963,0,9-4.037,9-9V44h13.99c0.553,0,1-0.447,1-1V1   c0-0.553-0.447-1-1-1H16.505z M7.505,11c0-4.963,4.037-9,9-9h39.99v40h-20.99h-19c-3.72,0-7.009,1.86-9,4.695V11z M41.505,49.355   c-1.651-2.044-4.174-3.355-7-3.355h-18c-3.859,0-7,3.141-7,7s3.141,7,7,7h17.999c2.757,0,5-2.243,5-5c0-2.756-2.242-4.999-4.998-5   h-0.001h-18c-1.654,0-3,1.346-3,3s1.346,3,3,3h14c0.553,0,1-0.447,1-1v-3h2.999c1.654,0,3,1.346,3,3s-1.346,3-3,3H16.505   c-2.757,0-5-2.243-5-5s2.243-5,5-5h18c3.859,0,7,3.141,7,7s-3.141,7-7,7h-18c-4.963,0-9-4.037-9-9s4.037-9,9-9h19h6V49.355z    M29.505,54h-13c-0.552,0-1-0.448-1-1s0.448-1,1-1h13V54z"></path><path d="M11.551,37.272c0.017,0.061,0.032,0.118,0.061,0.174c0.026,0.054,0.063,0.101,0.101,0.149   c0.043,0.058,0.086,0.11,0.14,0.157c0.018,0.015,0.026,0.036,0.045,0.05c0.041,0.031,0.088,0.045,0.132,0.069   c0.039,0.021,0.073,0.044,0.115,0.06c0.114,0.044,0.232,0.071,0.352,0.071c0,0,0,0,0.001,0l0,0h4.005h1.995h10.005c0,0,0,0,0.001,0   l0,0c0.119,0,0.237-0.027,0.352-0.071c0.041-0.016,0.075-0.038,0.113-0.059c0.045-0.024,0.093-0.039,0.135-0.07   c0.02-0.015,0.028-0.036,0.046-0.052c0.053-0.045,0.094-0.098,0.136-0.152c0.038-0.05,0.076-0.098,0.104-0.153   c0.027-0.055,0.043-0.113,0.061-0.174c0.019-0.066,0.035-0.131,0.04-0.2c0.001-0.023,0.014-0.044,0.014-0.068   c0-0.041-0.019-0.075-0.023-0.115c-0.008-0.067-0.018-0.131-0.039-0.196c-0.022-0.066-0.054-0.126-0.089-0.186   c-0.02-0.033-0.025-0.071-0.049-0.104l-6.003-8c-0.03-0.041-0.074-0.063-0.109-0.098c-0.033-0.032-0.053-0.073-0.091-0.102   c-0.016-0.012-0.033-0.013-0.049-0.023c-0.062-0.041-0.127-0.066-0.194-0.093c-0.056-0.021-0.107-0.046-0.165-0.057   c-0.063-0.013-0.127-0.01-0.191-0.01s-0.126-0.003-0.189,0.01c-0.06,0.012-0.114,0.037-0.172,0.06   c-0.064,0.025-0.126,0.049-0.185,0.088c-0.018,0.011-0.038,0.013-0.055,0.025c-0.041,0.031-0.063,0.074-0.099,0.11   c-0.031,0.032-0.072,0.052-0.101,0.09l-2.701,3.604l-1.202-1.604c-0.031-0.042-0.075-0.064-0.111-0.1   c-0.032-0.032-0.053-0.072-0.09-0.101c-0.015-0.012-0.033-0.013-0.049-0.023c-0.062-0.041-0.127-0.067-0.195-0.094   c-0.055-0.021-0.106-0.045-0.163-0.056c-0.065-0.014-0.129-0.011-0.195-0.011c-0.063,0.001-0.124-0.002-0.186,0.01   c-0.06,0.012-0.113,0.036-0.17,0.059c-0.066,0.026-0.13,0.051-0.19,0.092c-0.016,0.01-0.034,0.012-0.05,0.023   c-0.038,0.028-0.058,0.069-0.091,0.102c-0.035,0.035-0.08,0.058-0.11,0.099l-4.498,6c-0.023,0.031-0.029,0.068-0.049,0.102   c-0.035,0.06-0.066,0.119-0.089,0.187c-0.021,0.065-0.032,0.131-0.04,0.199c-0.004,0.038-0.022,0.072-0.022,0.112   c0,0.024,0.012,0.044,0.014,0.067C11.515,37.141,11.531,37.205,11.551,37.272z M22.498,30.67l4.002,5.333h-8L22.498,30.67z    M16.001,36.003h-1.506l2.499-3.334l0.754,1.004L16.001,36.003z"></path><path d="M11.5,26.499c0,1.377,1.121,2.498,2.498,2.498s2.498-1.121,2.498-2.498s-1.121-2.498-2.498-2.498S11.5,25.122,11.5,26.499z    M14.496,26.499c0,0.274-0.224,0.498-0.498,0.498S13.5,26.773,13.5,26.499s0.224-0.498,0.498-0.498S14.496,26.225,14.496,26.499z"></path><path d="M11.551,19.273c0.017,0.061,0.032,0.118,0.061,0.174c0.026,0.054,0.063,0.101,0.101,0.149   c0.043,0.058,0.086,0.11,0.14,0.157c0.018,0.015,0.026,0.036,0.045,0.05c0.041,0.031,0.088,0.046,0.132,0.069   c0.039,0.021,0.073,0.044,0.115,0.06c0.114,0.044,0.232,0.071,0.352,0.071c0,0,0,0,0.001,0l0,0h4.005h1.995h10.005c0,0,0,0,0.001,0   l0,0c0.119,0,0.237-0.027,0.352-0.071c0.041-0.016,0.075-0.038,0.113-0.059c0.045-0.024,0.093-0.039,0.135-0.07   c0.02-0.015,0.028-0.036,0.046-0.052c0.053-0.045,0.094-0.098,0.136-0.152c0.038-0.051,0.076-0.098,0.104-0.153   c0.027-0.055,0.043-0.113,0.061-0.174c0.019-0.066,0.035-0.131,0.04-0.2c0.001-0.023,0.014-0.044,0.014-0.068   c0-0.041-0.019-0.075-0.023-0.115c-0.008-0.067-0.018-0.131-0.039-0.196c-0.022-0.066-0.054-0.126-0.089-0.186   c-0.02-0.033-0.025-0.071-0.049-0.104l-6.003-8c-0.03-0.041-0.074-0.063-0.109-0.098c-0.033-0.032-0.053-0.073-0.091-0.102   c-0.016-0.012-0.033-0.013-0.049-0.023c-0.062-0.041-0.127-0.066-0.194-0.093c-0.056-0.021-0.107-0.045-0.165-0.057   c-0.063-0.013-0.127-0.01-0.191-0.01s-0.126-0.003-0.189,0.01c-0.06,0.012-0.114,0.037-0.172,0.06   c-0.064,0.025-0.126,0.049-0.185,0.088c-0.018,0.011-0.038,0.013-0.055,0.025c-0.041,0.03-0.063,0.074-0.099,0.11   c-0.031,0.032-0.072,0.052-0.101,0.09l-2.701,3.604l-1.202-1.604c-0.031-0.042-0.075-0.064-0.111-0.1   c-0.032-0.032-0.053-0.072-0.09-0.101c-0.015-0.011-0.033-0.013-0.049-0.023c-0.063-0.041-0.128-0.067-0.196-0.094   c-0.055-0.021-0.105-0.045-0.162-0.056c-0.065-0.014-0.131-0.011-0.198-0.01c-0.062,0-0.121-0.003-0.182,0.009   s-0.115,0.037-0.174,0.061c-0.065,0.025-0.128,0.05-0.187,0.089c-0.017,0.011-0.035,0.013-0.051,0.024   c-0.038,0.028-0.059,0.069-0.092,0.103c-0.035,0.035-0.079,0.057-0.109,0.098l-4.498,6c-0.023,0.031-0.029,0.068-0.049,0.102   c-0.035,0.06-0.066,0.119-0.089,0.186c-0.021,0.066-0.032,0.132-0.04,0.2c-0.004,0.038-0.022,0.072-0.022,0.112   c0,0.023,0.012,0.044,0.014,0.067C11.515,19.141,11.531,19.206,11.551,19.273z M22.498,12.67l4.002,5.334h-8L22.498,12.67z    M16.001,18.004h-1.506l2.499-3.334l0.754,1.004L16.001,18.004z"></path><path d="M13.998,10.998c1.377,0,2.498-1.121,2.498-2.498s-1.121-2.498-2.498-2.498S11.5,7.123,11.5,8.5   S12.621,10.998,13.998,10.998z M13.998,8.002c0.274,0,0.498,0.224,0.498,0.498s-0.224,0.498-0.498,0.498S13.5,8.774,13.5,8.5   S13.724,8.002,13.998,8.002z"></path><path d="M34.554,37.272c0.017,0.061,0.032,0.118,0.061,0.174c0.026,0.054,0.063,0.101,0.101,0.149   c0.043,0.058,0.086,0.11,0.14,0.157c0.018,0.015,0.026,0.036,0.045,0.05c0.041,0.031,0.088,0.045,0.132,0.069   c0.039,0.021,0.074,0.044,0.115,0.06c0.114,0.044,0.232,0.071,0.352,0.071l0,0c0.001,0,0.001,0,0.001,0h4.005h1.995h10.005l0,0   c0.001,0,0.001,0,0.001,0c0.119,0,0.237-0.027,0.352-0.071c0.041-0.016,0.075-0.038,0.113-0.059   c0.045-0.024,0.093-0.039,0.135-0.07c0.02-0.015,0.028-0.036,0.046-0.052c0.053-0.045,0.094-0.098,0.137-0.152   c0.037-0.05,0.075-0.098,0.103-0.153c0.027-0.055,0.043-0.113,0.061-0.174c0.019-0.066,0.035-0.131,0.04-0.2   c0.002-0.023,0.014-0.044,0.014-0.068c0-0.041-0.019-0.075-0.023-0.115c-0.008-0.067-0.018-0.131-0.039-0.196   c-0.022-0.066-0.053-0.126-0.088-0.186c-0.02-0.033-0.025-0.071-0.05-0.104l-6.003-8c-0.03-0.041-0.074-0.063-0.109-0.098   c-0.032-0.032-0.053-0.073-0.091-0.102c-0.016-0.012-0.034-0.014-0.05-0.023c-0.062-0.041-0.126-0.066-0.193-0.092   c-0.056-0.021-0.107-0.047-0.165-0.058c-0.063-0.013-0.127-0.01-0.192-0.01c-0.063,0-0.125-0.003-0.188,0.01   c-0.06,0.012-0.114,0.037-0.171,0.06c-0.064,0.025-0.127,0.049-0.186,0.088c-0.018,0.011-0.038,0.013-0.055,0.025   c-0.041,0.031-0.063,0.074-0.098,0.11c-0.033,0.032-0.073,0.052-0.102,0.09L42,32.007l-1.202-1.604   c-0.031-0.042-0.075-0.064-0.111-0.1c-0.032-0.032-0.052-0.072-0.09-0.101c-0.015-0.011-0.033-0.013-0.049-0.023   c-0.062-0.041-0.128-0.067-0.197-0.094c-0.054-0.021-0.104-0.045-0.161-0.056c-0.064-0.013-0.129-0.011-0.195-0.011   c-0.063,0.001-0.124-0.002-0.186,0.01c-0.059,0.012-0.112,0.036-0.169,0.059c-0.066,0.025-0.131,0.051-0.191,0.092   c-0.016,0.01-0.034,0.012-0.05,0.023c-0.038,0.028-0.058,0.069-0.091,0.102c-0.035,0.035-0.079,0.058-0.11,0.099l-4.498,6   c-0.023,0.031-0.029,0.068-0.049,0.102c-0.035,0.06-0.066,0.119-0.088,0.187c-0.022,0.065-0.033,0.131-0.041,0.199   c-0.004,0.038-0.022,0.072-0.022,0.112c0,0.024,0.012,0.044,0.014,0.067C34.518,37.141,34.534,37.205,34.554,37.272z M45.501,30.67   l4.002,5.333h-8L45.501,30.67z M39.004,36.003h-1.506l2.5-3.334l0.753,1.004L39.004,36.003z"></path><path d="M34.503,26.499c0,1.377,1.121,2.498,2.498,2.498s2.498-1.121,2.498-2.498s-1.121-2.498-2.498-2.498   S34.503,25.122,34.503,26.499z M37.499,26.499c0,0.274-0.224,0.498-0.498,0.498s-0.498-0.224-0.498-0.498s0.224-0.498,0.498-0.498   S37.499,26.225,37.499,26.499z"></path><path d="M34.554,19.273c0.017,0.061,0.032,0.118,0.061,0.174c0.026,0.054,0.063,0.101,0.101,0.149   c0.043,0.058,0.086,0.11,0.14,0.157c0.018,0.015,0.026,0.036,0.045,0.05c0.041,0.031,0.088,0.046,0.132,0.069   c0.039,0.021,0.074,0.044,0.115,0.06c0.114,0.044,0.232,0.071,0.352,0.071l0,0c0.001,0,0.001,0,0.001,0h4.005h1.995h10.005l0,0   c0.001,0,0.001,0,0.001,0c0.119,0,0.237-0.027,0.352-0.071c0.041-0.016,0.075-0.038,0.113-0.059   c0.045-0.024,0.093-0.039,0.135-0.07c0.02-0.015,0.028-0.036,0.046-0.052c0.053-0.045,0.094-0.098,0.137-0.152   c0.037-0.051,0.075-0.098,0.103-0.153c0.027-0.055,0.043-0.113,0.061-0.174c0.019-0.066,0.035-0.131,0.04-0.2   c0.002-0.023,0.014-0.044,0.014-0.068c0-0.041-0.019-0.075-0.023-0.115c-0.008-0.067-0.018-0.131-0.039-0.196   c-0.022-0.066-0.053-0.126-0.088-0.186c-0.02-0.033-0.025-0.071-0.05-0.104l-6.003-8c-0.03-0.041-0.074-0.063-0.109-0.098   c-0.032-0.032-0.053-0.073-0.091-0.102c-0.016-0.012-0.034-0.014-0.05-0.023c-0.062-0.041-0.126-0.066-0.193-0.092   c-0.056-0.021-0.107-0.046-0.165-0.058c-0.063-0.013-0.127-0.01-0.192-0.01c-0.063,0-0.125-0.003-0.188,0.01   c-0.06,0.012-0.114,0.037-0.171,0.06c-0.064,0.025-0.127,0.049-0.186,0.088c-0.018,0.011-0.038,0.013-0.055,0.025   c-0.041,0.03-0.063,0.074-0.098,0.11c-0.033,0.032-0.073,0.052-0.102,0.09L42,14.008l-1.202-1.604   c-0.031-0.042-0.075-0.064-0.111-0.1c-0.032-0.032-0.052-0.072-0.09-0.101c-0.015-0.011-0.033-0.013-0.048-0.023   c-0.063-0.042-0.13-0.067-0.199-0.094c-0.054-0.021-0.104-0.045-0.159-0.056c-0.066-0.014-0.132-0.011-0.199-0.01   c-0.062,0-0.121-0.003-0.182,0.009c-0.06,0.012-0.114,0.037-0.173,0.06c-0.065,0.026-0.129,0.051-0.188,0.09   c-0.017,0.011-0.035,0.013-0.051,0.024c-0.038,0.028-0.059,0.069-0.092,0.103c-0.035,0.034-0.078,0.057-0.109,0.098l-4.498,6   c-0.023,0.031-0.029,0.068-0.049,0.102c-0.035,0.06-0.066,0.119-0.088,0.186c-0.022,0.066-0.033,0.132-0.041,0.2   c-0.004,0.038-0.022,0.072-0.022,0.112c0,0.023,0.012,0.044,0.014,0.067C34.518,19.141,34.534,19.206,34.554,19.273z M45.501,12.67   l4.002,5.334h-8L45.501,12.67z M39.004,18.004h-1.506l2.5-3.334l0.753,1.004L39.004,18.004z"></path><path d="M37.001,10.998c1.377,0,2.498-1.121,2.498-2.498s-1.121-2.498-2.498-2.498S34.503,7.123,34.503,8.5   S35.624,10.998,37.001,10.998z M37.001,8.002c0.274,0,0.498,0.224,0.498,0.498s-0.224,0.498-0.498,0.498S36.503,8.774,36.503,8.5   S36.727,8.002,37.001,8.002z"></path></g></svg>