<svg height='100px' width='100px'  fill="#000000" xmlns="http://www.w3.org/2000/svg" xmlns:xlink="http://www.w3.org/1999/xlink" version="1.1" x="0px" y="0px" viewBox="0 0 75.029 66.125" enable-background="new 0 0 75.029 66.125" xml:space="preserve"><g><circle cx="37.375" cy="10.382" r="2.334"></circle><circle cx="17.975" cy="21.566" r="2.334"></circle><circle cx="18.121" cy="44.191" r="2.334"></circle><circle cx="57.053" cy="21.593" r="2.334"></circle><circle cx="56.898" cy="44.214" r="2.334"></circle><circle cx="37.652" cy="55.159" r="2.334"></circle><g><path d="M20.445,28.978l3.738,2.158c0.093-0.646,0.223-1.279,0.404-1.892l-3.054-1.764l0.293-0.507l2.948,1.702    c0.636-1.845,1.657-3.507,2.973-4.892l-3.012-1.766l0.287-0.58l3.214,1.856c0.467-0.443,0.964-0.854,1.49-1.228l-3.941-2.283    c-1.343-0.775-3.103-0.746-4.009,0.824l-2.612,4.529C18.336,26.567,18.989,28.137,20.445,28.978z"></path><path d="M34.029,20.049V16.75h1v3.147c1-0.205,1.493-0.32,2.488-0.32c1.004,0,1.512,0.118,2.512,0.326V16.75h1v3.306    c0.69,0.186,1.358,0.42,2,0.709v-4.494c0-1.549-1.009-3.068-2.821-3.068l-5.36-0.002c-1.652,0-2.818,1.347-2.818,3.028v4.522    C32.67,20.465,33.339,20.233,34.029,20.049z"></path><path d="M46.812,23.311l3.197-1.847l0.286,0.497l-3.031,1.802c1.33,1.394,2.36,3.07,2.999,4.933l2.939-1.698l0.293,0.508    l-3.048,1.759c0.18,0.613,0.311,1.247,0.402,1.893l3.731-2.155c1.455-0.84,2.105-2.41,1.279-3.842l-2.618-4.528    c-0.906-1.57-2.678-1.6-4.02-0.825l-3.916,2.261C45.838,22.447,46.341,22.862,46.812,23.311z"></path><path d="M54.528,36.542l-3.602-2.08c-0.066,0.652-0.195,1.285-0.352,1.906l2.911,1.681l-0.287,0.497l-2.772-1.6    c-0.562,1.87-1.522,3.562-2.777,4.993l2.642,1.549l-0.293,0.601l-2.822-1.629c-0.447,0.459-0.929,0.88-1.437,1.272l3.529,2.045    c1.456,0.842,3.128,0.619,3.954-0.813l2.607-4.531C56.736,38.864,55.871,37.316,54.528,36.542z"></path><path d="M27.837,42.442l-2.814,1.625l-0.294-0.508l2.675-1.594c-1.271-1.443-2.243-3.153-2.807-5.045l-2.776,1.602l-0.288-0.497    l2.916-1.683c-0.156-0.622-0.283-1.254-0.349-1.907l-3.608,2.083c-1.342,0.775-2.202,2.323-1.296,3.894l2.614,4.531    c0.827,1.432,2.51,1.654,3.966,0.814l3.51-2.027C28.774,43.334,28.288,42.907,27.837,42.442z"></path><path d="M41.029,46.069v2.681h-1v-2.521c-1,0.204-1.492,0.319-2.486,0.319c-1.004,0-1.514-0.118-2.514-0.326v2.528h-1v-2.674    c-0.689-0.184-1.358-0.416-2-0.702v3.896c0,1.549,0.992,3.068,2.806,3.068l5.368,0.002c1.654,0,2.826-1.346,2.826-3.027V45.36    C42.387,45.648,41.719,45.883,41.029,46.069z"></path></g><path d="M41.79,33.722l1.138,0.52l0.112-0.244l-1.165-0.532C41.848,33.552,41.82,33.638,41.79,33.722z"></path><path d="M43.484,30.899l-0.038-0.266l-1.566,0.225c0.025,0.086,0.048,0.174,0.068,0.262L43.484,30.899z"></path><path d="M40.774,28.976l1.373-1.189l-0.176-0.204l-1.392,1.205C40.647,28.848,40.71,28.911,40.774,28.976z"></path><path d="M39.337,25.89l-0.259-0.075l-0.557,1.898c0.088,0.021,0.174,0.042,0.26,0.067L39.337,25.89z"></path><path d="M35.949,25.814l-0.258,0.075l0.555,1.891c0.087-0.025,0.173-0.047,0.261-0.067L35.949,25.814z"></path><path d="M34.448,28.787l-1.391-1.205l-0.176,0.204l1.374,1.189C34.317,28.911,34.381,28.848,34.448,28.787z"></path><path d="M31.583,30.634l-0.038,0.266l1.536,0.221c0.02-0.088,0.043-0.176,0.068-0.262L31.583,30.634z"></path><path d="M31.989,33.997l0.112,0.244l1.138-0.52c-0.031-0.084-0.059-0.17-0.085-0.257L31.989,33.997z"></path><rect x="35.617" y="37.508" width="3.795" height="0.54"></rect><rect x="35.617" y="38.279" width="3.795" height="0.542"></rect><rect x="35.617" y="39.053" width="3.795" height="0.541"></rect><g><path fill="none" d="M37.529,28.687c-0.002,0-0.004,0-0.006,0c-0.003,0-0.005,0-0.007,0c0,0-0.001,0-0.002,0s-0.002,0-0.002,0    c-0.002,0-0.004,0-0.007,0c-0.002,0-0.004,0-0.006,0c-1.905,0-3.45,1.544-3.45,3.449c0,2.033,1.455,2.892,1.59,4.818    c0.007,0.111-0.009,0.257,0.021,0.352h1.854h1.853c0.031-0.095,0.015-0.24,0.022-0.352c0.135-1.927,1.59-2.785,1.59-4.818    C40.979,30.23,39.434,28.687,37.529,28.687z"></path><path d="M39.416,37.373h-3.803l-0.016-0.046c-0.023-0.073-0.023-0.164-0.023-0.252c0-0.04,0-0.08-0.002-0.116    c-0.063-0.902-0.429-1.583-0.782-2.24c-0.397-0.737-0.808-1.5-0.808-2.583c0-1.938,1.578-3.517,3.518-3.517h0.017    c1.952,0,3.53,1.578,3.53,3.517c0,1.083-0.41,1.846-0.808,2.583c-0.354,0.657-0.72,1.338-0.782,2.24    c-0.003,0.036-0.003,0.076-0.002,0.116c0,0.088,0,0.179-0.023,0.252L39.416,37.373z M35.715,37.238h3.598    c0.007-0.048,0.007-0.105,0.007-0.163c0-0.044,0-0.086,0.003-0.125c0.064-0.932,0.438-1.625,0.798-2.295    c0.389-0.723,0.791-1.471,0.791-2.52c0-1.865-1.518-3.383-3.383-3.383h-0.016H37.5c-1.866,0-3.384,1.518-3.384,3.383    c0,1.049,0.402,1.797,0.791,2.52c0.36,0.67,0.733,1.363,0.798,2.295c0.003,0.039,0.003,0.081,0.003,0.125    C35.708,37.133,35.708,37.19,35.715,37.238z"></path></g><path d="M36.632,39.798c0.175,0.306,0.504,0.513,0.882,0.513s0.706-0.207,0.882-0.513H36.632z"></path></g></svg>