<svg height='100px' width='100px'  fill="#000000" xmlns="http://www.w3.org/2000/svg" data-name="Layer 1" viewBox="0 0 100 100" x="0px" y="0px"><title>Artboard 23</title><path d="M94.65,88.73A10.71,10.71,0,0,0,89.75,85a11.18,11.18,0,0,0-2.91-.66,11.28,11.28,0,0,0,4.68-10.11,11.64,11.64,0,0,0-9.95-10.5,8.26,8.26,0,0,0,0-.88,10.18,10.18,0,0,0-1.88-5,10.71,10.71,0,0,0-4.9-3.76,11.18,11.18,0,0,0-2.91-.66,11.28,11.28,0,0,0,4.68-10.11,11.64,11.64,0,0,0-9.95-10.5,8.26,8.26,0,0,0,0-.88,10.18,10.18,0,0,0-1.88-5,10.71,10.71,0,0,0-4.9-3.76,11.18,11.18,0,0,0-2.91-.66,11.28,11.28,0,0,0,4.68-10.11A11.65,11.65,0,0,0,50,1.81a11.45,11.45,0,0,0-6.86,20.72,11.29,11.29,0,0,0-2.85.65,10.75,10.75,0,0,0-4.92,3.76,10.22,10.22,0,0,0-1.9,5,8.68,8.68,0,0,0,0,.9,11.64,11.64,0,0,0-5.9,2.65,11.39,11.39,0,0,0-.38,17.11,11.75,11.75,0,0,0,1.14.91c-.22,0-.43,0-.64.06a10.68,10.68,0,0,0-5.32,2.37,10.17,10.17,0,0,0-2.95,4,9.61,9.61,0,0,0-.71,3.72,11.43,11.43,0,0,0-5.53,20.64,11.29,11.29,0,0,0-2.85.65A10.75,10.75,0,0,0,5.37,88.7a10.22,10.22,0,0,0-1.9,5,7.63,7.63,0,0,0-.05,1.19v.57l0,.47.17,1.76c0,.32.7.56,1.47.53s1.25-.25,1.28-.53a27.28,27.28,0,0,1,.43-3.43,7.19,7.19,0,0,1,1.66-3.07,7,7,0,0,1,3.25-2,6.69,6.69,0,0,1,2-.25h.5a4.33,4.33,0,0,0,.73-.11,4.42,4.42,0,0,0,1.37-.57,4.55,4.55,0,0,0,1.85-5.4,4.61,4.61,0,0,0-.78-1.37,4.69,4.69,0,0,0-.55-.56c-.18-.16-.47-.36-.48-.38a6.61,6.61,0,0,1-1.51-1.58,6.32,6.32,0,0,1,1-8.21,6.17,6.17,0,0,1,8.35,0,6.25,6.25,0,0,1,1,8.21,6.61,6.61,0,0,1-1.51,1.58l-.2.15-.3.24a4.9,4.9,0,0,0-.54.56,4.62,4.62,0,0,0-.77,1.36,4.53,4.53,0,0,0,1.88,5.37,4.37,4.37,0,0,0,1.37.56,4.25,4.25,0,0,0,.72.1h.48a6.64,6.64,0,0,1,2,.25,7,7,0,0,1,3.26,2,7.2,7.2,0,0,1,1.66,3.09,27.89,27.89,0,0,1,.43,3.44c0,.31.68.54,1.44.52s1.21-.24,1.24-.52l.17-1.76,0-.47,0-.56c0-.2,0-.4,0-.6a7.55,7.55,0,0,1,3.14-4.34,7,7,0,0,1,3.41-1.12c.16,0,.32,0,.47,0h.24a5.22,5.22,0,0,0,.61,0,4.42,4.42,0,0,0,2.41-1.07A4.51,4.51,0,0,0,48,82.57a4.62,4.62,0,0,0-1.27-1.73c-.18-.15-.42-.32-.43-.34a6.82,6.82,0,0,1-.76-.67,6.59,6.59,0,0,1-1.18-1.67,6.35,6.35,0,0,1-.52-4.08A6.25,6.25,0,0,1,46,70.5a6.18,6.18,0,0,1,7.92,0,6.54,6.54,0,0,1,2.19,3.6,6.33,6.33,0,0,1-.52,4.07,6.59,6.59,0,0,1-1.18,1.67,6.85,6.85,0,0,1-.76.67l-.18.14-.27.22a4.68,4.68,0,0,0-.5.5A4.57,4.57,0,0,0,52,82.6a4.49,4.49,0,0,0,1.2,5.11,4.41,4.41,0,0,0,2.41,1,5.68,5.68,0,0,0,.59,0h.24c.16,0,.32,0,.48,0a7,7,0,0,1,3.42,1.13,7.55,7.55,0,0,1,3.1,4.19,6.44,6.44,0,0,0,0,.74v.57l0,.47.17,1.76c0,.32.7.56,1.47.53s1.25-.25,1.28-.53a27.28,27.28,0,0,1,.43-3.43,7.19,7.19,0,0,1,1.66-3.07,7,7,0,0,1,3.25-2,6.69,6.69,0,0,1,2-.25h.5a4.33,4.33,0,0,0,.73-.11,4.42,4.42,0,0,0,1.37-.57,4.55,4.55,0,0,0,1.85-5.4,4.61,4.61,0,0,0-.78-1.37,4.69,4.69,0,0,0-.55-.56c-.18-.16-.47-.36-.48-.38a6.61,6.61,0,0,1-1.51-1.58,6.32,6.32,0,0,1,1-8.21,6.17,6.17,0,0,1,8.35,0,6.25,6.25,0,0,1,1,8.21,6.61,6.61,0,0,1-1.51,1.58l-.2.15-.3.24a4.9,4.9,0,0,0-.54.56,4.62,4.62,0,0,0-.77,1.36,4.53,4.53,0,0,0,1.88,5.37,4.37,4.37,0,0,0,1.37.56,4.25,4.25,0,0,0,.72.1h.48a6.64,6.64,0,0,1,2,.25,7,7,0,0,1,3.26,2,7.2,7.2,0,0,1,1.66,3.09,27.89,27.89,0,0,1,.43,3.44c0,.31.68.54,1.44.52s1.21-.24,1.24-.52l.17-1.76,0-.47,0-.56a7.47,7.47,0,0,0,0-1.19A10.18,10.18,0,0,0,94.65,88.73ZM13.82,84.21h-.09l0,0ZM71.3,53.38h-.12s0,0,0,0h.09ZM56.3,22.5h-.12s0,0,0,0h.09Zm-12.55,0h0Zm-5.27,6.93a7,7,0,0,1,3.25-2,6.69,6.69,0,0,1,2-.25h.5A4.33,4.33,0,0,0,45,27a4.42,4.42,0,0,0,1.37-.57A4.55,4.55,0,0,0,48.18,21a4.61,4.61,0,0,0-.78-1.37,4.68,4.68,0,0,0-.55-.56c-.18-.16-.47-.36-.48-.38a6.61,6.61,0,0,1-1.51-1.58,6.32,6.32,0,0,1,1-8.21,6.17,6.17,0,0,1,8.35,0,6.25,6.25,0,0,1,1,8.21,6.61,6.61,0,0,1-1.51,1.58l-.2.15-.3.24a4.9,4.9,0,0,0-.54.56,4.62,4.62,0,0,0-.77,1.36,4.53,4.53,0,0,0,1.88,5.37A4.37,4.37,0,0,0,55.1,27a4.25,4.25,0,0,0,.72.1h.48a6.64,6.64,0,0,1,2,.25,7,7,0,0,1,3.26,2,7.2,7.2,0,0,1,1.66,3.09c0,.11,0,.23.07.35a11.43,11.43,0,0,0-5.17,20.59,11.29,11.29,0,0,0-2.85.65,10.75,10.75,0,0,0-4.92,3.76c-.17.24-.31.49-.46.74a10,10,0,0,0-2.22-2.62,10.64,10.64,0,0,0-5.3-2.38c-.23,0-.47-.05-.71-.07a11.27,11.27,0,0,0,4.68-11.23,11.72,11.72,0,0,0-3.89-6.78,11.53,11.53,0,0,0-5.75-2.64c0-.12,0-.26.07-.37A7.19,7.19,0,0,1,38.47,29.39Zm20.28,24h0Zm-17.58.08a.13.13,0,0,1,.09,0s0,0,.06,0h-.1C41.11,53.43,41.19,53.43,41.17,53.43Zm-12.42,0a.16.16,0,0,1,.1,0s0,0,0,0h-.11ZM26.17,84.24h.09l0,0h-.12S26.17,84.24,26.17,84.24Zm17.68,0s0,0,0,0h-.11l0,0A.16.16,0,0,1,43.85,84.28Zm-1.33-18a11.39,11.39,0,0,0-.38,17.11,11.75,11.75,0,0,0,1.14.91c-.22,0-.43,0-.64.06a10.68,10.68,0,0,0-5.32,2.37,10,10,0,0,0-2.25,2.65c-.14-.24-.27-.48-.44-.7A10.71,10.71,0,0,0,29.74,85a11.18,11.18,0,0,0-2.91-.66,11.28,11.28,0,0,0,4.68-10.11,11.64,11.64,0,0,0-10-10.51,7.57,7.57,0,0,1,3.21-4.62,7,7,0,0,1,3.41-1.12c.16,0,.32,0,.47,0h.24a5.23,5.23,0,0,0,.61,0,4.42,4.42,0,0,0,2.41-1.07A4.51,4.51,0,0,0,33,51.69,4.62,4.62,0,0,0,31.78,50c-.18-.15-.42-.32-.43-.34a6.82,6.82,0,0,1-.76-.67,6.59,6.59,0,0,1-1.18-1.67,6.35,6.35,0,0,1-.52-4.08A6.25,6.25,0,0,1,31,39.62a6.18,6.18,0,0,1,7.92,0,6.54,6.54,0,0,1,2.19,3.6,6.33,6.33,0,0,1-.52,4.07A6.59,6.59,0,0,1,39.45,49a6.86,6.86,0,0,1-.76.67l-.18.14-.27.22a4.67,4.67,0,0,0-.5.5A4.56,4.56,0,0,0,37,51.72a4.49,4.49,0,0,0,1.2,5.11,4.41,4.41,0,0,0,2.41,1,5.68,5.68,0,0,0,.59,0h.24c.16,0,.32,0,.48,0A7,7,0,0,1,45.33,59a7.55,7.55,0,0,1,3.1,4.19c0,.15,0,.3,0,.45A11.64,11.64,0,0,0,42.52,66.33Zm13.66,18a.13.13,0,0,1,.09,0s0,0,.06,0h-.1C56.11,84.31,56.2,84.31,56.18,84.31Zm17.65-.09h-.09l0,0Zm-1.7-17.53a11.57,11.57,0,0,0-3.62,7.5,11.28,11.28,0,0,0,4.65,10.11,11.29,11.29,0,0,0-2.85.65,10.75,10.75,0,0,0-4.92,3.76c-.17.24-.31.49-.46.74a10,10,0,0,0-2.22-2.62,10.64,10.64,0,0,0-5.3-2.38c-.23,0-.47-.05-.71-.07a11.27,11.27,0,0,0,4.68-11.23,11.72,11.72,0,0,0-3.89-6.78,11.53,11.53,0,0,0-5.75-2.64c0-.12,0-.26.07-.37a7.19,7.19,0,0,1,1.66-3.07,7,7,0,0,1,3.25-2,6.69,6.69,0,0,1,2-.25h.5a4.34,4.34,0,0,0,.73-.11,4.42,4.42,0,0,0,1.37-.57,4.55,4.55,0,0,0,1.85-5.4,4.61,4.61,0,0,0-.78-1.37,4.68,4.68,0,0,0-.55-.56c-.18-.16-.47-.36-.48-.38A6.61,6.61,0,0,1,59.86,48a6.32,6.32,0,0,1,1-8.21,6.17,6.17,0,0,1,8.35,0,6.25,6.25,0,0,1,1,8.21,6.61,6.61,0,0,1-1.51,1.58l-.2.15-.3.24a4.89,4.89,0,0,0-.54.56,4.63,4.63,0,0,0-.77,1.36,4.53,4.53,0,0,0,1.88,5.37,4.37,4.37,0,0,0,1.37.56,4.25,4.25,0,0,0,.72.1h.48a6.64,6.64,0,0,1,2,.25,7,7,0,0,1,3.26,2,7.2,7.2,0,0,1,1.66,3.09c0,.11,0,.23.07.35A11.5,11.5,0,0,0,72.12,66.68ZM86.18,84.24h.09l0,0h-.12S86.18,84.24,86.18,84.24Z"></path></svg>