<svg height='100px' width='100px'  fill="#000000" xmlns="http://www.w3.org/2000/svg" viewBox="0 0 64 64" x="0px" y="0px"><title>Target audience</title><g data-name="Target audience"><path d="M36,30V28a4,4,0,0,0-8,0v2a4,4,0,0,0,8,0Z"></path><path d="M36.64,35.66a7.32,7.32,0,0,0-11.23,2.47,9.51,9.51,0,0,0,1,.92,9,9,0,0,0,11.22,0,9.51,9.51,0,0,0,1-.92A7.28,7.28,0,0,0,36.64,35.66Z"></path><path d="M29,16.29v-2A18,18,0,0,0,14.26,29h2A16,16,0,0,1,29,16.29Z"></path><path d="M16.29,35h-2a17.89,17.89,0,0,0,6.53,11.08A17.63,17.63,0,0,0,29,49.76v-2a15.55,15.55,0,0,1-7-3.2A15.92,15.92,0,0,1,16.29,35Z"></path><path d="M47.71,29h2A18,18,0,0,0,35,14.26v2A16,16,0,0,1,47.71,29Z"></path><path d="M42,44.52a15.55,15.55,0,0,1-7,3.2v2a17.63,17.63,0,0,0,8.22-3.68A17.89,17.89,0,0,0,49.75,35h-2A15.92,15.92,0,0,1,42,44.52Z"></path><circle cx="51" cy="13" r="5"></circle><circle cx="51" cy="51" r="5"></circle><circle cx="13" cy="51" r="5"></circle><circle cx="13" cy="13" r="5"></circle><path d="M32,58h-.14a1,1,0,0,0,0,2h0l.08,0L32,60a27.76,27.76,0,0,0,14.22-3.89A7.36,7.36,0,0,1,45,54.54,25.82,25.82,0,0,1,32,58Z"></path><path d="M20.7,55.41a1,1,0,1,0-.88,1.8,1,1,0,0,0,.44.1,1,1,0,0,0,.44-1.9Z"></path><path d="M28,57.7a1,1,0,0,0-.31,2l.16,0a1,1,0,0,0,.15-2Z"></path><path d="M24.27,56.83a1,1,0,1,0-.59,1.91,1,1,0,0,0,.29,0,1,1,0,0,0,1-.71A1,1,0,0,0,24.27,56.83Z"></path><path d="M32,6a1,1,0,0,0,.55-.19.86.86,0,0,0,.16-.1,1.53,1.53,0,0,0,.14-.21A1,1,0,0,0,33,5a1,1,0,0,0-.15-.5,1.53,1.53,0,0,0-.14-.21.86.86,0,0,0-.16-.1.88.88,0,0,0-.21-.12A.8.8,0,0,0,32,4h0A27.76,27.76,0,0,0,17.78,7.89,7.36,7.36,0,0,1,19,9.46,25.82,25.82,0,0,1,32,6Z"></path><path d="M39.68,7.15a1,1,0,0,0,.3,0,1,1,0,1,0-.3,0Z"></path><path d="M35.89,6.29H36a1,1,0,1,0-.14,0Z"></path><path d="M43.74,8.69a1.05,1.05,0,0,0,.71-.29,1,1,0,0,0,.29-.71A1.05,1.05,0,0,0,44.45,7a1,1,0,0,0-.33-.21A1,1,0,0,0,43,7a1,1,0,0,0,.71,1.71Z"></path><path d="M56.11,17.78A7.36,7.36,0,0,1,54.54,19,25.82,25.82,0,0,1,58,32a1,1,0,0,0,.08.39l0,.06A1,1,0,0,0,60,32,27.76,27.76,0,0,0,56.11,17.78Z"></path><path d="M58.12,38.93a1,1,0,1,0-.58,1.91.93.93,0,0,0,.29,0,1,1,0,0,0,1-.71A1,1,0,0,0,58.12,38.93Z"></path><path d="M58.85,35a1,1,0,0,0-1.13.84A1,1,0,0,0,58.56,37h.15a1,1,0,0,0,.14-2Z"></path><path d="M56.81,42.71a1,1,0,0,0-.87,1.8,1.13,1.13,0,0,0,.44.1,1,1,0,0,0,.9-.57A1,1,0,0,0,56.81,42.71Z"></path><path d="M6,32a.14.14,0,0,0,0-.07.24.24,0,0,0,0-.08,1,1,0,0,0-2,0A.17.17,0,0,1,4,32,27.76,27.76,0,0,0,7.89,46.22,7.36,7.36,0,0,1,9.46,45,25.82,25.82,0,0,1,6,32Z"></path><path d="M5.92,24.93a.92.92,0,0,0,.29,0A1,1,0,0,0,6.51,23a1,1,0,0,0-1.25.66A1,1,0,0,0,5.92,24.93Z"></path><path d="M5.16,28.85l.15,0a1,1,0,1,0-1-1.16h0A1,1,0,0,0,5.16,28.85Z"></path><path d="M7.25,21.16a1,1,0,0,0,.44.1,1,1,0,1,0-.44-.1Z"></path><path d="M52,32a1,1,0,0,0-1-1H45A13,13,0,0,0,33,19.05V13a1,1,0,0,0-2,0v6.05A13,13,0,0,0,19.05,31H13a1,1,0,0,0,0,2h6.06A13,13,0,0,0,31,45v6a1,1,0,0,0,2,0V45A13,13,0,0,0,44.94,33H51A1,1,0,0,0,52,32ZM38.85,40.61a11,11,0,0,1-13.71,0,11,11,0,1,1,13.71,0Z"></path></g></svg>