<svg height='100px' width='100px'  fill="#000000" xmlns="http://www.w3.org/2000/svg" viewBox="0 0 64 64" x="0px" y="0px"><title>storyboard-panel-presentation-business-design</title><g><path d="M61,8a1,1,0,0,0,1-1V3a1,1,0,0,0-1-1H3A1,1,0,0,0,2,3V7A1,1,0,0,0,3,8H4V40H3a1,1,0,0,0-1,1v4a1,1,0,0,0,1,1H23.687L18.653,59.439a1,1,0,0,0,.585,1.287l3.75,1.41a1,1,0,0,0,1.288-.585L29,48.924V61a1,1,0,0,0,1,1h4a1,1,0,0,0,1-1V48.924l4.724,12.627a1,1,0,0,0,1.288.585l3.75-1.41a1,1,0,0,0,.585-1.287L40.313,46H61a1,1,0,0,0,1-1V41a1,1,0,0,0-1-1H60V8ZM4,4H60V6H4ZM22.754,59.911l-1.877-.706L25.823,46h2.136ZM33,60H31V46h2Zm10.123-.8-1.877.706L36.041,46h2.136ZM60,44H4V42H60Zm-2-4H6V8H58Z"></path><path d="M27,36H37a1,1,0,0,0,1-1V27a1,1,0,0,0-1-1H33V18H44v3a1,1,0,0,0,1,1H55a1,1,0,0,0,1-1V13a1,1,0,0,0-1-1H45a1,1,0,0,0-1,1v3H32a1,1,0,0,0-1,1v9H27a1,1,0,0,0-1,1v8A1,1,0,0,0,27,36ZM46,14h8v6H46ZM28,28h8v6H28Z"></path><path d="M55,26H45a1,1,0,0,0-1,1v8a1,1,0,0,0,1,1H55a1,1,0,0,0,1-1V27A1,1,0,0,0,55,26Zm-1,8H46V28h8Z"></path><path d="M11,22h9a1,1,0,0,0,1-1V13a1,1,0,0,0-1-1H11a1,1,0,0,0-1,1v8A1,1,0,0,0,11,22Zm1-8h7v6H12Z"></path><rect x="40" y="30" width="2" height="2"></rect><rect x="14" y="24" width="2" height="2"></rect><rect x="14" y="29" width="2" height="2"></rect><rect x="18" y="29" width="2" height="2"></rect><rect x="22" y="29" width="2" height="2"></rect><rect x="27" y="16" width="2" height="2"></rect><rect x="23" y="16" width="2" height="2"></rect></g></svg>