<svg height='100px' width='100px'  fill="#000000" xmlns="http://www.w3.org/2000/svg" data-name="Layer 1" viewBox="0 0 64 64" x="0px" y="0px"><path d="M36,43V38.414l.606-.606a1,1,0,0,0,0-1.414,14.986,14.986,0,0,0-25.07,6.69,5.988,5.988,0,0,0-8.778-.327,1,1,0,0,0,0,1.414L5.586,47,2.758,49.829a1,1,0,0,0,0,1.414,5.988,5.988,0,0,0,8.778-.327,14.986,14.986,0,0,0,25.07,6.69,1,1,0,0,0,0-1.414L36,55.586V52H34v1.586L27.414,47,34,40.414V43ZM7,51a3.965,3.965,0,0,1-2.032-.553l2.739-2.74a1,1,0,0,0,0-1.414l-2.739-2.74A4,4,0,1,1,7,51Zm18.293-3.293,9.166,9.166a13,13,0,1,1,0-19.746l-9.166,9.166A1,1,0,0,0,25.293,47.707Z"></path><path d="M59.726,43.688l.379.759,1.79-.894L61.217,42.2l.147-.148a1,1,0,0,0,0-1.414,8.99,8.99,0,0,0-14.817,3.305,3.96,3.96,0,0,0-5.375.231,1,1,0,0,0,0,1.414L42.586,47l-1.414,1.414a1,1,0,0,0,0,1.414,3.96,3.96,0,0,0,5.375.231,8.99,8.99,0,0,0,14.817,3.305,1,1,0,0,0,0-1.414l-.147-.148.678-1.355-1.79-.894-.379.759L56.414,47ZM44,49a2.035,2.035,0,0,1-.519-.067l1.226-1.226a1,1,0,0,0,0-1.414l-1.226-1.226A2.035,2.035,0,0,1,44,45a2,2,0,0,1,0,4Zm15.193,3.607a7,7,0,1,1,0-11.214l-4.9,4.9a1,1,0,0,0,0,1.414Z"></path><rect x="54" y="41" width="2" height="2"></rect><rect x="27" y="38" width="2" height="2"></rect><path d="M57,25a6,6,0,1,0-6,6A6.006,6.006,0,0,0,57,25ZM47,25a4,4,0,1,1,4,4A4,4,0,0,1,47,25Z"></path><path d="M44.623,13.981A6.652,6.652,0,0,0,53,14.322a6.667,6.667,0,0,0,8.707-.615l-1.414-1.414a4.664,4.664,0,0,1-6.586,0,1,1,0,0,0-1.414,0,4.645,4.645,0,0,1-4.718,1.118,6,6,0,1,0-2.952.57ZM45,4a4,4,0,1,1-4,4A4,4,0,0,1,45,4Z"></path><path d="M12,27A10,10,0,1,0,2,17,10.011,10.011,0,0,0,12,27ZM12,9a8,8,0,1,1-8,8A8.009,8.009,0,0,1,12,9Z"></path><path d="M27,10a4,4,0,1,0-4-4A4,4,0,0,0,27,10Zm0-6a2,2,0,1,1-2,2A2,2,0,0,1,27,4Z"></path><path d="M51.5,28v-.592A1.5,1.5,0,0,0,51,24.5a.5.5,0,0,1,0-1h1v-1h-.5V22h-1v.592A1.5,1.5,0,0,0,51,25.5a.5.5,0,0,1,0,1H50v1h.5V28Z"></path><path d="M45,8.5a.5.5,0,0,1,0,1H44v1h.5V11h1v-.592A1.5,1.5,0,0,0,45,7.5a.5.5,0,0,1,0-1h1v-1h-.5V5h-1v.592A1.5,1.5,0,0,0,45,8.5Z"></path><path d="M11,23h2V21.816A2.993,2.993,0,0,0,12,16a1,1,0,0,1,0-2h3V12H13V11H11v1.184A2.993,2.993,0,0,0,12,18a1,1,0,0,1,0,2H9v2h2Z"></path><path d="M28.293,24.293a4.664,4.664,0,0,1-6.586,0l-1.414,1.414A6.667,6.667,0,0,0,29,26.322a6.667,6.667,0,0,0,8.707-.615l-1.414-1.414a4.664,4.664,0,0,1-6.586,0A1,1,0,0,0,28.293,24.293Z"></path></svg>