<svg height='100px' width='100px'  fill="#000000" xmlns="http://www.w3.org/2000/svg" xmlns:xlink="http://www.w3.org/1999/xlink" version="1.1" x="0px" y="0px" viewBox="0 0 64 64" style="enable-background:new 0 0 64 64;" xml:space="preserve"><g><path d="M5,50c0,2.206,1.794,4,4,4s4-1.794,4-4s-1.794-4-4-4S5,47.794,5,50z M9,48c1.103,0,2,0.897,2,2s-0.897,2-2,2s-2-0.897-2-2   S7.897,48,9,48z"></path><path d="M44,14c-1.654,0-3,1.346-3,3s1.346,3,3,3s3-1.346,3-3S45.654,14,44,14z M44,18c-0.552,0-1-0.448-1-1s0.448-1,1-1   s1,0.448,1,1S44.552,18,44,18z"></path><path d="M63,31h-2V1H37v30h-2v6H14C6.832,37,1,42.832,1,50s5.832,13,13,13c4.59,0,8.623-2.398,10.937-6h13.477l2-2h1.172l2,2h2.828   l2-2h1.172l2,2h3.784L63,50.46v-3.04L55.266,43H24.937c-1.036-1.613-2.417-2.979-4.041-4H37v-6h26V31z M54.63,55h-2.216l-2-2   h-2.828l-2,2h-1.172l-2-2h-2.828l-2,2H25.997C26.641,53.46,27,51.771,27,50c0-0.338-0.025-0.669-0.051-1H61v0.54L54.63,55z    M54.734,45l3.5,2H26.637c-0.163-0.688-0.371-1.359-0.64-2H54.734z M25,50c0,6.065-4.935,11-11,11S3,56.065,3,50s4.935-11,11-11   S25,43.935,25,50z M39,3h20v28H39V3z"></path><rect x="39" y="35" width="2" height="2"></rect><rect x="47" y="35" width="2" height="2"></rect><rect x="43" y="35" width="2" height="2"></rect><polygon points="27.293,18.293 28.707,19.707 35.414,13 28.707,6.293 27.293,7.707 31.586,12 9,12 9,14 31.586,14  "></polygon><rect x="5" y="12" width="2" height="2"></rect><rect x="1" y="12" width="2" height="2"></rect><polygon points="21.293,32.293 22.707,33.707 29.414,27 22.707,20.293 21.293,21.707 25.586,26 9,26 9,28 25.586,28  "></polygon><rect x="5" y="26" width="2" height="2"></rect><rect x="1" y="26" width="2" height="2"></rect></g></svg>