<svg height='100px' width='100px'  fill="#000000" xmlns="http://www.w3.org/2000/svg" viewBox="0 0 64 64" x="0px" y="0px"><title>Program-design-pencil-blush-window-diamons-creating-design-ui</title><path d="M61,6.22H4.05a1,1,0,0,0-1,1V29.8l-.76.77h0a.71.71,0,0,0-.1.14.86.86,0,0,0-.07.1h0a1,1,0,0,0,0,.14.56.56,0,0,0,0,.12.59.59,0,0,0,0,.23s0,0,0,.05a.94.94,0,0,0,.06.28h0a.35.35,0,0,0,0,.08.39.39,0,0,0,.08.14L3.05,33V56.78a1,1,0,0,0,1,1H61a1,1,0,0,0,1-1V7.22A1,1,0,0,0,61,6.22Zm-1,2v4.33H5.05V8.22ZM10.82,34.69,15,45.25l-10-13H9.87ZM12,32.27H24.88L18.52,48.76Zm-2.39-2H5.41l4.6-4.6Zm17.39,2h4.22l-9,12.44Zm.16-2L26.46,26l4.33,4.32ZM24.12,24l1,6.23H11.64L12.16,24ZM5.05,55.78V35.59L17.73,52.11h0a.74.74,0,0,0,.23.2l.08.05h0l.05,0a.76.76,0,0,0,.16.06l.08,0h.36l.23-.08.05,0h0a.94.94,0,0,0,.29-.27h0L34,31.86a1,1,0,0,0-.1-1.29l-8.24-8.24A1,1,0,0,0,25,22H11.17a.85.85,0,0,0-.23,0l-.11,0a.86.86,0,0,0-.2.13.24.24,0,0,0-.08.06h0L5.05,27.8V14.55H60V55.78Z"></path><path d="M57.25,24.65s0,0,0-.07l-4.09-7.17a1,1,0,0,0-1.74,0l-4.1,7.17,0,.07,0,.08a1,1,0,0,0-.07.35V49a5.13,5.13,0,0,0,10.2,0V25.08a1,1,0,0,0-.07-.35A.3.3,0,0,0,57.25,24.65ZM55.36,27.7V45.59h-6.2V27.7l.29.07.18.05a3.68,3.68,0,0,0,.58.05,3.2,3.2,0,0,0,2-.73,3.2,3.2,0,0,0,2.05.73,3.68,3.68,0,0,0,.58-.05l.18-.05Zm-3.1-7.78,3.05,5.33s0,.06,0,.08a.21.21,0,0,1-.06.1.87.87,0,0,1-.13.15l-.1.08a1,1,0,0,1-.21.1.31.31,0,0,1-.1,0,1.15,1.15,0,0,1-.37.06c-.56,0-1.05-.37-1.05-.79a1,1,0,0,0-2,0c0,.42-.49.79-1,.79a1.15,1.15,0,0,1-.37-.06l-.11,0-.21-.1-.09-.08-.14-.15-.06-.1s0,0,0-.08Zm0,31.64A2.88,2.88,0,0,1,49.16,49V47.59h6.2V49A2.88,2.88,0,0,1,52.26,51.56Z"></path><rect x="51.26" y="30.2" width="2" height="15.37"></rect><path d="M39.14,17.2c-.49.71-4.8,7-4.8,9.82A5.6,5.6,0,0,0,36.1,31.1l1.25,20a2.63,2.63,0,0,0,5.26,0l1.22-20A5.6,5.6,0,0,0,45.59,27c0-2.79-4.31-9.11-4.8-9.82A1,1,0,0,0,39.14,17.2ZM40.61,51a.64.64,0,0,1-1.27,0L38.18,32.35c.15,0,.3.07.45.11a3.2,3.2,0,0,0,.42.1l.19,0a5.83,5.83,0,0,0,.72.06,5.67,5.67,0,0,0,.71-.06,1.23,1.23,0,0,0,.2,0,2.73,2.73,0,0,0,.41-.1,3.57,3.57,0,0,0,.47-.11Zm1.62-21.16a3.58,3.58,0,0,1-1.95.76A3.16,3.16,0,0,1,39,28.68a3.31,3.31,0,0,1,.57-2.22l-.8-.6-.8-.61a5.34,5.34,0,0,0-.95,3.7,2.25,2.25,0,0,0,.09.35A3.59,3.59,0,0,1,36.34,27c0-1.39,2-4.9,3.62-7.45,1.65,2.54,3.63,6.05,3.63,7.45A3.58,3.58,0,0,1,42.23,29.84Z"></path><rect x="7.22" y="9.38" width="2.11" height="2"></rect><rect x="11.44" y="9.38" width="2.11" height="2"></rect><rect x="15.65" y="9.38" width="2.11" height="2"></rect><path d="M34.58,18.82a1,1,0,0,0-1-1H29.36v2h3.22V23h2Z"></path><path d="M8.22,49.4h-2v4.22a1,1,0,0,0,1,1h4.22v-2H8.22Z"></path></svg>