<svg height='100px' width='100px'  fill="#000000" xmlns="http://www.w3.org/2000/svg" xmlns:xlink="http://www.w3.org/1999/xlink" version="1.1" x="0px" y="0px" viewBox="0 0 120 120" style="enable-background:new 0 0 120 120;" xml:space="preserve"><g><path d="M52.5,64.2H20.4c-2.1,0-2.7,2.3-1,4l10.2,10.4l-18.8,19c-1,1-1,2.9,0,4l7.7,7.7c1,1,2.7,1,4,0l19-19l10.6,10.2   c1.5,1.9,3.8,1.3,3.8-0.8V67.7C55.8,66.3,54,64.2,52.5,64.2z"></path><path d="M67.5,55.8h32.1c2.1,0,2.7-2.3,1-4L90.4,41.4l18.8-19c1-1,1-2.9,0-4l-7.7-7.7c-1-0.8-2.7-0.8-4,0.2L78.8,29.8L68.1,19.5   c-1.7-1.7-4-1-4,1v32.1C64.2,54.2,66,55.8,67.5,55.8z"></path><path d="M90.2,78.8l10.2-10.6c1.7-1.7,1-4-1-4H67.3c-1.5,0-3.1,1.9-3.1,3.3v32.1c0,2.1,2.3,2.7,4,1l10.4-10.2l19,18.8   c1,1,2.9,1,4,0l7.7-7.7c0.8-1,0.8-2.7-0.2-4L90.2,78.8z"></path><path d="M51.9,19.3L41.4,29.6l-19-18.8c-1-1-2.9-1-4,0l-7.7,7.7c-1,1-1,2.7,0,4l19,19L19.5,52.1c-1.9,1.5-1.3,3.8,0.8,3.8h31.9   c1.5,0,3.5-1.9,3.5-3.3V20.4C55.8,18.3,53.5,17.7,51.9,19.3z"></path></g></svg>