<svg height='100px' width='100px'  fill="#000000" xmlns:dc="http://purl.org/dc/elements/1.1/" xmlns:cc="http://creativecommons.org/ns#" xmlns:rdf="http://www.w3.org/1999/02/22-rdf-syntax-ns#" xmlns:svg="http://www.w3.org/2000/svg" xmlns="http://www.w3.org/2000/svg" xmlns:sodipodi="http://sodipodi.sourceforge.net/DTD/sodipodi-0.dtd" xmlns:inkscape="http://www.inkscape.org/namespaces/inkscape" version="1.1" x="0px" y="0px" viewBox="0 0 100 100"><g transform="translate(-664.5,-949.25)"><path style="" d="m 740.22965,954.71228 c -0.9546,0.28915 -1.84293,0.8064 -2.59759,1.61131 l -19.55138,20.85659 c -2.58814,2.75838 -2.43924,7.04064 0.33195,9.59225 l 6.95573,6.40195 3.64687,-2.75076 -5.73742,-7.57339 -1.12653,-1.04121 16.11158,-17.5825 c -0.30743,-1.03792 -0.39678,-2.17928 -0.25849,-3.22484 0.2257,-1.70692 1.02266,-3.33217 2.32859,-4.56756 0.36932,-0.34838 0.77195,-0.66906 1.22878,-0.95321 l 1.65984,-1.03537 c -1.01823,-0.0896 -2.03777,-0.024 -2.99192,0.26681 z" fill="#000000" fill-opacity="1" stroke="none"></path><path style="" d="m 750.71218,959.08009 -4.71338,2.94852 1.60853,2.56337 5.18261,4.7984 -1.29751,1.38888 -5.56199,5.9584 -10.44001,11.17614 c 0.49482,1.41519 0.58921,2.95139 0.20513,4.38184 -0.39674,1.47911 -1.25765,2.84001 -2.57882,3.83592 l -1.01571,0.76674 c 1.90221,0.0525 3.79281,-0.52014 5.19958,-2.02052 l 14.03838,-14.97454 5.52136,-5.88431 c 1.45809,-1.55508 1.82307,-3.53756 1.56249,-5.47558 -0.20136,-1.50062 -0.69225,-3.00084 -1.90262,-4.11418 l -5.80806,-5.34931 z" fill="#000000" fill-opacity="1" stroke="none"></path><path style="" d="m 717.77124,974.63395 c -0.25764,0.097 -0.50947,0.22641 -0.7469,0.40476 l -11.11745,8.34849 -1.06552,2.6663 4.82662,2.12408 6.24124,-4.76819 c -0.0869,-0.40489 -0.1366,-0.92288 -0.15105,-1.33614 -0.0641,-1.8597 0.58404,-3.74869 1.96691,-5.22252 l 2.48104,-2.64785 c -0.82212,0.12514 -1.6635,0.13442 -2.43516,0.43073 z" fill="#000000" fill-opacity="1" stroke="none"></path><path style="" d="m 698.77524,981.83308 -1.49536,1.26144 4.01834,3.2637 -2.52302,-4.52518 z" fill="#000000" fill-opacity="1" stroke="none"></path><path style="" d="m 689.93693,985.84089 -0.65766,4.1483 8.61095,-0.61391 -7.95329,-3.53439 z" fill="#000000" fill-opacity="1" stroke="none"></path><path style="" d="m 727.17122,977.04506 -4.23404,4.61323 0.57706,0.75104 6.14196,8.10074 -4.34149,3.27308 -7.08974,5.34445 c -0.49754,0.44133 -0.80114,0.8012 -1.04123,1.1369 -0.10483,0.147 -0.16741,0.2741 -0.22991,0.4034 -0.16517,0.2523 -0.32577,0.4782 -0.49199,0.8786 l -4.85109,11.3958 1.42328,1.6884 c 1.23989,1.4767 1.66808,3.2024 1.51038,4.9369 0.73878,-0.6516 1.29413,-1.0034 1.7073,-1.9692 l 5.90505,-13.7664 -0.0189,0 9.02619,-6.8062 1.67407,-1.26081 c 2.47198,-1.86333 3.22601,-5.11186 2.20752,-7.84142 -0.2272,-0.60932 -0.44726,-1.12105 -0.8637,-1.66707 l -7.01362,-9.21661 z" fill="#000000" fill-opacity="1" stroke="none"></path><path style="" d="m 697.83463,994.05494 -5.77479,13.48046 c -1.48519,3.4671 0.13281,7.4235 3.62031,8.8754 l 10.38945,4.3245 1.74364,-1.4493 -5.72231,-6.8522 -4.60108,-1.9338 6.02314,-14.155 -5.11273,0.76497 -0.56563,-3.05515 z" fill="#000000" fill-opacity="1" stroke="none"></path><path style="" d="m 701.01986,1003.3944 -2.63492,6.1707 1.09142,-0.9041 2.79373,3.3484 6.12074,7.3284 -2.29768,1.9039 -20.77106,17.2148 -8.90392,-10.6715 15.99953,-13.3995 c -0.35466,-0.4803 -0.61137,-0.9314 -0.83584,-1.4802 -0.70033,-1.7135 -0.73988,-3.6979 0.0516,-5.5456 l 0.0592,-0.1329 -18.70919,15.4506 c -2.91998,2.4095 -3.32275,6.6641 -0.90385,9.5476 l 8.04189,9.5882 c 2.41806,2.8832 6.71226,3.2668 9.63124,0.8564 l 22.07238,-18.225 c 1.27243,-1.0496 1.84561,-2.5205 2.13613,-4.0065 0.37618,-1.9239 0.123,-3.9198 -1.2429,-5.5468 l -1.61725,-1.9237 -6.41622,-7.6661 c -0.95659,-1.1406 -2.32162,-1.5678 -3.66516,-1.9074 z" fill="#000000" fill-opacity="1" stroke="none"></path><path style="" d="m 753.28456,961.50644 -2.70974,4.85454 -2.64049,-1.47872 -5.05092,-4.93649 -1.32283,1.36487 -5.67341,5.85238 -10.6415,10.98447 c -1.43807,-0.42358 -2.97705,-0.44122 -4.3867,0.0136 -1.45735,0.47005 -2.7736,1.39785 -3.70239,2.76708 l -0.71511,1.0527 c -0.14733,-1.89721 0.3304,-3.81396 1.75859,-5.29399 l 14.25568,-14.76783 5.60152,-5.80798 c 1.47985,-1.53438 3.4423,-1.99721 5.39085,-1.83369 1.50892,0.12632 3.03166,0.54173 4.20404,1.69509 l 5.6323,5.53404 z" fill="#000000" fill-opacity="1" stroke="none"></path></g></svg>