<svg height='100px' width='100px'  fill="#000000" xmlns="http://www.w3.org/2000/svg" viewBox="0 0 64 64" x="0px" y="0px"><title>Brush-graphic-painting-palette</title><g><path d="M19,14a1.993,1.993,0,0,0,1,1.722V14.267a8.085,8.085,0,0,1-.668-1.356A2,2,0,0,0,19,14Z"></path><path d="M18,34a2,2,0,1,0,1.3,3.513c-.026-1.018-.045-2.036-.039-3.056A2,2,0,0,0,18,34Z"></path><path d="M21.887,24a96.312,96.312,0,0,0-.553,15.014l.6,20.458a.564.564,0,0,0,1.126-.013l.6-20.433A96.17,96.17,0,0,0,23.113,24Z"></path><path d="M17,14a4.008,4.008,0,0,1,1.333-2.981.974.974,0,0,1,.527-.227,8.036,8.036,0,0,1,.153-2.413C8.16,13.73,2.235,22.513,4.465,30.346c1.567,5.507,7.135,9.826,14.957,11.669l-.066-2.258a4,4,0,1,1-.046-7.527c.089-3.1.308-6.206.69-9.278V17.858A4,4,0,0,1,17,14ZM11,33a4,4,0,1,1,4-4A4,4,0,0,1,11,33Zm2-9a4,4,0,1,1,4-4A4,4,0,0,1,13,24Z"></path><circle cx="11" cy="29" r="2"></circle><circle cx="13" cy="20" r="2"></circle><rect x="22" y="15" width="1" height="7"></rect><path d="M59.979,11.431c-.264-2.389-2.971-4.679-6.736-5.7-6.454-1.747-17.514-2.495-24.854-.727-1.092.264-2.169.576-3.226.912l.507,1.354A8.052,8.052,0,0,1,25,14.267v8.684A98.215,98.215,0,0,1,25.664,39.1l-.113,3.813A44.914,44.914,0,0,0,38.92,41.7,39.145,39.145,0,0,0,46.606,39a7.941,7.941,0,0,0,4.428-9.142l-.49-1.966a9.2,9.2,0,0,1,4.521-10.4C58.467,15.705,60.213,13.552,59.979,11.431ZM41,6a4,4,0,1,1-4,4A4,4,0,0,1,41,6ZM27,11a4,4,0,1,1,4,4A4,4,0,0,1,27,11ZM44.158,33.919A9.017,9.017,0,0,1,38.144,36.8a11.933,11.933,0,0,1-1.281.07c-3.618,0-6.487-1.722-6.763-4.218a3.923,3.923,0,0,1,.936-2.907,9.016,9.016,0,0,1,6.013-2.877c4.206-.461,7.736,1.365,8.044,4.148A3.926,3.926,0,0,1,44.158,33.919Z"></path><path d="M38.318,28.794a9.565,9.565,0,0,0-1.052.059,7.119,7.119,0,0,0-4.671,2.14,1.955,1.955,0,0,0-.507,1.435c.156,1.409,2.593,2.733,5.839,2.38A7.125,7.125,0,0,0,42.6,32.667a1.943,1.943,0,0,0,.506-1.435C42.966,29.979,41.027,28.794,38.318,28.794Z"></path><circle cx="31" cy="11" r="2"></circle><circle cx="41" cy="10" r="2"></circle><path d="M22.8,5.308,21.173,8.055a6.051,6.051,0,0,0,.4,4.945h1.855a6.045,6.045,0,0,0,.37-5.025Z"></path></g></svg>