<svg height='100px' width='100px'  fill="#000000" xmlns="http://www.w3.org/2000/svg" xmlns:xlink="http://www.w3.org/1999/xlink" version="1.1" x="0px" y="0px" viewBox="0 0 64 64" style="enable-background:new 0 0 64 64;" xml:space="preserve"><g><path d="M29,30c-0.542,0-1.044,0.155-1.483,0.407L4.3,21.12C4.102,21.041,3.89,21,3.677,21h0C2.751,21,2,21.751,2,22.677v0.188   c0,0.686,0.417,1.302,1.054,1.557l23.014,9.206C26.357,34.983,27.559,36,29,36c1.657,0,3-1.343,3-3S30.657,30,29,30z"></path><path d="M60.323,21L60.323,21c-0.213,0-0.425,0.041-0.623,0.12l-23.217,9.287C36.044,30.155,35.542,30,35,30c-1.657,0-3,1.343-3,3   s1.343,3,3,3c1.441,0,2.643-1.017,2.932-2.373l23.014-9.206C61.583,24.167,62,23.55,62,22.865v-0.188   C62,21.751,61.249,21,60.323,21z"></path><path d="M23.218,12.653l4.826-3.217C28.023,9.292,28,9.149,28,9V7c0-0.149,0.023-0.292,0.044-0.435l-4.825-3.217   C22.878,3.12,22.48,3,22.07,3L22,12.93C22.483,13.001,22.878,12.879,23.218,12.653z"></path><path d="M31,10h2c0.552,0,1-0.449,1-1V7c0-0.551-0.448-1-1-1h-2c-0.552,0-1,0.449-1,1v2C30,9.551,30.448,10,31,10z"></path><path d="M20,11.309V8.833c-2.326-0.41-4.569-0.895-6.643-1.401l2.16,9.358L20,11.309z"></path><path d="M3,4.415v9.325l7.688-6.989C7.271,5.833,4.533,4.94,3,4.415z"></path><path d="M28.431,19.418l2.235-7.452c-0.337-0.038-0.657-0.126-0.951-0.267l-5.145,5.145L28.431,19.418z"></path><path d="M61,4.415c-1.533,0.525-4.271,1.418-7.688,2.335L61,13.739V4.415z"></path><path d="M50.643,7.432C48.569,7.938,46.326,8.422,44,8.833v2.476l4.483,5.481L50.643,7.432z"></path><path d="M35.956,9.435l4.825,3.217C41.122,12.88,41.52,13,41.93,13L42,3.07c-0.485-0.072-0.879,0.051-1.218,0.277l-4.826,3.217   C35.977,6.708,36,6.851,36,7v2C36,9.149,35.977,9.292,35.956,9.435z"></path><path d="M35.569,19.418l3.861-2.574l-5.145-5.145c-0.294,0.141-0.614,0.229-0.951,0.267L35.569,19.418z"></path><rect x="10" y="59" width="44" height="2"></rect><path d="M52,41H12v4.726C13.467,44.059,15.61,43,18,43c3.01,0,5.635,1.673,7,4.136C26.365,44.673,28.99,43,32,43   s5.635,1.673,7,4.136C40.365,44.673,42.99,43,46,43c2.39,0,4.533,1.059,6,2.726V41z"></path><rect x="10" y="37" width="44" height="2"></rect><circle cx="18" cy="52" r="1"></circle><path d="M12,57h12v-6c0-3.309-2.691-6-6-6s-6,2.691-6,6V57z M18,49c1.654,0,3,1.346,3,3s-1.346,3-3,3s-3-1.346-3-3S16.346,49,18,49   z"></path><path d="M32,45c-3.309,0-6,2.691-6,6v6h12v-6C38,47.691,35.309,45,32,45z M32,55c-1.654,0-3-1.346-3-3s1.346-3,3-3s3,1.346,3,3   S33.654,55,32,55z"></path><path d="M46,45c-3.309,0-6,2.691-6,6v6h12v-6C52,47.691,49.309,45,46,45z M46,55c-1.654,0-3-1.346-3-3s1.346-3,3-3s3,1.346,3,3   S47.654,55,46,55z"></path><circle cx="46" cy="52" r="1"></circle><circle cx="32" cy="52" r="1"></circle></g></svg>