<svg height='100px' width='100px'  fill="#000000" xmlns="http://www.w3.org/2000/svg" xmlns:xlink="http://www.w3.org/1999/xlink" version="1.1" x="0px" y="0px" viewBox="0 0 32 32" style="enable-background:new 0 0 32 32;" xml:space="preserve"><polygon points="30.3,30 30.3,18.1 22.6,25.8 18.5,21.8 11.8,28.5 7.1,23.8 2,28.9 2,26.1 7.1,21 11.8,25.7   18.5,19 22.6,23 30.3,15.3 30.3,13.1 22.6,20.8 18.5,16.8 11.8,23.5 7.1,18.8 2,23.9 2,21.1 7.1,16 11.8,20.7 18.5,14 22.6,18   30.3,10.3 30.3,8.1 22.6,15.8 18.5,11.8 11.8,18.5 7.1,13.8 2,18.9 2,16.1 7.1,11 11.8,15.7 18.5,9 22.6,13 30.3,5.3 30.3,0.3   22.6,8 18.5,4 11.8,10.7 7.1,6 2,11.1 2,0 0,0 0,32 32,32 32,30 "></polygon></svg>