<svg height='100px' width='100px'  fill="#000000" xmlns="http://www.w3.org/2000/svg" xmlns:xlink="http://www.w3.org/1999/xlink" version="1.1" x="0px" y="0px" viewBox="0 0 64 64" style="enable-background:new 0 0 64 64;" xml:space="preserve"><rect x="29" y="37" width="6" height="2"></rect><path d="M30,26h-2c0,0.249-1.064,1-3,1s-3-0.751-3-1h-2c0,1.71,2.149,3,5,3S30,27.71,30,26z"></path><path d="M39,27c-1.936,0-3-0.751-3-1h-2c0,1.71,2.149,3,5,3s5-1.29,5-3h-2C42,26.249,40.936,27,39,27z"></path><path d="M54,48h-9c-2.701,0-4.896-2.158-4.984-4.838c4.705-5.968,7.487-13.215,7.942-20.944l0.188-3.187  c0.263-4.469-1.283-8.724-4.354-11.98C40.721,3.794,36.563,2,32.087,2s-8.634,1.794-11.704,5.051  c-3.071,3.257-4.617,7.512-4.354,11.98l0.188,3.187c0.45,7.659,3.187,14.846,7.815,20.782H24c0,2.757-2.243,5-5,5h-9  c-4.411,0-8,3.589-8,8v6c0,0.553,0.447,1,1,1h58c0.553,0,1-0.447,1-1v-6C62,51.589,58.411,48,54,48z M18.024,18.914  c-0.229-3.913,1.124-7.64,3.813-10.491C24.527,5.57,28.167,4,32.087,4s7.56,1.57,10.249,4.423c2.689,2.852,4.043,6.578,3.813,10.491  l-0.188,3.187C45.422,31.281,41.426,39.753,34.697,46h-5.221c-6.729-6.247-10.725-14.719-11.265-23.899L18.024,18.914z M60,61H4v-5  c0-3.309,2.691-6,6-6h9c3.161,0,5.837-2.109,6.703-4.992c0.853,0.949,1.755,1.863,2.711,2.732c0.185,0.167,0.424,0.26,0.673,0.26h6  c0.249,0,0.488-0.093,0.673-0.26c0.908-0.825,1.769-1.688,2.583-2.585C39.254,47.963,41.893,50,45,50h9c3.309,0,6,2.691,6,6V61z"></path><path d="M10.287,29.557l1.975-0.322c-0.105-0.646-0.181-1.306-0.222-1.961l-1.996,0.126C10.09,28.12,10.172,28.846,10.287,29.557z"></path><path d="M12.336,22.354l-1.967-0.365c-0.131,0.709-0.229,1.433-0.289,2.152l1.992,0.168C12.128,23.656,12.217,22.998,12.336,22.354z  "></path><path d="M16.166,38.193c-0.402-0.521-0.783-1.066-1.131-1.62l-1.693,1.062c0.381,0.608,0.799,1.208,1.242,1.78L16.166,38.193z"></path><path d="M11.203,18.839l1.889,0.658c0.218-0.625,0.467-1.241,0.739-1.832l-1.814-0.84C11.716,17.475,11.442,18.152,11.203,18.839z"></path><path d="M12.956,32.11l-1.904,0.613c0.222,0.688,0.48,1.372,0.77,2.033l1.832-0.801C13.392,33.356,13.157,32.735,12.956,32.11z"></path><path d="M7.71,16.713l1.867,0.715c0.234-0.611,0.501-1.229,0.794-1.838l-1.803-0.867C8.252,15.381,7.963,16.051,7.71,16.713z"></path><path d="M10.162,11.892l1.68,1.086c0.358-0.555,0.748-1.104,1.156-1.633l-1.582-1.223C10.974,10.694,10.552,11.29,10.162,11.892z"></path><path d="M6,26.002c0.001,0.451,0.012,0.897,0.034,1.341l1.998-0.1C8.012,26.831,8.001,26.416,8,26c0-0.254,0.004-0.506,0.012-0.758  l-1.998-0.066C6.004,25.449,6,25.725,6,26.002z"></path><path d="M6.868,32.688l1.934-0.514c-0.171-0.641-0.316-1.298-0.433-1.953L6.4,30.57C6.526,31.28,6.684,31.993,6.868,32.688z"></path><path d="M10.583,36.838c-0.298-0.588-0.577-1.201-0.83-1.821l-1.852,0.754c0.272,0.671,0.575,1.335,0.898,1.972L10.583,36.838z"></path><path d="M6.314,21.942l1.977,0.311c0.103-0.658,0.235-1.318,0.393-1.962L6.74,19.816C6.57,20.515,6.427,21.229,6.314,21.942z"></path><path d="M13.294,41.031c-0.416-0.517-0.815-1.058-1.189-1.61l-1.656,1.121c0.404,0.598,0.837,1.185,1.287,1.743L13.294,41.031z"></path><path d="M9.938,5.682l1.471,1.355c0.419-0.455,0.853-0.896,1.301-1.321L11.33,4.267C10.851,4.724,10.386,5.195,9.938,5.682z"></path><path d="M2.495,31.451c0.12,0.654,0.263,1.308,0.425,1.942l1.938-0.494c-0.151-0.595-0.283-1.199-0.396-1.81L2.495,31.451z"></path><path d="M2.911,18.645l1.939,0.486c0.15-0.6,0.322-1.192,0.513-1.777l-1.902-0.619C3.256,17.366,3.07,18.009,2.911,18.645z"></path><path d="M2.1,23.536l1.994,0.16c0.05-0.619,0.12-1.232,0.211-1.839l-1.979-0.295C2.229,22.215,2.153,22.879,2.1,23.536z"></path><path d="M4.521,13.951l1.832,0.805c0.248-0.566,0.517-1.124,0.801-1.671L5.38,12.161C5.074,12.747,4.788,13.344,4.521,13.951z"></path><path d="M8.582,41.342c-0.339-0.516-0.661-1.045-0.967-1.583l-1.74,0.986c0.327,0.577,0.673,1.142,1.035,1.694L8.582,41.342z"></path><path d="M6.367,37.277c-0.248-0.564-0.479-1.138-0.691-1.721L3.797,36.24c0.227,0.624,0.475,1.238,0.74,1.842L6.367,37.277z"></path><path d="M2.102,28.495l1.994-0.162c-0.051-0.612-0.082-1.23-0.092-1.854l-2,0.033C2.016,27.179,2.049,27.84,2.102,28.495z"></path><path d="M6.888,9.591l1.674,1.096c0.338-0.517,0.693-1.022,1.065-1.516L8.029,7.968C7.632,8.496,7.251,9.037,6.888,9.591z"></path><path d="M51.664,22.354c0.119,0.644,0.208,1.302,0.264,1.955l1.992-0.168c-0.061-0.72-0.158-1.443-0.289-2.152L51.664,22.354z"></path><path d="M53.713,29.557c0.115-0.711,0.197-1.437,0.243-2.157l-1.996-0.126c-0.041,0.655-0.116,1.314-0.222,1.961L53.713,29.557z"></path><path d="M50.347,33.956l1.832,0.801c0.289-0.661,0.548-1.346,0.77-2.033l-1.904-0.613C50.843,32.735,50.608,33.356,50.347,33.956z"></path><path d="M50.908,19.497l1.889-0.658c-0.239-0.687-0.513-1.364-0.813-2.014l-1.814,0.84C50.441,18.256,50.69,18.872,50.908,19.497z"></path><path d="M47.834,38.193l1.582,1.223c0.443-0.572,0.861-1.172,1.242-1.78l-1.693-1.062C48.617,37.127,48.236,37.672,47.834,38.193z"></path><path d="M57.966,27.343C57.988,26.899,57.999,26.453,58,26c0-0.275-0.004-0.551-0.014-0.824l-1.998,0.066  C55.996,25.494,56,25.746,56,25.998c-0.001,0.418-0.012,0.833-0.032,1.245L57.966,27.343z"></path><path d="M56.099,35.771l-1.852-0.754c-0.253,0.62-0.532,1.233-0.83,1.821l1.783,0.904C55.523,37.105,55.826,36.441,56.099,35.771z"></path><path d="M55.316,20.291c0.157,0.644,0.29,1.304,0.393,1.962l1.977-0.311c-0.112-0.713-0.256-1.428-0.426-2.126L55.316,20.291z"></path><path d="M57.132,32.688c0.185-0.694,0.342-1.407,0.468-2.117l-1.969-0.35c-0.116,0.655-0.262,1.312-0.433,1.953L57.132,32.688z"></path><path d="M53.552,40.542l-1.656-1.121c-0.374,0.553-0.773,1.094-1.189,1.61l1.559,1.254C52.715,41.727,53.147,41.14,53.552,40.542z"></path><path d="M54.423,17.428l1.867-0.715c-0.253-0.662-0.542-1.332-0.858-1.99l-1.803,0.867C53.922,16.198,54.188,16.816,54.423,17.428z"></path><path d="M52.158,12.978l1.68-1.086c-0.39-0.602-0.812-1.197-1.254-1.77l-1.582,1.223C51.41,11.874,51.8,12.423,52.158,12.978z"></path><path d="M58.125,40.745l-1.74-0.986c-0.306,0.538-0.628,1.067-0.967,1.583l1.672,1.098C57.452,41.887,57.798,41.322,58.125,40.745z"></path><path d="M54.062,5.682c-0.448-0.486-0.913-0.958-1.393-1.415l-1.379,1.449c0.448,0.426,0.882,0.866,1.301,1.321L54.062,5.682z"></path><path d="M60.203,36.24l-1.879-0.684c-0.213,0.583-0.443,1.156-0.691,1.721l1.83,0.805C59.729,37.479,59.977,36.864,60.203,36.24z"></path><path d="M56.847,13.085c0.284,0.547,0.553,1.104,0.801,1.671l1.832-0.805c-0.268-0.607-0.554-1.204-0.859-1.79L56.847,13.085z"></path><path d="M58.637,17.354c0.19,0.585,0.362,1.178,0.513,1.777l1.939-0.486c-0.159-0.636-0.345-1.278-0.55-1.91L58.637,17.354z"></path><path d="M61.505,31.451l-1.967-0.361c-0.112,0.61-0.244,1.215-0.396,1.81l1.938,0.494C61.242,32.759,61.385,32.105,61.505,31.451z"></path><path d="M54.373,9.171c0.372,0.493,0.728,0.999,1.065,1.516l1.674-1.096c-0.363-0.554-0.744-1.095-1.142-1.623L54.373,9.171z"></path><path d="M61.996,26.513l-2-0.033c-0.01,0.623-0.041,1.241-0.092,1.854l1.994,0.162C61.951,27.84,61.984,27.179,61.996,26.513z"></path><path d="M59.695,21.857c0.091,0.606,0.161,1.22,0.211,1.839l1.994-0.16c-0.054-0.657-0.13-1.321-0.227-1.974L59.695,21.857z"></path><path d="M28,22c1.915,0,3.217-1.107,4-2.097C32.783,20.893,34.085,22,36,22c3.116,0,6.535-3.133,6.68-3.267  C42.884,18.545,43,18.278,43,18s-0.116-0.545-0.32-0.733C42.535,17.133,39.116,14,36,14c0-3.118-3.133-6.535-3.267-6.68  c-0.379-0.408-1.088-0.408-1.467,0C31.133,7.465,28,10.882,28,14c-3.116,0-6.535,3.133-6.68,3.267C21.116,17.455,21,17.722,21,18  s0.116,0.545,0.32,0.733C21.465,18.867,24.884,22,28,22z M40.433,18c-1.159,0.878-2.975,2-4.433,2c-1.275,0-2.152-0.918-2.634-1.615  c0.698-0.456,1.597-1.212,2.144-2.312C37.076,15.781,39.136,17.017,40.433,18z M32.001,9.566C32.879,10.722,34,12.534,34,14  c0,1.535-1.331,2.494-2.003,2.881C31.323,16.498,30,15.55,30,14C30,12.54,31.123,10.724,32.001,9.566z M28.49,16.073  c0.549,1.102,1.451,1.86,2.149,2.315C30.161,19.084,29.288,20,28,20c-1.458,0-3.273-1.122-4.433-2  C24.865,17.017,26.926,15.781,28.49,16.073z"></path></svg>