<svg height='100px' width='100px'  fill="#000000" xmlns="http://www.w3.org/2000/svg" xmlns:xlink="http://www.w3.org/1999/xlink" version="1.1" x="0px" y="0px" viewBox="0 0 70 70" style="enable-background:new 0 0 70 70;" xml:space="preserve"><g><polygon points="4.2916098,31.1643791 9.5761862,31.1643791 28.3507423,31.1643791 28.3507423,17.985527 4.2916098,17.985527  "></polygon><rect x="30.4364643" y="17.985527" width="9.1270714" height="13.1788521"></rect><rect x="10.6190472" y="33.250103" width="17.7316952" height="33.749897"></rect><path d="M52.1267548,10.5918045c0.3411674-1.6518755,0.0183296-3.337359-0.908432-4.7463417   c-0.9277802-1.4089828-2.3474541-2.3729165-3.9993324-2.7135775c-1.6539116-0.340152-3.3383751-0.016804-4.7468491,0.9099576   c-2.2354317,1.4705968-4.8395271,7.9879699-6.0677414,11.550909c3.7600021,0.2831211,10.7769089,0.4689817,13.009285-1.0016146   C50.8231773,13.6643753,51.786602,12.243681,52.1267548,10.5918045z"></path><path d="M27.5278587,4.0418429C26.4849987,3.3554282,25.2903919,3,24.0693073,3   c-0.4277344,0-0.8585262,0.043792-1.2882996,0.1318853c-1.6518745,0.340661-3.0715523,1.3045948-3.9993305,2.7135775   c-0.9267616,1.4089828-1.2496014,3.0944662-0.9084301,4.7463417c0.3401508,1.6518764,1.3035755,3.0725708,2.713068,3.9993324   c2.2344112,1.4711056,9.2482624,1.2826986,13.009285,1.0016146C32.3673859,12.0293036,29.7612514,5.5114212,27.5278587,4.0418429z"></path><polygon points="41.6492577,17.985527 41.6492577,31.1643791 60.4238129,31.1643791 65.7083893,31.1643791 65.7083893,17.985527     "></polygon><rect x="41.6492577" y="33.250103" width="17.7316952" height="33.749897"></rect><rect x="30.4364643" y="33.250103" width="9.1270714" height="33.749897"></rect></g></svg>