<svg height='100px' width='100px'  fill="#000000" xmlns="http://www.w3.org/2000/svg" xmlns:xlink="http://www.w3.org/1999/xlink" version="1.1" x="0px" y="0px" viewBox="0 0 90 90" enable-background="new 0 0 90 90" xml:space="preserve"><polygon points="71.9,60 71.5,62 18.5,62 18.1,60 18.1,60 "></polygon><circle cx="45" cy="23.4" r="3.4"></circle><circle cx="79.1" cy="31" r="3.4"></circle><circle cx="10.9" cy="32" r="3.4"></circle><rect x="18.1" y="63.5" width="53.9" height="3.5"></rect><path d="M77.2,33.7c-2.1,2-5.8,5.1-9.4,7.4l-0.2-1.4l-1.4-12.3l-7.9,7.2l-2.5,2.3L53.8,39c-2.9-4-5.7-9.3-7.3-12.6  c-0.9-1.8-1.4-3-1.4-3s-0.5,1.2-1.4,3c-1.6,3.3-4.4,8.5-7.3,12.5L34.2,37l-2.5-2.3l-7.8-7.1l-1.4,12.3l-0.2,1.4c-3.4-2.2-6.8-5-9-7  c-1.5-1.3-2.4-2.3-2.4-2.3l0.8,3.3l5.5,23.1h55.6l5.7-24.1l0.5-2.3C79.1,32,78.4,32.7,77.2,33.7z"></path><circle cx="23.8" cy="26" r="3.4"></circle><circle cx="66.3" cy="26" r="3.4"></circle></svg>