<svg height='100px' width='100px'  fill="#000000" xmlns="http://www.w3.org/2000/svg" xmlns:xlink="http://www.w3.org/1999/xlink" version="1.1" x="0px" y="0px" viewBox="0 0 100 100" enable-background="new 0 0 100 100" xml:space="preserve"><g><path fill-rule="evenodd" clip-rule="evenodd" d="M34.683,36.911c3.108-0.359,6.13-0.811,9.169-1.018   c1.691-0.114,2.45,1.343,1.743,2.942c-0.703,1.59-0.422,2.702,1.077,3.611c2.071,1.256,4.354,1.524,6.711,1.126   c1.089-0.183,1.467-0.986,1.354-1.993c-0.116-1.039-0.312-2.071-0.523-3.095c-0.193-0.95,0.073-1.553,1.104-1.621   c2.41-0.16,4.824-0.298,7.49-0.46c-0.285,1.206-0.601,2.084-0.681,2.983c-0.112,1.244-0.269,2.554-0.004,3.745   c0.356,1.607,1.74,1.964,2.975,0.889c0.895-0.78,1.561-0.645,2.446,0.042c1.697,1.315,2.509,2.917,2.138,5.067   c-0.281,1.639-0.954,2.266-2.646,2.284c-0.856,0.008-1.715-0.102-2.571-0.18c-1.653-0.148-2.514,0.301-2.934,1.911   c-0.346,1.323-0.421,2.721-0.578,4.089c-0.059,0.508-0.01,1.027-0.01,1.461c-4.089,1.04-8.011,2.146-11.983,3.011   c-3.207,0.696-6.404,0.009-9.563-0.623c-1.097-0.219-2.505-0.225-3.159-0.91c-0.568-0.596-0.236-2.019-0.37-3.067   c-0.124-0.96-0.243-1.938-0.534-2.854c-0.5-1.572-1.461-2.139-3.084-1.929c-0.739,0.099-1.463,0.304-2.192,0.463   c-0.782,0.169-1.426-0.023-1.803-0.765c-0.814-1.602-1.253-3.291-0.915-5.091c0.257-1.369,0.967-1.894,2.361-1.869   c0.934,0.018,1.87,0.097,2.802,0.057c2.498-0.109,3.618-1.447,3.203-3.902C35.48,39.866,35.079,38.545,34.683,36.911z"></path><path fill-rule="evenodd" clip-rule="evenodd" d="M87.31,60.29c-3.216-1.624-6.604-2.116-10.07-2.152   c-1.002-0.011-2.027,0.078-3.002,0.3c-1.829,0.419-2.604,1.609-2.387,3.474c0.093,0.78,0.3,1.546,0.363,2.326   c0.116,1.393-0.465,2.478-1.467,2.902c-1.009,0.43-2.402,0.178-3.14-0.566c-0.854-0.862-1.121-2.328-0.628-3.436   c1.021-2.279,0.262-3.791-2.216-4.334c-0.688-0.15-1.408-0.152-2.309-0.241c-0.02-1.742-0.106-3.528,0.625-5.201   c0.143-0.326,0.816-0.572,1.254-0.588c0.965-0.037,1.941,0.184,2.907,0.146c2.281-0.085,3.493-1.178,3.907-3.42   c0.691-3.742-1.287-5.95-3.876-7.337c-0.603-0.323-1.621,0.042-2.422,0.208c-0.362,0.076-0.664,0.438-1.239,0.843   c-0.116-0.805-0.352-1.456-0.269-2.06c0.184-1.291,0.488-2.572,0.854-3.825c0.071-0.239,0.685-0.49,1.013-0.451   c1.634,0.194,3.249,0.537,4.884,0.722c1.146,0.129,2.317,0.198,3.463,0.095c1.463-0.131,2.1-0.884,2.263-2.33   c0.026-0.222,0.05-0.448,0.042-0.671c-0.102-3.02,1.926-3.522,4.508-3.223c0.944,0.11,1.314,0.821,1.209,1.718   c-0.098,0.852-0.325,1.69-0.434,2.541c-0.305,2.362,0.552,3.424,2.918,3.434c1.717,0.007,3.436-0.242,5.152-0.263   c1.791-0.023,3.583,0.09,5.376,0.14c0.933,0.026,1.134,0.475,1.027,1.38c-0.813,6.895-3.657,12.965-7.45,18.662   C87.903,59.482,87.612,59.864,87.31,60.29z"></path><path fill-rule="evenodd" clip-rule="evenodd" d="M15.556,63.645c2.282-1.537,4.299-3.063,6.853-3.459   c0.608-0.095,1.37,0.165,1.892,0.513c0.174,0.116-0.18,1.027-0.301,1.574c-0.224,0.998-0.671,2.001-0.637,2.99   c0.061,1.786,1.401,3.04,3.138,3.281c1.771,0.247,3.442-0.655,4.041-2.324c0.271-0.755,0.319-1.603,0.38-2.414   c0.039-0.516-0.091-1.042-0.137-1.562c-0.166-1.918,0.024-1.991,1.842-1.492c3.094,0.854,6.206,1.677,9.351,2.307   c3.374,0.678,6.771,0.638,10.249-0.641c0.865,3.488,1.833,6.829,0.686,10.311c-0.474,1.436-1.1,1.546-2.357,0.688   c-0.647-0.439-1.303-0.891-2.013-1.207c-1.103-0.493-2.074-0.248-2.591,0.824c-1.334,2.77-1.788,5.646-0.315,8.519   c0.918,1.791,2.014,2.131,3.887,1.419c2.783-1.058,3.06-0.905,3.526,2.055c0.14,0.886,0.125,1.799,0.308,2.674   c0.3,1.413-0.252,2.303-1.535,2.785c-1.31,0.494-2.607,1.122-3.969,1.351c-1.679,0.285-3.175-0.307-4.494-1.522   c-6.022-5.554-12.174-10.968-18.127-16.594C21.893,70.564,18.852,67.098,15.556,63.645z"></path><path fill-rule="evenodd" clip-rule="evenodd" d="M14.343,62.461C7.855,54.693,3.664,45.997,3.798,35.368   c1.426,0.672,2.599,1.344,3.853,1.784c1.754,0.615,3.561,1.093,5.365,1.552c0.562,0.142,1.196,0.093,1.783,0.021   c1.614-0.198,2.275-1.109,2.059-2.713c-0.12-0.886-0.334-1.78-0.29-2.661c0.08-1.556,0.935-2.171,2.475-1.97   c2.869,0.376,3.122,0.803,2.09,3.534c-0.198,0.524-0.405,1.046-0.573,1.582c-0.641,2.042,0.016,2.875,2.12,2.632   c1.262-0.145,2.515-0.369,3.769-0.584c1.953-0.335,3.907-0.666,5.849-1.058c0.671-0.136,0.967,0.069,1.11,0.697   c0.268,1.164,0.64,2.309,0.829,3.485c0.206,1.29-0.232,1.815-1.548,1.921c-0.889,0.073-1.792-0.002-2.686-0.04   c-2.448-0.104-3.915,1.073-4.218,3.501c-0.254,2.028,0.203,3.95,1.174,5.729c0.695,1.273,1.764,1.741,3.208,1.502   c0.737-0.121,1.462-0.311,2.194-0.457c0.845-0.171,1.449,0.178,1.586,1.007c0.259,1.568,0.414,3.154,0.649,5.025   c-0.885-0.301-1.43-0.495-1.981-0.672c-2.338-0.751-3.431,0.075-3.358,2.55c0.02,0.672,0.165,1.344,0.146,2.013   c-0.019,0.663-0.064,1.359-0.291,1.972c-0.402,1.083-1.536,1.557-2.684,1.265c-1.059-0.271-1.775-1.238-1.624-2.368   c0.083-0.612,0.279-1.249,0.582-1.784c1.156-2.042,0.125-4.144-2.239-4.171c-1.15-0.013-2.389,0.316-3.44,0.805   C17.922,60.298,16.253,61.377,14.343,62.461z"></path><path fill-rule="evenodd" clip-rule="evenodd" d="M65.516,12.543c0.39,2.757,0.117,5.258-1.841,7.266   c-0.425,0.437-1.392,0.693-1.989,0.546c-1.88-0.463-3.43-0.134-4.611,1.41c-0.973,1.27-1.368,2.697-0.517,4.186   c0.99,1.732,2.519,2.625,4.538,2.548c0.594-0.022,1.184-0.166,1.775-0.26c0.891-0.142,1.457,0.202,1.317,1.134   c-0.263,1.772-0.603,3.535-0.994,5.283c-0.044,0.2-0.623,0.381-0.962,0.397c-2.238,0.106-4.492,0.035-6.713,0.272   c-2.634,0.281-3.165,1.15-2.717,3.782c0.125,0.737,0.337,1.467,0.375,2.208c0.015,0.276-0.328,0.798-0.55,0.821   c-1.776,0.192-3.517,0.013-5.092-0.924c-0.737-0.436-0.969-0.968-0.548-1.865c1.156-2.465-0.316-5.034-3.021-4.944   c-2.823,0.093-5.64,0.591-8.438,1.044c-1.05,0.17-1.571,0.047-1.819-1.07c-0.324-1.456-0.863-2.863-1.211-4.314   c-0.279-1.164,0.159-1.693,1.351-1.79c0.442-0.036,0.901-0.01,1.339,0.063c1.894,0.317,3.466-0.374,4.839-1.577   c1.265-1.108,1.526-2.597,0.825-4.071c-0.771-1.618-2.128-2.424-3.787-2.179c-0.737,0.109-1.463,0.311-2.18,0.519   c-0.735,0.214-1.12-0.105-1.156-0.783c-0.165-3.11,0.835-5.814,3-8.05c0.195-0.202,0.765-0.158,1.122-0.069   c4.021,1.006,7.771,2.657,11.259,4.882c0.797,0.508,1.392,0.555,2.229,0.07c3.92-2.271,8.154-3.689,12.624-4.401   C64.434,12.604,64.916,12.593,65.516,12.543z"></path><path fill-rule="evenodd" clip-rule="evenodd" d="M67.102,12.517c13.426-1.448,29.236,10.918,28.525,24.788   c-3.666,0.123-7.307,0.252-10.949,0.364c-2.047,0.062-2.345-0.316-1.949-2.375c0.133-0.697,0.318-1.393,0.361-2.097   c0.109-1.708-0.795-2.894-2.466-3.229c-1.516-0.304-2.993-0.072-4.361,0.632c-1.397,0.721-1.757,2.045-1.865,3.486   c-0.162,2.152-0.287,2.353-2.397,2.165c-2.412-0.214-4.806-0.627-7.285-0.964c0.067-0.407,0.105-0.692,0.161-0.973   c0.228-1.137,0.476-2.271,0.69-3.409c0.675-3.577-0.896-4.814-3.996-3.977c-1.131,0.305-2.147-0.054-3.01-0.828   c-0.969-0.87-1.165-1.836-0.615-2.917c0.606-1.191,1.598-1.693,2.854-1.446c2.584,0.508,3.878-0.083,5.15-2.388   c0.987-1.786,1.334-3.716,1.218-5.739C67.146,13.245,67.123,12.879,67.102,12.517z"></path><path fill-rule="evenodd" clip-rule="evenodd" d="M35.172,11.561c-1.618,2.018-2.609,4.172-2.88,6.6   c-0.098,0.88-0.111,1.803,0.041,2.671c0.248,1.415,1.228,2,2.634,1.715c0.731-0.148,1.445-0.398,2.18-0.517   c1.145-0.186,1.924,0.305,2.384,1.401c0.412,0.982,0.09,1.769-0.693,2.378c-1.002,0.78-2.103,1.25-3.433,1.041   c-0.657-0.103-1.351-0.137-2.006-0.047c-1.812,0.247-2.797,1.548-2.408,3.337c0.41,1.891,1.002,3.742,1.565,5.792   c-3.504,0.61-7.008,1.221-10.847,1.889c0.387-1.092,0.655-1.877,0.943-2.656c1.237-3.345,0.486-4.657-2.993-5.219   c-3.069-0.495-4.896,1.204-4.623,4.324c0.055,0.63,0.188,1.256,0.31,1.88c0.145,0.726-0.184,1.135-0.873,1.079   c-1.185-0.095-2.428-0.112-3.525-0.503c-2.105-0.75-4.122-1.744-6.181-2.622c-0.647-0.276-0.718-0.708-0.583-1.353   c1.534-7.34,5.666-12.865,11.792-17.025c5.344-3.629,11.19-5.224,17.639-4.428C34.083,11.357,34.546,11.454,35.172,11.561z"></path><path fill-rule="evenodd" clip-rule="evenodd" d="M55.069,88.438c-0.323-1.911-0.509-3.624-0.919-5.283   c-0.531-2.152-1.613-2.688-3.768-2.08c-0.43,0.122-0.849,0.285-1.269,0.443c-1.272,0.479-1.726,0.341-2.292-0.922   c-0.989-2.207-0.554-4.393,0.256-6.539c0.223-0.596,0.689-0.641,1.185-0.336c0.604,0.372,1.184,0.782,1.78,1.167   c1.686,1.091,3.229,0.826,3.949-1.034c0.59-1.521,0.913-3.262,0.861-4.888c-0.072-2.258-0.605-4.501-0.965-6.918   c0.92-0.25,1.973-0.607,3.053-0.812c2.223-0.422,4.352-1.454,6.7-1.075c0.439,0.071,0.898,0.12,1.303,0.289   c1.138,0.472,1.256,0.846,0.721,1.96c-0.81,1.688-0.454,3.863,0.846,5.201c1.196,1.227,3.283,1.608,4.891,0.891   c1.585-0.707,2.505-2.446,2.317-4.477c-0.068-0.742-0.233-1.476-0.364-2.211c-0.194-1.089,0.279-1.722,1.33-1.96   c0.254-0.058,0.514-0.117,0.773-0.134c3.319-0.224,6.573,0.098,9.713,1.261c0.374,0.139,0.728,0.331,1.337,0.612   c-1.642,1.853-3.077,3.664-4.707,5.279c-6.497,6.438-13.695,12.048-21.039,17.471C58.905,85.716,57.015,87.041,55.069,88.438z"></path></g></svg>