<svg height='100px' width='100px'  fill="#000000" xmlns="http://www.w3.org/2000/svg" data-name="Layer 1" viewBox="0 0 128 128" x="0px" y="0px"><title>solid 1</title><circle cx="121.5" cy="124" r="1"></circle><path d="M44.88,38.94A27,27,0,0,0,64,85H64A27,27,0,1,0,44.88,38.94ZM68,38.17v3.11a16.19,16.19,0,0,1,5.39,2.3l2-2.21a2,2,0,0,1,1.46-.59,2.57,2.57,0,0,1,1.81.77l1.73,1.71a2.27,2.27,0,0,1,.19,3.22l-2.2,2.12A16.21,16.21,0,0,1,80.71,54h3.11C85,54,86,55.43,86,56.78v2.44C86,60.57,85,62,83.83,62H80.71a16.21,16.21,0,0,1-2.3,5.39l2.21,2a2.32,2.32,0,0,1-.19,3.26l-1.72,1.73a2.54,2.54,0,0,1-1.79.78,1.94,1.94,0,0,1-1.41-.58l-2.12-2.21A16.2,16.2,0,0,1,68,74.71v3.11C68,79,66.57,80,65.22,80H62.78C61.43,80,60,79,60,77.83V74.71a16.19,16.19,0,0,1-5.39-2.3l-2,2.21a2,2,0,0,1-1.46.59,2.57,2.57,0,0,1-1.81-.77l-1.73-1.71a2.27,2.27,0,0,1-.19-3.22l2.2-2.12A16.21,16.21,0,0,1,47.29,62H44.17C43,62,42,60.57,42,59.22V56.78C42,55.43,43,54,44.17,54h3.11a16.21,16.21,0,0,1,2.3-5.39l-2.21-2a2.32,2.32,0,0,1,.19-3.27l1.72-1.73a2.54,2.54,0,0,1,1.79-.78,1.94,1.94,0,0,1,1.41.58l2.12,2.21A16.2,16.2,0,0,1,60,41.29V38.17C60,37,61.43,36,62.78,36h2.44C66.57,36,68,37,68,38.17Z"></path><path d="M62.16,38.19,62,41.29V42.9l-1.41.34a14.14,14.14,0,0,0-4.74,2l-1.36.87L53.36,45l-2.2-2.2h0a.6.6,0,0,0-.4.19L49,44.72a.51.51,0,0,0-.19.44L51,47.34l1.14,1.12-.87,1.31a14.55,14.55,0,0,0-2,4.82L48.9,56H44.17a2.28,2.28,0,0,0-.17.78v2.44a1.1,1.1,0,0,0,.19.61l3.1.16H48.9l.34,1.41a14.13,14.13,0,0,0,2,4.74l.87,1.36L51,68.64l-2.2,2.2a.55.55,0,0,0,.19.44L50.72,73a.59.59,0,0,0,.39.19h0L53.34,71l1.12-1.14,1.31.87a14.55,14.55,0,0,0,4.82,2L62,73.1v4.72a2.27,2.27,0,0,0,.78.17h2.44a1.09,1.09,0,0,0,.61-.19l.16-3.1V73.1l1.41-.34a14.14,14.14,0,0,0,4.74-2l1.36-.87L74.64,71l2.2,2.2h0a.6.6,0,0,0,.4-.19L79,71.28a.51.51,0,0,0,.18-.44L77,68.66l-1.14-1.12.87-1.31a14.55,14.55,0,0,0,2-4.82L79.1,60h4.72a2.27,2.27,0,0,0,.17-.78V56.78a1.1,1.1,0,0,0-.19-.61L80.71,56H79.1l-.34-1.41a14.14,14.14,0,0,0-2-4.74l-.87-1.36L77,47.36l2.2-2.2a.56.56,0,0,0-.19-.44L77.28,43a.59.59,0,0,0-.39-.19h0L74.66,45l-1.12,1.14-1.31-.87a14.55,14.55,0,0,0-4.82-2L66,42.9V38.17a2.27,2.27,0,0,0-.78-.17H62.78A1.1,1.1,0,0,0,62.16,38.19ZM74.52,58A10.52,10.52,0,1,1,64,47.48,10.52,10.52,0,0,1,74.52,58Z"></path><path d="M63.93,17A41,41,0,0,0,64,99h.07a40.8,40.8,0,0,0,22.64-6.87L92.61,98l-3.12,3.16a1,1,0,0,0,0,1.42l25.8,25.11a1,1,0,1,0,1.4-1.43L91.62,101.87l14.09-14.28,20.61,19.16a1,1,0,1,0,1.36-1.46L106.36,85.47a1,1,0,0,0-1.39,0l-3,3L96.45,83A41,41,0,0,0,64,17ZM95.19,84.6,100.55,90,94,96.6,88.38,91A41.2,41.2,0,0,0,95.19,84.6ZM93,58A29,29,0,0,1,64,87H64a29,29,0,0,1,0-58H64A29,29,0,0,1,93,58Z"></path><path d="M84.09,96h3.67l-1.34-1.34C85.65,95.13,84.88,95.58,84.09,96Z"></path><path d="M4,105H57v9H49a1,1,0,0,0,0,2H79a1,1,0,0,0,0-2H71v-9H89.1l-1-1a3,3,0,0,1-.69-1H4a2,2,0,0,1-2-2V96H43.92q-1.74-.92-3.38-2H2V21a2,2,0,0,1,2-2H20.22l.16.16a25.51,25.51,0,0,0-3.46,8.34H12.26A3.48,3.48,0,0,0,9,31.17v3.66a3.48,3.48,0,0,0,3.26,3.67h4.67a25.51,25.51,0,0,0,3.46,8.34l-3.31,3.31a3.48,3.48,0,0,0,.29,4.9L20,57.63a4,4,0,0,0,1,.74c0-.1,0-.2,0-.3A42.72,42.72,0,0,1,26.67,36.7,15.75,15.75,0,0,1,47.6,18.26,42.75,42.75,0,0,1,63.93,15c1.18,0,2.34.06,3.5.15A3.61,3.61,0,0,0,66.63,11L64,8.37A3.87,3.87,0,0,0,61.32,7.2a3,3,0,0,0-2.18.88l-3.31,3.31A25.49,25.49,0,0,0,47.5,7.93V3.26A3.48,3.48,0,0,0,43.83,0H40.17A3.48,3.48,0,0,0,36.5,3.26V7.93a25.49,25.49,0,0,0-8.34,3.46L24.86,8.08a3,3,0,0,0-2.18-.88A3.87,3.87,0,0,0,20,8.37L17.37,11a3.48,3.48,0,0,0-.29,4.9l1.53,1.53L18.22,17H4a4,4,0,0,0-4,4v80A4,4,0,0,0,4,105Z"></path><path d="M124,17H76.91A42.78,42.78,0,0,1,82,19h42a2,2,0,0,1,2,2V94h-7.53l2.15,2H126v5l1.68,1.56A4,4,0,0,0,128,101V21A4,4,0,0,0,124,17Z"></path><path d="M104.69,95.31a1,1,0,0,0-.15-.11,1,1,0,0,0-1.26.08l-6,5.75a1,1,0,0,0,0,1.44l20,19.25a1,1,0,1,0,1.39-1.44L99.44,101.75l5.22-5A1,1,0,0,0,104.69,95.31Z"></path><path d="M105.11,21h-2.22a2.11,2.11,0,0,0-2.22,2v2.83a15.47,15.47,0,0,0-5.05,2.09l-2-2a1.85,1.85,0,0,0-1.32-.53,2.16,2.16,0,0,0-.32,0,43.37,43.37,0,0,1,6.92,7.53,9.56,9.56,0,1,1,7.4,17.35,43,43,0,0,1,.71,7.65q0,1.11-.05,2.21a1.82,1.82,0,0,0,.39-1.11V56.19a15.47,15.47,0,0,0,5.05-2.09l2,2a1.85,1.85,0,0,0,1.32.53,2.35,2.35,0,0,0,1.64-.71l1.57-1.57a2.11,2.11,0,0,0,.18-3l-2-2a15.47,15.47,0,0,0,2.09-5.05H122a2.11,2.11,0,0,0,2-2.22V39.89a2.11,2.11,0,0,0-2-2.22h-2.83a15.46,15.46,0,0,0-2.09-5.05l2-2a2.11,2.11,0,0,0-.18-3l-1.57-1.57a2.35,2.35,0,0,0-1.64-.71,1.85,1.85,0,0,0-1.32.53l-2,2a15.47,15.47,0,0,0-5.05-2.09V23A2.11,2.11,0,0,0,105.11,21Z"></path></svg>