<svg height='100px' width='100px'  fill="#000000" xmlns="http://www.w3.org/2000/svg" data-name="Layer 1" viewBox="0 0 64 64" x="0px" y="0px"><title>cycle-circle-life-revolution-chance</title><polygon points="52 41 52 48.586 47.707 44.293 46.293 45.707 52 51.414 52 62 54 62 54 51.414 59.707 45.707 58.293 44.293 54 48.586 54 41 52 41"></polygon><rect x="43" y="48" width="2" height="2"></rect><rect x="46" y="59" width="2" height="2"></rect><rect x="60" y="50" width="2" height="2"></rect><rect x="56" y="56" width="2" height="2"></rect><rect x="60" y="60" width="2" height="2"></rect><rect x="47" y="53" width="2" height="2"></rect><path d="M6,49a4.3897,4.3897,0,0,0,1.97064-.47284L12,53.36243V62h2V53.36243l4.02936-4.83527A4.3897,4.3897,0,0,0,20,49a3.77932,3.77932,0,0,0,4-3.5A3.77932,3.77932,0,0,0,20,42a3.77932,3.77932,0,0,0-4,3.5,3.13435,3.13435,0,0,0,.52789,1.70416L14,50.23792V42.87573A3.61952,3.61952,0,0,0,17,39.5,3.77932,3.77932,0,0,0,13,36a3.77932,3.77932,0,0,0-4,3.5,3.61952,3.61952,0,0,0,3,3.37573v7.36219L9.47211,47.20416A3.13435,3.13435,0,0,0,10,45.5,3.77932,3.77932,0,0,0,6,42a3.77932,3.77932,0,0,0-4,3.5A3.77932,3.77932,0,0,0,6,49Zm14-5c1.084,0,2,.687,2,1.5S21.084,47,20,47s-2-.687-2-1.5S18.916,44,20,44Zm-9-4.5c0-.813.916-1.5,2-1.5s2,.687,2,1.5S14.084,41,13,41,11,40.313,11,39.5ZM6,44c1.084,0,2,.687,2,1.5S7.084,47,6,47s-2-.687-2-1.5S4.916,44,6,44Z"></path><path d="M6,32a26.55962,26.55962,0,0,0,.18457,3.11816l1.98633-.23632A24.451,24.451,0,0,1,8,32a23.8173,23.8173,0,0,1,9.60059-19.20166l-1.20118-1.59961A25.80139,25.80139,0,0,0,6,32Z"></path><path d="M18.56055,51.88721l-1.1211,1.65625a26.025,26.025,0,0,0,27.041,1.2705l-.96094-1.7539a24.02541,24.02541,0,0,1-24.959-1.17285Z"></path><path d="M56,32a24.00943,24.00943,0,0,1-.96,6.74072l1.91992.56153a26.037,26.037,0,0,0-9.35742-28.102l-1.20117,1.59863A23.82137,23.82137,0,0,1,56,32Z"></path><path d="M25.166,5.88379C22.17383,6.41016,20,8.46338,20,10.875a4.62752,4.62752,0,0,0,2.09863,3.74072A4.20288,4.20288,0,0,0,21.419,16.875C21.419,19.70117,24.415,22,28.09668,22A8.36305,8.36305,0,0,0,31,21.487V34h2V21.70807A8.53607,8.53607,0,0,0,35.19336,22c3.68164,0,6.67773-2.29883,6.67773-5.125a4.12317,4.12317,0,0,0-.48144-1.92725A4.78914,4.78914,0,0,0,44,10.875c0-2.62061-2.57617-4.78809-5.90625-5.08838C37.3291,3.57813,34.72656,2,31.64551,2,28.51074,2,25.88477,3.62207,25.166,5.88379ZM26.98438,6.896C27.169,5.272,29.21582,4,31.64551,4c2.41308,0,4.459,1.26221,4.65918,2.874a1.02376,1.02376,0,0,0,1.01758.876C39.85742,7.75,42,9.18115,42,10.875c0,1.13037-.94336,2.17969-2.46094,2.73926a.99977.99977,0,0,0-.38281,1.62353,2.42962,2.42962,0,0,1,.71484,1.63721c0,1.69385-2.14257,3.125-4.67773,3.125A6.43693,6.43693,0,0,1,33,19.61456v-2.2005l3.707-3.707L35.293,12.293,33,14.58594V10H31v4.58594l-2.293-2.293L27.293,13.707,31,17.41406v1.8833A6.17088,6.17088,0,0,1,28.09668,20c-2.53516,0-4.67773-1.43115-4.67773-3.125a2.51383,2.51383,0,0,1,.88183-1.79736,1.001,1.001,0,0,0-.25976-1.6377A3.05406,3.05406,0,0,1,22,10.875c0-1.53564,1.791-2.89551,4.07813-3.0957A.999.999,0,0,0,26.98438,6.896Z"></path></svg>