<svg height='100px' width='100px'  fill="#000000" xmlns="http://www.w3.org/2000/svg" xmlns:xlink="http://www.w3.org/1999/xlink" version="1.1" x="0px" y="0px" viewBox="0 0 100 100" style="enable-background:new 0 0 100 100;" xml:space="preserve"><g><path d="M78.2871094,38.7128906C70.7338867,31.159668,60.6879883,27,50,27s-20.7338867,4.159668-28.2871094,11.7128906   S10,56.3120117,10,67c0,1.6723633,0.1069336,3.3955078,0.3173828,5.1210938C10.3789063,72.6230469,10.8046875,73,11.3100586,73   h19.3198242h38.7402344h19.3198242c0.5053711,0,0.9311523-0.3769531,0.9926758-0.8789063   C89.8930664,70.3955078,90,68.6723633,90,67C90,56.3120117,85.840332,46.2661133,78.2871094,38.7128906z M50,29   c9.8189697,0,19.0609741,3.7047729,26.1488037,10.4371338L64.1202393,51.4656982   c-0.7332153-0.6670532-1.5143433-1.2800293-2.3327637-1.8380127c1.161499-3.3550415,2.0792847-6.0455933,2.1553955-6.282959   c0.1342773-0.4208984-0.0229492-0.8803711-0.3881836-1.1298828c-0.3632813-0.2485352-0.8491211-0.2294922-1.1933594,0.0478516   c-0.2004395,0.1617432-2.6378784,2.2077026-5.7210083,4.8303223C54.4962769,46.3786011,52.2680054,46,50,46   c-5.2701416,0-10.2314453,1.9522705-14.1057129,5.4802246L23.8511963,39.4371338C30.9390259,32.7047729,40.1810303,29,50,29z    M60.8828125,46.1181641c-0.3549805,1.03125-0.7749023,2.2490234-1.2373047,3.5834961   c-4.3955688,12.6430664-5.3269653,14.7953491-5.5227051,15.1260986c-0.1329956,0.1939087-0.2911987,0.3584595-0.4454956,0.5274658   c-0.0714111,0.0783081-0.1311646,0.1710815-0.206665,0.2439575c-0.210083,0.2026367-0.4404907,0.3757324-0.6777954,0.5355835   c-0.0320435,0.0216064-0.0591431,0.0514526-0.0916138,0.0722656c-1.0889282,0.6971436-2.4153442,0.9462891-3.6832886,0.6940308   c-0.0054321-0.0010376-0.0109253-0.0006104-0.0163574-0.001709c-0.2559814-0.0518188-0.5064087-0.1394043-0.7550659-0.2327271   c-0.0606079-0.0227661-0.1240234-0.0315552-0.18396-0.0567627c-0.3059082-0.1287231-0.6034546-0.2900391-0.8877563-0.4848633   c-2.2744141-1.5581055-2.8574219-4.6757813-1.3051758-6.9428711c0.0316162-0.041748,0.1043701-0.1248169,0.2679443-0.288269   c0.0159302-0.0159302,0.0394897-0.0385132,0.0571899-0.0560303c0.0431519-0.0426025,0.085022-0.0841675,0.1397095-0.1368408   c0.0144653-0.0139771,0.0350952-0.0332031,0.050415-0.0479126c0.0653687-0.0626831,0.1333008-0.1275635,0.2155762-0.204895   c0.0305786-0.0286865,0.0714722-0.0662842,0.1045532-0.097168c0.1888428-0.1762695,0.4108276-0.3809204,0.6923828-0.6359863   c0.0736084-0.0667725,0.1637573-0.1473999,0.2445679-0.2201538c0.0997314-0.0898438,0.1920776-0.1734619,0.3032227-0.2728882   c0.1030884-0.0922241,0.2259521-0.2009888,0.3393555-0.3018799c0.1091309-0.0970459,0.2086792-0.1860962,0.3278198-0.2915039   c0.1494751-0.1322632,0.3217163-0.2836304,0.4877319-0.4296875c0.1017456-0.0895996,0.1920166-0.1695557,0.300293-0.2645264   c0.2686157-0.2355957,0.560791-0.4907837,0.87146-0.7613525c0.0184937-0.0160522,0.0334473-0.0292969,0.052124-0.0455322   c0.3252563-0.2831421,0.6759033-0.5872803,1.0500488-0.9108887c0.0097656-0.0084229,0.0177002-0.0153198,0.0274658-0.0238037   c0.2335205-0.2019043,0.496521-0.4281616,0.75-0.6466064c0.1738892-0.1497803,0.3331909-0.2876587,0.5167847-0.4454956   c0.1477661-0.1270142,0.3171997-0.2718506,0.4714355-0.4042358c0.3085327-0.2647705,0.6119385-0.5253906,0.9472046-0.8121338   c0.1282349-0.1097412,0.2752075-0.2348633,0.4075317-0.3478394c0.3898315-0.3330078,0.7803955-0.666626,1.2061768-1.0291748   c0.0502319-0.0427856,0.1080933-0.0917358,0.1588135-0.1349487c0.4985352-0.4243774,1.0185547-0.8662109,1.5679932-1.3322144   c0.0315552-0.0213623,0.0618286-0.0439453,0.0911255-0.0689697C58.7543945,47.9189453,59.9130859,46.9370117,60.8828125,46.1181641   z M29.3828125,71H12.2045898C12.0688477,69.6499023,12,68.3081055,12,67c0-9.8189697,3.7047729-19.0609741,10.4371338-26.1488037   l12.0430908,12.0430908C30.9522705,56.7685547,29,61.7298584,29,67C29,68.3435669,29.1295166,69.6837158,29.3828125,71z    M68.578125,71h-37.15625C31.1416016,69.6875,31,68.3452148,31,67c0-5.0717773,1.9770508-9.8427734,5.5668945-13.4331055   C40.1572266,49.9770508,44.9282227,48,50,48c1.6386719,0,3.2568359,0.2084961,4.8300781,0.621582   c-0.0671387,0.0571289-0.1234131,0.1052856-0.1896973,0.1616821c-0.5157471,0.4389038-1.0097046,0.8598633-1.4749146,1.2572021   c-0.0835571,0.0713501-0.1625977,0.1390381-0.2445068,0.2091064c-0.4678345,0.3999023-0.9150391,0.7828979-1.3330688,1.1419067   c-0.0645752,0.0554199-0.1246338,0.1072388-0.1880493,0.1617432c-0.4255981,0.3657837-0.8303223,0.7142944-1.2059326,1.0389404   c-0.0293579,0.0253296-0.0556641,0.0482178-0.0846558,0.0733032c-0.3788452,0.3276367-0.7345581,0.6360474-1.0653076,0.9238892   c-0.0256958,0.0223389-0.0519409,0.045166-0.0773926,0.0673218c-0.3272705,0.2850342-0.6290894,0.5489502-0.9118042,0.7970581   c-0.026123,0.0229492-0.0546265,0.0478516-0.0803833,0.0704956c-0.27948,0.2454834-0.5343628,0.47052-0.7727051,0.6818848   c-0.0253906,0.022583-0.0527954,0.0466919-0.0777588,0.0689087c-0.2297974,0.2039795-0.4385376,0.3904419-0.6323853,0.5644531   c-0.0261841,0.0235596-0.0535889,0.0480347-0.0791626,0.0710449c-0.1835327,0.1651001-0.3495483,0.3154907-0.5025635,0.4550171   c-0.0258789,0.0235596-0.0525513,0.0478516-0.0776367,0.0707397c-0.1463623,0.1337891-0.2780151,0.2553711-0.3979492,0.3669434   c-0.0214233,0.0198975-0.0429077,0.039856-0.0635376,0.0591431c-0.1129761,0.1054688-0.2143555,0.2011108-0.3051758,0.2877808   c-0.0195923,0.0187378-0.0386963,0.0370483-0.057373,0.0549316c-0.0849609,0.081543-0.1607056,0.1552734-0.227356,0.2211304   c-0.0150757,0.0148926-0.0292358,0.0289307-0.043457,0.0431519c-0.0630493,0.0628052-0.1187744,0.1193237-0.1665039,0.1688232   c-0.0098877,0.0101929-0.0187378,0.0195923-0.0279541,0.0292969c-0.0458984,0.0480957-0.0859375,0.0910645-0.1190186,0.1278076   c-0.0057373,0.0064087-0.0105591,0.0119019-0.0159302,0.0179443c-0.0321655,0.0361328-0.0594482,0.0679321-0.0814209,0.0947876   c-0.0029297,0.0036011-0.005188,0.0065308-0.0079956,0.0099487c-0.0214233,0.0264893-0.0392456,0.0496826-0.0534668,0.0692139   c-0.001709,0.0023804-0.0029297,0.0041504-0.0046387,0.0064697c-0.013855,0.0192261-0.0255127,0.0361938-0.0357666,0.0512695   c-2.1806641,3.184082-1.3642578,7.5488281,1.8203125,9.7304688c0.2686768,0.184021,0.5480957,0.3388672,0.831604,0.4805908   c0.069397,0.034668,0.1384888,0.0682373,0.2086182,0.1004028c0.2840576,0.1303711,0.5718384,0.2471313,0.8655396,0.336853   c0.0143433,0.0043945,0.0289307,0.0066528,0.0432739,0.0109863c0.2832031,0.0844727,0.5701904,0.1452026,0.8585205,0.192688   c0.0737915,0.012146,0.1470947,0.0238647,0.2211304,0.0336304c0.2991943,0.0394287,0.5990601,0.0651245,0.8989258,0.0657959   c0.0056152,0,0.0111694,0.0012207,0.0167236,0.0012207c0.0367432,0,0.0730591-0.0059814,0.1098022-0.0065308   c0.2132568-0.0032959,0.4258423-0.0152588,0.6374512-0.0379028c0.0288696-0.0030518,0.0581665-0.00177,0.0870361-0.005188   c0.0557251-0.0066528,0.1100464-0.0217896,0.1655273-0.0297241c0.1719971-0.0246582,0.3425903-0.0547485,0.5123291-0.092041   c0.0884399-0.0194092,0.1761475-0.0396118,0.2637329-0.062439c0.1743164-0.0453491,0.3460693-0.098999,0.5166626-0.1577148   c0.072998-0.0251465,0.1467285-0.046936,0.2189941-0.0745239c0.2389526-0.0911255,0.4741821-0.192627,0.7028809-0.3098755   c0.0210571-0.0108643,0.0408325-0.0244141,0.0618286-0.0354614c0.206665-0.1086426,0.4078369-0.2286377,0.6039429-0.3584595   c0.0692749-0.0458374,0.135498-0.0962524,0.2032471-0.1447144c0.1463013-0.1045532,0.2891846-0.2141113,0.4281006-0.3307495   c0.0706787-0.0593872,0.1400757-0.119812,0.2086792-0.182312c0.1359863-0.1238403,0.2664795-0.2548828,0.3936768-0.3908081   c0.0571899-0.0610962,0.1159668-0.1195068,0.1712646-0.1830444c0.1765137-0.2027588,0.3458862-0.4143677,0.5014648-0.6414795   c0.0093994-0.0137329,0.0197144-0.0290527,0.0306396-0.0457764c0.0038452-0.0058594,0.0075684-0.0114136,0.0116577-0.0178833   c0.001709-0.0026245,0.0037231-0.0060425,0.0054321-0.0087891c0.0063477-0.0100708,0.0127563-0.0203857,0.0197754-0.0321655   c0.0053711-0.0089722,0.0114746-0.0197144,0.017334-0.0299072c0.003479-0.0061035,0.0067139-0.0114746,0.010376-0.0180054   c0.0062866-0.0111694,0.0132446-0.024231,0.0201416-0.0369263c0.0048218-0.0089722,0.0093994-0.0172729,0.0145874-0.0270996   c0.0061035-0.0116577,0.0130005-0.0253296,0.0196533-0.038208c0.0061646-0.012085,0.012085-0.0234375,0.0187378-0.0366821   c0.0084229-0.0168457,0.0177612-0.0361938,0.0269165-0.0551147c0.0057983-0.0119629,0.0113525-0.0230713,0.0174561-0.0359497   c0.010376-0.0217285,0.0216675-0.0460815,0.03302-0.0704956c0.0061646-0.0131226,0.0119629-0.0255737,0.0183716-0.0395508   c0.0110474-0.0241089,0.0229492-0.0508423,0.0349731-0.0775146c0.0085449-0.019104,0.0169678-0.0375977,0.026001-0.0581055   c0.0118408-0.0267334,0.0247192-0.0563354,0.0374146-0.0856323c0.0094604-0.0217896,0.0187378-0.0427856,0.0286865-0.06604   c0.015564-0.0361938,0.0322266-0.0756226,0.0490723-0.1156006c0.0088501-0.020874,0.017395-0.0411377,0.0266113-0.0631104   c0.0171509-0.0409546,0.0354004-0.0849609,0.053894-0.1297607c0.0110474-0.0267334,0.0219116-0.0531006,0.0334473-0.0812988   c0.019043-0.0465698,0.0393066-0.0963745,0.0598145-0.1470337c0.012146-0.0299683,0.0241699-0.0597534,0.0368042-0.0911865   c0.019043-0.0475464,0.0390015-0.0974121,0.0592651-0.1483765c0.0192261-0.0483398,0.0388794-0.0979614,0.0592041-0.1495361   c0.0159912-0.0405273,0.0326538-0.0829468,0.0493164-0.1254883c0.0222778-0.0568237,0.0448608-0.1146851,0.0684814-0.175293   c0.0209351-0.053833,0.0426025-0.1098022,0.0645752-0.166748c0.0227661-0.0588379,0.0460205-0.1192017,0.0698853-0.1814575   c0.022644-0.0588989,0.0458984-0.1196899,0.0695801-0.1817627c0.0251465-0.0657959,0.0507202-0.1331787,0.0770874-0.2026367   c0.0261841-0.0690308,0.0530396-0.1399536,0.0805054-0.2126465c0.0272827-0.0722046,0.0552979-0.1467285,0.0838013-0.2227173   c0.0267334-0.071167,0.053772-0.1434937,0.081665-0.2180176c0.0328369-0.0877686,0.0667725-0.178772,0.1011963-0.2713623   c0.0254517-0.0684814,0.0510254-0.137207,0.0773926-0.208374c0.0395508-0.1066895,0.0805054-0.2173462,0.1221313-0.3302612   c0.027771-0.0753174,0.0557861-0.1514282,0.0845337-0.2295532c0.0392456-0.1068115,0.0799561-0.2177734,0.1210327-0.3299561   c0.0315552-0.0862427,0.0631104-0.1723633,0.0957642-0.2618408c0.043335-0.1188354,0.0883789-0.2422485,0.133728-0.3670044   c0.0344238-0.0946655,0.0687256-0.1889648,0.1043091-0.2871094c0.0448608-0.1236572,0.0913696-0.2523193,0.1381226-0.3816528   c0.0402832-0.1115112,0.0805664-0.2228394,0.1223145-0.338623c0.0475464-0.131958,0.0970459-0.2698975,0.1465454-0.4075317   c0.0392456-0.1091309,0.0778809-0.2164917,0.1182861-0.3292236c0.0721436-0.2011108,0.1472778-0.4111328,0.2233276-0.6240845   c0.0179443-0.0501709,0.0350952-0.0980835,0.0532227-0.1489258c0.0812988-0.2278442,0.1657104-0.4649048,0.2515869-0.7064819   c0.0244141-0.0686035,0.0480347-0.1349487,0.0728149-0.2047119c0.0848389-0.2388916,0.1729126-0.4875488,0.2622681-0.7398682   c0.0246582-0.0697632,0.0484009-0.1367188,0.0734863-0.2075195c0.085083-0.2404175,0.1734009-0.4907837,0.2625122-0.7434692   c0.0355225-0.100769,0.0698853-0.1983032,0.1061401-0.3010864c0.2258301-0.6409912,0.4656372-1.3241577,0.7179565-2.045166   c0.0230103-0.0658569,0.0450439-0.128418,0.0682983-0.1950073c0.1489868-0.4260254,0.3018188-0.8634644,0.4603882-1.3182983   c0.8256836,0.5976563,1.6044922,1.2612305,2.3256836,1.9819336C67.0229492,57.1572266,69,61.9282227,69,67   C69,68.3452148,68.8583984,69.6875,68.578125,71z M87.7954102,71H70.6171875C70.8704834,69.6837158,71,68.3435669,71,67   c0-5.2701416-1.9522705-10.2314453-5.4802246-14.1057129l12.0430908-12.0430908C84.2952271,47.9390259,88,57.1810303,88,67   C88,68.3081055,87.9311523,69.6499023,87.7954102,71z"></path><path d="M51.6928711,59.5234375c-0.6601563-0.4492188-1.4555664-0.6157227-2.2446289-0.4702148   c-0.7910156,0.1469727-1.4741211,0.5922852-1.9243164,1.253418c-0.4501953,0.6606445-0.6171875,1.4575195-0.4707031,2.2451172   c0.1469727,0.7905273,0.5922852,1.4736328,1.2539063,1.9248047c0.5043945,0.3432617,1.0883789,0.5219727,1.6870117,0.5219727   c0.1850586,0,0.371582-0.0170898,0.5576172-0.0517578c0.7910156-0.1469727,1.4741211-0.5922852,1.9248047-1.2539063   c0.449707-0.6601563,0.6166992-1.4575195,0.4702148-2.2446289C52.7998047,60.6572266,52.3544922,59.9741211,51.6928711,59.5234375z    M50.8232422,62.5668945c-0.1484375,0.2177734-0.3745117,0.3647461-0.637207,0.4135742   c-0.2666016,0.0473633-0.5327148-0.0068359-0.7529297-0.1567383c-0.2177734-0.1489258-0.3647461-0.3754883-0.4135742-0.6381836   c-0.0493164-0.2641602,0.0063477-0.53125,0.1572266-0.7524414c0.1484375-0.2177734,0.3745117-0.3647461,0.637207-0.4135742   c0.0629883-0.0117188,0.1254883-0.0175781,0.1879883-0.0175781c0.2006836,0,0.3964844,0.0595703,0.5649414,0.1748047   c0.2177734,0.1484375,0.3647461,0.3745117,0.4135742,0.637207C51.0297852,62.0786133,50.9741211,62.3457031,50.8232422,62.5668945z   "></path><path d="M22,50c-3.8598633,0-7,3.1401367-7,7s3.1401367,7,7,7s7-3.1401367,7-7S25.8598633,50,22,50z M22,62   c-2.7568359,0-5-2.2431641-5-5s2.2431641-5,5-5s5,2.2431641,5,5S24.7568359,62,22,62z"></path><path d="M22,57.9296875c-1.140625,0-2.1992188,0.5664063-2.8320313,1.515625   c-0.3061523,0.4594727-0.1821289,1.0800781,0.2773438,1.3867188s1.0800781,0.1811523,1.3867188-0.2773438   c0.5302734-0.7949219,1.8056641-0.7949219,2.3359375,0C23.3608398,60.84375,23.6777344,61,24.0009766,61   c0.1904297,0,0.3833008-0.0541992,0.5537109-0.1679688c0.4594727-0.3066406,0.5834961-0.9272461,0.2773438-1.3867188   C24.1992188,58.4960938,23.140625,57.9296875,22,57.9296875z"></path><path d="M19.6196289,55.9199219C19.7397461,55.9697266,19.8696289,56,20,56c0.2597656,0,0.5200195-0.1103516,0.7099609-0.2900391   c0.0400391-0.050293,0.0898438-0.1000977,0.1196289-0.1499023c0.0400391-0.0600586,0.0703125-0.1201172,0.090332-0.1801758   c0.0297852-0.0600586,0.0498047-0.1201172,0.0600586-0.1801758C20.9897461,55.1298828,21,55.0600586,21,55   c0-0.2602539-0.1103516-0.5200195-0.2900391-0.7099609c-0.090332-0.090332-0.2001953-0.1601563-0.3300781-0.2104492   c-0.2402344-0.0996094-0.5200195-0.0996094-0.7602539,0c-0.1298828,0.050293-0.2299805,0.1201172-0.3295898,0.2104492   c-0.090332,0.0996094-0.1601563,0.199707-0.2104492,0.3295898C19.0297852,54.7397461,19,54.8696289,19,55   c0,0.2597656,0.1098633,0.5200195,0.2900391,0.7099609C19.3896484,55.7998047,19.5,55.8696289,19.6196289,55.9199219z"></path><path d="M24.7099609,54.2900391c-0.3803711-0.3701172-1.0400391-0.3701172-1.4199219,0   C23.199707,54.3896484,23.1298828,54.5,23.0795898,54.6196289C23.0297852,54.7397461,23,54.8696289,23,55   c0,0.0698242,0.0097656,0.1298828,0.0200195,0.199707c0.0097656,0.0600586,0.0297852,0.1201172,0.0595703,0.1801758   c0.0200195,0.0600586,0.050293,0.1201172,0.090332,0.1801758c0.0400391,0.0498047,0.0800781,0.0996094,0.1201172,0.1499023   c0.0996094,0.0898438,0.199707,0.159668,0.3295898,0.2099609C23.7397461,55.9697266,23.8696289,56,24,56   c0.2597656,0,0.5200195-0.1103516,0.7099609-0.2900391c0.0400391-0.050293,0.0898438-0.1000977,0.1196289-0.1499023   c0.0400391-0.0600586,0.0703125-0.1201172,0.090332-0.1801758c0.0297852-0.0600586,0.0498047-0.1201172,0.0600586-0.1801758   C24.9897461,55.1298828,25,55.0698242,25,55c0-0.1303711-0.0302734-0.2602539-0.0800781-0.3803711   C24.8696289,54.4897461,24.7998047,54.3896484,24.7099609,54.2900391z"></path><path d="M71,57c0,3.8598633,3.1401367,7,7,7s7-3.1401367,7-7s-3.1401367-7-7-7S71,53.1401367,71,57z M78,52   c2.7568359,0,5,2.2431641,5,5s-2.2431641,5-5,5s-5-2.2431641-5-5S75.2431641,52,78,52z"></path><path d="M75.4453125,58.0976563c-0.4594727,0.3066406-0.5834961,0.9272461-0.2773438,1.3867188   C75.8007813,60.4335938,76.859375,61,78,61s2.1992188-0.5664063,2.8320313-1.515625   c0.3061523-0.4594727,0.1821289-1.0800781-0.2773438-1.3867188C80.09375,57.7895508,79.4741211,57.9155273,79.1679688,58.375   c-0.5302734,0.7949219-1.8056641,0.7949219-2.3359375,0C76.5249023,57.9155273,75.9038086,57.7895508,75.4453125,58.0976563z"></path><path d="M80,56c0.1298828,0,0.2597656-0.0302734,0.3798828-0.0800781c0.1298828-0.050293,0.2299805-0.1201172,0.3300781-0.2099609   c0.0400391-0.050293,0.0800781-0.1000977,0.1196289-0.1499023c0.0400391-0.0600586,0.0703125-0.1201172,0.090332-0.1801758   c0.0297852-0.0600586,0.0498047-0.1201172,0.0600586-0.1801758C80.9897461,55.1298828,81,55.0698242,81,55   c0-0.1303711-0.0200195-0.2602539-0.0800781-0.3803711c-0.050293-0.1196289-0.1201172-0.2299805-0.2099609-0.3295898   C80.6098633,54.199707,80.5,54.1298828,80.3798828,54.0795898C80.199707,54,80,53.9799805,79.7998047,54.0200195   c-0.0600586,0.0097656-0.1201172,0.0297852-0.1801758,0.0595703c-0.0595703,0.0200195-0.1196289,0.050293-0.1796875,0.090332   c-0.050293,0.0400391-0.1000977,0.0800781-0.1499023,0.1201172C79.199707,54.3896484,79.1298828,54.5,79.0795898,54.6196289   C79.0297852,54.7397461,79,54.8696289,79,55c0,0.2597656,0.1098633,0.5200195,0.2900391,0.7099609   C79.4799805,55.8896484,79.7397461,56,80,56z"></path><path d="M75.2900391,55.7099609c0.0996094,0.0898438,0.2099609,0.159668,0.3295898,0.2099609   C75.7397461,55.9697266,75.8696289,56,76,56c0.0698242,0,0.1298828-0.0102539,0.199707-0.0200195   c0.0600586-0.0102539,0.1201172-0.0302734,0.1801758-0.0600586c0.0600586-0.0200195,0.1201172-0.050293,0.1801758-0.090332   c0.0498047-0.0395508,0.0996094-0.0795898,0.1499023-0.1196289c0.0898438-0.1000977,0.159668-0.2099609,0.2099609-0.3300781   C76.9799805,55.2597656,77,55.1298828,77,55c0-0.0703125-0.0102539-0.1303711-0.0200195-0.2001953   c-0.0102539-0.0600586-0.0302734-0.1201172-0.0600586-0.1801758c-0.0200195-0.0595703-0.050293-0.1196289-0.090332-0.1796875   c-0.0297852-0.050293-0.0795898-0.1000977-0.1196289-0.1499023c-0.2802734-0.2700195-0.7202148-0.3603516-1.090332-0.2104492   C75.5,54.1298828,75.3896484,54.199707,75.2900391,54.2900391c-0.0400391,0.0498047-0.0800781,0.0996094-0.1201172,0.1499023   c-0.0400391,0.0600586-0.0703125,0.1201172-0.090332,0.1796875c-0.0297852,0.0600586-0.0498047,0.1201172-0.0595703,0.1801758   C75.0097656,54.8696289,75,54.9296875,75,55c0,0.1298828,0.0297852,0.2597656,0.0795898,0.3798828   C75.1298828,55.5,75.199707,55.6098633,75.2900391,55.7099609z"></path><path d="M50,45c3.8598633,0,7-3.1401367,7-7s-3.1401367-7-7-7s-7,3.1401367-7,7S46.1401367,45,50,45z M50,33   c2.7568359,0,5,2.2431641,5,5s-2.2431641,5-5,5s-5-2.2431641-5-5S47.2431641,33,50,33z"></path><path d="M48,41h4c0.5522461,0,1-0.4477539,1-1s-0.4477539-1-1-1h-4c-0.5522461,0-1,0.4477539-1,1S47.4477539,41,48,41z"></path><path d="M48,37c0.2597656,0,0.5200195-0.1103516,0.7099609-0.2900391C48.8896484,36.5200195,49,36.2597656,49,36   c0-0.2602539-0.1103516-0.5200195-0.2900391-0.7099609c-0.3803711-0.3701172-1.050293-0.3701172-1.4199219,0   c-0.090332,0.0898438-0.1601563,0.199707-0.2104492,0.3295898C47.0297852,35.7397461,47,35.8696289,47,36   c0,0.2700195,0.1098633,0.5200195,0.2900391,0.7099609C47.4799805,36.8896484,47.7397461,37,48,37z"></path><path d="M52,37c0.2597656,0,0.5200195-0.1103516,0.7099609-0.2900391C52.8896484,36.5200195,53,36.2597656,53,36   c0-0.2602539-0.1103516-0.5200195-0.2900391-0.7099609c-0.1000977-0.090332-0.2001953-0.1601563-0.3300781-0.2104492   c-0.3701172-0.159668-0.8100586-0.0698242-1.0898438,0.2104492C51.1098633,35.4799805,51,35.7397461,51,36   c0,0.2597656,0.1098633,0.5200195,0.2900391,0.7099609C51.4799805,36.8896484,51.7299805,37,52,37z"></path></g></svg>