<svg height='100px' width='100px'  fill="#000000" xmlns="http://www.w3.org/2000/svg" data-name="Layer 1" viewBox="0 0 128 128" x="0px" y="0px"><title>91 Miscellaneous 16</title><path d="M2,102a2,2,0,0,0,2-2V76.09C4,64.64,12.58,56,24,56h2.21a26.18,26.18,0,0,1-4.78-3.87C9,53.34,0,63.23,0,76.09V100A2,2,0,0,0,2,102Z"></path><path d="M40,12A22,22,0,1,0,62,34,22,22,0,0,0,40,12Zm0,40A18,18,0,1,1,58,34,18,18,0,0,1,40,52Z"></path><path d="M106.62,52.13A26.18,26.18,0,0,1,101.83,56H104c11.38,0,20,8.64,20,20.09V100a2,2,0,0,0,4,0V76.09C128,63.23,119,53.34,106.62,52.13Z"></path><path d="M110,34A22,22,0,1,0,88,56,22,22,0,0,0,110,34ZM88,52a18,18,0,1,1,18-18A18,18,0,0,1,88,52Z"></path><path d="M56,56a20.58,20.58,0,0,1,10,2.56A20.34,20.34,0,0,1,70.78,58c.46,0,.94,0,1.43.05a24,24,0,0,0-13.6-5.92A26.21,26.21,0,0,1,53.83,56Z"></path><path d="M67,102.65c5.18,4,15.18,11.05,18.13,13.11a1.59,1.59,0,0,0,1.68,0c2.95-2.06,12.95-9.08,18.13-13.11,6.32-4.91,13.07-12.13,13.93-20.37a18.5,18.5,0,0,0-9.59-18.19A17.11,17.11,0,0,0,101.23,62c-5,0-10.67,2.4-15.23,9.78C81.45,64.4,75.8,62,70.78,62a17.15,17.15,0,0,0-8.09,2.09A18.5,18.5,0,0,0,53.1,82.28C54,90.52,60.71,97.74,67,102.65ZM99.72,88.46c4.8-4,6.3-7.8,4.61-11.65A2,2,0,1,1,108,75.19c1.7,3.88,2.09,9.85-5.71,16.35A2,2,0,0,1,101,92a2,2,0,0,1-1.28-3.54ZM64,68c.28.17.57.33.83.51a14.52,14.52,0,0,1,6.1,13.37c-.4,3.85-2.51,7.89-6.27,12-.21.23-.43.45-.65.68-3.31-3.47-6.42-7.91-6.92-12.7A14.49,14.49,0,0,1,64,68Z"></path><path d="M9.1,82.28C10,90.52,16.71,97.74,23,102.65c5.18,4,15.18,11.05,18.13,13.11a1.59,1.59,0,0,0,1.68,0c2.93-2.05,12.86-9,18-13.05a44.56,44.56,0,0,1-7.62-8.83,25.75,25.75,0,0,1-4.15-11.19A22.44,22.44,0,0,1,58.46,62c-.41,0-.82,0-1.23,0-5,0-10.67,2.4-15.23,9.78C37.45,64.4,31.8,62,26.78,62a17.15,17.15,0,0,0-8.09,2.09A18.5,18.5,0,0,0,9.1,82.28ZM20,75.19a2,2,0,1,1,3.66,1.62c-1.69,3.85-.19,7.66,4.61,11.65a2,2,0,0,1-2.56,3.08C17.92,85,18.31,79.07,20,75.19Z"></path></svg>