<svg height='100px' width='100px'  fill="#000000" xmlns="http://www.w3.org/2000/svg" viewBox="0 0 64 64" x="0px" y="0px"><path d="M54.23339,18H40.74409l-2.4-8h11.0895Zm-29.001,2h13.5352L32,52.146Zm11.0235-10,2.4004,8H25.34379l2.4003-8Zm-21.6895,0h11.0895l-2.4,8H9.76659Zm8.6223,10,6.6871,31.7641L9.81449,20Zm10.9355,31.7641L40.81129,20h13.3742Z"></path><path d="M11,6A3.00882,3.00882,0,0,1,8,3,1,1,0,0,0,6,3,3.00882,3.00882,0,0,1,3,6,1,1,0,0,0,3,8a3.00882,3.00882,0,0,1,3,3,1,1,0,0,0,2,0,3.00882,3.00882,0,0,1,3-3,1,1,0,0,0,0-2Z"></path><path d="M61,28a3.00882,3.00882,0,0,1-3-3,1,1,0,0,0-2,0,3.00882,3.00882,0,0,1-3,3,1,1,0,0,0,0,2,3.00882,3.00882,0,0,1,3,3,1,1,0,0,0,2,0,3.00882,3.00882,0,0,1,3-3,1,1,0,0,0,0-2Z"></path><path d="M57,48a7.00769,7.00769,0,0,1-7-7,1,1,0,0,0-2,0,7.00769,7.00769,0,0,1-7,7,1,1,0,0,0,0,2,7.00769,7.00769,0,0,1,7,7,1,1,0,0,0,2,0,7.00769,7.00769,0,0,1,7-7,1,1,0,0,0,0-2Z"></path></svg>