<svg height='100px' width='100px'  fill="#000000" xmlns="http://www.w3.org/2000/svg" data-name="Layer 1" viewBox="0 0 64 64" x="0px" y="0px"><title>motivated-development-growth-star-stimulate</title><rect x="2" y="54" width="10" height="8"></rect><rect x="19" y="50" width="10" height="12"></rect><rect x="36" y="44" width="10" height="18"></rect><rect x="52" y="38" width="10" height="24"></rect><polygon points="50.652 12.348 49 7 47.348 12.348 42 12.348 46.326 15.652 44.674 21 49 17.695 53.326 21 51.674 15.652 56 12.348 50.652 12.348"></polygon><path d="M42.53418,26.28027a12.87731,12.87731,0,0,0,4.249,1.53125l.33789-1.9707a10.90021,10.90021,0,0,1-3.59082-1.29492Z"></path><path d="M43.49512,5.47559l-1.002-1.73047a13.00551,13.00551,0,0,0-3.4541,2.90136l1.53125,1.28711A11.02938,11.02938,0,0,1,43.49512,5.47559Z"></path><path d="M40.59766,22.09863a10.96863,10.96863,0,0,1-1.92383-3.29883l-1.877.69336a12.98807,12.98807,0,0,0,2.27343,3.89649Z"></path><path d="M59.334,11.21875a10.98868,10.98868,0,0,1,.667,3.75977l2-.00391a12.92892,12.92892,0,0,0-.79-4.44336Z"></path><path d="M55.48828,3.73242l-1,1.73242A11.03558,11.03558,0,0,1,57.418,7.918l1.5293-1.28906A13.04275,13.04275,0,0,0,55.48828,3.73242Z"></path><path d="M51.293,27.7998a12.89384,12.89384,0,0,0,4.2373-1.55664l-1.00586-1.72851a10.92431,10.92431,0,0,1-3.583,1.3164Z"></path><path d="M61.22852,19.4209l-1.88086-.67969a10.96033,10.96033,0,0,1-1.9043,3.30957l1.5332,1.2832A12.92981,12.92981,0,0,0,61.22852,19.4209Z"></path><path d="M36.78125,10.55273A12.94693,12.94693,0,0,0,36,15v.04883L38,15a10.94292,10.94292,0,0,1,.66016-3.76172Z"></path><path d="M50.89941,4.16406l.34375-1.9707A13.15734,13.15734,0,0,0,49.001,2a11.68684,11.68684,0,0,0-2.26856.19727L47.08008,4.166A9.0205,9.0205,0,0,1,49,4,11.03749,11.03749,0,0,1,50.89941,4.16406Z"></path><path d="M17.22363,45.77539a69.62638,69.62638,0,0,0,19.07813-8.60254l5.16473-3.34216-2.361,4.722,1.78906.89454,4-8A1.00038,1.00038,0,0,0,44,30H35v2h5.61389l-5.39807,3.49316a67.63965,67.63965,0,0,1-18.53125,8.35645l-14.9541,4.1875.53906,1.92578Z"></path><path d="M33,14l-1-3L20.62048,17a3.99649,3.99649,0,1,0-4.99591.20215L3,23v4l11-4L9,44l5-1,4-12,7,1,1,6,5-2-1.5567-6.22675a2.71826,2.71826,0,0,0-2.25275-2.03173L22,27V21Z"></path><rect x="2.93845" y="39.50049" width="4.12311" height="1.99902" transform="translate(-9.67341 2.42191) rotate(-14.03624)"></rect><rect x="1.93845" y="43.50049" width="4.12311" height="1.99902" transform="translate(-10.6634 2.29533) rotate(-14.02267)"></rect></svg>