<svg height='100px' width='100px'  fill="#000000" xmlns:dc="http://purl.org/dc/elements/1.1/" xmlns:cc="http://creativecommons.org/ns#" xmlns:rdf="http://www.w3.org/1999/02/22-rdf-syntax-ns#" xmlns:svg="http://www.w3.org/2000/svg" xmlns="http://www.w3.org/2000/svg" xmlns:sodipodi="http://sodipodi.sourceforge.net/DTD/sodipodi-0.dtd" xmlns:inkscape="http://www.inkscape.org/namespaces/inkscape" version="1.1" x="0px" y="0px" viewBox="0 0 100 100"><g transform="translate(0,-952.36218)"><path style="color:#000000;enable-background:accumulate;" d="m 82.189365,962.36218 c -1.00249,4 0,8 1.00249,10 4.00997,-4 1.16299,-7.6363 -1.00249,-10 z m -13.97223,1.0625 c -1.9996,-0.022 -3.822,0.3125 -5.07512,0.9375 4.00997,3 13.80221,4.8661 16.03988,5 -1.37843,-4.125 -6.56565,-5.8892 -10.96476,-5.9375 z m 23.99715,6.9375 c -2.23319,2.9702 -2.82813,4.8413 -2.97615,8.0625 -1.69936,-2.6176 -4.21717,-4.7678 -8.05126,-7.0625 2.51853,3.0147 5.04261,5.5243 6.79815,9.8125 -4.00734,-2.0094 -6.34468,-1.9196 -10.80812,-0.8125 2.97815,1.7645 7.783,2.9843 11.34069,2.2188 0.79199,2.3419 1.3529,5.21 1.62905,8.8437 -3.70731,-2.2555 -7.50308,-5.0625 -11.96725,-5.0625 -6.01495,0 -13.03239,6 -16.03987,10 -5.01246,-15 -17.04236,-16 -30.07476,-18 8.01994,6 7.01745,12 7.01745,14 -16.03988,2 -26.0648,2 -33.0822398,-2 1.00249,14.00002 20.1880798,25.97772 33.0195798,24.78122 -0.93522,2.2212 -2.94482,5.2188 -3.94731,7.2188 l -19.04735,14 15.03738,6 8.01994,-12 c 25.0623,1 34.08472,-5 38.09469,-26 0.79472,-3.9637 7.74827,-8.50172 13.09505,-10.21882 0.0669,2.1468 0.0715,4.5419 -0.0626,7.21882 l 3.00747,-4.00002 c -0.0936,-1.4009 -0.2123,-2.6396 -0.31328,-3.875 0.38679,-0.052 0.7578,-0.062 1.09648,-0.062 -0.37593,-0.15 -0.75372,-0.319 -1.1278,-0.5 -0.43161,-5.0698 -0.99327,-8.8401 -2.25561,-11.875 3.60954,-3.841 3.53766,-8.57 1.59772,-10.6875 z m -14.84941,1.0938 c -2.22629,0.068 -4.07263,1.2812 -7.20541,1.9062 0.96951,3.0526 6.00623,2.9953 11.96725,-0.4375 -1.95344,-1.125 -3.42607,-1.5097 -4.76184,-1.4687 z m 2.85084,17.9062 c 1.10732,0 2.00498,0.6716 2.00498,1.5 0,0.8284 -0.89766,1.5 -2.00498,1.5 -1.10733,0 -2.00499,-0.6716 -2.00499,-1.5 0,-0.8284 0.89766,-1.5 2.00499,-1.5 z" fill="#000000" stroke="none" marker="none" visibility="visible" display="inline" overflow="visible"></path></g></svg>