<svg height='100px' width='100px'  fill="#000000" xmlns="http://www.w3.org/2000/svg" xmlns:xlink="http://www.w3.org/1999/xlink" version="1.1" x="0px" y="0px" viewBox="0 0 98 98" enable-background="new 0 0 98 98" xml:space="preserve"><g><path d="M66.0264,24.0497c0-1.6555-1.3518-3.0074-3.0171-3.0074c-1.6555,0-3.0074,1.3518-3.0074,3.0074v6.7592h-7.8171   c-0.9992,0-1.92,0.627-2.2825,1.5673l-1.489,3.84l-1.4987-3.8498c-0.3722-0.9404-1.2637-1.5575-2.2825-1.5575h-8.9437v-6.7592   c0-1.6555-1.3518-3.0074-3.0074-3.0074c-1.6653,0-3.0172,1.3518-3.0172,3.0074v9.9722c0,1.5576,1.2735,2.8212,2.831,2.8212   l8.0718-0.0098v27.9478h7.1511V54.3779c0-0.4408,0.3624-0.8033,0.8032-0.8033c0.4408,0,0.7935,0.3624,0.7935,0.8033v10.4033h6.9257   V36.8334l6.9551,0.0098c1.5575,0,2.831-1.2636,2.831-2.8212V24.0497z"></path><path d="M47.8452,16.262c-3.4873,0-6.3281,2.8408-6.3281,6.3282c0,3.4972,2.8408,6.3379,6.3281,6.3379   c3.4873,0,6.3282-2.8408,6.3282-6.3379C54.1734,19.1028,51.3325,16.262,47.8452,16.262z"></path><polygon points="34.6362,79.8043 39.2529,75.553 43.8724,79.8048 48.4911,75.553 53.1097,79.8043 57.7274,75.553 62.346,79.8048    65.2458,77.1382 56.4362,67.0734 56.1423,66.7404 40.8705,66.7404 31.7569,77.1516  "></polygon><polygon points="66.5364,78.6127 62.346,82.4671 57.7274,78.2163 53.1097,82.4676 48.4911,78.2163 43.8724,82.4671    39.2529,78.2163 34.6362,82.4676 30.466,78.6262 14.3823,97 82.6305,97  "></polygon><path d="M31.0942,14.8318c-0.1274-0.4017-0.5094-0.6759-0.9306-0.6759h-3.5951l-1.1167-3.4188   c-0.1274-0.4115-0.5093-0.6759-0.9306-0.6759c-0.4212,0-0.8032,0.2644-0.9306,0.6759l-1.1167,3.4188h-3.5951   c-0.431,0-0.8033,0.2743-0.9306,0.6759c-0.1372,0.4114,0.0098,0.8522,0.3526,1.0971l2.9094,2.1159l-1.1069,3.4286   c-0.1372,0.4017,0.0097,0.8424,0.3526,1.0971c0.3428,0.2449,0.8033,0.2449,1.1461,0l2.9192-2.1159l2.9094,2.1159   c0.1763,0.1175,0.3722,0.1861,0.5779,0.1861c0.2057,0,0.4017-0.0686,0.578-0.1861c0.3428-0.2547,0.4898-0.6955,0.3526-1.0971   l-1.1069-3.4286l2.9094-2.1159C31.0844,15.684,31.2313,15.2432,31.0942,14.8318z"></path><path d="M55.0844,5.7706c-0.1372-0.4017-0.5093-0.6759-0.9404-0.6759h-3.5951l-1.1167-3.4188C49.3048,1.2742,48.9326,1,48.5015,1   c-0.4212,0-0.8033,0.2743-0.9306,0.6759L46.464,5.0947h-3.6049c-0.4212,0-0.8033,0.2743-0.9306,0.6759   c-0.1372,0.4114,0.0098,0.8522,0.3526,1.0971l2.9192,2.1159l-1.1167,3.4286c-0.1273,0.4017,0.0098,0.8424,0.3526,1.0971   c0.3429,0.2449,0.8131,0.2449,1.1559,0l2.9094-2.1159l2.9192,2.1159c0.1665,0.1175,0.3722,0.1861,0.5682,0.1861   c0.2057,0,0.4114-0.0686,0.5779-0.1861c0.3429-0.2547,0.4898-0.6955,0.3527-1.0971l-1.1069-3.4286l2.9094-2.1159   C55.0648,6.6228,55.2117,6.182,55.0844,5.7706z"></path><path d="M79.0648,14.8318c-0.1372-0.4017-0.5094-0.6759-0.9306-0.6759h-3.6049l-1.1069-3.4188   c-0.1372-0.4115-0.5094-0.6759-0.9306-0.6759c-0.431,0-0.8033,0.2644-0.9404,0.6759l-1.1069,3.4188h-3.6049   c-0.4212,0-0.7935,0.2743-0.9306,0.6759c-0.1274,0.4114,0.0098,0.8522,0.3527,1.0971l2.9192,2.1159l-1.1167,3.4286   c-0.1274,0.4017,0.0196,0.8424,0.3624,1.0971c0.3429,0.2449,0.8033,0.2449,1.1462,0l2.9192-2.1159l2.9094,2.1159   c0.1666,0.1175,0.3723,0.1861,0.578,0.1861c0.1959,0,0.4016-0.0686,0.5682-0.1861c0.3526-0.2547,0.4898-0.6955,0.3624-1.0971   l-1.1168-3.4286l2.9192-2.1159C79.055,15.684,79.1921,15.2432,79.0648,14.8318z"></path><path d="M86.2452,33.0914c-0.1273-0.4016-0.5093-0.6759-0.9306-0.6759h-3.5951l-1.1167-3.4188   c-0.1274-0.4114-0.5094-0.6759-0.9306-0.6759c-0.431,0-0.8033,0.2645-0.9306,0.6759l-1.1168,3.4188h-3.5951   c-0.431,0-0.8033,0.2743-0.9404,0.6759c-0.1273,0.4115,0.0196,0.8523,0.3624,1.0972l2.9094,2.1159l-1.1069,3.4286   c-0.1372,0.4016,0.0098,0.8424,0.3526,1.0971c0.1665,0.1175,0.3722,0.1861,0.578,0.1861c0.1959,0,0.4016-0.0686,0.5681-0.1861   l2.9192-2.1257l2.9094,2.1257c0.3428,0.2449,0.8131,0.2449,1.1559,0c0.3429-0.2547,0.48-0.6955,0.3526-1.0971l-1.1167-3.4286   l2.9192-2.1159C86.2354,33.9437,86.3823,33.5028,86.2452,33.0914z"></path><path d="M14.4215,40.8302l2.9192-2.1257l2.9094,2.1257c0.1763,0.1175,0.3722,0.1861,0.578,0.1861   c0.1959,0,0.4016-0.0686,0.5779-0.1861c0.3429-0.2547,0.48-0.6955,0.3527-1.0971l-1.1167-3.4286l2.9192-2.1159   c0.3428-0.2449,0.48-0.6857,0.3526-1.0972c-0.1274-0.4016-0.5093-0.6759-0.9306-0.6759h-3.6049l-1.1069-3.4188   c-0.1371-0.4114-0.5093-0.6759-0.9306-0.6759c-0.431,0-0.8033,0.2645-0.9404,0.6759l-1.1069,3.4188h-3.6049   c-0.4212,0-0.7935,0.2743-0.9306,0.6759c-0.1274,0.4115,0.0196,0.8523,0.3624,1.0972l2.9094,2.1159l-1.1167,3.4286   c-0.1274,0.4016,0.0196,0.8424,0.3624,1.0971C13.6182,41.0751,14.0787,41.0751,14.4215,40.8302z"></path><rect x="57.757" y="55.4829" width="1.9592" height="1.9592"></rect><rect x="57.757" y="47.6461" width="1.9592" height="1.9592"></rect><rect x="57.757" y="51.5645" width="1.9592" height="1.9592"></rect><rect x="36.9483" y="47.6461" width="1.9592" height="1.9592"></rect><rect x="36.9483" y="55.4829" width="1.9592" height="1.9592"></rect><rect x="36.9483" y="51.5645" width="1.9592" height="1.9592"></rect><rect x="13.9701" y="50.5993" width="1.9592" height="1.9592"></rect><rect x="17.8884" y="50.5993" width="1.941" height="1.9592"></rect><rect x="10.0517" y="50.5993" width="1.9592" height="1.9592"></rect><rect x="10.0517" y="77.0277" width="1.9592" height="1.9592"></rect><rect x="13.9701" y="77.0277" width="1.9592" height="1.9592"></rect><rect x="17.8884" y="77.0277" width="1.941" height="1.9592"></rect><polygon points="24.4346,66.83 24.4346,64.6565 26.6081,64.6565 26.6081,62.6973 24.4346,62.6973 24.4346,60.5234 22.4754,60.5234    22.4754,62.6973 20.302,62.6973 20.302,64.6565 22.4754,64.6565 22.4754,66.83  "></polygon><rect x="85.9892" y="50.5993" width="1.9592" height="1.9592"></rect><rect x="82.0708" y="50.5993" width="1.9592" height="1.9592"></rect><rect x="78.1706" y="50.5993" width="1.941" height="1.9592"></rect><rect x="78.1706" y="77.0277" width="1.941" height="1.9592"></rect><rect x="82.0708" y="77.0277" width="1.9592" height="1.9592"></rect><rect x="85.9892" y="77.0277" width="1.9592" height="1.9592"></rect><polygon points="73.5654,60.5234 73.5654,62.6973 71.3919,62.6973 71.3919,64.6565 73.5654,64.6565 73.5654,66.83 75.5246,66.83    75.5246,64.6565 77.698,64.6565 77.698,62.6973 75.5246,62.6973 75.5246,60.5234  "></polygon></g></svg>