<svg height='100px' width='100px'  fill="#000000" xmlns:dc="http://purl.org/dc/elements/1.1/" xmlns:cc="http://creativecommons.org/ns#" xmlns:rdf="http://www.w3.org/1999/02/22-rdf-syntax-ns#" xmlns:svg="http://www.w3.org/2000/svg" xmlns="http://www.w3.org/2000/svg" xmlns:sodipodi="http://sodipodi.sourceforge.net/DTD/sodipodi-0.dtd" xmlns:inkscape="http://www.inkscape.org/namespaces/inkscape" viewBox="0 0 511.99998 511.99998" version="1.1" x="0px" y="0px"><g transform="translate(-88.749289,-131.31133)"><path style="color:#000000;font-style:normal;font-variant:normal;font-weight:normal;font-stretch:normal;font-size:medium;line-height:normal;font-family:sans-serif;text-indent:0;text-align:start;text-decoration:none;text-decoration-line:none;text-decoration-style:solid;text-decoration-color:#000000;letter-spacing:normal;word-spacing:normal;text-transform:none;direction:ltr;block-progression:tb;writing-mode:lr-tb;baseline-shift:baseline;text-anchor:start;white-space:normal;clip-rule:nonzero;display:inline;overflow:visible;visibility:visible;opacity:1;isolation:auto;mix-blend-mode:normal;color-interpolation:sRGB;color-interpolation-filters:linearRGB;solid-color:#000000;solid-opacity:1;fill:#000000;fill-opacity:1;fill-rule:nonzero;stroke:none;stroke-width:35;stroke-linecap:butt;stroke-linejoin:round;stroke-miterlimit:10;stroke-dasharray:none;stroke-dashoffset:0;stroke-opacity:1;color-rendering:auto;image-rendering:auto;shape-rendering:auto;text-rendering:auto;enable-background:accumulate" d="m 476.18261,131.31136 c -31.8539,-0.0256 -63.69787,12.08349 -87.98209,36.33277 -48.56823,48.49883 -48.50561,127.19363 0.1408,175.77048 48.64661,48.57658 127.45441,48.63917 176.02286,0.1406 48.56821,-48.49881 48.50554,-127.19361 -0.14079,-175.77048 -24.32331,-24.28829 -56.18686,-36.4478 -88.04078,-36.47337 z m -11.878,46.7038 23.83032,0.0195 c 1.953,0.002 3.71708,0.78849 4.99252,2.0621 1.27544,1.2736 2.06352,3.03522 2.06506,4.98536 l 0.0411,51.59347 51.66951,0.041 c 3.90585,0.003 7.05247,3.14713 7.05561,7.04745 l 0.0196,23.79615 c 0.003,3.90033 -3.13993,7.03888 -7.04584,7.03574 l -51.66755,-0.043 0.0411,51.59543 c 0.003,3.90032 -3.13796,7.03692 -7.04388,7.03379 l -23.83228,-0.0176 c -3.90595,-0.003 -7.05249,-3.14712 -7.05562,-7.04745 l -0.043,-51.59348 -51.66756,-0.041 c -3.90593,-0.003 -7.05445,-3.14712 -7.05757,-7.04746 l -0.0176,-23.7981 c -0.003,-3.90032 3.13796,-7.03693 7.04388,-7.03379 l 51.66951,0.043 -0.0411,-51.59543 c -0.003,-3.90032 3.13796,-7.03887 7.04388,-7.03574 z m -357.16339,42.18906 c -10.156743,0.001 -18.390929,8.20844 -18.39194,18.33432 l 0,386.43651 c 9.81e-4,10.1259 8.235177,18.33526 18.39194,18.33627 l 387.61324,0 c 10.15679,-9.9e-4 18.39104,-8.21035 18.39194,-18.33627 l 0,-207.12571 -36.78387,0 0,188.79139 -350.83133,0 0,-349.76592 189.6765,0 0,-36.67059 -208.06648,0 z m 67.18288,92.6968 0,26.19412 167.88973,0 c -4.63375,-8.33438 -8.42106,-17.10979 -11.30698,-26.19412 l -156.58275,0 z m 0,71.283 0,26.19412 213.18807,0 0,-22.10702 c -1.94421,-1.31526 -3.85654,-2.67838 -5.73367,-4.0871 l -207.4544,0 z m 0,71.28495 0,26.19217 251.62046,0 0,-26.19217 -251.62046,0 z m 0,71.28301 0,26.19216 251.62046,0 0,-26.19216 -251.62046,0 z"></path></g></svg>