<svg height='100px' width='100px'  fill="#000000" xmlns="http://www.w3.org/2000/svg" xmlns:xlink="http://www.w3.org/1999/xlink" version="1.1" x="0px" y="0px" viewBox="0 0 100 100" enable-background="new 0 0 100 100" xml:space="preserve"><path d="M42.1,92.5l0-6.2c-4.7-1-9.3-2.8-13.5-5.6l-4.4,4.3c-1.6,1.6-4.1,1.5-5.6,0l-4.7-4.8c-1.6-1.6-1.5-4.1,0-5.6l4.4-4.3  c-2.8-4.2-4.6-8.8-5.5-13.5l-6.2,0c-2.2,0-4-1.8-4-4l0-6.7c0-2.2,1.8-4,4-4l6.2,0c1-4.7,2.8-9.3,5.6-13.5l-4.3-4.4  c-1.6-1.6-1.5-4.1,0-5.6l4.8-4.7c1.6-1.6,4.1-1.5,5.6,0l4.3,4.4c4.2-2.8,8.8-4.6,13.5-5.5l0-6.2c0-2.2,1.8-4,4-4l6.7,0  c2.2,0,4,1.8,4,4l0,6.2c4.7,1,9.3,2.8,13.5,5.6l4.4-4.3c1.6-1.6,4.1-1.5,5.6,0l4.7,4.8c1.6,1.6,1.5,4.1,0,5.6l-4.4,4.3  c2.8,4.2,4.6,8.8,5.5,13.5l6.2,0c2.2,0,4,1.8,4,4l0,6.7c0,2.2-1.8,4-4,4l-6.2,0c-0.8,4.1-2.3,8.1-4.5,11.8l-6.1-6.1  c2.3-4.6,3.4-9.9,3-15.1c-0.5-7-3.5-13.7-8.5-18.7c-5.5-5.5-12.9-8.6-20.7-8.6c-7.8,0-15.1,3-20.7,8.6c-5.5,5.5-8.6,12.9-8.6,20.7  c0,7.8,3,15.1,8.6,20.7c5.5,5.5,12.9,8.6,20.7,8.6c4.6,0,9.1-1.1,13.1-3.1l6.1,6.1c-3.8,2.2-7.8,3.8-12,4.6l0,6.2c0,2.2-1.8,4-4,4  l-6.7,0C43.9,96.5,42.1,94.7,42.1,92.5z M88.9,95.9l-24-24l0.9-0.9l-1.4-1.4c-9.8,7.3-23.7,6.5-32.6-2.4c-9.8-9.8-9.8-25.6,0-35.3  c9.8-9.8,25.6-9.8,35.3,0c8.9,8.9,9.7,22.8,2.4,32.6l1.4,1.4l0.9-0.9l24,24c1.9,1.9,1.9,5,0,7C94,97.8,90.9,97.8,88.9,95.9z   M61.8,37.3c-6.8-6.8-17.7-6.8-24.5,0c-6.8,6.8-6.8,17.7,0,24.5s17.7,6.8,24.5,0C68.5,55,68.5,44.1,61.8,37.3z M49.9,42.1  c0.7,0,1.3,0.3,1.7,0.8c0.3,0.4,0.5,1.1,0.6,1.8c0,0.4,0.4,0.6,0.7,0.6l3.7-0.1c0.4,0,0.7-0.3,0.7-0.7c-0.1-1.6-0.6-2.9-1.5-4  c-1-1.1-2.3-1.8-3.8-2.2v-2.8c0-0.3-0.3-0.6-0.6-0.6h-2.2c-0.3,0-0.6,0.3-0.6,0.6v2.7c-1.7,0.2-3.1,0.9-4.1,1.9  c-1.2,1.1-1.7,2.5-1.7,4.3c0,1.9,0.5,3.3,1.6,4.3c1.1,1,2.8,2,5.2,2.9c1,0.4,1.7,0.9,2.1,1.3c0.4,0.4,0.6,1.1,0.6,1.9  c0,0.7-0.2,1.3-0.6,1.7c-0.4,0.4-0.9,0.6-1.7,0.6c-0.9,0-1.6-0.3-2.1-0.8c-0.5-0.5-0.7-1.2-0.8-2.1c0-0.4-0.4-0.6-0.7-0.6l-3.7,0.1  c-0.4,0-0.7,0.3-0.7,0.7c0.1,1.9,0.7,3.4,1.9,4.5c1.3,1.1,2.8,1.8,4.7,2v2.5c0,0.3,0.3,0.6,0.6,0.6h2.2c0.3,0,0.6-0.3,0.6-0.6v-2.6  c1.5-0.3,2.7-0.9,3.7-1.8c1.1-1.1,1.7-2.5,1.7-4.3c0-1.9-0.6-3.3-1.7-4.3c-1.1-1-2.8-2-5.2-3c-1-0.4-1.7-0.9-2.1-1.3  c-0.4-0.4-0.6-1-0.6-1.7c0-0.7,0.2-1.3,0.5-1.7C48.6,42.4,49.1,42.1,49.9,42.1z"></path></svg>