<svg height='100px' width='100px'  fill="#000000" xmlns="http://www.w3.org/2000/svg" xmlns:xlink="http://www.w3.org/1999/xlink" version="1.1" x="0px" y="0px" viewBox="0 0 64 64" style="enable-background:new 0 0 64 64;" xml:space="preserve"><g><g><path d="M44.9,17.3c-0.1-0.1-0.2-0.2-0.3-0.2C44.5,17,44.3,17,44.1,17l-0.3,0c-1.7,0.3-3.3,0.5-5,0.8c-0.2,0.1-0.3,0.1-0.5,0.2    c-0.3,0.1-0.5,0.2-0.8,0.3c-1.3,0.4-2.5,1.1-3.6,1.9c-1.2,0.8-2.3,1.6-3.5,2.4c-2.2,1.5-4.3,2.9-6.5,4.4c-0.3,0.2-0.5,0.4-0.8,0.5    c-1.2,0.8-2.5,1.7-3.8,2.6c-1.4,1-2.5,2.2-3.1,3.8c-0.4,1-1,2.1-1.6,3c-0.4,0.7-1,0.9-2,0.8c-2.2-0.4-4.3,0.3-5.9,1.8    c-1.6,1.5-2.3,3.6-2,5.8l0,0c0.3,1.9,1.3,3.6,2.9,4.6c1.6,1.1,3.6,1.4,5.5,0.9c3.4-0.9,5.6-4.1,5-7.5c0-0.3-0.1-0.5-0.2-0.8    c-0.2-0.9,0-1.5,0.7-2.1c4.3-3.6,8-6.8,11.5-9.8c3.4-2.9,6.8-5.9,10.9-9.2c0,0,0,0,0,0c1.1-0.9,2.2-1.9,3.3-2.8    c0.1-0.1,0.2-0.1,0.3-0.2c0.2-0.2,0.3-0.4,0.3-0.7C45,17.6,45,17.4,44.9,17.3z M12.2,48.6c-1.1,0.2-2.3-0.1-3.2-0.8    c-0.9-0.7-1.5-1.7-1.7-2.8l0,0C7,42.6,8.6,40.4,11,40.1c2.4-0.3,4.5,1.3,4.9,3.7v0C16.2,46.2,14.6,48.3,12.2,48.6z"></path><path d="M48.7,43.2c-0.1-0.2-0.2-0.5-0.5-0.6c-0.1,0-0.2-0.1-0.3-0.1c-1.3-0.6-2.6-1.2-3.9-1.8c0,0,0,0,0,0c-4.9-2.1-9-4-13-5.8    c-0.6-0.3-1.3-0.6-1.9-0.9c-2,1.7-4,3.4-6.2,5.3c0.8,0.2,1.5,0.5,2.2,0.7c0.3,0.1,0.6,0.2,0.9,0.3c2.5,0.8,5,1.6,7.5,2.4    c1.3,0.4,2.7,0.9,4,1.3c1.3,0.4,2.6,0.7,3.9,0.8c0.3,0,0.6,0,0.9,0c0.1,0,0.3,0,0.5,0c1.7-0.2,3.4-0.4,5-0.6l0.3,0    c0.2,0,0.3-0.1,0.5-0.2c0.1-0.1,0.2-0.2,0.2-0.3C48.8,43.5,48.8,43.3,48.7,43.2z M15.9,27c0-0.3,0-0.5-0.1-0.8    c-0.5-3.4-3.5-5.9-7-5.8c-1.9,0.1-3.7,1-5,2.5c-1.2,1.5-1.8,3.4-1.5,5.3l0,0c0.3,2.2,1.6,4,3.5,5c1.9,1,4.2,1.1,6.1,0.1    c0.9-0.4,1.5-0.3,2.1,0.2l0.3,0.3c0.1-0.1,0.1-0.3,0.2-0.4c0.7-1.7,1.7-3.1,3.2-4.2c-0.2-0.1-0.5-0.2-0.7-0.3    C16.3,28.4,16,27.9,15.9,27z M9.8,31.4c-2.4,0.3-4.5-1.3-4.9-3.6v0c-0.2-1.1,0.1-2.3,0.8-3.2c0.7-0.9,1.7-1.5,2.8-1.7    c2.4-0.4,4.5,1.2,4.9,3.6v0C13.8,28.9,12.2,31,9.8,31.4z"></path></g><g><path d="M55.4,32.6c-1.8-1.1-3.7-2-5.6-2.8c-1-0.5-2-0.9-2.9-1.3c-0.6-0.3-1.2-0.6-1.8-0.9c-1.6-0.7-3.1-1.4-4.5-2.3    c-2.7,2.2-5.1,4.3-7.3,6.2c1.9,1.3,4,2.3,6.1,3.2c1,0.5,2,0.9,3,1.4c0.6,0.3,1.2,0.6,1.8,0.8l0.4,0.2c1.4,0.6,2.8,1.2,4.1,2.1    c0.8,0.5,1.3,1.1,1.8,1.9c0.3,0.3,0.6,0.7,0.8,1.2l0,0.1c0.2,0.5,0.2,1.1,0.1,1.6c0.1,1,0,2.1-0.3,3.2c-0.8,2.6-2.9,4.1-6.1,4.2    c-0.8,0-1.5,0-2.2,0c-3.3-0.2-5.6-2.1-6.4-5l-10.3-3.3h-0.2c-0.8,8.5,4,13.8,14.8,16.4l0.8,0.2v4H47v-4.1l1.5-0.3    c1-0.2,1.9-0.4,2.8-0.7c6-1.9,9.4-5.7,10.2-11.2C62.3,40.6,60.3,35.7,55.4,32.6z"></path><path d="M29.1,20.5l3.5-2.4c1.4-1,2.8-1.7,4.1-2.2c0.3-0.1,0.6-0.2,0.9-0.3c0.1,0,0.3-0.1,0.5-0.2l0.3-0.1l0.7-0.1    c1-1.4,2.7-2,5.1-2.1c3.3,0,5.5,1.5,6.4,4.3c0.3,0.8,0.4,1.7,0.6,2.6l0,0.1c0.1,0.3,0.1,0.7,0.2,1h10c0.3-2.8-0.4-6.2-1.9-8.7    c-2.2-3.8-5.8-6.1-11.1-7.2l-0.8-0.2V0.6h-5.6v4.4l-0.7,0.2c-0.6,0.2-1.2,0.4-1.8,0.5c-1.6,0.5-3.2,0.9-4.6,1.6    c-4.4,2.2-7.2,6.5-7.6,11.6c-0.1,1-0.1,1.9,0.1,2.8C27.9,21.3,28.5,20.9,29.1,20.5z"></path></g></g></svg>