<svg height='100px' width='100px'  fill="#000000" xmlns="http://www.w3.org/2000/svg" xmlns:xlink="http://www.w3.org/1999/xlink" xmlns:sketch="http://www.bohemiancoding.com/sketch/ns" viewBox="0 0 100 100" version="1.1" x="0px" y="0px"><title>33</title><desc>Created with Sketch.</desc><g stroke="none" stroke-width="1" fill="none" fill-rule="evenodd" sketch:type="MSPage"><path d="M83.4475222,19.2915 C83.2915222,18.2445 82.4050222,17.46 81.3475222,17.4465 C76.9900222,17.3895 70.6480222,16.728 63.6370222,13.8975 C58.1980222,11.7015 54.0355222,8.8785 51.1090222,6.501 C50.6980222,6.1665 50.1970222,6 49.6960222,6 C49.1950222,6 48.6925222,6.1665 48.2830222,6.501 C45.3550222,8.8785 41.1925222,11.7015 35.7550222,13.8975 C28.7440222,16.728 22.4005222,17.3895 18.0445222,17.4465 C16.9855222,17.46 16.0990222,18.2445 15.9445222,19.2915 C14.5855222,28.482 12.0025222,56.8845 30.7720222,79.404 C36.3055222,86.043 42.4390222,90.663 47.8360222,93.8715 C48.4090222,94.212 49.0525222,94.383 49.6945222,94.383 C50.3380222,94.383 50.9800222,94.212 51.5530222,93.8715 C56.9515222,90.6645 63.0835222,86.0445 68.6170222,79.404 C87.3895222,56.8845 84.8050222,28.482 83.4475222,19.2915 L83.4475222,19.2915 Z M20.1355222,21.882 C26.0995222,21.5805 31.9120222,20.301 37.4395222,18.0705 C41.8120222,16.305 45.9265222,13.968 49.6960222,11.112 C53.4640222,13.968 57.5785222,16.305 61.9525222,18.0705 C67.4800222,20.301 73.2910222,21.5805 79.2565222,21.882 C79.4620222,23.562 79.6480222,25.5345 79.7635222,27.729 C75.5395222,27.366 70.3990222,26.469 64.8445222,24.4065 C58.9360222,22.2105 54.4120222,19.3875 51.2320222,17.01 C50.7850222,16.6755 50.2405222,16.509 49.6960222,16.509 C49.1515222,16.509 48.6070222,16.6755 48.1600222,17.01 C44.9800222,19.3875 40.4560222,22.2105 34.5475222,24.4065 C28.9975222,26.4675 23.8510222,27.369 19.6270222,27.7335 C19.7440222,25.5375 19.9300222,23.5635 20.1355222,21.882 L20.1355222,21.882 Z M65.1610222,76.5225 C60.8530222,81.693 55.6510222,86.1375 49.6945222,89.739 C43.7365222,86.1345 38.5345222,81.69 34.2280222,76.5225 C22.2040222,62.0955 19.5130222,44.9025 19.5025222,32.454 C25.2385222,32.01 30.8320222,30.7905 36.1810222,28.803 C41.0080222,27.0105 45.5470222,24.621 49.6960222,21.6915 C53.8435222,24.621 58.3840222,27.009 63.2110222,28.803 C68.5570222,30.789 74.1550222,31.974 79.8895222,32.418 C79.8820222,44.868 77.1985222,62.082 65.1610222,76.5225 L65.1610222,76.5225 Z M52.8128114,58.1309191 L58.2000612,52.6922469 C59.2976445,51.5841868 61.0752524,51.5801721 62.1768125,52.6922469 C63.2743958,53.8003069 63.2743958,55.5988971 62.1768125,56.7069571 L50,69 L37.8231875,56.7069571 C36.7256042,55.5988971 36.7256042,53.8003069 37.8231875,52.6922469 C38.9207709,51.5841868 40.7023555,51.5841868 41.7999388,52.6922469 L47.1888358,58.1325821 L47.1888358,39.8388289 C47.1888358,38.2717953 48.4429824,37 50.0008236,37 C51.5530409,37 52.8128114,38.2717953 52.8128114,39.8388289 L52.8128114,58.1309191 L52.8128114,58.1309191 Z" fill="#000000" sketch:type="MSShapeGroup"></path></g></svg>