<svg height='100px' width='100px'  fill="#000000" xmlns:dc="http://purl.org/dc/elements/1.1/" xmlns:cc="http://creativecommons.org/ns#" xmlns:rdf="http://www.w3.org/1999/02/22-rdf-syntax-ns#" xmlns:svg="http://www.w3.org/2000/svg" xmlns:sodipodi="http://sodipodi.sourceforge.net/DTD/sodipodi-0.dtd" xmlns:inkscape="http://www.inkscape.org/namespaces/inkscape" xmlns="http://www.w3.org/2000/svg" xmlns:xlink="http://www.w3.org/1999/xlink" version="1.1" x="0px" y="0px" viewBox="0 174.3 841.9 841.9" enable-background="new 0 174.3 841.9 841.9" xml:space="preserve"><g><path d="M251.9,897.9c7.6,8.2,17.4,15.5,29.4,21.9c12,6.5,25.5,9.7,40.5,9.7c4.2,0,8.4-0.4,12.6-1.2c4.2-0.8,8-2.2,11.4-4.1   c3.4-2,6.2-4.6,8.3-7.9c2.1-3.3,3.2-7.3,3.2-12c0-8.2-3.8-14.7-11.4-19.5c-7.6-4.9-20.5-9.5-38.7-14l-9.5-3.2   c-22.4-6.3-39.5-15.5-51.3-27.6c-11.8-12.1-17.8-27.6-17.8-46.6c0-20.3,6.5-36.8,19.5-49.5c13-12.8,31-20.6,53.9-23.5v-35.1h37.9   v35.1c16.8,2.1,30.6,6.5,41.2,13c10.7,6.6,19,12.8,25.1,18.6l-33.9,37.9c-2.4-2.1-5.3-4.4-8.7-6.9c-3.4-2.5-7.3-4.9-11.6-7.1   c-4.3-2.2-9.1-4.1-14.2-5.5c-5.1-1.4-10.6-2.2-16.4-2.2c-3.9,0-8.2,0.5-12.6,1.4c-4.5,0.9-8.6,2.3-12.2,4.1   c-3.7,1.8-6.7,4.3-9.1,7.5c-2.4,3.2-3.6,6.8-3.6,11.1c0,8.4,3.9,14.7,11.8,18.7c7.9,4.1,20,8.2,36.3,12.4   c9.7,2.4,19.5,5.5,29.2,9.5c9.7,3.9,18.5,9,26.2,15.2c7.8,6.2,14,13.8,18.7,22.7c4.7,8.9,7.1,19.9,7.1,32.8   c0,10.3-1.9,19.5-5.7,27.8c-3.8,8.3-9,15.5-15.6,21.7c-6.6,6.2-14.3,11.3-23.3,15.4c-9,4.1-18.6,6.9-28.8,8.5v38.3H302v-36.7   c-18.9-1.8-35.7-6.6-50.1-14.4c-14.5-7.8-26.3-16.6-35.5-26.6L251.9,897.9z"></path></g><path d="M595.8,383.4c-3.1-3.7-7.4-6.8-11.7-9.8c-19.1-12.9-44.9-12.3-64,0.6c-8,5.5-13.5,12.3-17.8,19.7c-1.8,3.7-6.8,3.7-8.6,0  c-3.7-7.4-9.2-13.5-16.6-18.5c-16-11.7-44.9-12.9-62.1-3.1c-4.9,3.1-9.2,6.2-12.3,9.8c-1.2,1.2-1.2,2.5-1.2,3.7V551h-24V385.2  c0-1.2-0.6-2.5-1.2-3.7c-3.7-3.7-8-6.8-12.9-9.8c-19.1-11.1-43.7-9.8-62.1,3.7c-7.4,4.9-12.9,11.7-16.6,18.5c-1.8,3.7-6.8,3.7-8.6,0  c-4.3-8-11.1-15.4-20.3-20.9c-17.2-10.5-38.8-11.1-56.6-1.8c-6.2,3.7-11.7,8-16,12.3c-3.1,3.7-9.2,0.6-8.6-4.3  c15.4-99.7,98.4-177.2,200.6-184.6c1.2,0,2.5-1.2,2.5-2.5v-5.5c0-6.2,4.3-11.7,9.8-12.3c8-1.8,14.8,4.3,14.8,11.7v6.2  c0,1.8,1.2,3.1,2.5,3.1c102.1,6.8,185.2,84.3,200,184C605,384.6,598.9,387.1,595.8,383.4z"></path><g><circle cx="556.9" cy="493.8" r="47.3"></circle><path d="M612.4,551h-106c-23.3,0.4-35.6,24.4-55.3,49.3l-41.3-60.8c-6.3-9.2-18.9-11.7-28.2-5.4c-9.2,6.3-11.7,18.9-5.4,28.2   l59.5,87.3c3.6,5.4,9.8,8.7,16.3,8.9c0.2,0,0.3,0,0.5,0c6.3,0,12.3-3,16.2-8.1l25.9-34.2h6.8l-0.2,374.2   c0,14.6,11.9,26.5,26.5,26.5c14.7,0,26.5-11.9,26.5-26.5V777.4h11.8l-0.1,213.1c0,14.6,11.9,26.5,26.5,26.5   c14.6,0,26.5-11.9,26.5-26.5l0.1-374.2h11.7v141.5c0,28.4,37.1,28.4,37,0V613.3C667.6,581.8,649.2,551,612.4,551z"></path></g></svg>