<svg height='100px' width='100px'  fill="#000000" xmlns="http://www.w3.org/2000/svg" xmlns:xlink="http://www.w3.org/1999/xlink" version="1.1" x="0px" y="0px" viewBox="0 0 100 100" style="enable-background:new 0 0 100 100;" xml:space="preserve"><path d="M25.8848,65.4141c-3.7079,3.7076-5.7908,8.7365-5.7908,13.98v7.6744h-5.9435V95h71.6991v-7.9315H79.906V79.394  c0-5.2435-2.0829-10.2723-5.7908-13.98l-13.3728-13.373c-1.1272-1.1272-1.1272-2.9548,0-4.0822l13.3728-13.3729  c3.7079-3.7076,5.7908-8.7364,5.7908-13.9799v-7.6749h5.9435V5H14.1505v7.9313h5.9435v7.6749  c0,5.2435,2.0829,10.2723,5.7908,13.9799l13.3728,13.3729c1.1272,1.1274,1.1272,2.955,0,4.0822L25.8848,65.4141z M44.1799,43.0366  l-13.373-13.3728c-2.4194-2.4193-3.7518-5.6359-3.7518-9.0576v-7.6749v-0.9702h45.8899v0.9702v7.6749  c0,3.4215-1.3324,6.6384-3.7518,9.0578l-13.373,13.3729c-1.8599,1.86-2.8842,4.333-2.8842,6.9632  c0,2.6306,1.0246,5.1035,2.8845,6.9632l13.3728,13.3732c1.572,1.572,2.6291,3.4997,3.2161,5.5824  C69.4739,73.637,54.4435,62.1235,50,62.1235c-4.4437,0-19.4742,11.5138-22.4092,13.7953c0.587-2.0829,1.644-4.0106,3.2161-5.5826  l13.373-13.373C48.019,53.1241,48.0192,46.8768,44.1799,43.0366z"></path></svg>