<svg height='100px' width='100px'  fill="#000000" xmlns="http://www.w3.org/2000/svg" xmlns:xlink="http://www.w3.org/1999/xlink" version="1.1" x="0px" y="0px" viewBox="0 0 64 64" enable-background="new 0 0 64 64" xml:space="preserve"><g><g><path d="M26,8H10c-1.104,0-2,0.896-2,2v16c0,1.104,0.896,2,2,2h16c1.104,0,2-0.896,2-2V10C28,8.896,27.104,8,26,8z"></path><path d="M46,28c5.514,0,10-4.486,10-10S51.514,8,46,8s-10,4.486-10,10S40.486,28,46,28z"></path><path d="M19.789,37.105C19.45,36.428,18.757,36,18,36s-1.45,0.428-1.789,1.105l-8,16c-0.31,0.62-0.277,1.356,0.088,1.946    C8.663,55.641,9.307,56,10,56h16c0.693,0,1.337-0.359,1.701-0.948c0.365-0.59,0.397-1.326,0.088-1.946L19.789,37.105z"></path><path d="M50,36h-8c-3.309,0-6,2.691-6,6v8c0,3.309,2.691,6,6,6h8c3.309,0,6-2.691,6-6v-8C56,38.691,53.309,36,50,36z"></path></g></g></svg>