<svg height='100px' width='100px'  fill="#000000" xmlns="http://www.w3.org/2000/svg" xmlns:xlink="http://www.w3.org/1999/xlink" version="1.1" x="0px" y="0px" viewBox="0 0 64 64" style="enable-background:new 0 0 64 64;" xml:space="preserve"><g><polygon points="27.215,49.215 27.745,52.394 30.211,50.915 27.773,49.086  "></polygon><path d="M35,47.508v-1.089c-0.927,0.377-1.939,0.589-3,0.589s-2.073-0.212-3-0.589v1.089l3,2.25L35,47.508z"></path><path d="M23.287,21.79l-0.155,0.611L21,22.827v2.361l2.132,0.426l0.155,0.611c0.214,0.838,0.545,1.637,0.984,2.374l0.322,0.541   l-1.206,1.811l1.669,1.669l1.811-1.206l0.541,0.322c0.737,0.439,1.536,0.771,2.374,0.984l0.611,0.155l0.426,2.132h2.361   l0.426-2.132l0.611-0.155c0.838-0.214,1.637-0.545,2.374-0.984l0.541-0.322l1.811,1.206l1.669-1.669l-1.206-1.811l0.322-0.541   c0.439-0.737,0.771-1.536,0.984-2.374l0.155-0.611L43,25.188v-2.361l-2.132-0.426l-0.155-0.611   c-0.214-0.838-0.545-1.637-0.984-2.374l-0.322-0.541l1.206-1.811l-1.669-1.669l-1.811,1.206l-0.541-0.322   c-0.737-0.439-1.536-0.771-2.374-0.984l-0.611-0.155l-0.426-2.132h-2.361l-0.426,2.132l-0.611,0.155   c-0.838,0.214-1.637,0.545-2.374,0.984l-0.541,0.322l-1.811-1.206l-1.669,1.669l1.206,1.811l-0.322,0.541   C23.832,20.153,23.501,20.952,23.287,21.79z M32,17.007c3.859,0,7,3.141,7,7c0,1.458-0.449,2.859-1.299,4.053l-1.629-1.16   C36.679,26.047,37,25.047,37,24.007c0-2.757-2.243-5-5-5c-1.04,0-2.04,0.321-2.893,0.928l-1.16-1.629   C29.141,17.457,30.542,17.007,32,17.007z M26.299,19.955l1.629,1.16C27.321,21.967,27,22.967,27,24.007c0,2.757,2.243,5,5,5   c1.04,0,2.04-0.321,2.893-0.928l1.16,1.629c-1.193,0.85-2.595,1.299-4.053,1.299c-3.859,0-7-3.141-7-7   C25,22.549,25.449,21.148,26.299,19.955z"></path><path d="M44.125,50.909l-5.244-1.21l-1.179,5.896L32,52.173l-5.745,3.447l-0.992-5.955l-5.388,1.243   C17.594,51.435,16,53.438,16,55.781v5.227h32v-5.227C48,53.438,46.406,51.435,44.125,50.909z"></path><path d="M53,15.007c-1.988,0-3.895,0.734-5.367,2.066l-1.342-1.482c1.828-1.655,4.191-2.569,6.658-2.582   C52.443,7.411,47.729,3.007,42,3.007c-3.691,0-7.119,1.841-9.167,4.926L32,9.187l-0.833-1.254C29.119,4.848,25.691,3.007,22,3.007   c-5.729,0-10.443,4.403-10.949,10.002c2.651,0.013,5.143,1.05,7.021,2.926l-1.414,1.414c-1.512-1.511-3.521-2.343-5.657-2.343   c-4.411,0-8,3.589-8,8s3.589,8,8,8h9.946l1.296-1.943c-0.288-0.555-0.528-1.134-0.718-1.731L19,26.827v-5.639l2.524-0.506   c0.189-0.598,0.43-1.177,0.718-1.731l-1.429-2.143l3.987-3.987l2.143,1.429c0.555-0.288,1.134-0.528,1.731-0.718l0.506-2.524h5.639   l0.506,2.524c0.598,0.189,1.177,0.43,1.731,0.718l2.143-1.429l3.987,3.987l-1.429,2.143c0.288,0.555,0.528,1.134,0.718,1.731   L45,21.188v5.639l-2.524,0.506c-0.189,0.598-0.43,1.177-0.718,1.731l1.296,1.943H53c4.411,0,8-3.589,8-8S57.411,15.007,53,15.007z"></path><polygon points="36.932,49.249 36.227,49.086 33.79,50.915 36.298,52.419  "></polygon><path d="M38,35.007c0-0.22-0.033-0.435-0.057-0.651l-0.887-0.591c-0.555,0.288-1.134,0.528-1.731,0.718l-0.506,2.524h-5.639   l-0.506-2.524c-0.598-0.189-1.177-0.43-1.731-0.718l-0.887,0.591C26.033,34.573,26,34.789,26,35.007v4c0,3.309,2.691,6,6,6   s6-2.691,6-6V35.007z"></path><rect x="6" y="35.007" width="2" height="2"></rect><rect x="6" y="39.007" width="2" height="2"></rect><rect x="6" y="43.007" width="2" height="2"></rect><rect x="10" y="43.007" width="2" height="2"></rect><rect x="10" y="47.007" width="2" height="2"></rect><rect x="10" y="51.007" width="2" height="2"></rect><rect x="56" y="35.007" width="2" height="2"></rect><rect x="56" y="39.007" width="2" height="2"></rect><rect x="56" y="43.007" width="2" height="2"></rect><rect x="52" y="43.007" width="2" height="2"></rect><rect x="52" y="47.007" width="2" height="2"></rect><rect x="52" y="51.007" width="2" height="2"></rect></g></svg>