<svg height='100px' width='100px'  fill="#000000" xmlns="http://www.w3.org/2000/svg" xmlns:xlink="http://www.w3.org/1999/xlink" viewBox="0 0 100 100" version="1.1" x="0px" y="0px"><title>Omni Channel Copy</title><desc>Created with Sketch.</desc><g stroke="none" stroke-width="1" fill="none" fill-rule="evenodd"><path d="M81,36.5 C77.4101491,36.5 74.5,33.5898509 74.5,30 C74.5,28.4467363 75.0496644,26.9842834 76.0076792,25.8366228 C70.7623902,20.1922453 63.8199516,16.3762699 56.1752077,15.0350226 C55.3188929,17.637143 52.8678568,19.5 50,19.5 C47.1321432,19.5 44.6811071,17.637143 43.8247923,15.0350226 C36.1800484,16.3762699 29.2376098,20.1922453 23.9923208,25.8366228 C24.9503356,26.9842834 25.5,28.4467363 25.5,30 C25.5,33.5898509 22.5898509,36.5 19,36.5 C18.4032005,36.5 17.8172843,36.419106 17.2551691,36.2627843 C15.4459596,40.5694612 14.5,45.2164964 14.5,50 C14.5,55.1218877 15.584707,60.0861391 17.6496389,64.6407547 C18.0897926,64.5476563 18.5418469,64.5 19,64.5 C22.5898509,64.5 25.5,67.4101491 25.5,71 C25.5,72.3072185 25.1110864,73.5540115 24.4097438,74.604829 C29.6079048,80.0109939 36.3855336,83.6598425 43.8247906,84.9649826 C44.6811038,82.3628595 47.1321413,80.5 50,80.5 C52.8678587,80.5 55.3188962,82.3628595 56.1752094,84.9649826 C63.6144664,83.6598425 70.3920952,80.0109939 75.5902562,74.604829 C74.8889136,73.5540115 74.5,72.3072185 74.5,71 C74.5,67.4101491 77.4101491,64.5 81,64.5 C81.4581531,64.5 81.9102074,64.5476563 82.3503611,64.6407547 C84.415293,60.0861391 85.5,55.1218877 85.5,50 C85.5,45.2164964 84.5540404,40.5694612 82.7448309,36.2627843 C82.1827157,36.419106 81.5967995,36.5 81,36.5 Z M84.8803793,33.6817229 C87.2533138,38.7454879 88.5,44.2858979 88.5,50 C88.5,56.030403 87.1112772,61.8655322 84.4796521,67.1473515 L83.8239932,68.4632958 L82.4951747,67.8341382 C82.0325072,67.6150784 81.5259108,67.5 81,67.5 C79.0670034,67.5 77.5,69.0670034 77.5,71 C77.5,71.9844228 77.9064817,72.9001435 78.6122716,73.5590786 L79.6854616,74.5610235 L78.7067347,75.6554291 C72.622786,82.4584584 64.317754,86.9227217 55.1894179,88.1530681 L53.5978248,88.3675882 L53.4922966,86.7650741 C53.3717314,84.934213 51.8458298,83.5 50,83.5 C48.1541702,83.5 46.6282686,84.934213 46.5077034,86.7650741 L46.4021752,88.3675882 L44.8105821,88.1530681 C35.682246,86.9227217 27.377214,82.4584584 21.2932653,75.6554291 L20.3145384,74.5610235 L21.3877284,73.5590786 C22.0935183,72.9001435 22.5,71.9844228 22.5,71 C22.5,69.0670034 20.9329966,67.5 19,67.5 C18.4740892,67.5 17.9674928,67.6150784 17.5048253,67.8341382 L16.1760068,68.4632958 L15.5203479,67.1473515 C12.8887228,61.8655322 11.5,56.030403 11.5,50 C11.5,44.2858979 12.7466862,38.7454879 15.1196207,33.6817229 L15.817079,32.1933698 L17.2356124,33.0236745 C17.7662131,33.334249 18.3692087,33.5 19,33.5 C20.9329966,33.5 22.5,31.9329966 22.5,30 C22.5,28.8534745 21.9465112,27.8023665 21.0297815,27.1482045 L19.6948884,26.1956486 L20.762395,24.9507662 C26.8828307,17.8133653 35.4072839,13.1143385 44.8105821,11.8469319 L46.4021752,11.6324118 L46.5077034,13.2349259 C46.6282686,15.065787 48.1541702,16.5 50,16.5 C51.8458298,16.5 53.3717314,15.065787 53.4922966,13.2349259 L53.5978248,11.6324118 L55.1894179,11.8469319 C64.5927161,13.1143385 73.1171693,17.8133653 79.237605,24.9507662 L80.3051116,26.1956486 L78.9702185,27.1482045 C78.0534888,27.8023665 77.5,28.8534745 77.5,30 C77.5,31.9329966 79.0670034,33.5 81,33.5 C81.6307913,33.5 82.2337869,33.334249 82.7643876,33.0236745 L84.182921,32.1933698 L84.8803793,33.6817229 Z" fill="#000000" fill-rule="nonzero"></path><path d="M50,19.5 C46.4101491,19.5 43.5,16.5898509 43.5,13 C43.5,9.41014913 46.4101491,6.5 50,6.5 C53.5898509,6.5 56.5,9.41014913 56.5,13 C56.5,16.5898509 53.5898509,19.5 50,19.5 Z" fill="#000000" fill-rule="nonzero"></path><path d="M50,93.5 C46.4101491,93.5 43.5,90.5898509 43.5,87 C43.5,83.4101491 46.4101491,80.5 50,80.5 C53.5898509,80.5 56.5,83.4101491 56.5,87 C56.5,90.5898509 53.5898509,93.5 50,93.5 Z" fill="#000000" fill-rule="nonzero"></path><path d="M19,36.5 C15.4101491,36.5 12.5,33.5898509 12.5,30 C12.5,26.4101491 15.4101491,23.5 19,23.5 C22.5898509,23.5 25.5,26.4101491 25.5,30 C25.5,33.5898509 22.5898509,36.5 19,36.5 Z" fill="#000000" fill-rule="nonzero"></path><path d="M81,77.5 C77.4101491,77.5 74.5,74.5898509 74.5,71 C74.5,67.4101491 77.4101491,64.5 81,64.5 C84.5898509,64.5 87.5,67.4101491 87.5,71 C87.5,74.5898509 84.5898509,77.5 81,77.5 Z" fill="#000000" fill-rule="nonzero"></path><path d="M19,77.5 C15.4101491,77.5 12.5,74.5898509 12.5,71 C12.5,67.4101491 15.4101491,64.5 19,64.5 C22.5898509,64.5 25.5,67.4101491 25.5,71 C25.5,74.5898509 22.5898509,77.5 19,77.5 Z" fill="#000000" fill-rule="nonzero"></path><path d="M81,36.5 C77.4101491,36.5 74.5,33.5898509 74.5,30 C74.5,26.4101491 77.4101491,23.5 81,23.5 C84.5898509,23.5 87.5,26.4101491 87.5,30 C87.5,33.5898509 84.5898509,36.5 81,36.5 Z" fill="#000000" fill-rule="nonzero"></path><path d="M43.8083443,52.7107161 C40.3237183,50.5200485 38,46.536946 38,42 C38,35.1116475 43.3565726,29.5 50,29.5 C56.6434274,29.5 62,35.1116475 62,42 C62,46.5369475 59.6762801,50.5200512 56.1916521,52.7107183 L65.2434362,58.3272058 C67.5792181,59.7765223 69,62.3301579 69,65.0790478 C69,67.5206723 67.0206723,69.5 64.5790478,69.5 L35.4209522,69.5 C32.9793277,69.5 31,67.5206723 31,65.0790478 C31,62.3301579 32.4207819,59.7765223 34.7565638,58.3272058 L43.8083443,52.7107161 Z" fill="#000000" fill-rule="nonzero"></path></g></svg>