<svg height='100px' width='100px'  fill="#000000" xmlns="http://www.w3.org/2000/svg" xmlns:xlink="http://www.w3.org/1999/xlink" version="1.2" baseProfile="tiny" x="0px" y="0px" viewBox="0 0 100 100" xml:space="preserve"><path d="M50,27.5c-12.406,0-22.5,10.093-22.5,22.5S37.594,72.5,50,72.5S72.5,62.407,72.5,50S62.406,27.5,50,27.5z M50,67.5  c-9.649,0-17.5-7.851-17.5-17.5S40.351,32.5,50,32.5S67.5,40.351,67.5,50S59.649,67.5,50,67.5z"></path><polygon points="57.955,39.394 47.349,50 42.045,44.697 36.741,50 47.349,60.606 63.259,44.697 "></polygon><polygon points="46.25,22.5 53.75,22.5 53.75,15 60,15 50,5 40,15 46.25,15 "></polygon><polygon points="53.75,77.5 46.25,77.5 46.25,85 40,85 50,95 60,85 53.75,85 "></polygon><polygon points="27.903,33.207 33.206,27.903 27.903,22.6 32.322,18.18 18.18,18.18 18.18,32.322 22.6,27.903 "></polygon><polygon points="72.097,66.793 66.794,72.097 72.097,77.4 67.678,81.82 81.82,81.82 81.82,67.678 77.4,72.097 "></polygon><polygon points="22.5,46.25 15,46.25 15,40 5,50 15,60 15,53.75 22.5,53.75 "></polygon><polygon points="85,46.25 77.5,46.25 77.5,53.75 85,53.75 85,60 95,50 85,40 "></polygon><polygon points="27.903,66.793 22.6,72.097 18.18,67.678 18.18,81.82 32.322,81.82 27.903,77.4 33.206,72.097 "></polygon><polygon points="72.097,33.207 77.4,27.903 81.82,32.322 81.82,18.18 67.678,18.18 72.097,22.6 66.794,27.903 "></polygon></svg>