<svg xmlns="http://www.w3.org/2000/svg" xmlns:xlink="http://www.w3.org/1999/xlink" width="65" height="55" viewBox="0 0 65 55"><defs><style>.a,.c{fill:#5a5a5a;}.b{opacity:0.701;clip-path:url(#a);}.c{stroke:#fff;stroke-miterlimit:10;stroke-width:0.25px;}</style><clipPath id="a"><rect class="a" width="65" height="55" transform="translate(-0.317 0.341)"/></clipPath></defs><g class="b" transform="translate(0.317 -0.341)"><path class="c" d="M453.822,65.135h3.091A1.143,1.143,0,0,0,458.058,64a1.227,1.227,0,0,0-1.145-1.137h-3.091a1.137,1.137,0,1,0,0,2.274Z" transform="translate(-422.847 -46.411)"/><path class="c" d="M453.822,71.66h3.091a1.143,1.143,0,0,0,1.145-1.137,1.227,1.227,0,0,0-1.145-1.137h-3.091a1.137,1.137,0,1,0,0,2.274Z" transform="translate(-422.847 -46.342)"/><path class="c" d="M462.2,65.135h3.09A1.143,1.143,0,0,0,466.44,64a1.226,1.226,0,0,0-1.145-1.137H462.2A1.143,1.143,0,0,0,461.06,64,1.227,1.227,0,0,0,462.2,65.135Z" transform="translate(-422.759 -46.411)"/><path class="c" d="M462.2,71.66h3.09a1.143,1.143,0,0,0,1.145-1.137,1.226,1.226,0,0,0-1.145-1.137H462.2a1.143,1.143,0,0,0-1.145,1.137A1.227,1.227,0,0,0,462.2,71.66Z" transform="translate(-422.759 -46.342)"/><path class="c" d="M445.44,65.135h3.091A1.143,1.143,0,0,0,449.675,64a1.226,1.226,0,0,0-1.144-1.137H445.44a1.137,1.137,0,1,0,0,2.274Z" transform="translate(-422.936 -46.411)"/><path class="c" d="M445.44,71.66h3.091a1.143,1.143,0,0,0,1.144-1.137,1.226,1.226,0,0,0-1.144-1.137H445.44a1.137,1.137,0,1,0,0,2.274Z" transform="translate(-422.936 -46.342)"/><path class="c" d="M453.822,58.385h3.091a1.137,1.137,0,1,0,0-2.274h-3.091a1.143,1.143,0,0,0-1.144,1.137A1.078,1.078,0,0,0,453.822,58.385Z" transform="translate(-422.847 -46.482)"/><path class="c" d="M462.2,58.385h3.09a1.137,1.137,0,1,0,0-2.274H462.2a1.137,1.137,0,1,0,0,2.274Z" transform="translate(-422.759 -46.482)"/><path class="c" d="M445.44,58.385h3.09a1.137,1.137,0,1,0,0-2.274h-3.09a1.143,1.143,0,0,0-1.145,1.137C444.181,57.93,444.753,58.385,445.44,58.385Z" transform="translate(-422.936 -46.482)"/><path class="c" d="M453.822,78.41h3.091a1.143,1.143,0,0,0,1.145-1.137,1.227,1.227,0,0,0-1.145-1.137h-3.091a1.137,1.137,0,1,0,0,2.274Z" transform="translate(-422.847 -46.271)"/><path class="c" d="M462.2,78.41h3.09a1.143,1.143,0,0,0,1.145-1.137,1.226,1.226,0,0,0-1.145-1.137H462.2a1.143,1.143,0,0,0-1.145,1.137A1.227,1.227,0,0,0,462.2,78.41Z" transform="translate(-422.759 -46.271)"/><path class="c" d="M445.44,78.41h3.091a1.143,1.143,0,0,0,1.144-1.137,1.226,1.226,0,0,0-1.144-1.137H445.44a1.137,1.137,0,1,0,0,2.274Z" transform="translate(-422.936 -46.271)"/><path class="c" d="M453.822,85.049h3.091a1.137,1.137,0,1,0,0-2.274h-3.091a1.137,1.137,0,1,0,0,2.274Z" transform="translate(-422.847 -46.201)"/><path class="c" d="M462.2,85.049h3.09a1.137,1.137,0,1,0,0-2.274H462.2a1.143,1.143,0,0,0-1.145,1.137A1.227,1.227,0,0,0,462.2,85.049Z" transform="translate(-422.759 -46.201)"/><path class="c" d="M449.675,83.912a1.143,1.143,0,0,0-1.144-1.137H445.44a1.137,1.137,0,1,0,0,2.274h3.091A1.226,1.226,0,0,0,449.675,83.912Z" transform="translate(-422.936 -46.201)"/><path class="c" d="M473.193,65.135h7.555A1.143,1.143,0,0,0,481.892,64a1.226,1.226,0,0,0-1.144-1.137h-7.555A1.143,1.143,0,0,0,472.048,64,1.227,1.227,0,0,0,473.193,65.135Z" transform="translate(-422.643 -46.411)"/><path class="c" d="M473.193,71.66h7.555a1.143,1.143,0,0,0,1.144-1.137,1.226,1.226,0,0,0-1.144-1.137h-7.555a1.143,1.143,0,0,0-1.145,1.137A1.227,1.227,0,0,0,473.193,71.66Z" transform="translate(-422.643 -46.342)"/><path class="c" d="M473.193,78.41h7.555a1.143,1.143,0,0,0,1.144-1.137,1.226,1.226,0,0,0-1.144-1.137h-7.555a1.143,1.143,0,0,0-1.145,1.137A1.227,1.227,0,0,0,473.193,78.41Z" transform="translate(-422.643 -46.271)"/><path class="c" d="M473.193,85.049h7.555a1.137,1.137,0,1,0,0-2.274h-7.555a1.143,1.143,0,0,0-1.145,1.137A1.227,1.227,0,0,0,473.193,85.049Z" transform="translate(-422.643 -46.201)"/><path class="c" d="M424.371,101.339h62.041a1.143,1.143,0,0,0,1.145-1.137V57.8a1.144,1.144,0,0,0-1.145-1.137H470.5V52.8a1.144,1.144,0,0,0-1.145-1.137h-2.976v-3.3a1.144,1.144,0,0,0-1.145-1.137h-19a1.143,1.143,0,0,0-1.145,1.137v3.183h-2.976a1.143,1.143,0,0,0-1.145,1.137V70.075h-16.6a1.144,1.144,0,0,0-1.145,1.137v28.876A1.061,1.061,0,0,0,424.371,101.339Zm55.746-2.274h-5.152V91.22h5.152Zm5.036-40.017V99.065h-2.632V90.084a1.144,1.144,0,0,0-1.145-1.137h-7.555a1.143,1.143,0,0,0-1.145,1.137v8.981h-2.061V59.048ZM435.818,99.065h-5.152V91.22h5.152Zm22.778,0h-6.41V91.22h6.41ZM447.379,49.5h16.484v2.046H447.379Zm-4.121,4.434H468.1V98.951H461V89.97a1.143,1.143,0,0,0-1.145-1.137h-8.814A1.143,1.143,0,0,0,449.9,89.97v8.981h-6.639ZM425.516,72.576h15.339V99.065h-2.748V90.084a1.143,1.143,0,0,0-1.145-1.137h-7.555a1.144,1.144,0,0,0-1.145,1.137v8.981h-2.747Z" transform="translate(-423.157 -46.575)"/><path class="c" d="M429.355,78.41h7.555a1.143,1.143,0,0,0,1.145-1.137,1.226,1.226,0,0,0-1.145-1.137h-7.555a1.144,1.144,0,0,0-1.145,1.137A1.227,1.227,0,0,0,429.355,78.41Z" transform="translate(-423.105 -46.271)"/><path class="c" d="M429.355,85.049h7.555a1.137,1.137,0,1,0,0-2.274h-7.555a1.144,1.144,0,0,0-1.145,1.137A1.227,1.227,0,0,0,429.355,85.049Z" transform="translate(-423.105 -46.201)"/></g></svg>