<svg xmlns="http://www.w3.org/2000/svg" width="63.313" height="38.385" viewBox="0 0 63.313 38.385"><defs><style>.a{fill:#575757;opacity:0.701;}</style></defs><path class="a" d="M81.069,51.691,74.943,35.2a.984.984,0,0,0-1.248-.586L62.954,38.375C61.239,37.5,54.325,34,52.713,33.259c-2.042-.945-6.734.371-7.654.645a.984.984,0,0,0-.586.478c-2.529-.127-7.763,1.74-9.623,2.44l-6-3.52a.984.984,0,0,0-1.326.317l-9.55,14.866a.982.982,0,0,0,.27,1.342l12.067,8.3A3.8,3.8,0,0,0,30.236,61a4.815,4.815,0,0,0,2.928,2.52,3.845,3.845,0,0,0,4.007,3.405,5.567,5.567,0,0,0,.674-.042,4.022,4.022,0,0,0,1.745,2.133,3.859,3.859,0,0,0,1.879.463,5.094,5.094,0,0,0,1.332-.185,5.621,5.621,0,0,0,3.393,1.676c1.6,0,2.267-1.336,2.575-2.452l3.386,2.359a.682.682,0,0,0,.1.061,2.986,2.986,0,0,0,1.423.37,4.672,4.672,0,0,0,3.38-1.972,4.176,4.176,0,0,0,2.834-.608,4.821,4.821,0,0,0,1.8-2.355A6.61,6.61,0,0,0,66.5,62.5a4.449,4.449,0,0,0,3.195-1.7,3.8,3.8,0,0,0,.661-2.436L80.61,52.9A.976.976,0,0,0,81.069,51.691ZM33.226,61.4a2.479,2.479,0,0,1-1.166-1.132,2.539,2.539,0,0,1,.486-2.224c.529-.853,1.056-1.32,1.469-1.333.313,0,.713.316,1.085.815A10.342,10.342,0,0,0,33.226,61.4Zm2.681,3.223A2.7,2.7,0,0,1,35,62.472c.218-1.194,1.131-4.1,3.056-4.744a2.222,2.222,0,0,1,1.7-.061,1.464,1.464,0,0,1,.518.954,10.811,10.811,0,0,0-2.8,6.326A2.4,2.4,0,0,1,35.908,64.624Zm4.63,2.669a2.756,2.756,0,0,1-1.127-2.011,8.907,8.907,0,0,1,2.429-5.455,1.973,1.973,0,0,1,2.328.812l.048.179c-2.726,1.536-2.836,4.582-2.361,6.67A2.1,2.1,0,0,1,40.538,67.293Zm6.525-.21c-.094.574-.313,1.922-.869,1.922-.231,0-.9-.132-2.238-1.306-.269-.835-1.093-3.994,1.345-5.243a1.572,1.572,0,0,1,.692-.212.518.518,0,0,1,.43.229c.788.938.813,3.612.681,4.366Zm21.026-7.42a2.764,2.764,0,0,1-1.947.89l-6.968-6.381a.983.983,0,1,0-1.329,1.45l6.787,6.215a4.635,4.635,0,0,1-3.348,2.6l-6.237-6.172a.984.984,0,1,0-1.383,1.4l6.155,6.09a2.8,2.8,0,0,1-1.008,1.331,2.356,2.356,0,0,1-1.714.258l-5.482-5.618A.984.984,0,1,0,50.205,63.1l5.115,5.241c-.492.562-1.308,1.26-2.1.883l-4.115-2.867c.057-1.331-.052-3.8-1.181-5.151a2.462,2.462,0,0,0-1.818-.915l-.085-.312a1,1,0,0,0-.1-.246,3.833,3.833,0,0,0-3.852-1.952,3.131,3.131,0,0,0-1.252-1.77,3.827,3.827,0,0,0-3.388-.153,4.56,4.56,0,0,0-.832.386,3.382,3.382,0,0,0-2.553-1.5,3.374,3.374,0,0,0-2.76,1.661L20.145,48.748l8.526-13.27L34.26,38.76a.989.989,0,0,0,.853.069,52.783,52.783,0,0,1,7.451-2.3,32.211,32.211,0,0,0-3.255,4.612,2.994,2.994,0,0,0,.638,3.579,4.451,4.451,0,0,0,5.324.31,29.592,29.592,0,0,0,3.769-2.463H51.75a13.328,13.328,0,0,0,9.036,7.988l7.59,7.741A1.991,1.991,0,0,1,68.089,59.663Zm1.385-3.056-7.481-7.629a.98.98,0,0,0-.482-.269,11.406,11.406,0,0,1-8.127-7.4.984.984,0,0,0-.943-.705H48.683a1,1,0,0,0-.672.266A23.147,23.147,0,0,1,44.3,43.324,2.524,2.524,0,0,1,41.3,43.3a1.019,1.019,0,0,1-.234-1.268,45.763,45.763,0,0,1,4.458-5.977.967.967,0,0,0,.163-.277c2-.585,5.195-1.189,6.2-.725,1.774.816,10.461,5.227,10.55,5.272a.976.976,0,0,0,.77.051l10.226-3.58,5.492,14.778Z" transform="translate(-17.817 -32.923)"/></svg>