<svg xmlns="http://www.w3.org/2000/svg" xmlns:xlink="http://www.w3.org/1999/xlink" width="60.935" height="60.935" viewBox="0 0 60.935 60.935"><defs><style>.a,.c{fill:#5a5a5a;}.b{opacity:0.701;clip-path:url(#a);}.c{stroke:#fff;stroke-miterlimit:10;stroke-width:0.25px;}</style><clipPath id="a"><rect class="a" width="60.935" height="60.935" transform="translate(0 0)"/></clipPath></defs><g class="b"><path class="c" d="M646.121,62.1H644.1v2.021h2.021Z" transform="translate(-622.778 -41.788)"/><path class="c" d="M646.121,66.1H644.1v2.021h2.021Z" transform="translate(-622.778 -41.746)"/><path class="c" d="M646.121,70.1H644.1v2.021h2.021Z" transform="translate(-622.778 -41.704)"/><path class="c" d="M646.121,74.1H644.1v2.021h2.021Z" transform="translate(-622.778 -41.662)"/><path class="c" d="M650.121,62.1H648.1v2.021h2.021Z" transform="translate(-622.736 -41.788)"/><path class="c" d="M650.121,66.1H648.1v2.021h2.021Z" transform="translate(-622.736 -41.746)"/><path class="c" d="M650.121,70.1H648.1v2.021h2.021Z" transform="translate(-622.736 -41.704)"/><path class="c" d="M650.121,74.1H648.1v2.021h2.021Z" transform="translate(-622.736 -41.662)"/><path class="c" d="M654.121,62.1H652.1v2.021h2.021Z" transform="translate(-622.694 -41.788)"/><path class="c" d="M654.121,66.1H652.1v2.021h2.021Z" transform="translate(-622.694 -41.746)"/><path class="c" d="M654.121,70.1H652.1v2.021h2.021Z" transform="translate(-622.694 -41.704)"/><path class="c" d="M654.121,74.1H652.1v2.021h2.021Z" transform="translate(-622.694 -41.662)"/><path class="c" d="M658.121,62.1H656.1v2.021h2.021Z" transform="translate(-622.652 -41.788)"/><path class="c" d="M650.121,58.1H648.1v2.021h2.021Z" transform="translate(-622.736 -41.831)"/><path class="c" d="M654.121,58.1H652.1v2.021h2.021Z" transform="translate(-622.694 -41.831)"/><path class="c" d="M658.121,58.1H656.1v2.021h2.021Z" transform="translate(-622.652 -41.831)"/><path class="c" d="M658.121,66.1H656.1v2.021h2.021Z" transform="translate(-622.652 -41.746)"/><path class="c" d="M658.121,70.1H656.1v2.021h2.021Z" transform="translate(-622.652 -41.704)"/><path class="c" d="M658.121,74.1H656.1v2.021h2.021Z" transform="translate(-622.652 -41.662)"/><path class="c" d="M662.121,62.1H660.1v2.021h2.021Z" transform="translate(-622.609 -41.788)"/><path class="c" d="M662.121,66.1H660.1v2.021h2.021Z" transform="translate(-622.609 -41.746)"/><path class="c" d="M662.121,70.1H660.1v2.021h2.021Z" transform="translate(-622.609 -41.704)"/><path class="c" d="M662.121,74.1H660.1v2.021h2.021Z" transform="translate(-622.609 -41.662)"/><path class="c" d="M682.721,57.257H667.563V43.11a.955.955,0,0,0-1.01-1.011H640.279a.955.955,0,0,0-1.011,1.011V57.257H624.11a.955.955,0,0,0-1.01,1.011V94.647a.955.955,0,0,0,1.01,1.011h2.122a3.437,3.437,0,0,0-.1,1.011v5.053a.955.955,0,0,0,1.011,1.011h52.547a.955.955,0,0,0,1.011-1.011V96.668a3.439,3.439,0,0,0-.1-1.011h2.122a.955.955,0,0,0,1.011-1.011V58.268A1.013,1.013,0,0,0,682.721,57.257ZM666.552,85.148a1.4,1.4,0,0,1,0,.909,1.719,1.719,0,0,1-.606,1.011,2.129,2.129,0,0,1-1.314.505h-.505c-.1,0-.2-.1-.3-.1s-.1-.1-.2-.1-.1-.1-.2-.1a.1.1,0,0,1-.1-.1c-.1,0-.1-.1-.2-.2l-.1-.1c0-.1-.1-.1-.1-.2s-.1-.1-.1-.2-.1-.1-.1-.2,0-.1-.1-.2v-.808c0-.2.1-.3.2-.505a.1.1,0,0,1,.1-.1c.1-.1.2-.2.2-.3l.1-.1c.1-.1.3-.2.4-.3a.1.1,0,0,0,.1-.1c.1-.1.3-.1.4-.2h.808a.371.371,0,0,1,.3.1h.1a2.116,2.116,0,0,1,.606.4A1.719,1.719,0,0,1,666.552,85.148Zm-26.173,0a2.409,2.409,0,0,1,.606-1.112,2.116,2.116,0,0,1,.606-.4h.1c.1,0,.2-.1.3-.1h.808a.766.766,0,0,1,.4.2.1.1,0,0,1,.1.1c.1.1.3.2.4.3l.1.1c.1.1.2.2.2.3l.1.1c.1.1.1.3.2.505v.808c0,.1,0,.1-.1.2,0,.1,0,.1-.1.2,0,.1-.1.1-.1.2s-.1.1-.1.2a.1.1,0,0,1-.1.1l-.2.2-.1.1c-.1,0-.1.1-.2.1s-.1.1-.2.1-.2.1-.3.1H642.3a1.921,1.921,0,0,1-1.314-.505,2.1,2.1,0,0,1-.606-1.011A1.107,1.107,0,0,1,640.38,85.148Zm-4.143,15.562h-8.084V96.668a4.327,4.327,0,0,1,.606-2.223c0-.1.1-.1.2-.2l.3-.3.2-.2c.1-.1.3-.2.4-.3l.1-.1.606-.3c.1,0,.1-.1.2-.1.2-.1.3-.1.505-.2h.2a3.33,3.33,0,0,1,1.415,0h.2c.2,0,.3.1.505.2.1,0,.1,0,.2.1l.606.3.1.1c.1.1.3.2.4.3l.2.2.3.3.2.2a4.074,4.074,0,0,1,.606,2.223v4.042Zm-6.063-12.127a2.021,2.021,0,1,1,2.021,2.021A2.027,2.027,0,0,1,630.174,88.584Zm7.781.909-.2.2c-.1.1-.2.2-.2.3s-.1.1-.1.2c-.1.1-.1.2-.2.3,0,.1-.1.1-.1.2-.1.1-.1.2-.2.3,0,.1-.1.1-.1.2-.1.1-.1.2-.1.4,0,.1,0,.1-.1.2,0,.1-.1.3-.1.4v.2l-.1-.1c-.1-.1-.2-.1-.2-.2-.1,0-.1-.1-.2-.1-.1-.1-.2-.1-.3-.2-.1,0-.1-.1-.2-.1s-.1-.1-.2-.1a4.119,4.119,0,0,0-.1-5.76,4.028,4.028,0,0,0-5.76.1,3.965,3.965,0,0,0,0,5.558h-.1l-.1.1c-.2.1-.3.2-.505.3l-.1.1a4.793,4.793,0,0,0-1.01,1.011l-.1.1a1.008,1.008,0,0,1-.4.505v.1h-2.021V59.38h14.147V83.026a.1.1,0,0,1-.1.1c-.1.1-.2.3-.3.4,0,.1-.1.1-.1.2a.766.766,0,0,0-.2.4c0,.1-.1.2-.1.3s-.1.3-.1.4a3.824,3.824,0,0,0,0,1.516c0,.1.1.3.1.4s.1.2.1.3c.1.2.1.3.2.4,0,.1.1.1.1.2a1.394,1.394,0,0,0,.3.4.1.1,0,0,0,.1.1v.2h-.1c-.1.1-.3.2-.4.3-.1,0-.1.1-.2.1l-.3.3c-.1,0-.1.1-.2.2A.313.313,0,0,1,637.955,89.493Zm8.387,11.217h-8.084V93.636a1.718,1.718,0,0,1,.1-.707v-.2c0-.2.1-.3.1-.505,0-.1,0-.1.1-.2l.3-.606.1-.1c.1-.1.2-.3.3-.4l.2-.2.3-.3.2-.2a4.115,4.115,0,0,1,6.265,3.436v7.074Zm12.126,0H648.363V93.636a5.053,5.053,0,0,1,10.105,0Zm-8.084-17.179a3.032,3.032,0,1,1,3.032,3.032A3.04,3.04,0,0,1,650.384,83.531Zm9.7,5.962-.2.2-.3.3-.1.1-.1-.1a1.009,1.009,0,0,0-.4-.505c0-.1-.1-.1-.1-.2a2.2,2.2,0,0,0-.4-.505l-.1-.1a2.68,2.68,0,0,0-.606-.505c-.1,0-.1-.1-.2-.1a1.775,1.775,0,0,1-.505-.4c-.1,0-.1-.1-.2-.1s-.2-.1-.3-.1a5.02,5.02,0,1,0-7.074-.606l.606.606c-.1,0-.2.1-.3.1s-.1.1-.2.1a1.774,1.774,0,0,0-.505.4c-.1,0-.1.1-.2.1a2.679,2.679,0,0,1-.606.505l-.1.1a1.774,1.774,0,0,0-.4.505c0,.1-.1.1-.1.2a1.009,1.009,0,0,1-.4.505l-.1.1-.1-.1-.3-.3-.2-.2-.3-.3-.2-.2-.3-.3c-.1,0-.1-.1-.2-.1-.1-.1-.3-.2-.4-.3a.1.1,0,0,1-.1-.1l.2-.2c.1-.1.1-.1.1-.2.1-.1.2-.3.3-.4s.1-.2.2-.3.1-.3.2-.505c0-.1.1-.2.1-.3,0-.2.1-.3.1-.505V84.441a1.436,1.436,0,0,0-.2-.606.1.1,0,0,0-.1-.1l-.3-.606v-.1a2.68,2.68,0,0,0-.505-.606,1.775,1.775,0,0,0-.505-.4l-.1-.1c-.2-.1-.3-.2-.505-.3a.1.1,0,0,1-.1-.1,1.461,1.461,0,0,0-.707-.2,2.225,2.225,0,0,0-.808-.1h-.3a1.972,1.972,0,0,0-.707.1h-.1V44.121h24.253V81.611h-.1c-.2,0-.4-.1-.707-.1h-.3a1.97,1.97,0,0,0-.808.1c-.2.1-.505.1-.707.2a.1.1,0,0,0-.1.1,2.208,2.208,0,0,0-.505.3l-.1.1a2.2,2.2,0,0,0-.505.4c-.2.2-.3.4-.505.606v.1l-.3.606a.1.1,0,0,1-.1.1c-.1.2-.1.4-.2.606v1.314a.911.911,0,0,0,.1.505c0,.1.1.2.1.3,0,.2.1.3.2.505.1.1.1.2.2.3s.2.3.3.4c0,.1.1.1.1.2s.1.1.2.2a.1.1,0,0,0-.1.1c-.1.1-.3.2-.4.3-.1,0-.1.1-.2.1l-.3.3-.2.2C660.287,89.291,660.186,89.392,660.085,89.493Zm8.488,5.154v6.064h-8.084V93.636a4.054,4.054,0,0,1,4.042-4.042,4.327,4.327,0,0,1,2.223.606c.1,0,.1.1.2.2l.3.3.2.2c.1.1.2.3.3.4l.1.1.3.606c0,.1.1.1.1.2.1.2.1.3.2.505v.2c0,.2.1.505.1.707v1.011Zm10.105,6.064h-8.084V96.668a4.328,4.328,0,0,1,.606-2.223c0-.1.1-.1.2-.2l.3-.3.2-.2c.1-.1.3-.2.4-.3l.1-.1.606-.3c.1,0,.1-.1.2-.1.2-.1.3-.1.505-.2h.2a3.329,3.329,0,0,1,1.415,0h.2c.2,0,.3.1.505.2.1,0,.1,0,.2.1l.606.3.1.1c.1.1.3.2.4.3l.2.2.3.3.2.2a4.073,4.073,0,0,1,.606,2.223v4.042Zm-6.063-12.127a2.021,2.021,0,1,1,2.021,2.021A2.027,2.027,0,0,1,672.616,88.584Zm9.095,5.053h-1.819v-.1a1.009,1.009,0,0,0-.4-.505l-.1-.1a4.793,4.793,0,0,0-1.011-1.011l-.1-.1c-.2-.1-.3-.2-.505-.3l-.1-.1h-.1a4.119,4.119,0,0,0-.1-5.76,4.028,4.028,0,0,0-5.76.1,3.965,3.965,0,0,0,0,5.558c-.1,0-.1.1-.2.1s-.1.1-.2.1c-.1.1-.2.1-.3.2-.1,0-.1.1-.2.1-.1.1-.2.1-.2.2l-.1.1v-.2c0-.1-.1-.3-.1-.4s0-.1-.1-.2c0-.1-.1-.2-.1-.4,0-.1-.1-.1-.1-.2-.1-.1-.1-.2-.2-.3,0-.1-.1-.1-.1-.2-.1-.1-.1-.2-.2-.3,0-.1-.1-.1-.1-.2-.1-.1-.1-.2-.2-.3l-.2-.2-.3-.3-.2-.2-.3-.3a.353.353,0,0,0-.2-.1c-.1-.1-.3-.2-.4-.3h-.1v-.2a.1.1,0,0,1,.1-.1c.1-.1.2-.3.3-.4,0-.1.1-.1.1-.2a.766.766,0,0,0,.2-.4c0-.1.1-.2.1-.3s.1-.3.1-.4a3.829,3.829,0,0,0,0-1.516c0-.1-.1-.3-.1-.4s-.1-.2-.1-.3c-.1-.2-.1-.3-.2-.4,0-.1-.1-.1-.1-.2a1.4,1.4,0,0,0-.3-.4.1.1,0,0,0-.1-.1V59.279H681.71V93.636Z" transform="translate(-622.999 -41.999)"/><path class="c" d="M672.121,65.1H670.1V81.268h2.021Z" transform="translate(-622.504 -41.757)"/><path class="c" d="M678.121,65.1H676.1V81.268h2.021Z" transform="translate(-622.441 -41.757)"/><path class="c" d="M630.121,65.1H628.1V81.268h2.021Z" transform="translate(-622.946 -41.757)"/><path class="c" d="M636.121,65.1H634.1V81.268h2.021Z" transform="translate(-622.883 -41.757)"/><path class="c" d="M660.247,47.11a.955.955,0,0,0-1.011-1.011H647.11A.955.955,0,0,0,646.1,47.11v8.084A.955.955,0,0,0,647.11,56.2h12.126a.955.955,0,0,0,1.011-1.011Zm-2.021,7.074H648.121V48.121h10.105Z" transform="translate(-622.757 -41.957)"/></g></svg>