<svg xmlns="http://www.w3.org/2000/svg" width="47.657" height="54.957" viewBox="0 0 47.657 54.957"><defs><style>.a{fill:#5a5a5a;opacity:0.702;}</style></defs><path class="a" d="M56.021,51.082h-3.1V33.51a.777.777,0,0,0-.777-.777H46.909a.777.777,0,0,0-.777.777V51.082H41.869V33.51a.777.777,0,0,0-.777-.777H35.858a.777.777,0,0,0-.777.777V51.082H30.816V33.51a.777.777,0,0,0-.777-.777H24.805a.777.777,0,0,0-.777.777V51.082H19.764V33.51a.777.777,0,0,0-.777-.777H13.754a.777.777,0,0,0-.777.777V51.082H9.919a.777.777,0,0,0-.777.777v5.2a.777.777,0,0,0,.777.777h46.1a.777.777,0,0,0,.777-.777v-5.2A.777.777,0,0,0,56.021,51.082Zm-.776,5.2H10.7v-3.65h3.058a.777.777,0,0,0,.777-.777V34.287h3.681V51.859a.777.777,0,0,0,.777.777h5.817a.777.777,0,0,0,.777-.777V34.287h3.681V51.859a.777.777,0,0,0,.777.777h5.818a.777.777,0,0,0,.776-.777V34.287h3.681V51.859a.777.777,0,0,0,.777.777h5.817a.777.777,0,0,0,.776-.777V34.287h3.682V51.859a.777.777,0,0,0,.777.777h3.1v3.65Zm1.029-32.862L33.8,15.673V11.581h6.981a.776.776,0,0,0,.577-1.3L38.609,7.232l2.747-3.053a.776.776,0,0,0-.577-1.3H33.021a.777.777,0,0,0-.777.777V15.638L9.666,23.426a.775.775,0,0,0-.524.734v5.2a.777.777,0,0,0,.777.777h46.1a.777.777,0,0,0,.777-.777V24.158A.777.777,0,0,0,56.273,23.424ZM36.987,6.713a.777.777,0,0,0,0,1.039l2.048,2.276H33.8V4.436h5.237ZM55.245,28.587H10.7V24.714L32.97,17.03l22.275,7.681v3.876Z" transform="translate(-9.142 -2.883)"/></svg>