<svg xmlns="http://www.w3.org/2000/svg" width="52.024" height="64.767" viewBox="0 0 52.024 64.767"><defs><style>.a{fill:#5a5a5a;opacity:0.701;}</style></defs><path class="a" d="M845.052,45a4.973,4.973,0,0,0-4.336,2.565,3.171,3.171,0,0,0-1.691-.534H838.6a6.706,6.706,0,0,0-5.6,2.886,7.363,7.363,0,0,0-1.163,6.092l1.9,7.267H833a3.043,3.043,0,0,0-2.961,2.992V68.3A3.043,3.043,0,0,0,833,71.291h1.163a13.884,13.884,0,0,0,5.815,9.619v4.7l-10.468,3.634A10.769,10.769,0,0,0,822,98.224V108.8a.893.893,0,0,0,.952.963h50.12a.893.893,0,0,0,.952-.963v-8.87a6.6,6.6,0,0,0-.106-1.5,10.635,10.635,0,0,0-7.507-8.978l-10.469-3.634v-4.7a14.6,14.6,0,0,0,3.6-3.634,7.146,7.146,0,0,0,6.45-7.054V66.375a3.043,3.043,0,0,0-2.961-2.993h-.74l1.586-7.054a9.634,9.634,0,0,0-1.8-7.7A7.978,7.978,0,0,0,855.1,45Zm0,2.031H855.1a6.092,6.092,0,0,1,5.393,2.886,6.92,6.92,0,0,1,1.375,5.878l-1.586,7.481h-.212a.892.892,0,0,1-.951-.962V58.253a3.043,3.043,0,0,0-2.961-2.993H840.082a3.042,3.042,0,0,0-2.961,2.993v4.061a.892.892,0,0,1-.952.962h-.211l-2.01-7.909a4.57,4.57,0,0,1,.847-4.275,5.141,5.141,0,0,1,4.017-2.031h.423a.893.893,0,0,1,.952.962,1.027,1.027,0,0,0,.634.962c.107,0,.212.107.424.107a.892.892,0,0,0,.951-.962A2.913,2.913,0,0,1,845.052,47.031Zm-4.97,10.153h16.072a.892.892,0,0,1,.951.962v4.061a3.043,3.043,0,0,0,2.961,2.993v4.061a13.035,13.035,0,0,1-1.586,6.092h-4.547a3.1,3.1,0,0,0-2.856-2.031h-2.009a2.993,2.993,0,0,0,0,5.985h2.009a3.1,3.1,0,0,0,2.856-2.031H857a11.958,11.958,0,0,1-20.937-8.122V65.306a3.043,3.043,0,0,0,2.961-2.993V58.253A1,1,0,0,1,840.082,57.184ZM833,65.306h.951v4.061H833a.893.893,0,0,1-.952-.962V66.375C832.045,65.627,832.469,65.306,833,65.306Zm29.078,0h.952a.892.892,0,0,1,.951.962v2.993H861.97V65.306ZM861.97,71.4h2.009a5.013,5.013,0,0,1-3.066,3.741A16.545,16.545,0,0,0,861.97,71.4Zm-12.9,4.061h2.009a.962.962,0,0,1,0,1.924h-2.009a.892.892,0,0,1-.951-.962A.845.845,0,0,1,849.069,75.459Zm-6.978,6.733a13.765,13.765,0,0,0,12.054,0v3.42a4.061,4.061,0,0,1-.105,1.176,6.232,6.232,0,0,1-5.921,4.7,5.985,5.985,0,0,1-5.182-2.779c-.105-.214-.212-.321-.317-.534,0-.107-.105-.107-.105-.214a5.8,5.8,0,0,1-.423-2.351v-3.42ZM840.4,87.75a7.977,7.977,0,0,0,7.72,5.878,8.07,8.07,0,0,0,7.719-5.878l10.151,3.42a8.822,8.822,0,0,1,4.123,2.886,12.948,12.948,0,0,0-9.939,12.718v.962H836.063V106.56a13.1,13.1,0,0,0-9.834-12.718,8.86,8.86,0,0,1,4.019-2.779Zm-15.438,8.122a10.994,10.994,0,0,1,8.987,10.9v.962h-9.94V99.827a4.4,4.4,0,0,1,.107-1.176A9.315,9.315,0,0,1,824.961,95.873Zm46.208,0a13.209,13.209,0,0,1,.952,2.886c0,.427.105.748.105,1.176v7.909H862.182v-.962A10.909,10.909,0,0,1,871.169,95.873Z" transform="translate(-822 -45)"/></svg>