<svg height='100px' width='100px'  fill="#000000" xmlns="http://www.w3.org/2000/svg" xmlns:xlink="http://www.w3.org/1999/xlink" version="1.1" x="0px" y="0px" viewBox="0 0 100 100" enable-background="new 0 0 100 100" xml:space="preserve"><g><path d="M41.445,51H39.57c-1,0-1.813,0.814-1.813,1.813v10.547c0,1,0.813,1.813,1.813,1.813h1.875c1,0,1.813-0.814,1.813-1.813   V52.813C43.258,51.813,42.445,51,41.445,51z M42.148,61.743h-3.281c-0.552,0-1-0.447-1-1c0-0.554,0.448-1,1-1h3.281   c0.552,0,1,0.446,1,1C43.148,61.296,42.7,61.743,42.148,61.743z M42.148,59.047h-3.281c-0.552,0-1-0.447-1-1s0.448-1,1-1h3.281   c0.552,0,1,0.447,1,1S42.7,59.047,42.148,59.047z M43.148,55.352c0,0.553-0.448,1-1,1h-3.281c-0.552,0-1-0.447-1-1s0.448-1,1-1   h3.281C42.7,54.352,43.148,54.799,43.148,55.352z"></path><path d="M60.43,41.625h-1.875c-1,0-1.813,0.813-1.813,1.813v10.546c0,1,0.813,1.813,1.813,1.813h1.875c1,0,1.813-0.814,1.813-1.813   V43.438C62.242,42.438,61.428,41.625,60.43,41.625z M61.133,52.368h-3.281c-0.553,0-1-0.447-1-1c0-0.554,0.447-1,1-1h3.281   c0.553,0,1,0.446,1,1C62.133,51.921,61.686,52.368,61.133,52.368z M61.133,49.672h-3.281c-0.553,0-1-0.448-1-1c0-0.552,0.447-1,1-1   h3.281c0.553,0,1,0.448,1,1C62.133,49.224,61.686,49.672,61.133,49.672z M62.133,45.976c0,0.552-0.447,1-1,1h-3.281   c-0.553,0-1-0.448-1-1c0-0.552,0.447-1,1-1h3.281C61.686,44.976,62.133,45.424,62.133,45.976z"></path><path d="M22.46,30.257h-1.875c-1,0-1.813,0.813-1.813,1.813v10.547c0,1,0.813,1.813,1.813,1.813h0.933   c0.002,0,0.003-0.001,0.005-0.001s0.003,0.001,0.005,0.001h0.932c1,0,1.813-0.813,1.813-1.813V32.07   C24.273,31.07,23.46,30.257,22.46,30.257z M23.164,41h-3.281c-0.552,0-1-0.448-1-1s0.448-1,1-1h3.281c0.552,0,1,0.448,1,1   S23.716,41,23.164,41z M23.164,38.305h-3.281c-0.552,0-1-0.448-1-1c0-0.552,0.448-1,1-1h3.281c0.552,0,1,0.448,1,1   C24.164,37.857,23.716,38.305,23.164,38.305z M24.164,34.609c0,0.552-0.448,1-1,1h-3.281c-0.552,0-1-0.448-1-1c0-0.552,0.448-1,1-1   h3.281C23.716,33.609,24.164,34.057,24.164,34.609z"></path><path d="M79.414,33.539h-1.875c-1,0-1.813,0.813-1.813,1.813v10.546c0,1,0.813,1.813,1.813,1.813h1.875   c1,0,1.813-0.813,1.813-1.813V35.352C81.227,34.352,80.413,33.539,79.414,33.539z M80.117,44.282h-3.281c-0.553,0-1-0.448-1-1   c0-0.552,0.447-1,1-1h3.281c0.553,0,1,0.448,1,1C81.117,43.834,80.67,44.282,80.117,44.282z M80.117,41.586h-3.281   c-0.553,0-1-0.448-1-1c0-0.552,0.447-1,1-1h3.281c0.553,0,1,0.448,1,1C81.117,41.138,80.67,41.586,80.117,41.586z M81.117,37.89   c0,0.552-0.447,1-1,1h-3.281c-0.553,0-1-0.448-1-1c0-0.552,0.447-1,1-1h3.281C80.67,36.89,81.117,37.338,81.117,37.89z"></path><path d="M82.81,13.5H17.19c-2.04,0-3.69,1.65-3.69,3.69v65.62c0,2.04,1.65,3.69,3.69,3.69h65.62c2.04,0,3.69-1.65,3.69-3.69V17.19   C86.5,15.15,84.85,13.5,82.81,13.5z M26.273,42.617c0,2.081-1.677,3.772-3.75,3.807v33.107c0,0.553-0.448,1-1,1   c-0.552,0-1-0.447-1-1V46.424c-2.073-0.035-3.751-1.726-3.751-3.807V32.07c0-2.082,1.678-3.773,3.751-3.807v-7.794   c0-0.552,0.448-1,1-1c0.552,0,1,0.448,1,1v7.794c2.073,0.035,3.75,1.726,3.75,3.807V42.617z M45.258,63.359   c0,2.08-1.677,3.771-3.75,3.807v12.366c0,0.553-0.448,1-1,1c-0.552,0-1-0.447-1-1V67.167c-2.073-0.035-3.751-1.726-3.751-3.808   V52.813c0-2.08,1.678-3.771,3.751-3.806V20.469c0-0.552,0.448-1,1-1c0.552,0,1,0.448,1,1v28.537c2.073,0.035,3.75,1.725,3.75,3.807   V63.359z M64.242,53.984c0,2.082-1.678,3.772-3.75,3.808v21.74c0,0.553-0.447,1-1,1s-1-0.447-1-1v-21.74   c-2.073-0.036-3.751-1.726-3.751-3.808V43.439c0-2.081,1.678-3.773,3.751-3.807V20.469c0-0.552,0.447-1,1-1s1,0.448,1,1v19.162   c2.072,0.035,3.75,1.726,3.75,3.807V53.984z M83.227,45.898c0,2.081-1.677,3.773-3.75,3.807v29.828c0,0.553-0.447,1-1,1   s-1-0.447-1-1V49.706c-2.072-0.035-3.75-1.726-3.75-3.807V35.353c0-2.081,1.678-3.773,3.75-3.807V20.469c0-0.552,0.447-1,1-1   s1,0.448,1,1v11.076c2.073,0.035,3.75,1.726,3.75,3.807V45.898z"></path></g></svg>