<svg height='100px' width='100px'  fill="#000000" xmlns="http://www.w3.org/2000/svg" xmlns:xlink="http://www.w3.org/1999/xlink" version="1.1" x="0px" y="0px" viewBox="0 0 98 98" enable-background="new 0 0 98 98" xml:space="preserve"><g><path d="M66.0288,48.6208c0-3.267-2.5835-5.9343-5.814-6.0847v-0.0145c-4.457,0-16.9977,0-21.4731,0   c-3.3633,0-6.0991,2.7358-6.0991,6.0991v27.4976h6.4194v20.8813h20.5347v-1h0.0122V76.1184h6.4199V48.6208z M47.442,48.9363h1.8254   l1.276,10.0308l-2.1855,2.7778l-2.1919-2.7788L47.442,48.9363z M50.2103,44.5217l-0.7877,2.4146h-2.1357l-0.7877-2.4146H50.2103z    M64.0288,74.1184h-4.4321V59.8938h-2v35.106H50.333V78.55h-2v16.4497h-7.271V75.1204h0.001V60.2795h-2v13.8389h-4.4204V48.6208   c0-2.2603,1.8389-4.0991,4.0991-4.0991h5.6538l1.145,3.5112l-1.4644,11.5132l4.2837,5.4312l4.2734-5.4321L51.1689,48.033   l1.145-3.5112h7.6157c2.2603,0,4.0991,1.8389,4.0991,4.0991V74.1184z"></path><rect x="39.063" y="54.5842" width="2" height="3.0386"></rect><rect x="48.333" y="73.1824" width="2" height="2.748"></rect><path d="M40.1919,30.7722c0,4.5015,3.6626,8.1641,8.1641,8.1641s8.1641-3.6626,8.1641-8.1641s-3.6626-8.1641-8.1641-8.1641   S40.1919,26.2707,40.1919,30.7722z M48.356,24.6082c3.3989,0,6.1641,2.7651,6.1641,6.1641s-2.7651,6.1641-6.1641,6.1641   s-6.1641-2.7651-6.1641-6.1641S44.957,24.6082,48.356,24.6082z"></path><rect x="57.5967" y="54.5842" width="2" height="3.0386"></rect><rect x="47.3022" y="15.8552" width="2" height="2.1406"></rect><path d="M49.3022,12.2278c0-0.5356,0.3047-1.0181,0.7402-1.1738c2.4639-0.8789,3.8613-3.394,3.3223-5.98   c-0.4087-1.9595-1.9995-3.5508-3.9595-3.9595C46.1244,0.4306,43.125,2.9024,43.125,6.177h2c0-1.9548,1.7803-3.543,3.8721-3.1045   c1.1929,0.2485,2.1611,1.2168,2.4097,2.4097c0.3774,1.8096-0.7388,3.2251-2.0366,3.688c-1.2368,0.4419-2.0679,1.6704-2.0679,3.0576   v2.1401h2V12.2278z"></path><rect x="35.337" y="22.8249" transform="matrix(0.4999 -0.8661 0.8661 0.4999 -2.5235 43.4201)" width="2.0003" height="2.1408"></rect><path d="M31.769,22.4128l1.8535,1.0698l1-1.7324l-1.8535-1.0693c-0.4639-0.2681-0.7295-0.7734-0.646-1.229   c0.4702-2.5732-1.0093-5.0405-3.5181-5.8662c-1.9019-0.6274-4.0757-0.0449-5.4087,1.4492   c-2.2287,2.4943-1.5988,6.3279,1.2437,7.9697l1-1.7324c-1.6959-0.9793-2.1746-3.3132-0.752-4.9053   c0.8105-0.9087,2.1323-1.2637,3.2915-0.8818c1.7559,0.5781,2.4238,2.2524,2.1758,3.6074   C29.9194,20.3845,30.5679,21.719,31.769,22.4128z"></path><rect x="59.2502" y="22.8023" transform="matrix(0.866 -0.5 0.5 0.866 -3.8202 33.3467)" width="2.1408" height="2.0003"></rect><path d="M67.5708,20.8503c-1.0005-0.8516-2.4814-0.9565-3.6821-0.2627l-1.853,1.0703l1,1.7314l1.8525-1.0698   c0.4639-0.2681,1.0342-0.2461,1.3877,0.0547c0.9736,0.8271,2.1572,1.2393,3.3438,1.2393c3.5454-0.0014,6.0257-3.4834,4.9448-6.7612   c-0.498-1.5137-1.6235-2.7021-3.0874-3.2607c-1.4639-0.5576-3.0811-0.4287-4.4365,0.3525l1,1.7324   c0.832-0.48,1.8262-0.5581,2.7236-0.2163c0.9121,0.3481,1.5869,1.0645,1.9009,2.0176   C73.6483,20.4616,70.0155,22.9268,67.5708,20.8503z"></path><path d="M80.645,42.8801c0.2349,0.8994,0.4346,1.8213,0.5933,2.7402l1.9707-0.3408c-0.1685-0.9741-0.3799-1.9512-0.6284-2.9043   L80.645,42.8801z"></path><path d="M69.7944,79.5144l-1.2148-1.5889c-0.7393,0.5649-1.5122,1.106-2.2974,1.6084l1.0771,1.6846   C68.1914,80.6868,69.0107,80.1135,69.7944,79.5144z"></path><path d="M77.874,70.8635l-1.668-1.1035c-0.5146,0.7778-1.0674,1.543-1.644,2.2739l1.5703,1.2383   C76.7432,72.4978,77.3291,71.6873,77.874,70.8635z"></path><path d="M80.7227,65.6497l-1.8291-0.8086c-0.376,0.8516-0.7935,1.6978-1.2407,2.5166l1.7549,0.959   C79.8818,67.449,80.3242,66.5515,80.7227,65.6497z"></path><path d="M74.1958,75.5276l-1.4619-1.3652c-0.6367,0.6816-1.3091,1.3442-1.9985,1.9683l1.3428,1.4824   C72.8081,76.9519,73.521,76.2502,74.1958,75.5276z"></path><path d="M82.6567,60.0286l-1.9395-0.4883c-0.2261,0.8994-0.4951,1.8042-0.7993,2.6895l1.8916,0.6494   C82.1318,61.9412,82.417,60.9817,82.6567,60.0286z"></path><path d="M83.6177,54.1648l-1.9941-0.1572c-0.0728,0.9292-0.186,1.8662-0.3364,2.7856l1.9736,0.3223   C83.4199,56.1418,83.54,55.1487,83.6177,54.1648z"></path><path d="M83.5918,48.2273l-1.9922,0.1738c0.0806,0.9253,0.1235,1.8687,0.1279,2.8032l2-0.0088   C83.7231,50.2058,83.6772,49.2073,83.5918,48.2273z"></path><path d="M81.7085,39.533c-0.3291-0.9302-0.7021-1.8584-1.1094-2.7588l-1.8223,0.8242c0.3838,0.8491,0.7358,1.7241,1.0459,2.6016   L81.7085,39.533z"></path><path d="M76.0469,32.7039c0.5195,0.771,1.0132,1.5752,1.4683,2.3901l1.7461-0.9746c-0.4814-0.8638-1.0049-1.7158-1.5552-2.5327   L76.0469,32.7039z"></path><path d="M63.8398,80.9534c-0.4292,0.2261-0.8638,0.4424-1.3032,0.6499l0.8525,1.8086c0.4658-0.2192,0.9268-0.4492,1.3813-0.688   L63.8398,80.9534z"></path><path d="M33.2139,83.4119l0.8545-1.8086c-0.4399-0.2075-0.8745-0.4243-1.3042-0.6504l-0.9307,1.7705   C32.2876,82.9622,32.7485,83.1917,33.2139,83.4119z"></path><path d="M18.9624,67.3767c-0.4468-0.8159-0.8643-1.6616-1.2412-2.5132l-1.8291,0.8096c0.3999,0.9028,0.8423,1.7988,1.3154,2.6636   L18.9624,67.3767z"></path><path d="M16.7715,40.2278c0.3105-0.8799,0.6616-1.7554,1.0439-2.6025l-1.8232-0.8223c-0.4053,0.8979-0.7773,1.8267-1.1064,2.7598   L16.7715,40.2278z"></path><path d="M13.3896,45.3127l1.9707,0.3389c0.1577-0.9165,0.3564-1.8389,0.5908-2.7417l-1.9355-0.5029   C13.7671,43.364,13.5562,44.3415,13.3896,45.3127z"></path><path d="M16.6958,62.2551c-0.3032-0.8784-0.5728-1.7813-0.8003-2.6841l-1.9395,0.4893c0.2417,0.9575,0.5273,1.9155,0.8491,2.8472   L16.6958,62.2551z"></path><path d="M14.9834,54.0403l-1.9941,0.1592c0.0786,0.9839,0.1997,1.9766,0.3599,2.9502l1.9736-0.3252   C15.1714,55.9055,15.0571,54.969,14.9834,54.0403z"></path><path d="M12.877,51.2302l2,0.0068c0.0034-0.9346,0.0454-1.8779,0.125-2.8037l-1.9922-0.1719   C12.9248,49.2419,12.8804,50.2405,12.877,51.2302z"></path><path d="M20.4102,69.7776l-1.668,1.1035c0.5444,0.8228,1.1309,1.6328,1.7427,2.4072l1.5693-1.2393   C21.4771,71.3181,20.9238,70.554,20.4102,69.7776z"></path><path d="M26.8262,79.5266c0.7832,0.5977,1.6025,1.1709,2.4365,1.7031l1.0762-1.6855c-0.7866-0.5024-1.5601-1.043-2.2988-1.6074   L26.8262,79.5266z"></path><path d="M20.5405,32.7278l-1.6602-1.1152c-0.5513,0.8203-1.0737,1.6729-1.5532,2.5342l1.748,0.9727   C19.5273,34.3064,20.0205,33.5022,20.5405,32.7278z"></path><path d="M24.541,77.6257l1.3418-1.4824c-0.6904-0.6255-1.3638-1.2876-2-1.9678l-1.4609,1.3662   C23.0962,76.2625,23.8091,76.9636,24.541,77.6257z"></path><polygon points="22.21,33.656 24.1826,33.3249 23.2085,27.5232 17.3989,28.4905 17.7271,30.4631 21.4613,29.8415 21.5867,29.942     "></polygon><polygon points="75.0035,29.9485 75.1385,29.84 78.8647,30.4602 79.1929,28.4875 73.3833,27.5203 72.4092,33.322 74.3818,33.6531     "></polygon><rect x="2.7832" y="16.5125" width="2" height="2"></rect><rect x="10.7832" y="16.5125" width="2" height="2"></rect><rect x="6.7832" y="16.5125" width="2" height="2"></rect><path d="M19.5435,3.8977h-2c0,0.1902,0,2.4889,0,2.3872c-0.1027,0-2.5236,0-2.3867,0v2c0.1902,0,2.4884,0,2.3867,0   c0,0.1027,0,2.5223,0,2.3867h2c0-0.1902,0-2.4884,0-2.3867c0.1027,0,2.5227,0,2.3872,0v-2c-0.1902,0-2.4889,0-2.3872,0   C19.5435,6.1822,19.5435,3.7622,19.5435,3.8977z"></path><rect x="89.2168" y="17.3079" width="2" height="2"></rect><rect x="93.2168" y="17.3079" width="2" height="2"></rect><rect x="85.2168" y="17.3079" width="2" height="2"></rect><path d="M80.4565,4.6931h-2c0,0.1902,0,2.4884,0,2.3867c-0.1027,0-2.5228,0-2.3872,0v2c0.1902,0,2.4889,0,2.3872,0   c0,0.1027,0,2.5227,0,2.3872h2c0-0.1902,0-2.4889,0-2.3872c0.1027,0,2.5223,0,2.3867,0v-2c-0.1902,0-2.4884,0-2.3867,0   C80.4565,6.9771,80.4565,4.5576,80.4565,4.6931z"></path><rect x="10.7832" y="79.863" width="2" height="2"></rect><rect x="6.7832" y="79.863" width="2" height="2"></rect><rect x="2.7832" y="79.863" width="2" height="2"></rect><path d="M19.5435,92.0906c0.1027,0,2.5227,0,2.3872,0v-2c-0.1902,0-2.4889,0-2.3872,0c0-0.1027,0-2.5223,0-2.3867h-2   c0,0.1902,0,2.4884,0,2.3867c-0.1027,0-2.5236,0-2.3867,0v2c0.1902,0,2.4884,0,2.3867,0c0,0.1027,0,2.5227,0,2.3872h2   C19.5435,94.2876,19.5435,91.9889,19.5435,92.0906z"></path><rect x="85.2168" y="79.0676" width="2" height="2"></rect><rect x="89.2168" y="79.0676" width="2" height="2"></rect><rect x="93.2168" y="79.0676" width="2" height="2"></rect><path d="M78.4565,93.6824h2c0-0.1902,0-2.4889,0-2.3872c0.1027,0,2.5223,0,2.3867,0v-2c-0.1902,0-2.4884,0-2.3867,0   c0-0.1027,0-2.5236,0-2.3867h-2c0,0.1902,0,2.4884,0,2.3867c-0.1027,0-2.5228,0-2.3872,0v2c0.1902,0,2.4889,0,2.3872,0   C78.4565,91.3979,78.4565,93.8179,78.4565,93.6824z"></path><rect x="68.8042" y="59.7166" width="2" height="2"></rect><rect x="68.8042" y="51.7166" width="2" height="2"></rect><rect x="68.8042" y="55.7166" width="2" height="2"></rect><rect x="28.313" y="55.7166" width="2" height="2"></rect><rect x="28.313" y="51.7166" width="2" height="2"></rect><rect x="28.313" y="59.7166" width="2" height="2"></rect></g></svg>