<svg height='100px' width='100px'  fill="#000000" xmlns:dc="http://purl.org/dc/elements/1.1/" xmlns:cc="http://creativecommons.org/ns#" xmlns:rdf="http://www.w3.org/1999/02/22-rdf-syntax-ns#" xmlns:svg="http://www.w3.org/2000/svg" xmlns="http://www.w3.org/2000/svg" xmlns:sodipodi="http://sodipodi.sourceforge.net/DTD/sodipodi-0.dtd" xmlns:inkscape="http://www.inkscape.org/namespaces/inkscape" version="1.1" x="0px" y="0px" viewBox="0 0 100 100"><g transform="translate(0,-952.36218)"><path style="text-indent:0;text-transform:none;direction:ltr;block-progression:tb;baseline-shift:baseline;color:#000000;enable-background:accumulate;" d="m 36.843014,959.39079 c -0.196634,0.0281 -0.384252,0.11635 -0.531234,0.24992 -1.105506,1.03613 -1.68951,2.47178 -2.093688,3.93619 -1.465642,0.40403 -2.900398,1.01855 -3.937383,2.12429 -0.329946,0.36368 -0.329946,0.97962 0,1.3433 1.036981,1.10575 2.471736,1.72026 3.937383,2.1243 0.404179,1.4644 0.988185,2.90006 2.093688,3.93618 0.366998,0.34728 1.007961,0.34728 1.37496,0 1.105502,-1.03612 1.689507,-2.47178 2.093688,-3.93618 1.465645,-0.40404 2.9004,-1.01856 3.937383,-2.1243 0.329946,-0.36368 0.329946,-0.97962 0,-1.3433 -1.036987,-1.10574 -2.471743,-1.72026 -3.937383,-2.12429 -0.404179,-1.46441 -0.988184,-2.90006 -2.093688,-3.93619 -0.223551,-0.20555 -0.544252,-0.30054 -0.843726,-0.24992 z m 25.999231,0 c -0.196634,0.0281 -0.384253,0.11635 -0.531235,0.24992 -1.105504,1.03613 -1.689509,2.47178 -2.093688,3.93619 -1.46564,0.40403 -2.900396,1.01855 -3.937383,2.12429 -0.329946,0.36368 -0.329946,0.97962 0,1.3433 1.036983,1.10574 2.471738,1.72026 3.937383,2.1243 0.404181,1.4644 0.988186,2.90006 2.093688,3.93618 0.366999,0.34728 1.007962,0.34728 1.37496,0 1.105503,-1.03612 1.689509,-2.47178 2.093688,-3.93618 1.465647,-0.40404 2.900402,-1.01855 3.937383,-2.1243 0.329946,-0.36368 0.329946,-0.97962 0,-1.3433 -1.036985,-1.10574 -2.471741,-1.72026 -3.937383,-2.12429 -0.404178,-1.46441 -0.988182,-2.90006 -2.093688,-3.93619 -0.223551,-0.20555 -0.544252,-0.30054 -0.843725,-0.24992 z M 36.99926,962.0774 c 0.432294,0.7145 0.799806,1.55559 1.031219,2.5304 0.08368,0.36302 0.386849,0.6661 0.749978,0.74975 0.973976,0.23108 1.785591,0.59947 2.499926,1.03091 -0.711942,0.42696 -1.532962,0.77025 -2.499926,0.99967 -0.363129,0.0837 -0.666304,0.38673 -0.749978,0.74975 -0.231412,0.97481 -0.598926,1.81592 -1.031219,2.53041 -0.432293,-0.71449 -0.799807,-1.55559 -1.03122,-2.53041 -0.08368,-0.36302 -0.386848,-0.6661 -0.749977,-0.74975 -0.966966,-0.22942 -1.787985,-0.57271 -2.499926,-0.99967 0.714333,-0.43144 1.525947,-0.79983 2.499926,-1.03091 0.363129,-0.0836 0.666304,-0.38673 0.749977,-0.74975 0.231414,-0.97481 0.598926,-1.8159 1.03122,-2.5304 z m 25.99923,0 c 0.432294,0.7145 0.799806,1.55559 1.03122,2.5304 0.08368,0.36302 0.386848,0.6661 0.749977,0.74975 0.973979,0.23108 1.785593,0.59947 2.499926,1.03091 -0.711941,0.42696 -1.53296,0.77025 -2.499926,0.99967 -0.363129,0.0837 -0.666304,0.38673 -0.749977,0.74975 -0.231413,0.97482 -0.598927,1.81592 -1.03122,2.53041 -0.432293,-0.71449 -0.799807,-1.5556 -1.031219,-2.53041 -0.08368,-0.36302 -0.386849,-0.6661 -0.749978,-0.74975 -0.966964,-0.22942 -1.787984,-0.57271 -2.499926,-0.99967 0.714335,-0.43144 1.52595,-0.79983 2.499926,-1.03091 0.363129,-0.0836 0.666304,-0.38673 0.749978,-0.74975 0.231413,-0.97481 0.598925,-1.8159 1.031219,-2.5304 z m -38.15512,10.30906 c -0.196634,0.0281 -0.384253,0.11636 -0.531235,0.24992 -1.105497,1.03614 -1.689509,2.4718 -2.093688,3.93619 -1.465639,0.40403 -2.900405,1.01855 -3.937383,2.1243 -0.329946,0.36367 -0.329946,0.97962 0,1.34329 1.036976,1.10573 2.471742,1.72026 3.937383,2.1243 0.404179,1.4644 0.988187,2.90007 2.093688,3.93619 0.366999,0.34728 1.007962,0.34728 1.37496,0 1.105501,-1.03612 1.689509,-2.47179 2.093688,-3.93619 1.465639,-0.40404 2.900405,-1.01857 3.937383,-2.1243 0.329946,-0.36367 0.329946,-0.97962 0,-1.34329 -1.03698,-1.10575 -2.471745,-1.72027 -3.937383,-2.1243 -0.404179,-1.46439 -0.988191,-2.90005 -2.093688,-3.93619 -0.223551,-0.20554 -0.544252,-0.30054 -0.843725,-0.24992 z m 24.99926,0 c -0.196635,0.0281 -0.384253,0.11636 -0.531235,0.24992 -1.105506,1.03614 -1.68951,2.47177 -2.093688,3.93619 -1.465667,0.40402 -2.900408,1.01856 -3.937383,2.1243 -0.329946,0.36367 -0.329946,0.97962 0,1.34329 1.036994,1.10576 2.471772,1.72024 3.937383,2.1243 0.404175,1.46437 0.988158,2.90007 2.093688,3.93619 0.366998,0.34728 1.007962,0.34728 1.37496,0 1.105529,-1.03612 1.689513,-2.47182 2.093688,-3.93619 1.465609,-0.40406 2.900387,-1.01854 3.937383,-2.1243 0.329946,-0.36367 0.329946,-0.97962 0,-1.34329 -1.036977,-1.10574 -2.471718,-1.72028 -3.937383,-2.1243 -0.404178,-1.46442 -0.988184,-2.90005 -2.093688,-3.93619 -0.223551,-0.20554 -0.544252,-0.30054 -0.843725,-0.24992 z m 24.99926,0 c -0.196635,0.0281 -0.384253,0.11636 -0.531235,0.24992 -1.105497,1.03614 -1.689509,2.4718 -2.093688,3.93619 -1.465638,0.40403 -2.900403,1.01855 -3.937383,2.1243 -0.329946,0.36367 -0.329946,0.97962 0,1.34329 1.036978,1.10573 2.471744,1.72026 3.937383,2.1243 0.404179,1.4644 0.988187,2.90007 2.093688,3.93619 0.366998,0.34728 1.007961,0.34728 1.37496,0 1.105501,-1.03612 1.689509,-2.47179 2.093688,-3.93619 1.465641,-0.40404 2.900407,-1.01857 3.937383,-2.1243 0.329946,-0.36367 0.329946,-0.97962 0,-1.34329 -1.036978,-1.10575 -2.471744,-1.72027 -3.937383,-2.1243 -0.404179,-1.46439 -0.988191,-2.90005 -2.093688,-3.93619 -0.223551,-0.20554 -0.544252,-0.30054 -0.843725,-0.24992 z m -49.842275,2.68661 c 0.432295,0.71449 0.799808,1.55561 1.03122,2.53041 0.08368,0.36302 0.386848,0.6661 0.749977,0.74975 0.97397,0.23107 1.785596,0.59946 2.499926,1.03091 -0.711938,0.42697 -1.532965,0.77025 -2.499926,0.99966 -0.363129,0.0837 -0.666304,0.38673 -0.749977,0.74975 -0.231413,0.97481 -0.598926,1.81592 -1.03122,2.53041 -0.432294,-0.71449 -0.799807,-1.5556 -1.031219,-2.53041 -0.08368,-0.36302 -0.386849,-0.6661 -0.749978,-0.74975 -0.966962,-0.22941 -1.787988,-0.57269 -2.499926,-0.99966 0.71433,-0.43145 1.525955,-0.79984 2.499926,-1.03091 0.363129,-0.0837 0.666304,-0.38673 0.749978,-0.74975 0.231411,-0.9748 0.598924,-1.81592 1.031219,-2.53041 z m 24.99926,0 c 0.432294,0.7145 0.799806,1.55558 1.031219,2.53041 0.08368,0.36302 0.386849,0.6661 0.749978,0.74975 0.973952,0.23104 1.78559,0.59946 2.499926,1.03091 -0.711941,0.42695 -1.532926,0.7702 -2.499926,0.99966 -0.363129,0.0837 -0.666304,0.38673 -0.749978,0.74975 -0.231413,0.97478 -0.598928,1.81591 -1.031219,2.53041 -0.432291,-0.7145 -0.799806,-1.55563 -1.031219,-2.53041 -0.08368,-0.36302 -0.386849,-0.6661 -0.749978,-0.74975 -0.967001,-0.22946 -1.787986,-0.57271 -2.499926,-0.99966 0.714335,-0.43145 1.525972,-0.79987 2.499926,-1.03091 0.363129,-0.0837 0.666304,-0.38673 0.749978,-0.74975 0.231413,-0.97483 0.598925,-1.81591 1.031219,-2.53041 z m 24.99926,0 c 0.432295,0.71449 0.799808,1.55561 1.031219,2.53041 0.08368,0.36302 0.386849,0.6661 0.749978,0.74975 0.973971,0.23107 1.785596,0.59946 2.499926,1.03091 -0.711938,0.42697 -1.532964,0.77025 -2.499926,0.99966 -0.363129,0.0837 -0.666304,0.38673 -0.749978,0.74975 -0.231412,0.97481 -0.598925,1.81592 -1.031219,2.53041 -0.432294,-0.71449 -0.799807,-1.5556 -1.03122,-2.53041 -0.08368,-0.36302 -0.386848,-0.6661 -0.749977,-0.74975 -0.966961,-0.22941 -1.787988,-0.57269 -2.499926,-0.99966 0.71433,-0.43145 1.525956,-0.79984 2.499926,-1.03091 0.363129,-0.0837 0.666304,-0.38673 0.749977,-0.74975 0.231412,-0.9748 0.598925,-1.81592 1.03122,-2.53041 z m -38.155121,10.30907 c -0.196634,0.0281 -0.384252,0.11635 -0.531234,0.24992 -1.105506,1.03614 -1.68951,2.47177 -2.093688,3.93618 -1.465642,0.40403 -2.900398,1.01856 -3.937383,2.1243 -0.329946,0.36369 -0.329946,0.97962 0,1.34331 1.036981,1.10573 2.471736,1.72026 3.937383,2.12429 0.404179,1.4644 0.988185,2.90006 2.093688,3.93619 0.366998,0.34727 1.007961,0.34727 1.37496,0 1.105502,-1.03613 1.689507,-2.47179 2.093688,-3.93619 1.465645,-0.40403 2.9004,-1.01857 3.937383,-2.12429 0.329946,-0.36369 0.329946,-0.97962 0,-1.34331 -1.036987,-1.10574 -2.471743,-1.72027 -3.937383,-2.1243 -0.404179,-1.46441 -0.988184,-2.90004 -2.093688,-3.93618 -0.223551,-0.20555 -0.544252,-0.30054 -0.843726,-0.24992 z m 25.999231,0 c -0.196634,0.0281 -0.384253,0.11635 -0.531235,0.24992 -1.105504,1.03614 -1.689509,2.47177 -2.093688,3.93618 -1.46564,0.40403 -2.900396,1.01856 -3.937383,2.1243 -0.329946,0.36369 -0.329946,0.97962 0,1.34331 1.036983,1.10572 2.471738,1.72026 3.937383,2.12429 0.404181,1.4644 0.988186,2.90006 2.093688,3.93619 0.366999,0.34727 1.007962,0.34727 1.37496,0 1.105503,-1.03613 1.689509,-2.47179 2.093688,-3.93619 1.465647,-0.40403 2.900402,-1.01856 3.937383,-2.12429 0.329946,-0.36369 0.329946,-0.97962 0,-1.34331 -1.036985,-1.10574 -2.471741,-1.72027 -3.937383,-2.1243 -0.404178,-1.46441 -0.988182,-2.90004 -2.093688,-3.93618 -0.223551,-0.20555 -0.544252,-0.30054 -0.843725,-0.24992 z m -25.842985,2.68661 c 0.432294,0.7145 0.799806,1.55559 1.031219,2.5304 0.08368,0.36303 0.386849,0.66611 0.749978,0.74975 0.973976,0.23108 1.785591,0.59948 2.499926,1.03091 -0.711942,0.42697 -1.532962,0.77025 -2.499926,0.99967 -0.363129,0.0837 -0.666304,0.38673 -0.749978,0.74975 -0.231412,0.9748 -0.598926,1.81591 -1.031219,2.5304 -0.432293,-0.71449 -0.799807,-1.55559 -1.03122,-2.5304 -0.08368,-0.36302 -0.386848,-0.6661 -0.749977,-0.74975 -0.966966,-0.22942 -1.787985,-0.5727 -2.499926,-0.99967 0.714333,-0.43143 1.525947,-0.79983 2.499926,-1.03091 0.363129,-0.0837 0.666304,-0.38672 0.749977,-0.74975 0.231414,-0.97481 0.598926,-1.8159 1.03122,-2.5304 z m 25.99923,0 c 0.432294,0.7145 0.799806,1.55559 1.03122,2.5304 0.08368,0.36303 0.386848,0.66611 0.749977,0.74975 0.973979,0.23108 1.785593,0.59948 2.499926,1.03091 -0.711941,0.42697 -1.53296,0.77025 -2.499926,0.99967 -0.363129,0.0837 -0.666304,0.38673 -0.749977,0.74975 -0.231413,0.97481 -0.598927,1.81591 -1.03122,2.5304 -0.432293,-0.71449 -0.799807,-1.5556 -1.031219,-2.5304 -0.08368,-0.36302 -0.386849,-0.6661 -0.749978,-0.74975 -0.966964,-0.22942 -1.787984,-0.5727 -2.499926,-0.99967 0.714335,-0.43143 1.52595,-0.79983 2.499926,-1.03091 0.363129,-0.0837 0.666304,-0.38672 0.749978,-0.74975 0.231413,-0.97481 0.598925,-1.8159 1.031219,-2.5304 z m -44.748675,3.37387 c -1.945327,0.0499 -3.833402,1.15623 -4.249874,3.78 -0.656034,7.01338 -1.33145,14.03848 -1.999941,21.05548 -0.0015,0.031 -0.0015,0.062 0,0.094 0.02657,3.3524 2.340948,5.6592 3.249904,6.6541 0.0199,0.022 0.04076,0.043 0.0625,0.062 4.403017,4.2169 10.122885,8.1567 13.624597,12.5895 l -0.937473,8.5598 c -0.05858,0.5241 0.365981,1.0541 0.890344,1.1114 0.524361,0.057 1.053469,-0.3683 1.109597,-0.8927 l 0.99997,-8.997 c 0.02298,-0.2556 -0.05722,-0.519 -0.218743,-0.7185 -3.768783,-4.9416 -9.726385,-8.9513 -14.030835,-13.0581 -0.02016,-0.021 -0.04292,-0.043 -0.0625,-0.062 -0.976491,-1.0674 -2.653782,-2.8821 -2.68742,-5.2483 -1.51e-4,-0.011 8.4e-5,-0.021 0,-0.031 0.661517,-6.9564 1.349971,-13.9111 1.999941,-20.86806 0.71304,-4.14955 5.145303,-1.24482 4.999852,-0.24992 -0.324395,6.35428 -0.665106,12.72688 -0.999971,19.08748 -0.01721,0.3038 0.113533,0.6128 0.34374,0.8121 l 8.999734,7.9974 c 0.383212,0.3966 1.108735,0.3788 1.471984,-0.036 0.363249,-0.4151 0.284623,-1.1363 -0.159523,-1.4634 l -7.749771,-6.8728 c 0.05144,-0.1077 0.08336,-0.2246 0.09375,-0.3435 0.0032,-0.3124 0.0023,-0.6248 0,-0.9372 0.18775,-1.6623 1.011867,-3.0208 1.999941,-3.6551 0.988074,-0.6343 2.058561,-0.7023 3.3749,0.3436 l 0,-0.031 c 5.187602,4.2932 8.359119,6.746 10.499689,8.4972 2.140571,1.7511 3.199056,2.7577 4.312373,4.3111 0.09854,0.1632 0.174811,0.2737 0.26495,0.4433 0.66303,1.1653 1.119619,3.0282 1.328752,4.8674 0.235932,2.0748 0.214813,4.0988 0.218744,5.1232 l 0,10.9964 c -0.0075,0.5281 0.471621,1.0139 0.99997,1.0139 0.52835,0 1.007443,-0.4858 0.999971,-1.0139 0,-3.6751 0,-7.3545 0,-11.0276 -0.0038,-1.0018 0.0027,-3.088 -0.249993,-5.3107 -0.252741,-2.2226 -0.706936,-4.5708 -1.937442,-6.2479 -1.228932,-1.7146 -2.502016,-2.9295 -4.687362,-4.7172 -2.185345,-1.7877 -5.334092,-4.191 -10.499689,-8.466 -1.857267,-1.476 -4.077602,-1.5018 -5.687331,-0.4685 -0.700335,0.4495 -1.246129,1.1137 -1.7187,1.8431 0.256221,-4.849 0.535041,-9.7157 0.781227,-14.55764 0.243047,-2.12235 -1.735365,-3.6591 -3.906134,-3.9362 -0.275586,-0.0352 -0.565821,-0.0384 -0.843725,-0.0312 z m 63.49812,0 c -0.277904,-0.007 -0.568139,-0.004 -0.843725,0.0312 -2.170769,0.2771 -4.149181,1.81385 -3.906134,3.9362 0.251435,4.85268 0.519139,9.70528 0.781227,14.55768 -0.472571,-0.7294 -1.018365,-1.3936 -1.7187,-1.8431 -1.609729,-1.0333 -3.830064,-1.0075 -5.687331,0.4685 -5.165597,4.2749 -8.314344,6.6783 -10.499689,8.466 -2.185346,1.7877 -3.45843,3.0025 -4.687362,4.7171 -1.230506,1.6772 -1.684701,4.0254 -1.937442,6.248 -0.252742,2.2226 -0.246149,4.3089 -0.249993,5.3107 -6e-6,3.6732 0,7.3523 0,11.0276 -0.0075,0.5281 0.471621,1.0139 0.999971,1.0139 0.528349,0 1.007442,-0.4858 0.99997,-1.0139 l 0,-10.9964 c 0.0039,-1.0244 -0.01719,-3.0485 0.218744,-5.1232 0.208833,-1.8365 0.66441,-3.6968 1.325893,-4.8625 0.101231,-0.1881 0.190414,-0.3291 0.267809,-0.4483 1.113317,-1.5534 2.171802,-2.56 4.312373,-4.311 4.123381,-3.3577 7.428852,-5.9522 10.499689,-8.466 1.316339,-1.0459 2.386826,-0.9779 3.3749,-0.3436 0.988074,0.6343 1.812191,1.9927 1.999941,3.655 -0.01007,0.1454 4.38e-4,0.705 0,0.9372 5.01e-4,0.117 0.02176,0.2339 0.0625,0.3436 l -7.718522,6.8727 c -0.444146,0.3271 -0.522772,1.0483 -0.159523,1.4633 0.363249,0.4151 1.088772,0.4329 1.471984,0.036 l 8.999734,-7.9973 c 0.230207,-0.1993 0.360952,-0.5083 0.34374,-0.8122 -0.329163,-6.3604 -0.680605,-12.7335 -0.999971,-19.08742 -0.145451,-0.9949 4.286812,-3.89963 4.999852,0.24992 0.656413,6.9563 1.331325,13.9124 1.999941,20.8681 -8.4e-5,0.011 1.51e-4,0.021 0,0.031 -0.03364,2.3662 -1.710929,4.1808 -2.68742,5.2482 -0.01578,0.017 -0.0471,0.046 -0.0625,0.062 -4.30445,4.1069 -10.262052,8.1165 -14.030835,13.0582 -0.161525,0.1995 -0.24172,0.4629 -0.218743,0.7185 l 0.99997,8.997 c 0.05613,0.5244 0.585236,0.95 1.109597,0.8927 0.524363,-0.057 0.948919,-0.5873 0.890344,-1.1114 l -0.937473,-8.5596 c 3.501712,-4.4329 9.22158,-8.3726 13.624597,-12.5896 0.02174,-0.02 0.0426,-0.041 0.0625,-0.062 0.908956,-0.9949 3.223333,-3.3016 3.249904,-6.654 0.0015,-0.031 0.0015,-0.062 0,-0.094 -0.661445,-7.0175 -1.350354,-14.0418 -1.999941,-21.05552 -0.416472,-2.62377 -2.304547,-3.73008 -4.249874,-3.78 z m -31.905305,6.93519 c -0.196635,0.0281 -0.384253,0.11635 -0.531235,0.24992 -1.105499,1.03612 -1.689507,2.47177 -2.093688,3.93617 -1.465667,0.404 -2.900408,1.0186 -3.937383,2.1244 -0.329946,0.3636 -0.329946,0.9796 0,1.3432 1.036994,1.1058 2.471772,1.7203 3.937383,2.1243 0.404175,1.4644 0.988158,2.9001 2.093688,3.9362 0.366998,0.3473 1.007962,0.3473 1.37496,0 1.105529,-1.0361 1.689513,-2.4718 2.093688,-3.9362 1.465609,-0.404 2.900387,-1.0185 3.937383,-2.1243 0.329946,-0.3636 0.329946,-0.9796 0,-1.3432 -1.036977,-1.1058 -2.471718,-1.7204 -3.937383,-2.1244 -0.404181,-1.4644 -0.988191,-2.90005 -2.093688,-3.93617 -0.223551,-0.20554 -0.544252,-0.30053 -0.843725,-0.24992 z m 0.156245,2.68659 c 0.432293,0.7145 0.799807,1.5556 1.031219,2.5305 0.08368,0.363 0.386849,0.6661 0.749978,0.7497 0.973952,0.231 1.78559,0.5995 2.499926,1.0309 -0.711941,0.427 -1.532926,0.7702 -2.499926,0.9996 -0.363129,0.084 -0.666304,0.3867 -0.749978,0.7498 -0.231413,0.9748 -0.598928,1.8159 -1.031219,2.5304 -0.432291,-0.7145 -0.799806,-1.5556 -1.031219,-2.5304 -0.08368,-0.3631 -0.386849,-0.6661 -0.749978,-0.7498 -0.967001,-0.2294 -1.787986,-0.5726 -2.499926,-0.9996 0.714335,-0.4314 1.525972,-0.7999 2.499926,-1.0309 0.363129,-0.084 0.666304,-0.3867 0.749978,-0.7497 0.231412,-0.9749 0.598926,-1.816 1.031219,-2.5305 z" fill="#000000" fill-opacity="1" stroke="none" marker="none" visibility="visible" display="inline" overflow="visible"></path></g></svg>