<?xml version="1.0" standalone="no"?>
<!DOCTYPE svg PUBLIC "-//W3C//DTD SVG 20010904//EN"
 "http://www.w3.org/TR/2001/REC-SVG-20010904/DTD/svg10.dtd">
<svg version="1.0" xmlns="http://www.w3.org/2000/svg"
 width="600.000000pt" height="600.000000pt" viewBox="0 0 600.000000 600.000000"
 preserveAspectRatio="xMidYMid meet">

<g transform="translate(0.000000,600.000000) scale(0.100000,-0.100000)"
fill="#000000" stroke="none">
<path d="M2925 5420 c-10 -11 -68 -163 -130 -337 l-111 -318 -347 -5 c-246 -4
-349 -8 -358 -17 -30 -30 1 -62 254 -264 138 -111 257 -207 264 -213 9 -8 -9
-82 -77 -316 -49 -168 -90 -319 -90 -336 0 -43 21 -59 60 -46 16 6 146 91 287
189 142 97 265 177 273 177 8 0 130 -77 270 -170 140 -94 265 -176 277 -183
51 -26 91 3 79 57 -4 15 -45 159 -93 321 -51 175 -82 296 -76 300 69 45 513
408 524 427 12 24 12 28 -10 45 -22 18 -44 19 -360 19 l-338 0 -108 320 c-124
370 -142 403 -190 350z"/>
<path d="M2921 3697 c-8 -10 -12 -193 -13 -623 l-3 -609 -43 165 c-111 423
-229 850 -237 858 -2 2 -34 -17 -72 -42 -37 -25 -74 -46 -82 -46 -8 0 -11 -7
-8 -17 134 -456 366 -1382 503 -2016 15 -70 31 -124 34 -120 4 5 34 100 68
213 91 300 179 713 322 1495 38 209 72 392 74 407 5 25 1 30 -32 43 -20 9 -58
30 -85 47 -26 17 -49 29 -51 27 -2 -2 -22 -112 -46 -244 -60 -341 -149 -808
-155 -813 -3 -3 -5 267 -5 599 l0 604 -65 43 c-69 45 -86 50 -104 29z"/>
<path d="M958 3637 c-12 -14 -70 -161 -132 -338 l-111 -314 -348 -5 c-294 -4
-349 -7 -357 -20 -12 -18 -12 -23 -4 -45 4 -9 120 -107 258 -217 138 -111 257
-206 263 -212 10 -9 -6 -76 -77 -321 -50 -171 -89 -323 -88 -339 4 -42 29 -54
70 -34 18 8 149 96 291 193 l259 178 263 -177 c144 -97 277 -182 294 -189 38
-14 65 -1 69 34 1 13 -38 161 -87 328 -50 167 -88 307 -86 311 3 5 120 99 261
210 140 111 261 213 267 227 10 22 8 28 -12 44 -22 18 -45 19 -360 19 l-336 0
-104 308 c-115 339 -122 357 -151 372 -17 9 -24 7 -42 -13z"/>
<path d="M4987 3637 c-15 -14 -60 -130 -132 -344 l-110 -323 -336 0 c-315 0
-338 -1 -360 -19 -20 -16 -22 -22 -12 -44 6 -14 127 -116 267 -227 141 -111
258 -205 261 -209 2 -5 -36 -145 -86 -312 -49 -167 -88 -315 -87 -328 4 -35
31 -48 69 -34 17 7 150 92 294 189 l263 177 259 -178 c142 -97 273 -185 291
-193 41 -20 66 -8 70 34 1 16 -38 168 -88 339 -71 245 -87 312 -77 321 6 6
125 101 263 212 138 110 254 208 258 217 8 22 8 27 -4 45 -8 13 -63 16 -357
20 l-348 5 -110 310 c-60 171 -115 320 -122 331 -19 33 -41 37 -66 11z"/>
<path d="M1987 2673 l-68 -56 84 -86 c148 -152 290 -336 412 -536 64 -103 245
-459 245 -480 0 -5 -33 40 -74 100 -184 272 -477 592 -715 782 l-115 91 -53
-41 c-81 -64 -71 -101 57 -203 202 -161 502 -491 669 -735 l64 -94 -94 91
c-210 203 -467 406 -605 477 l-32 16 15 -47 c8 -26 15 -79 15 -117 l0 -71 57
-39 c131 -91 257 -200 432 -374 205 -205 293 -308 471 -546 65 -88 130 -174
144 -192 51 -67 157 -67 208 0 14 18 79 104 144 192 178 238 266 340 471 546
176 175 301 284 434 375 l58 39 -6 45 c-4 29 1 71 13 117 l18 71 -30 -15
c-123 -63 -383 -265 -571 -444 l-129 -124 59 85 c200 289 446 560 675 743 126
102 138 141 60 201 -27 21 -56 36 -64 33 -37 -15 -239 -189 -376 -327 -166
-165 -324 -355 -446 -535 -41 -60 -74 -105 -74 -100 0 20 169 354 230 455 125
209 264 392 418 551 l92 96 -69 57 c-39 31 -74 56 -80 56 -13 0 -164 -164
-256 -280 -266 -332 -498 -773 -632 -1197 -21 -68 -40 -123 -43 -123 -3 0 -22
55 -43 123 -162 513 -443 1005 -793 1385 -47 50 -91 92 -97 91 -7 0 -43 -25
-80 -56z"/>
</g>
</svg>
