<svg height='100px' width='100px'  fill="#000000" xmlns="http://www.w3.org/2000/svg" xmlns:xlink="http://www.w3.org/1999/xlink" version="1.1" x="0px" y="0px" viewBox="0 0 100 100" enable-background="new 0 0 100 100" xml:space="preserve"><g><path d="M79.7,2.2H43.7c-4,0-7.2,3.2-7.2,7.2v12.7h19.9c6.9,0,12.5,5.6,12.5,12.5v4.3l7.8,7.8c0.5,0.5,1.2,0.8,1.9,0.8   c0.7,0,1.4-0.3,1.9-0.7c0.5-0.5,0.9-1.2,0.9-2v-6.4c3.3-0.7,5.8-3.6,5.8-7.1V9.4C87,5.4,83.7,2.2,79.7,2.2z"></path><path d="M79.7,52.5H68.8v3.9c0,6.9-5.6,12.5-12.5,12.5H36.4v12.7c0,4,3.2,7.2,7.2,7.2h24.7l8.2,8.2c0.5,0.5,1.2,0.8,1.9,0.8   c0.7,0,1.4-0.3,1.9-0.7c0.5-0.5,0.9-1.2,0.9-2v-6.4c3.3-0.7,5.8-3.6,5.8-7.1V59.7C87,55.7,83.7,52.5,79.7,52.5z"></path><path d="M18.8,63.5v6.4c0,0.7,0.3,1.5,0.9,2c0.5,0.5,1.2,0.7,1.9,0.7c0.7,0,1.4-0.3,1.9-0.8l8.2-8.2h24.7c4,0,7.2-3.2,7.2-7.2V34.6   c0-4-3.2-7.2-7.2-7.2h-36c-4,0-7.2,3.2-7.2,7.2v21.8C13,59.9,15.5,62.8,18.8,63.5z M29.9,41.9l5.4-0.4l2-5c0.4-0.9,1.7-0.9,2.1,0   l2,5l5.4,0.4c1,0.1,1.4,1.3,0.6,2l-4.1,3.5l1.3,5.2c0.2,1-0.8,1.8-1.7,1.2L38.3,51l-4.6,2.8c-0.9,0.5-1.9-0.2-1.7-1.2l1.3-5.2   l-4.1-3.5C28.4,43.3,28.9,42,29.9,41.9z"></path></g></svg>