<svg height='100px' width='100px'  fill="#000000" xmlns="http://www.w3.org/2000/svg" xmlns:xlink="http://www.w3.org/1999/xlink" version="1.1" x="0px" y="0px" viewBox="0 0 100 100" style="enable-background:new 0 0 100 100;" xml:space="preserve"><path d="M71.8081055,22.4829102h0.75V10.75H57.9389648c-0.3789063,4.043457-3.7924805,7.2182617-7.9331055,7.2182617  S42.4521484,14.793457,42.0732422,10.75H27.4418945v11.7329102h0.75c0.4140625,0,0.75,0.3359375,0.75,0.75  s-0.3359375,0.75-0.75,0.75h-0.75V76.027832h0.75c0.4140625,0,0.75,0.3359375,0.75,0.75s-0.3359375,0.75-0.75,0.75h-0.75V89.25  h14.6313477c0.3789063-4.043457,3.7919922-7.2182617,7.9326172-7.2182617S57.5600586,85.206543,57.9389648,89.25h14.6191406  V77.527832h-0.75c-0.4140625,0-0.75-0.3359375-0.75-0.75s0.3359375-0.75,0.75-0.75h0.75V23.9829102h-0.75  c-0.4140625,0-0.75-0.3359375-0.75-0.75S71.394043,22.4829102,71.8081055,22.4829102z M60.1772461,22.4829102h2.9077148  c0.4140625,0,0.75,0.3359375,0.75,0.75s-0.3359375,0.75-0.75,0.75h-2.9077148c-0.4140625,0-0.75-0.3359375-0.75-0.75  S59.7631836,22.4829102,60.1772461,22.4829102z M45.0878906,42.5986328l3.2683105,11.678894l-9.9136963-11.678894H45.0878906z   M38.0755005,41.0961914l2.1964111-4.0890503l3.6954956,4.0890503H38.0755005z M46.6455688,42.5986328h6.7088623L50,54.5858154  L46.6455688,42.5986328z M47.1065063,41.0961914L50,37.0117188l2.8934937,4.0844727H47.1065063z M54.9121094,42.5986328h6.6439209  l-9.9092407,11.6682129L54.9121094,42.5986328z M56.0325928,41.0961914l3.6939697-4.0873413l2.1954956,4.0873413H56.0325928z   M54.4146118,40.6489258l-2.9643555-4.1845703h6.7460327L54.4146118,40.6489258z M54.3613281,22.4829102h2.9082031  c0.4140625,0,0.75,0.3359375,0.75,0.75s-0.3359375,0.75-0.75,0.75h-2.9082031c-0.4140625,0-0.75-0.3359375-0.75-0.75  S53.9472656,22.4829102,54.3613281,22.4829102z M48.5458984,22.4829102h2.9077148c0.4140625,0,0.75,0.3359375,0.75,0.75  s-0.3359375,0.75-0.75,0.75h-2.9077148c-0.4140625,0-0.75-0.3359375-0.75-0.75S48.1318359,22.4829102,48.5458984,22.4829102z   M42.7304688,22.4829102h2.9077148c0.4140625,0,0.75,0.3359375,0.75,0.75s-0.3359375,0.75-0.75,0.75h-2.9077148  c-0.4140625,0-0.75-0.3359375-0.75-0.75S42.3164063,22.4829102,42.7304688,22.4829102z M48.5497437,36.4643555l-2.9643555,4.1845703  l-3.7816772-4.1845703H48.5497437z M36.9150391,22.4829102h2.9077148c0.4140625,0,0.75,0.3359375,0.75,0.75  s-0.3359375,0.75-0.75,0.75h-2.9077148c-0.4140625,0-0.75-0.3359375-0.75-0.75S36.5009766,22.4829102,36.9150391,22.4829102z   M34.0073242,77.527832h-2.9077148c-0.4140625,0-0.75-0.3359375-0.75-0.75s0.3359375-0.75,0.75-0.75h2.9077148  c0.4140625,0,0.75,0.3359375,0.75,0.75S34.4213867,77.527832,34.0073242,77.527832z M34.0073242,23.9829102h-2.9077148  c-0.4140625,0-0.75-0.3359375-0.75-0.75s0.3359375-0.75,0.75-0.75h2.9077148c0.4140625,0,0.75,0.3359375,0.75,0.75  S34.4213867,23.9829102,34.0073242,23.9829102z M39.8227539,77.527832h-2.9077148c-0.4140625,0-0.75-0.3359375-0.75-0.75  s0.3359375-0.75,0.75-0.75h2.9077148c0.4140625,0,0.75,0.3359375,0.75,0.75S40.2368164,77.527832,39.8227539,77.527832z   M45.6381836,77.527832h-2.9077148c-0.4140625,0-0.75-0.3359375-0.75-0.75s0.3359375-0.75,0.75-0.75h2.9077148  c0.4140625,0,0.75,0.3359375,0.75,0.75S46.0522461,77.527832,45.6381836,77.527832z M51.4536133,77.527832h-2.9077148  c-0.4140625,0-0.75-0.3359375-0.75-0.75s0.3359375-0.75,0.75-0.75h2.9077148c0.4140625,0,0.75,0.3359375,0.75,0.75  S51.8676758,77.527832,51.4536133,77.527832z M57.2695313,77.527832h-2.9082031c-0.4140625,0-0.75-0.3359375-0.75-0.75  s0.3359375-0.75,0.75-0.75h2.9082031c0.4140625,0,0.75,0.3359375,0.75,0.75S57.6835938,77.527832,57.2695313,77.527832z   M63.0849609,77.527832h-2.9077148c-0.4140625,0-0.75-0.3359375-0.75-0.75s0.3359375-0.75,0.75-0.75h2.9077148  c0.4140625,0,0.75,0.3359375,0.75,0.75S63.4990234,77.527832,63.0849609,77.527832z M63.3833008,65.0356445H36.6166992  c-0.4140625,0-0.75-0.3359375-0.75-0.75s0.3359375-0.75,0.75-0.75h26.7666016c0.4140625,0,0.75,0.3359375,0.75,0.75  S63.7973633,65.0356445,63.3833008,65.0356445z M68.9003906,77.527832h-2.9077148c-0.4140625,0-0.75-0.3359375-0.75-0.75  s0.3359375-0.75,0.75-0.75h2.9077148c0.4140625,0,0.75,0.3359375,0.75,0.75S69.3144531,77.527832,68.9003906,77.527832z   M68.9003906,23.9829102h-2.9077148c-0.4140625,0-0.75-0.3359375-0.75-0.75s0.3359375-0.75,0.75-0.75h2.9077148  c0.4140625,0,0.75,0.3359375,0.75,0.75S69.3144531,23.9829102,68.9003906,23.9829102z"></path></svg>