<svg height='100px' width='100px'  fill="#000000" xmlns:x="http://ns.adobe.com/Extensibility/1.0/" xmlns:i="http://ns.adobe.com/AdobeIllustrator/10.0/" xmlns:graph="http://ns.adobe.com/Graphs/1.0/" xmlns="http://www.w3.org/2000/svg" xmlns:xlink="http://www.w3.org/1999/xlink" xmlns:a="http://ns.adobe.com/AdobeSVGViewerExtensions/3.0/" version="1.1" x="0px" y="0px" viewBox="0 0 100 100" enable-background="new 0 0 100 100" xml:space="preserve"><g><g i:extraneous="self"><path d="M50.935,39.353l0.103,0.003h0.116c10.694-0.086,19.362-8.986,19.318-19.836C70.337,8.718,61.476-0.037,50.719,0.002    c-5.223,0.063-10.117,2.131-13.777,5.832c-3.715,3.757-5.723,8.722-5.646,13.99c0.01,5.344,2.106,10.317,5.895,14.014    C40.881,37.438,45.771,39.395,50.935,39.353z M37.953,23.939c1.382,0.14,1.751,1.857,1.819,2.242    c-0.157-0.402-1.712-1.127-2.015-0.291c-0.318,0.9,0.248,2.163,2.339,2.004c2.094-0.158,2.798-2.004,5.368-4.009    c2.576-2.001,5.372,0,5.372,0s2.846-2.001,5.423,0c2.576,2.005,3.297,3.851,5.388,4.009c2.094,0.159,2.666-1.104,2.347-2.004    c-0.3-0.836-1.848-0.111-2.002,0.291c0.062-0.385,0.439-2.103,1.819-2.242c1.55-0.154,1.912,1.569,1.912,2.409    c0,0.849-0.241,4.447-6.516,4.447c-6.275,0-8.371-3.898-8.371-3.898s-2.046,3.898-8.321,3.898c-6.273,0-6.473-3.599-6.473-4.447    C36.043,25.509,36.396,23.785,37.953,23.939z M100,99.92l-6.926-34.882c-3.999-19.084-3.999-19.084-29.057-19.084l-25.521,0.003    c-27.378,0-27.378,0-31.417,19.151L0,100l16.824-0.018l5.286-22.16l-0.226,22.159l56.398-0.045l-0.231-22.165l5.339,22.165    L100,99.92z M65.338,62.5h5.63l-5.849,11.701l-2.818-5.628L65.338,62.5z M63.151,62.5l-5.853,11.701l-2.813-5.628l3.036-6.073    H63.151z M54.978,62.5l-5.852,11.701L43.275,62.5H54.978z M49.126,87.5c-3.349,0-6.071-2.724-6.071-6.072    c0-3.346,2.723-6.069,6.071-6.069c3.347,0,6.071,2.724,6.071,6.069C55.197,84.776,52.473,87.5,49.126,87.5z M57.299,86.985    c-0.891,0-1.737-0.183-2.5-0.5c1.728-1.128,2.858-2.971,2.858-5.058c0-2.083-1.131-3.927-2.858-5.053    c0.763-0.319,1.609-0.501,2.5-0.501c3.348,0,6.072,2.493,6.072,5.554C63.371,84.492,60.646,86.985,57.299,86.985z M65.119,86.985    c-0.894,0-1.74-0.183-2.504-0.5c1.727-1.128,2.857-2.971,2.857-5.058c0-2.083-1.131-3.927-2.857-5.053    c0.764-0.319,1.61-0.501,2.504-0.501c3.348,0,6.068,2.493,6.068,5.554C71.188,84.492,68.467,86.985,65.119,86.985z"></path></g></g></svg>