<svg height='100px' width='100px'  fill="#000000" xmlns="http://www.w3.org/2000/svg" xmlns:xlink="http://www.w3.org/1999/xlink" version="1.1" x="0px" y="0px" viewBox="0 0 100 100" enable-background="new 0 0 100 100" xml:space="preserve"><path d="M43.085,27.242c8.387,0,13.632-4.889,15.844-7.516l5.854,4.635c0.326,0.258,0.725,0.391,1.125,0.391  c0.269,0,0.538-0.059,0.791-0.182c0.626-0.303,1.022-0.938,1.022-1.631V11.373c0-0.697-0.396-1.328-1.022-1.633  c-0.626-0.305-1.372-0.223-1.916,0.207l-5.852,4.635c-2.212-2.625-7.458-7.516-15.847-7.516c-11.22,0-16.822,8.752-17.054,9.127  c-0.368,0.588-0.368,1.334,0,1.92C26.264,18.488,31.865,27.242,43.085,27.242z M64.095,15.121v4.068l-2.57-2.037L64.095,15.121z   M43.085,10.693c7.234,0,11.64,4.438,13.269,6.457c-1.632,2.006-6.075,6.465-13.269,6.465c-7.242,0-11.651-4.445-13.274-6.463  C31.44,15.135,35.846,10.693,43.085,10.693z M17.54,49.143c8.386,0,13.631-4.891,15.844-7.518l5.854,4.633  c0.326,0.258,0.723,0.391,1.125,0.391c0.269,0,0.538-0.059,0.788-0.182c0.626-0.303,1.026-0.938,1.026-1.631V33.27  c0-0.697-0.4-1.328-1.026-1.633c-0.626-0.303-1.369-0.223-1.913,0.211l-5.853,4.631c-2.212-2.625-7.458-7.516-15.845-7.516  c-11.223,0-16.825,8.756-17.057,9.129c-0.368,0.586-0.368,1.332,0,1.922C0.715,40.385,6.317,49.143,17.54,49.143z M38.549,37.018  v4.068l-2.573-2.033L38.549,37.018z M17.54,32.59c7.239,0,11.645,4.445,13.271,6.463c-1.626,2.018-6.032,6.463-13.271,6.463  c-7.24,0-11.646-4.439-13.272-6.457C5.9,37.053,10.343,32.59,17.54,32.59z M33.385,63.521l5.853,4.633  c0.326,0.26,0.723,0.391,1.125,0.391c0.269,0,0.538-0.059,0.788-0.182c0.626-0.303,1.026-0.936,1.026-1.631V55.166  c0-0.697-0.4-1.33-1.026-1.633s-1.369-0.223-1.916,0.211l-5.85,4.633c-2.212-2.627-7.458-7.518-15.845-7.518  c-11.223,0-16.825,8.758-17.057,9.129c-0.368,0.59-0.368,1.334,0,1.922c0.232,0.373,5.834,9.129,17.057,9.129  C25.927,71.039,31.173,66.148,33.385,63.521z M38.549,58.914v4.068l-2.573-2.033L38.549,58.914z M17.54,67.412  c-7.24,0-11.646-4.439-13.272-6.457c1.632-2.006,6.075-6.469,13.272-6.469c7.239,0,11.645,4.445,13.271,6.463  C29.185,62.969,24.779,67.412,17.54,67.412z M66.699,75.434c-0.626-0.307-1.372-0.225-1.916,0.207l-5.852,4.635  c-2.212-2.627-7.458-7.52-15.846-7.52c-11.22,0-16.822,8.758-17.054,9.129c-0.368,0.59-0.368,1.334,0,1.92  c0.232,0.375,5.834,9.131,17.054,9.131c8.388,0,13.633-4.893,15.846-7.52l5.853,4.635c0.326,0.26,0.725,0.391,1.125,0.391  c0.269,0,0.538-0.059,0.791-0.182c0.626-0.303,1.022-0.936,1.022-1.631V77.064C67.722,76.367,67.325,75.736,66.699,75.434z   M43.085,89.309c-7.242,0-11.651-4.445-13.274-6.463c1.626-2.018,6.032-6.463,13.274-6.463c7.234,0,11.64,4.439,13.269,6.459  C54.722,84.846,50.28,89.309,43.085,89.309z M64.095,84.879l-2.57-2.033l2.57-2.031V84.879z M99.986,49.232  c-0.23-0.365-5.727-8.959-16.749-8.959c-8.564,0-13.778,5.176-15.791,7.662l-6.131-4.857c-0.439-0.342-1.031-0.408-1.533-0.166  c-0.501,0.24-0.819,0.748-0.819,1.305v11.566c0,0.559,0.317,1.066,0.819,1.307c0.201,0.096,0.417,0.145,0.632,0.145  c0.32,0,0.638-0.105,0.901-0.313l6.131-4.854c2.013,2.484,7.227,7.658,15.791,7.658c11.022,0,16.519-8.59,16.749-8.955  C100.28,50.301,100.28,49.703,99.986,49.232z"></path></svg>