<svg height='100px' width='100px'  fill="#000000" xmlns="http://www.w3.org/2000/svg" xmlns:xlink="http://www.w3.org/1999/xlink" version="1.1" x="0px" y="0px" viewBox="0 0 100 100" enable-background="new 0 0 100 100" xml:space="preserve"><g><path d="M49.05,47.12c4.12,0,7.47-3.27,7.47-7.3c0-4.02-3.35-7.29-7.47-7.29c-4.12,0-7.48,3.27-7.48,7.29   C41.57,43.85,44.93,47.12,49.05,47.12z"></path><path d="M49.05,48.57c-9.98,0-18.1,8.11-18.1,18.09c0,0.45,0.37,0.82,0.82,0.82h34.56c0.45,0,0.81-0.37,0.81-0.82   C67.14,56.68,59.02,48.57,49.05,48.57z"></path><path d="M92.24,32.42c1.279-0.22,2.13-1.44,1.91-2.72l-0.591-3.33c-0.22-1.27-1.439-2.13-2.72-1.9l-1.16,0.2   c-0.22-0.43-0.46-0.85-0.729-1.25l0.76-0.91c0.83-0.99,0.7-2.48-0.29-3.31l-2.59-2.17c-0.48-0.4-1.09-0.6-1.71-0.54   c-0.63,0.05-1.2,0.35-1.601,0.83l-0.75,0.9c-0.449-0.19-0.909-0.36-1.369-0.5v-1.18c0-1.29-1.051-2.35-2.351-2.35h-3.38   c-1.3,0-2.35,1.06-2.35,2.35v1.18c-0.46,0.14-0.92,0.31-1.37,0.5l-0.75-0.9c-0.83-1-2.32-1.13-3.311-0.29l-1.29,1.08   c-5.109-2.82-10.869-4.37-16.74-4.5V8.42c6.85,0.13,13.59,1.95,19.53,5.29c0.4,0.22,0.891,0.08,1.11-0.31s0.08-0.89-0.31-1.11   C63.77,8.68,56.46,6.77,49.04,6.77C25.21,6.77,5.81,26.16,5.81,50s19.4,43.23,43.23,43.23C72.88,93.23,92.27,73.84,92.27,50   c0-1.73-0.1-3.47-0.3-5.17c-0.06-0.45-0.46-0.77-0.91-0.71c-0.449,0.05-0.77,0.46-0.71,0.9c0.16,1.37,0.25,2.77,0.28,4.17H85.44   c-0.021-1.13-0.101-2.25-0.23-3.36c0.34-0.24,0.61-0.56,0.79-0.94c0.27-0.57,0.29-1.21,0.08-1.8l-0.4-1.11   c0.38-0.29,0.75-0.6,1.11-0.93l1.02,0.59c0.36,0.21,0.761,0.32,1.171,0.32c0.199,0,0.409-0.03,0.609-0.09   c0.61-0.16,1.12-0.55,1.43-1.09l1.69-2.92c0.65-1.13,0.26-2.57-0.86-3.22l-1.02-0.58c0.11-0.48,0.189-0.95,0.25-1.43L92.24,32.42z    M70.84,30.8c0-3.6,2.93-6.52,6.521-6.52c3.6,0,6.529,2.92,6.529,6.52c0,3.6-2.93,6.52-6.529,6.52   C73.76,37.32,70.84,34.4,70.84,30.8z M48.23,91.59C25.94,91.16,7.89,73.11,7.46,50.82h5.19C13.08,70.25,28.8,85.97,48.23,86.4   V91.59z M14.27,50c0-19.17,15.6-34.77,34.78-34.77c5.66,0,11.24,1.38,16.22,4c-0.96,0.84-1.079,2.3-0.26,3.28l0.76,0.91   c-0.27,0.4-0.51,0.82-0.729,1.25l-1.16-0.2c-1.27-0.23-2.5,0.63-2.72,1.91l-0.59,3.32c-0.11,0.62,0.029,1.24,0.39,1.76   c0.36,0.51,0.9,0.85,1.521,0.96l1.159,0.21c0.061,0.48,0.141,0.96,0.25,1.43l-1.02,0.59c-1.12,0.64-1.51,2.09-0.86,3.21l1.69,2.92   c0.31,0.55,0.819,0.93,1.43,1.1c0.2,0.05,0.41,0.08,0.61,0.08c0.41,0,0.81-0.11,1.17-0.31l1.02-0.59c0.36,0.33,0.73,0.64,1.11,0.93   l-0.4,1.11c-0.21,0.58-0.189,1.22,0.08,1.79c0.271,0.57,0.74,1,1.32,1.22l3.18,1.16c0.261,0.09,0.53,0.14,0.8,0.14   c0.961,0,1.86-0.6,2.211-1.55l0.409-1.11c0.24,0.01,0.48,0.02,0.721,0.02c0.239,0,0.479-0.01,0.729-0.02l0.4,1.11   c0.35,0.95,1.25,1.55,2.21,1.55c0.27,0,0.54-0.05,0.8-0.15l2.15-0.78c0.109,1.17,0.18,2.35,0.18,3.52   c0,19.18-15.61,34.78-34.78,34.78C29.87,84.78,14.27,69.18,14.27,50z"></path></g></svg>