<svg height='100px' width='100px'  fill="#000000" xmlns:x="http://ns.adobe.com/Extensibility/1.0/" xmlns:i="http://ns.adobe.com/AdobeIllustrator/10.0/" xmlns:graph="http://ns.adobe.com/Graphs/1.0/" xmlns="http://www.w3.org/2000/svg" xmlns:xlink="http://www.w3.org/1999/xlink" version="1.1" x="0px" y="0px" viewBox="0 0 100 100" enable-background="new 0 0 100 100" xml:space="preserve"><metadata><sfw xmlns="http://ns.adobe.com/SaveForWeb/1.0/"><slices></slices><sliceSourceBounds width="1447.7" height="1443.7" x="1.2" y="-1446.3" bottomLeftOrigin="true"></sliceSourceBounds></sfw></metadata><path d="M22.8,22.5c2,0,3.7,1.6,3.7,3.7s-1.6,3.7-3.7,3.7c-2,0-3.7-1.6-3.7-3.7S20.8,22.5,22.8,22.5z M35,29.8c2,0,3.7-1.6,3.7-3.7  S37,22.5,35,22.5s-3.7,1.6-3.7,3.7S33,29.8,35,29.8z M50.9,26.2c0-2-1.6-3.7-3.7-3.7s-3.7,1.6-3.7,3.7s1.6,3.7,3.7,3.7  S50.9,28.2,50.9,26.2z M9.8,49.3v8.3c0,1,0.4,1.9,1.1,2.6c0.7,0.6,1.5,0.9,2.4,0.9h0c0.9,0,1.8-0.4,2.5-1l7.9-7.9V43l-7.3,7.3V43  h-4.6c-1.6,0-2.8-1.3-2.8-2.8V11.9c0-1.6,1.3-2.8,2.8-2.8h46.6c1.6,0,2.8,1.3,2.8,2.8v20.1h6.5V11.9c0-5.2-4.2-9.4-9.4-9.4H11.7  c-5.2,0-9.4,4.2-9.4,9.4v28.3C2.3,44.6,5.5,48.4,9.8,49.3z M90.6,38.4c3.9,0,7,3.2,7,7v32.7c0,3.9-3.2,7-7,7h-1.6v11.3  c0,0.9-1.1,1.4-1.8,0.7L75.3,85.1H36.7c-3.9,0-7-3.2-7-7V45.4c0-3.9,3.2-7,7-7H90.6z M61,52.1c0,2,1.6,3.7,3.6,3.7  c1.9,0,3.6-1.6,3.6-3.6c0-2-1.6-3.6-3.6-3.7C62.6,48.5,61,50.1,61,52.1z M68.9,72.2c-0.4,0.1-0.7,0.4-1,0.5C67.5,72.8,67,73,66.6,73  c-0.5,0.1-1-0.2-1.1-0.8c-0.1-0.4-0.2-0.8-0.1-1.2c0.1-0.9,0.3-1.7,0.4-2.6c0.5-2.6,1-5.1,1.4-7.7c0.1-0.7,0.2-1.4,0.2-2.1  c0-0.8-0.5-1.2-1.4-1.2c-1.2,0-2.3,0-3.5,0c-1.1,0-2.2,0-3.3,0c-0.3,0-0.6,0-0.8,0.1c-0.5,0.1-0.8,0.3-0.8,0.7  c0,0.4,0.2,0.7,0.6,0.9c0.4,0.1,0.8,0.2,1.2,0.2c0.9,0.1,1.2,0.5,1.2,1.4c0,0.1,0,0.3,0,0.4c-0.4,2.3-0.8,4.5-1.2,6.8  c-0.2,1.3-0.4,2.6-0.6,3.9c-0.3,1.9,1.6,3.7,3,3.9c0.9,0.1,1.8,0.2,2.6,0.1c1.9,0,3.5-0.8,4.8-2.1c0.2-0.2,0.4-0.6,0.5-0.9  C69.9,72.3,69.5,72,68.9,72.2z"></path></svg>