<svg height='100px' width='100px'  fill="#000000" xmlns="http://www.w3.org/2000/svg" data-name="Layer 1" viewBox="0 0 128 128" x="0px" y="0px"><title>clothes 2 final black</title><path d="M124,23H4a4,4,0,0,0-4,4v74a4,4,0,0,0,4,4H124a4,4,0,0,0,4-4V27A4,4,0,0,0,124,23Zm-21.83,9.45L103.38,30l1.21,2.45,2.7.39-2,1.91.46,2.69-2.42-1.27L101,37.44l.46-2.69-2-1.91Zm-12,0L91.38,30l1.21,2.45,2.7.39-2,1.91.46,2.69-2.42-1.27L89,37.44l.46-2.69-2-1.91Zm-12,0L79.38,30l1.21,2.45,2.7.39-2,1.91.46,2.69-2.42-1.27L77,37.44l.46-2.69-2-1.91ZM24.42,27H47.33s0,11.33,0,11.32L46.62,38a28.5,28.5,0,0,0-22.11.25l-.09,0Zm22.91,74H24.42V89.68h0c.56.26,1.12.49,1.69.68h0c.28.1.57.21.86.3l.68.22L28,91c.24.08.48.15.72.21l.8.2q.88.2,1.78.35l.13,0h0a27.69,27.69,0,0,0,4.42.35,26.78,26.78,0,0,0,4.66-.4l.18,0,.71-.13.48-.1.25-.05.21,0,.08,0c.55-.13,1.1-.28,1.64-.44s1.08-.35,1.61-.55,1.1-.42,1.64-.67h0ZM35.88,73.74c-2.83,0-8.7,0-8.75-12.78,0,0,0-.06,0-.1a8.4,8.4,0,0,0,1.44-1,17.25,17.25,0,0,0,3.47-4c2.46,2.61,7.35,4.42,9.74,2.82l.26-.2c1,.84,1.81,1.57,2.59,2.14,0,.11,0,.21,0,.33C44.59,73.74,38.71,73.74,35.88,73.74Zm3.6,8.18A52.31,52.31,0,0,0,38.41,88c-.59.06-1.19.1-1.79.12l-.79,0-.89,0c-.39,0-.78,0-1.17-.08h-.19a51.77,51.77,0,0,0-1.07-6.07l.89-4.38a15.92,15.92,0,0,0,5.18,0ZM59.79,65.5a24.12,24.12,0,0,1-6.92,15.59l-.32.32L42.91,78.7l-.51-2.52c3.94-2.27,6-7.05,6.21-14.29a2.68,2.68,0,0,0,.37-.14,2.82,2.82,0,0,0,1.43-3l0-.3C50,53.79,49.15,43,34.77,43.68c-6.63.33-9.81,1.49-10.61,3.9a3.27,3.27,0,0,0-.15.7l-.15.08c-2.35,1.34-2.71,4.45-2.6,6.89.12,2.86,1.92,5.22,2,8,.17,4.75,1.51,9.36,5.32,12.46,1.2,1,.8,1.54.5,3l-9.83,2.8A24.37,24.37,0,0,1,22.58,44c11.47-7.79,28.27-3.31,34.64,8.93A24,24,0,0,1,59.79,65.5Zm22,31.95-2.42-1.27L77,97.44l.46-2.69-2-1.91,2.7-.39L79.38,90l1.21,2.45,2.7.39-2,1.91Zm12,0-2.42-1.27L89,97.44l.46-2.69-2-1.91,2.7-.39L91.38,90l1.21,2.45,2.7.39-2,1.91Zm12,0-2.42-1.27L101,97.44l.46-2.69-2-1.91,2.7-.39L103.38,90l1.21,2.45,2.7.39-2,1.91ZM110,86H72.75a2,2,0,0,1,0-4H110a2,2,0,0,1,0,4Zm0-10H72.75a2,2,0,0,1,0-4H110a2,2,0,0,1,0,4Zm0-10H72.75a2,2,0,0,1,0-4H110a2,2,0,0,1,0,4Zm0-10H72.75a2,2,0,0,1,0-4H110a2,2,0,0,1,0,4Zm0-10H72.75a2,2,0,0,1,0-4H110a2,2,0,0,1,0,4Z"></path></svg>