<svg height='100px' width='100px'  fill="#000000" xmlns="http://www.w3.org/2000/svg" xmlns:xlink="http://www.w3.org/1999/xlink" version="1.1" x="0px" y="0px" viewBox="0 0 239.532 177.317" style="enable-background:new 0 0 239.532 177.317;" xml:space="preserve"><g><g><path d="M37.16,109.024c-0.002,0-0.002,0-0.004,0c-4.689,0.254-9.069-1.657-12.111-4.896H4.701c-2.596,0-4.701,2.105-4.701,4.701    v50.931c0,2.597,2.105,4.701,4.701,4.701h0.715v3.667h12.5v-3.667h24.5v3.667h12.5v-3.667h0.716c2.597,0,4.701-2.104,4.701-4.701    v-50.931c0-0.945-0.285-1.822-0.766-2.56c-6.674,0.379-13.518,1.22-20.354,2.508C38.535,108.905,37.845,108.987,37.16,109.024z"></path><path d="M154.151,122.588l-0.211,0.265l-0.27,0.208c-0.987,0.777-2.082,1.412-3.253,1.902c-0.278,0.489-0.563,0.974-0.839,1.464    l-0.944-0.583c-1.733,0.774-3.602,1.238-5.499,1.341c-0.286,0.016-0.57,0.022-0.857,0.023c-3.451-0.006-6.719-1.127-9.441-3.232    c-0.159-0.123-11.087-8.267-30.735-13.541L81.964,143.05l9.359,5.779l7.355-11.913l34.816,21.497    c-1.92,4.311-3.778,8.648-5.538,13.033l9.508,5.871c13.527-34.209,32.085-66.165,55.033-94.819    C177.942,94.249,169.078,104.083,154.151,122.588z M136.001,152.908l-34.17-21.098l9.807-15.883l32.682,20.181    C141.41,141.635,138.638,147.237,136.001,152.908z"></path><path d="M33.468,78.313c8.304-1.565,16.655-2.584,24.825-3.025c3.284-0.178,6.596-0.266,9.848-0.262    c20.079,0.029,39.185,3.474,56.808,10.238c0.192-0.138,0.373-0.274,0.563-0.412c-15.99-8.399-39.479-16.576-69.723-16.566    c-7.304,0-14.993,0.476-23.051,1.528c-6.844,0.894-11.67,7.169-10.775,14.013c0.117,0.901,0.334,1.765,0.627,2.588    c0.286-0.55,0.595-1.09,0.949-1.609C25.872,81.387,29.398,79.082,33.468,78.313z"></path><path d="M216.786,21.55c0.174,4.277-0.766,8.651-2.959,12.676c-0.631,1.157-1.355,2.24-2.145,3.263    c3.729,2.717,6.487,5.105,8.362,7.079c2.527,2.621,3.354,4.467,3.457,4.973c-0.188,0.212-0.643,0.635-1.419,1.105    c-1.887,1.193-5.502,2.472-9.423,3.314c-4.513,1.008-9.396,1.555-13.09,1.846c-0.645-0.655-1.301-1.174-1.925-1.472    c-10.359-5.042-20.716-10.081-31.07-15.122c-0.477-0.902-1.058-2.033-1.688-3.322c-1.658-3.396-3.632-7.931-4.846-12.04    c-0.82-2.725-1.258-5.275-1.24-6.826c-0.001-0.348,0.02-0.642,0.048-0.867c0.148-0.014,0.329-0.021,0.547-0.021    c1.503-0.037,4.504,0.513,8.803,2.085c0.448-2.54,1.303-5.051,2.603-7.437c1.39-2.549,3.195-4.779,5.301-6.64    c-6.446-2.606-11.74-3.955-16.682-4.008c-2.376-0.004-4.722,0.336-6.96,1.206c-2.232,0.856-4.311,2.304-5.836,4.104    c-3.098,3.688-3.808,7.932-3.823,11.553c0.011,3.977,0.83,7.746,1.901,11.398c1.081,3.64,2.46,7.13,3.817,10.22    c0.59,1.343,1.177,2.603,1.738,3.767c-2.081,19.32-4.457,32.163-24.9,46.261c-13.795-5.47-33.159-10.583-57.221-10.618    c-10.518-0.016-21.922,0.935-34.111,3.234c-6.785,1.28-11.248,7.817-9.969,14.602c1.278,6.782,7.815,11.246,14.6,9.967    c10.641-2.006,20.461-2.816,29.441-2.803c42.015,0.033,66.27,18.339,66.566,18.568c2.268,1.756,4.954,2.609,7.62,2.613    c2.279,0.003,4.541-0.621,6.522-1.825c1.04-0.383,2.063-0.934,3.012-1.679c17.936-22.238,27.27-32.305,49.781-49.01    c0.785-0.066,1.608-0.142,2.471-0.229c5.838-0.615,13.148-1.688,19.855-4.107c4.447-1.675,8.866-3.794,12.316-8.133    c1.939-2.461,3.32-5.905,3.291-9.482c-0.042-5.424-2.585-10.113-6.383-14.537C229.382,30.862,224.101,26.466,216.786,21.55z"></path></g><ellipse transform="matrix(0.4785 -0.8781 0.8781 0.4785 80.5374 180.6094)" cx="192.314" cy="22.505" rx="22.5" ry="22.5"></ellipse></g></svg>