<svg height='100px' width='100px'  fill="#000000" xmlns="http://www.w3.org/2000/svg" xmlns:xlink="http://www.w3.org/1999/xlink" version="1.1" x="0px" y="0px" viewBox="0 0 100 100" enable-background="new 0 0 100 100" xml:space="preserve"><path d="M77.859,19.851c10.842,5.645,15.062,18.996,9.42,29.845c-8.162,15.669-21.115,28.316-36.977,36.102  c-15.86-7.785-28.821-20.433-36.976-36.102c-4.898-9.412-2.431-20.979,5.901-27.563c9.576-7.585,23.49-5.965,31.074,3.612  C56.887,17.426,68.445,14.952,77.859,19.851z M57.32,31.133c-1.479,1.734-3.357,3.085-5.461,3.96l-7.308,2.844  c-6.342,2.474-9.483,9.619-7.003,15.961c0.804,2.062,2.154,3.874,3.89,5.232c0.703-3.996,2.864-7.586,6.063-10.074  c0.52-0.398,1.252-0.306,1.656,0.206c0.397,0.512,0.307,1.251-0.206,1.649c-6.1,4.742-7.201,13.521-2.453,19.622  c0.051,0.071,0.106,0.143,0.171,0.213c0.405,0.512,1.152,0.583,1.649,0.178c0.506-0.412,0.584-1.151,0.178-1.656  c-1.805-2.232-2.729-5.055-2.579-7.92c6.588,1.713,13.315-2.239,15.028-8.823c0.633-2.424,0.512-4.983-0.342-7.336l-2.801-7.636  C57.135,35.484,56.979,33.28,57.32,31.133z"></path></svg>