<svg height='100px' width='100px'  fill="#000000" xmlns="http://www.w3.org/2000/svg" xmlns:xlink="http://www.w3.org/1999/xlink" version="1.1" x="0px" y="0px" viewBox="0 0 64 64" style="enable-background:new 0 0 64 64;" xml:space="preserve"><g><path d="M47.98,15.797C48.307,15.917,48.647,16,49,16c1.654,0,3-1.346,3-3s-1.346-3-3-3c-1.354,0-2.488,0.907-2.86,2.141   C47.215,13.018,47.919,14.32,47.98,15.797z"></path><circle cx="43" cy="16" r="3"></circle><path d="M47.436,18.258c-0.302,0.591-0.714,1.108-1.215,1.534C48.463,20.96,50,23.302,50,26v2h4v-5c0-2.757-2.243-5-5-5   C48.463,18,47.938,18.092,47.436,18.258z"></path><path d="M43,21c-2.757,0-5,2.243-5,5v5h10v-5C48,23.243,45.757,21,43,21z"></path><path d="M27.414,34L30,36.586l1.738-1.738c0.348-0.347,0.896-0.391,1.295-0.103c2.109,1.532,4.576,2.569,7.133,2.999   C40.647,37.825,41,38.242,41,38.73V40h4v-1.27c0-0.488,0.353-0.905,0.834-0.986c2.602-0.438,5.002-1.446,7.135-2.996   c0.397-0.291,0.948-0.245,1.295,0.102L56,36.586L58.586,34l-1.736-1.736c-0.348-0.348-0.392-0.897-0.102-1.295   c1.55-2.133,2.559-4.533,2.996-7.135C59.825,23.353,60.242,23,60.73,23H62v-4h-1.27c-0.488,0-0.905-0.353-0.986-0.834   c-0.43-2.557-1.467-5.023-2.999-7.133c-0.288-0.398-0.245-0.947,0.103-1.295L58.586,8L56,5.414l-1.738,1.738   c-0.347,0.348-0.896,0.393-1.295,0.103c-2.109-1.532-4.576-2.569-7.133-2.999C45.353,4.175,45,3.758,45,3.27V2h-4v1.27   c0,0.488-0.353,0.905-0.834,0.986c-2.602,0.438-5.002,1.446-7.135,2.996c-0.396,0.292-0.947,0.246-1.295-0.102L30,5.414L27.414,8   l1.736,1.736c0.348,0.348,0.392,0.897,0.102,1.295c-1.55,2.133-2.559,4.533-2.996,7.135C26.175,18.647,25.758,19,25.27,19H24v4   h1.27c0.488,0,0.905,0.353,0.986,0.834c0.43,2.557,1.467,5.023,2.999,7.133c0.288,0.398,0.245,0.947-0.103,1.295L27.414,34z M30,23   c0-2.698,1.537-5.04,3.779-6.208C32.7,15.874,32,14.524,32,13c0-2.757,2.243-5,5-5c2.123,0,3.93,1.336,4.654,3.208   C42.085,11.086,42.53,11,43,11s0.915,0.086,1.346,0.208C45.07,9.336,46.877,8,49,8c2.757,0,5,2.243,5,5   c0,1.524-0.7,2.874-1.779,3.792C54.463,17.96,56,20.302,56,23v6c0,0.553-0.447,1-1,1h-5v2c0,0.553-0.447,1-1,1H37   c-0.553,0-1-0.447-1-1v-2h-5c-0.553,0-1-0.447-1-1V23z"></path><path d="M39,39.557c-2.282-0.493-4.479-1.416-6.438-2.705l-1.855,1.855c-0.391,0.391-1.023,0.391-1.414,0l-4-4   c-0.391-0.391-0.391-1.023,0-1.414l1.855-1.855c-1.289-1.958-2.212-4.155-2.705-6.438H23c-0.553,0-1-0.447-1-1v-6   c0-0.553,0.447-1,1-1h1.443c0.375-1.742,1.003-3.431,1.848-5H23c-7.18,0-13,5.82-13,13L3,40h7v13h11v9h14V49l4-8.667V39.557z"></path><path d="M37,16c0.353,0,0.693-0.083,1.02-0.203c0.061-1.478,0.764-2.779,1.839-3.656C39.488,10.907,38.354,10,37,10   c-1.654,0-3,1.346-3,3S35.346,16,37,16z"></path><path d="M36,26c0-2.698,1.537-5.04,3.779-6.208c-0.501-0.426-0.913-0.944-1.215-1.534C38.062,18.092,37.537,18,37,18   c-2.757,0-5,2.243-5,5v5h4V26z"></path></g></svg>