<svg height='100px' width='100px'  fill="#000000" xmlns:dc="http://purl.org/dc/elements/1.1/" xmlns:cc="http://creativecommons.org/ns#" xmlns:rdf="http://www.w3.org/1999/02/22-rdf-syntax-ns#" xmlns:svg="http://www.w3.org/2000/svg" xmlns="http://www.w3.org/2000/svg" xmlns:sodipodi="http://sodipodi.sourceforge.net/DTD/sodipodi-0.dtd" xmlns:inkscape="http://www.inkscape.org/namespaces/inkscape" viewBox="0 0 135.466 135.466" version="1.1" x="0px" y="0px"><g transform="translate(0,-161.534)"><path style="color:#000000;font-style:normal;font-variant:normal;font-weight:normal;font-stretch:normal;font-size:medium;line-height:normal;font-family:sans-serif;font-variant-ligatures:normal;font-variant-position:normal;font-variant-caps:normal;font-variant-numeric:normal;font-variant-alternates:normal;font-feature-settings:normal;text-indent:0;text-align:start;text-decoration:none;text-decoration-line:none;text-decoration-style:solid;text-decoration-color:#000000;letter-spacing:normal;word-spacing:normal;text-transform:none;writing-mode:lr-tb;direction:ltr;text-orientation:mixed;dominant-baseline:auto;baseline-shift:baseline;text-anchor:start;white-space:normal;shape-padding:0;clip-rule:nonzero;display:inline;overflow:visible;visibility:visible;opacity:1;isolation:auto;mix-blend-mode:normal;color-interpolation:sRGB;color-interpolation-filters:linearRGB;solid-color:#000000;solid-opacity:1;vector-effect:none;fill:#000000;fill-opacity:1;fill-rule:nonzero;stroke:none;stroke-width:3.756135;stroke-linecap:square;stroke-linejoin:miter;stroke-miterlimit:4;stroke-dasharray:none;stroke-dashoffset:0;stroke-opacity:1;paint-order:markers fill stroke;color-rendering:auto;image-rendering:auto;shape-rendering:auto;text-rendering:auto;enable-background:accumulate" d="m 66.7202,184.754 c -2.0015,0 -3.4589,1.425 -4.5197,3.13 -1.0612,1.705 -1.9002,3.935 -2.6097,6.633 -0.077,0.295 -0.1518,0.597 -0.2258,0.901 -1.3711,-2.389 -2.7477,-4.307 -4.2001,-5.667 -1.4671,-1.373 -3.2424,-2.369 -5.1757,-1.851 -1.9335,0.518 -2.9692,2.268 -3.5536,4.189 -0.5829,1.922 -0.8162,4.295 -0.8027,7.081 0,0.311 0.014,0.629 0.014,0.95 -0.2486,-0.263 -0.4957,-0.518 -0.7415,-0.767 -1.9632,-1.98 -3.8027,-3.489 -5.5748,-4.435 -1.771,-0.945 -3.7452,-1.453 -5.4787,-0.452 -1.7334,1 -2.2818,2.964 -2.3491,4.971 -0.065,2.006 0.3211,4.356 1.0551,7.046 0.2645,0.97 0.5769,1.982 0.9323,3.031 -0.5878,-0.375 -1.1659,-0.731 -1.7305,-1.061 -2.4088,-1.405 -4.5779,-2.39 -6.5345,-2.845 -1.9562,-0.455 -3.9936,-0.434 -5.4088,0.981 -1.4154,1.416 -1.4383,3.454 -0.9823,5.411 0.4556,1.955 1.4394,4.125 2.845,6.534 1.777,3.047 4.2455,6.458 7.253,9.986 -2.7649,-1.16 -5.3678,-2.075 -7.7188,-2.716 -2.6905,-0.734 -5.0446,-1.12 -7.0502,-1.054 -2.0074,0.07 -3.9695,0.613 -4.97023,2.346 -1.001,1.734 -0.4951,3.708 0.4518,5.48 0.94693,1.77 2.45893,3.613 4.43903,5.575 1.107,1.099 2.3671,2.229 3.7531,3.377 -1.058,-0.07 -2.0755,-0.1 -3.0404,-0.113 -2.7898,0 -5.15763,0.218 -7.07973,0.803 -1.9209,0.582 -3.6762,1.622 -4.1941,3.555 -0.5183,1.932 0.4819,3.71 1.8544,5.176 1.3729,1.465 3.3076,2.852 5.72813,4.236 0.8647,0.494 1.7939,0.986 2.777,1.471 -0.8812,0.185 -1.7286,0.382 -2.5309,0.592 -2.69743,0.71 -4.92763,1.549 -6.63293,2.609 -1.705,1.062 -3.1305,2.519 -3.1305,4.521 0,2.001 1.4255,3.458 3.1305,4.52 1.7053,1.062 3.9355,1.899 6.63293,2.609 5.3931,1.418 12.6446,2.262 20.6614,2.262 8.0166,0 15.269,-0.844 20.6624,-2.262 2.6966,-0.71 4.9278,-1.547 6.6326,-2.609 1.7052,-1.062 3.1303,-2.519 3.1303,-4.52 0,-0.722 -0.1873,-1.37 -0.5036,-1.957 0.1517,-0.276 0.2764,-0.573 0.3636,-0.9 0.347,-1.293 0,-2.514 -0.6623,-3.62 0.091,-0.128 0.1765,-0.25 0.255,-0.386 1.0011,-1.733 0.4947,-3.707 -0.4518,-5.477 -0.227,-0.424 -0.4883,-0.855 -0.7791,-1.288 0.8091,-0.16 1.5577,-0.513 2.1839,-1.14 0.6603,-0.66 1.0138,-1.455 1.1605,-2.315 0.091,-0.04 0.1819,-0.09 0.2716,-0.142 0.1844,-0.1 0.3531,-0.226 0.5112,-0.352 0.3122,0 0.6292,-0.04 0.9512,-0.128 0.7943,-0.213 1.4356,-0.637 1.9584,-1.194 0.02,0 0.041,0 0.061,0 0.5247,0.562 1.17,0.991 1.9711,1.207 0.3209,0.09 0.637,0.128 0.9485,0.128 0.1593,0.128 0.3294,0.248 0.5149,0.355 0.091,0.06 0.1812,0.1 0.2723,0.142 0.1465,0.857 0.5,1.652 1.1591,2.311 0.6255,0.626 1.3737,0.979 2.1816,1.14 -0.2906,0.433 -0.5521,0.862 -0.7789,1.286 -0.9458,1.772 -1.4492,3.744 -0.4482,5.478 0.079,0.142 0.1656,0.264 0.2558,0.387 -0.6697,1.107 -1.0111,2.328 -0.6644,3.623 0.087,0.325 0.2118,0.621 0.364,0.898 -0.316,0.586 -0.5026,1.235 -0.5026,1.955 0,2.002 1.4251,3.458 3.1304,4.52 1.7055,1.062 3.9335,1.9 6.6295,2.609 5.393,1.419 12.649,2.262 20.6654,2.262 8.016,0 15.269,-0.843 20.662,-2.262 2.696,-0.709 4.928,-1.547 6.633,-2.609 1.705,-1.062 3.127,-2.518 3.127,-4.52 0,-2.002 -1.422,-3.458 -3.127,-4.52 -1.705,-1.061 -3.937,-1.9 -6.633,-2.609 -0.802,-0.211 -1.649,-0.406 -2.531,-0.591 0.982,-0.486 1.911,-0.977 2.774,-1.471 2.42,-1.384 4.358,-2.774 5.73,-4.24 1.372,-1.465 2.373,-3.24 1.855,-5.173 -0.518,-1.933 -2.273,-2.972 -4.193,-3.555 -1.923,-0.581 -4.293,-0.802 -7.082,-0.802 -0.966,0 -1.984,0.04 -3.043,0.113 1.388,-1.148 2.649,-2.283 3.757,-3.381 1.981,-1.961 3.493,-3.804 4.44,-5.574 0.947,-1.773 1.451,-3.745 0.45,-5.478 -1.001,-1.735 -2.963,-2.279 -4.972,-2.35 -2.006,-0.07 -4.357,0.321 -7.047,1.055 -2.35,0.642 -4.952,1.556 -7.717,2.716 3.005,-3.528 5.472,-6.938 7.25,-9.985 1.405,-2.409 2.389,-4.58 2.845,-6.534 0.456,-1.957 0.433,-3.995 -0.983,-5.411 -1.414,-1.414 -3.451,-1.435 -5.407,-0.979 -1.956,0.454 -4.125,1.439 -6.535,2.845 -0.566,0.331 -1.146,0.687 -1.735,1.063 0.355,-1.049 0.668,-2.064 0.933,-3.034 0.734,-2.69 1.123,-5.041 1.056,-7.048 -0.07,-2.008 -0.613,-3.968 -2.346,-4.969 -1.7334,-1.001 -3.7084,-0.494 -5.4794,0.451 -1.771,0.947 -3.612,2.458 -5.576,4.44 -0.244,0.248 -0.491,0.502 -0.739,0.763 0.01,-0.32 0.01,-0.637 0.01,-0.948 0.02,-2.79 -0.22,-5.16 -0.803,-7.083 -0.583,-1.92 -1.623,-3.675 -3.556,-4.192 -1.933,-0.518 -3.709,0.482 -5.176,1.853 -1.466,1.373 -2.852,3.311 -4.2364,5.732 -0.4728,0.828 -0.9436,1.717 -1.4092,2.654 -0.2439,-1.279 -0.5144,-2.493 -0.8107,-3.62 -0.7099,-2.698 -1.5487,-4.928 -2.6097,-6.633 -1.0608,-1.705 -2.5148,-3.13 -4.5161,-3.13 z m 0,3.756 c 0.072,0 0.5913,0.176 1.3278,1.36 0.7367,1.183 1.5161,3.133 2.1658,5.604 0.6754,2.566 1.2253,5.699 1.599,9.202 -1.1918,3.114 -2.3051,6.54 -3.2805,10.181 -0.2864,1.068 -0.5516,2.124 -0.799,3.169 -0.2476,-1.045 -0.5124,-2.101 -0.7981,-3.167 -1.3858,-5.17 -3.047,-9.912 -4.8214,-13.937 0.3124,-2.004 0.6858,-3.839 1.1091,-5.448 0.6498,-2.471 1.4292,-4.421 2.1658,-5.604 0.7366,-1.184 1.2583,-1.36 1.3315,-1.36 z m -15.7588,3.018 c 0.07,-0.01 0.6197,0 1.638,0.966 1.0168,0.954 2.2744,2.637 3.5413,4.852 0.6949,1.218 1.3965,2.599 2.0907,4.111 -0.5807,4.112 -0.903,8.771 -0.903,13.723 0,0.397 0,0.789 0,1.181 -0.045,-0.08 -0.091,-0.161 -0.1363,-0.241 -2.4123,-4.177 -4.9503,-7.96 -7.4455,-11.177 -0.2337,-2.109 -0.3565,-4.058 -0.3647,-5.788 -0.014,-2.553 0.2374,-4.638 0.6411,-5.973 0.4053,-1.334 0.8618,-1.635 0.932,-1.654 z m 33.5433,0 c 0.07,0.02 0.529,0.323 0.935,1.656 0.404,1.334 0.656,3.42 0.642,5.974 -0.02,1.73 -0.132,3.679 -0.366,5.787 -2.494,3.216 -5.032,6.996 -7.444,11.175 -0.807,1.398 -1.5676,2.786 -2.282,4.156 0.077,-1.656 0.1192,-3.356 0.1192,-5.096 0,-3.505 -0.1619,-6.866 -0.4621,-9.989 1.1938,-3.024 2.4479,-5.687 3.6799,-7.842 1.268,-2.218 2.527,-3.9 3.545,-4.852 1.018,-0.956 1.563,-0.983 1.634,-0.969 z m -48.6347,6.16 c 0.2351,-0.01 0.7684,0.04 1.6909,0.54 1.2303,0.657 2.8803,1.956 4.6783,3.77 1.2384,1.251 2.5538,2.746 3.9038,4.44 0.5078,4.067 1.3924,8.577 2.6526,13.28 0.335,1.251 0.6877,2.475 1.0528,3.672 -0.6114,-0.642 -1.2358,-1.285 -1.8773,-1.925 -2.9989,-3 -6.0121,-5.676 -8.8998,-7.952 -1.2665,-2.933 -2.2442,-5.657 -2.888,-8.018 -0.6721,-2.465 -0.971,-4.543 -0.9252,-5.936 0.045,-1.394 0.4094,-1.801 0.4733,-1.838 0.016,0 0.06,-0.03 0.1391,-0.03 z m 63.5857,0 c 0.169,0 0.259,0.01 0.283,0.03 0.06,0.04 0.4263,0.444 0.4723,1.838 0.05,1.395 -0.2543,3.472 -0.9263,5.935 -0.644,2.362 -1.622,5.088 -2.889,8.023 -2.887,2.275 -5.899,4.952 -8.897,7.951 -0.641,0.64 -1.266,1.283 -1.878,1.925 0.366,-1.199 0.719,-2.424 1.054,-3.676 1.26,-4.703 2.145,-9.212 2.653,-13.279 1.35,-1.694 2.665,-3.189 3.903,-4.44 1.798,-1.812 3.448,-3.113 4.678,-3.77 0.768,-0.41 1.266,-0.523 1.547,-0.538 z m -38.1935,11.421 c 0.7276,2.125 1.4169,4.376 2.0445,6.719 1.203,4.49 2.0437,8.8 2.5308,12.636 -0.2591,2.15 -0.4094,4.17 -0.4533,6.027 -0.8778,-3.047 -2.1928,-6.485 -3.8903,-10.135 -0.2622,-2.871 -0.4085,-5.96 -0.4085,-9.178 0,-2.086 0.062,-4.116 0.1768,-6.069 z m -38.0771,0 c 0.2874,0 0.6739,0.04 1.1832,0.156 1.3571,0.315 3.2882,1.146 5.4941,2.43 1.8747,1.095 3.957,2.516 6.1514,4.205 1.368,3.074 3.0162,6.313 4.9191,9.609 4.0074,6.942 8.3645,12.8 12.2893,16.763 1.9637,1.982 3.8054,3.493 5.5764,4.44 0.2636,0.142 0.5326,0.266 0.8041,0.384 -0.2974,0.01 -0.7178,-0.02 -1.3128,-0.151 -0.3474,-0.09 -0.7339,-0.194 -1.1516,-0.342 -0.045,-0.04 -0.089,-0.08 -0.1363,-0.142 -3.9612,-3.925 -9.8222,-8.278 -16.7648,-12.288 -0.607,-0.35 -1.2109,-0.689 -1.8134,-1.023 -0.3592,-0.349 -0.7182,-0.702 -1.077,-1.06 -5.4798,-5.48 -9.8501,-11.035 -12.4219,-15.446 -1.2875,-2.207 -2.1139,-4.137 -2.4302,-5.495 -0.3165,-1.359 -0.071,-1.849 -0.028,-1.9 0.035,-0.04 0.2396,-0.143 0.7193,-0.143 z m 89.0949,0 c 0.48,0 0.684,0.1 0.715,0.142 0.06,0.06 0.297,0.546 -0.01,1.902 -0.315,1.359 -1.144,3.289 -2.432,5.495 -2.571,4.41 -6.943,9.965 -12.4223,15.445 -0.36,0.36 -0.72,0.715 -1.081,1.066 -0.601,0.332 -1.203,0.67 -1.808,1.021 -6.943,4.006 -12.805,8.364 -16.767,12.29 -0.04,0.04 -0.09,0.08 -0.135,0.142 -0.416,0.146 -0.803,0.261 -1.1497,0.342 -0.5991,0.142 -1.0213,0.166 -1.3191,0.152 0.2723,-0.114 0.5427,-0.246 0.8075,-0.387 1.7713,-0.946 3.6143,-2.458 5.5763,-4.44 3.926,-3.961 8.282,-9.82 12.291,-16.763 1.9,-3.293 3.548,-6.529 4.915,-9.597 2.1933,-1.691 4.2763,-3.111 6.1503,-4.205 2.207,-1.286 4.136,-2.113 5.494,-2.429 0.51,-0.128 0.898,-0.164 1.184,-0.166 z m -61.1376,4.307 c 0.9458,1.459 1.8849,2.988 2.8033,4.578 1.4464,2.506 2.74,4.982 3.8638,7.357 0.3595,3.657 0.9102,6.982 1.6156,9.828 -0.8031,-1.214 -1.6989,-2.47 -2.6785,-3.755 -1.5683,-3.667 -3.0691,-7.991 -4.3256,-12.68 -0.4853,-1.81 -0.91,-3.593 -1.2786,-5.328 z m 33.1813,0 c -0.368,1.732 -0.794,3.511 -1.278,5.319 -1.257,4.689 -2.758,9.018 -4.327,12.689 -1.6664,2.188 -3.0927,4.292 -4.2316,6.245 -0.7572,1.298 -1.3871,2.523 -1.8824,3.686 0.027,-0.692 0.1192,-1.501 0.2787,-2.404 0.3469,-0.957 0.667,-1.994 0.9626,-3.117 0.237,-0.9 0.4564,-1.857 0.66,-2.857 1.525,-4.398 3.9217,-9.624 7.0197,-14.99 0.916,-1.587 1.854,-3.113 2.798,-4.571 z m -11.97,1.705 c 0,0.01 0,0.03 0,0.04 0,6.331 -0.5612,12.174 -1.4755,16.794 -0.2962,0.869 -0.5596,1.709 -0.7944,2.524 -0.044,-1.858 -0.1945,-3.88 -0.454,-6.032 0.4875,-3.837 1.3285,-8.147 2.5315,-12.638 0.062,-0.234 0.1278,-0.464 0.1924,-0.697 z m -28.9332,7.151 c 0.6288,0.597 1.258,1.209 1.8867,1.838 v 0 c 3.1285,3.129 5.8946,6.282 8.1722,9.234 0.9237,2.119 1.8788,4.048 2.8437,5.736 0.4594,0.805 0.9188,1.552 1.3819,2.246 -0.5817,-0.502 -1.192,-1.072 -1.8219,-1.706 -3.594,-3.629 -7.8294,-9.286 -11.7035,-15.997 -0.2606,-0.451 -0.5153,-0.903 -0.7659,-1.351 z m 48.6282,0 c -0.25,0.448 -0.504,0.898 -0.765,1.35 -3.875,6.71 -8.111,12.368 -11.706,15.994 -0.627,0.633 -1.235,1.199 -1.814,1.702 0.461,-0.693 0.919,-1.436 1.377,-2.238 0.965,-1.688 1.92,-3.617 2.843,-5.736 2.277,-2.952 5.043,-6.106 8.171,-9.235 v 0 c 0.631,-0.632 1.263,-1.247 1.894,-1.847 z m 28.5773,6.219 c 0.196,0 0.38,0 0.555,0 1.394,0.04 1.804,0.415 1.841,0.472 0.04,0.06 0.146,0.603 -0.511,1.832 -0.657,1.228 -1.956,2.879 -3.77,4.677 -2.161,2.143 -5.05,4.513 -8.447,6.898 -3.211,0.522 -6.634,1.256 -10.168,2.203 -7.7413,2.074 -14.5293,4.766 -19.3713,7.533 -1.433,0.819 -2.691,1.641 -3.7681,2.477 0.081,-0.222 0.1949,-0.48 0.3551,-0.781 0.572,-1.07 1.63,-2.46 3.09,-3.986 1.294,-0.518 2.669,-1.214 4.135,-2.07 4.394,-2.563 9.546,-6.565 14.718,-11.549 5.9273,-3.238 11.5683,-5.582 15.9593,-6.78 2.156,-0.588 4.018,-0.887 5.382,-0.926 z m -106.3377,0 c 1.3928,-0.04 3.474,0.251 5.9374,0.926 4.3931,1.197 10.0368,3.543 15.9661,6.783 5.1708,4.981 10.3156,8.981 14.708,11.542 1.4659,0.856 2.8426,1.553 4.1374,2.071 1.4611,1.527 2.5192,2.917 3.0909,3.989 0.16,0.3 0.2738,0.557 0.3549,0.777 -1.0768,-0.837 -2.3348,-1.656 -3.767,-2.475 -4.842,-2.768 -11.6294,-5.46 -19.3726,-7.534 -3.5353,-0.947 -6.9602,-1.681 -10.1716,-2.205 -3.396,-2.383 -6.2818,-4.753 -8.4427,-6.895 -1.8143,-1.796 -3.1135,-3.445 -3.7708,-4.675 -0.6573,-1.231 -0.5476,-1.77 -0.5104,-1.832 0.043,-0.07 0.4462,-0.426 1.8404,-0.472 z m 0.4916,16.671 c 2.5655,0.01 5.6095,0.276 8.9525,0.785 2.2022,1.515 4.5855,3.023 7.1144,4.482 3.2567,1.88 6.4587,3.512 9.4982,4.871 -2.644,-0.207 -5.437,-0.32 -8.3318,-0.32 -3.9868,0 -7.7835,0.211 -11.2572,0.594 -3.0003,-1.187 -5.6436,-2.432 -7.7861,-3.657 -2.2161,-1.267 -3.89883,-2.526 -4.85143,-3.544 -0.9526,-1.018 -0.9852,-1.563 -0.9653,-1.635 0.014,-0.07 0.3197,-0.527 1.6541,-0.931 1.33473,-0.406 3.42003,-0.656 5.97263,-0.645 z m 105.9071,0 c 2.552,0 4.639,0.237 5.972,0.643 1.335,0.405 1.639,0.861 1.657,0.932 0.01,0.07 -0.01,0.617 -0.968,1.635 -0.953,1.018 -2.634,2.278 -4.851,3.545 -2.141,1.224 -4.783,2.469 -7.781,3.654 -3.474,-0.385 -7.272,-0.593 -11.26,-0.593 -2.895,0 -5.6873,0.113 -8.3313,0.319 3.04,-1.359 6.2403,-2.991 9.4973,-4.872 2.527,-1.458 4.908,-2.964 7.108,-4.478 3.345,-0.509 6.39,-0.769 8.957,-0.785 z m -85.9702,3.129 c 7.3407,1.992 13.7696,4.577 18.135,7.07 0.2558,0.146 0.5034,0.292 0.7445,0.439 -0.8387,-0.151 -1.7541,-0.357 -2.7333,-0.625 -4.4379,-1.21 -10.1513,-3.593 -16.1462,-6.884 z m 66.0322,0 c -5.9933,3.291 -11.7053,5.67 -16.1413,6.881 -0.977,0.267 -1.891,0.471 -2.728,0.622 0.239,-0.144 0.483,-0.288 0.736,-0.432 4.364,-2.495 10.795,-5.076 18.1333,-7.071 z m -68.7358,10.44 c 7.7493,0 14.7702,0.838 19.7089,2.138 1.2011,0.317 2.2765,0.665 3.2035,1.022 -1.1059,0.147 -2.4136,0.229 -3.8834,0.222 -5.1073,-0.01 -12.1027,-1.03 -19.5879,-3.035 -0.4035,-0.114 -0.8031,-0.218 -1.2009,-0.33 0.5826,0 1.1682,-0.01 1.7598,-0.01 z m 71.4428,0 c 0.593,0 1.181,0 1.765,0.01 -0.399,0.114 -0.801,0.223 -1.206,0.331 -7.4843,2.006 -14.4833,3.021 -19.5883,3.035 -1.473,0 -2.783,-0.07 -3.889,-0.221 0.928,-0.359 2.006,-0.706 3.21,-1.024 4.938,-1.3 11.959,-2.138 19.7083,-2.138 z m -83.191,0.683 c 3.1253,1.197 6.5628,2.314 10.2171,3.292 7.7434,2.076 14.9671,3.138 20.5439,3.163 2.7885,0 5.1602,-0.22 7.0814,-0.803 0.034,0 0.067,-0.03 0.099,-0.03 -0.2017,0.192 -0.4799,0.415 -0.8818,0.666 -1.184,0.737 -3.1342,1.516 -5.6034,2.166 -4.9387,1.299 -11.9596,2.137 -19.7089,2.137 -7.7485,0 -14.7673,-0.838 -19.7062,-2.137 -2.46903,-0.65 -4.41943,-1.429 -5.60343,-2.166 -1.1843,-0.737 -1.359,-1.259 -1.359,-1.332 0,-0.07 0.1747,-0.592 1.359,-1.328 1.184,-0.737 3.1344,-1.518 5.60343,-2.168 2.2593,-0.595 4.9578,-1.09 7.9581,-1.455 z m 94.939,0 c 3,0.365 5.699,0.86 7.957,1.455 2.469,0.65 4.42,1.431 5.604,2.168 1.184,0.737 1.358,1.258 1.358,1.329 0,0.07 -0.174,0.595 -1.358,1.331 -1.184,0.737 -3.135,1.517 -5.604,2.167 -4.939,1.299 -11.956,2.136 -19.705,2.136 -7.7493,0 -14.7703,-0.837 -19.7083,-2.136 -2.469,-0.65 -4.42,-1.43 -5.604,-2.167 -0.404,-0.252 -0.684,-0.475 -0.8853,-0.668 0.035,0 0.068,0.03 0.1033,0.04 1.922,0.584 4.294,0.808 7.083,0.808 5.578,-0.03 12.801,-1.092 20.5423,-3.166 3.654,-0.979 7.093,-2.097 10.217,-3.292 z"></path></g></svg>