<svg height='100px' width='100px'  fill="#000000" xmlns="http://www.w3.org/2000/svg" xmlns:xlink="http://www.w3.org/1999/xlink" version="1.1" x="0px" y="0px" viewBox="0 0 100 100" style="enable-background:new 0 0 100 100;" xml:space="preserve"><g><polygon points="53.4,85.2 49.5,89.9 45.6,85.2 47.4,73.5 51.6,73.5  "></polygon><polygon points="53.5,68.3 51.9,71.5 47.1,71.5 45.5,68.3 48,67.5 51,67.5  "></polygon><path d="M63.5,30.1v0.5l-4.2-2.7c-0.2-0.3-0.5-0.4-0.8-0.4h-0.1c-0.4,0-0.7,0.2-0.9,0.5c-4.6,3.5-11.8,3.4-16.3-0.3   c-0.3-0.3-0.8-0.3-1.2-0.1l-4.5,3v-0.5c0-6.4,5.2-11.6,11.6-11.6h4.7C58.3,18.5,63.5,23.7,63.5,30.1z"></path><path d="M63.5,33v5.5c0,7.7-6.3,14-14,14c-1.8,0-3.6-0.4-5.2-1h0.2c1.7,0,3-1.3,3-3c0-1.7-1.3-3-3-3h-7.1c-1.2-2.1-1.9-4.5-1.9-7   V33l5-3.3c5.1,3.7,12.8,3.7,18,0L63.5,33z"></path><polygon points="48.1,65.4 42.4,67.2 40.6,57.8 42.9,54.5  "></polygon><polygon points="58.4,57.8 56.6,67.2 50.9,65.4 56.1,54.5  "></polygon><path d="M75.5,36.5c0,2.6-1.7,4.9-4.1,5.7c-0.6,0.2-1.2,0.3-1.9,0.3h-1c-0.5,0-1-0.5-1-1v-13c0-9.4-8.1-17-18-17   c-9.9,0-18,7.6-18,17v15c0,2.2,1.8,4,4,4h9c0.5,0,1,0.5,1,1s-0.5,1-1,1h-9c-3.3,0-6-2.7-6-6v-1c-0.7,0-1.4-0.1-2-0.4   c-2.3-0.8-4-3-4-5.6s1.7-4.8,4-5.7c0.6-0.2,1.3-0.3,2-0.3v-2c0-10.5,9-19,20-19s20,8.5,20,19v2c0.7,0,1.4,0.1,2,0.3   C73.8,31.7,75.5,33.9,75.5,36.5z"></path><path d="M21.5,62.5c-7.7,0-14,6.3-14,14c0,3,0.9,5.8,2.7,8.2c0.2,0.3,0.3,0.7,0.1,1l-1.6,3.6l3.6-1.6c0.1-0.1,0.3-0.1,0.4-0.1   c0.2,0,0.4,0.1,0.6,0.2c2.4,1.8,5.3,2.7,8.2,2.7c7.7,0,14-6.3,14-14C35.5,68.8,29.2,62.5,21.5,62.5z M22.2,86.2   c-0.2,0.2-0.4,0.3-0.7,0.3s-0.5-0.1-0.7-0.3s-0.3-0.4-0.3-0.7c0-0.1,0-0.3,0.1-0.4s0.1-0.2,0.2-0.3c0.1,0,0.1-0.1,0.2-0.1   c0.1,0,0.1-0.1,0.2-0.1c0.1,0,0.1,0,0.2-0.1c0.2,0,0.4,0,0.6,0.1c0.1,0.1,0.2,0.1,0.3,0.2c0.1,0.1,0.2,0.2,0.2,0.3   c0,0.1,0.1,0.2,0.1,0.4C22.5,85.8,22.4,86,22.2,86.2z M24.7,77.6c-1.4,0.9-2.2,2.3-2.2,3.7v0.2c0,0.5-0.5,1-1,1s-1-0.5-1-1v-0.2   c0-0.4,0.1-0.9,0.2-1.3c0.4-1.6,1.4-3.1,3-4.1c1.2-0.7,1.8-2,1.9-3.4c0-1-0.4-2.1-1.2-2.8c-0.8-0.8-1.8-1.2-2.8-1.2c0,0,0,0,0,0   c-2.2,0-4,1.8-4,4c0,0.4-0.2,0.7-0.5,0.9c-0.1,0.1-0.3,0.1-0.5,0.1c-0.5,0-1-0.5-1-1c0-3.3,2.7-6,6-6h0c1.5,0,3.1,0.6,4.2,1.8   c1.1,1.1,1.8,2.7,1.8,4.2C27.5,74.6,26.5,76.5,24.7,77.6z"></path><path d="M78.5,52.5c-3,0-5.8,0.9-8.2,2.7c-0.3,0.2-0.7,0.3-1,0.1l-3.6-1.6l1.6,3.6c0.2,0.3,0.1,0.7-0.1,1c-1.8,2.4-2.7,5.3-2.7,8.2   c0,7.7,6.3,14,14,14s14-6.3,14-14C92.5,58.8,86.2,52.5,78.5,52.5z M79.5,73.5c0,0.5-0.5,1-1,1s-1-0.5-1-1v-8c0-0.5,0.5-1,1-1   s1,0.5,1,1V73.5z M79.4,59.9c0,0.1-0.1,0.2-0.2,0.3c-0.1,0.1-0.2,0.2-0.3,0.2s-0.2,0.1-0.4,0.1c-0.3,0-0.5-0.1-0.7-0.3   c-0.1-0.1-0.2-0.2-0.2-0.3s-0.1-0.2-0.1-0.4s0-0.3,0.1-0.4s0.1-0.2,0.2-0.3c0.4-0.4,1.1-0.4,1.4,0c0.1,0.1,0.2,0.2,0.2,0.3   s0.1,0.2,0.1,0.4S79.5,59.8,79.4,59.9z"></path></g></svg>