<svg height='100px' width='100px'  fill="#000000" xmlns="http://www.w3.org/2000/svg" data-name="Layer 1" viewBox="0 0 128 128" x="0px" y="0px"><title>92 Miscellaneous 17 solid</title><path d="M64,61.19A24,24,0,0,0,40,85.14a40.11,40.11,0,0,0,9.37,25,19.71,19.71,0,0,0,6.6,4.95c0,2.52-.41,5.4-1.8,7.11A4.64,4.64,0,0,1,50,123.8a2,2,0,0,0-2.05,2A2.05,2.05,0,0,0,49.88,128H78a2.1,2.1,0,0,0,0-4.19,4.45,4.45,0,0,1-3.72-1.68c-1.47-1.9-1.78-5.18-1.71-7.83a17.13,17.13,0,0,0,2-1.38c5.59-4.6,10.12-12,12.42-20.44a27.74,27.74,0,0,0,1-7.34A24,24,0,0,0,64,61.19ZM84,85.14a23.75,23.75,0,0,1-.86,6.28C81.05,99,77,105.74,72,109.82c-5.76,4.74-14.41,3.72-19.69-2.31A35.88,35.88,0,0,1,44,85.14c0-.41,0-.81.06-1.22,1.8,2.44,4.53,5.29,7.58,5.45C53,89.46,55,89,56.71,86.53s2.47-2.44,2.58-2.44h0c.07,0,.68.07,1.81,1.85C62.4,88,67,91.1,72.13,91.1a12,12,0,0,0,2.42-.24c3.08-.64,6.83-2.78,9.18-8.86A19.84,19.84,0,0,1,84,85.14Z"></path><path d="M65.38,102.13H62.63a2,2,0,0,0,0,4h2.75a2,2,0,0,0,0-4Z"></path><path d="M64,48A24,24,0,1,0,40,24,24,24,0,0,0,64,48ZM48,20.22a6.31,6.31,0,0,1,2.07-4.88,7.26,7.26,0,0,1,5-1.88l2.55,0a.76.76,0,0,1,.06-.13L59,10.89a2,2,0,0,1,1.75-1h0l6.29.07a2,2,0,0,1,1.7,1l1.48,2.49a1.28,1.28,0,0,1,.11.24l1.68,0c3.86,0,7.19,3,7.43,6.51,0,.64-.12,3-.25,4.6,1.18,3.07,1.25,6.17.17,8.33a5,5,0,0,1-3.22,2.69,6.17,6.17,0,0,1-1.53.19c-3.36,0-6.84-2.68-8.53-6.78l0,0a2.11,2.11,0,0,0-1.93-1.22h-.64a1.75,1.75,0,0,0-1.69,1s0,0,0,0c-1.72,4.79-5.94,7.58-9.82,6.51a5.27,5.27,0,0,1-3.3-2.77,10.85,10.85,0,0,1-.26-8.09C48.31,23.37,48,20.79,48,20.22Z"></path><path d="M53.09,31.66c1.57.42,3.86-.93,5-4a.14.14,0,0,0,0-.06,5.76,5.76,0,0,1,5.47-3.72h.68a6.15,6.15,0,0,1,5.6,3.72.17.17,0,0,1,0,0,0,0,0,0,1,0,0c1.28,3.08,3.77,4.59,5.33,4.19a1,1,0,0,0,.65-.61,6,6,0,0,0,.06-3.89.76.76,0,0,1-.08-.11A2.74,2.74,0,0,0,74,26.06a2,2,0,0,1,.48-4,7.09,7.09,0,0,1,1,.2c.06-.92.1-1.67.09-1.89-.1-1.44-1.73-2.74-3.48-2.76l-2.39,0-.74,1.45a2,2,0,0,1-1.78,1.09h0l-6.87-.07a2,2,0,0,1-1.84-1.29l-.51-1.3-2.84,0a3.15,3.15,0,0,0-2.27.82A2.41,2.41,0,0,0,52,20.11c0,.2.1,1,.21,2a6.3,6.3,0,0,1,1.1-.23,2,2,0,0,1,.41,4,2.25,2.25,0,0,0-1.63,1.07L52,27a6.24,6.24,0,0,0,.28,3.86A1.32,1.32,0,0,0,53.09,31.66Z"></path><path d="M61.63,16.09l4.27.05.31-.6a3,3,0,0,1,.37-.56l-.64-1.08-4,0-.74,1.36a4.53,4.53,0,0,1,.32.62Z"></path><path d="M107,78.83a2,2,0,0,0-2,2V97.5H90.67a2,2,0,0,0,0,4h16l.17,0,.17,0a2,2,0,0,0,2-2V80.83A2,2,0,0,0,107,78.83Z"></path><path d="M62,54v2a2,2,0,0,0,4,0V54a2,2,0,0,0-4,0Z"></path><path d="M36.67,97.5H23V80.83a2,2,0,0,0-4,0V99.5a2,2,0,0,0,2.33,2,2,2,0,0,0,.33,0h15a2,2,0,0,0,0-4Z"></path><path d="M107,46a8,8,0,0,0-4.45,1.37,9.3,9.3,0,0,1,0,13.26,7.91,7.91,0,0,0,8.9,0,9.3,9.3,0,0,1,0-13.26A8,8,0,0,0,107,46Z"></path><path d="M99,54a7.94,7.94,0,0,0,.89,3.65,5.35,5.35,0,0,0,0-7.3A7.94,7.94,0,0,0,99,54Z"></path><path d="M107,33a21,21,0,1,0,21,21A21,21,0,0,0,107,33Zm9.13,28.79A12,12,0,1,1,119,54,12,12,0,0,1,116.13,61.79Z"></path><path d="M112.67,54a5.32,5.32,0,0,0,1.44,3.65,7.93,7.93,0,0,0,0-7.3A5.32,5.32,0,0,0,112.67,54Z"></path><path d="M29,50H13v8H29Zm-9.69,5.95v-3.9L22.69,54Z"></path><path d="M42,54A21,21,0,1,0,21,75,21,21,0,0,0,42,54ZM9,58V50a4,4,0,0,1,4-4H29a4,4,0,0,1,4,4v8a4,4,0,0,1-4,4H13A4,4,0,0,1,9,58Z"></path></svg>