<svg height='100px' width='100px'  fill="#000000" xmlns="http://www.w3.org/2000/svg" data-name="Layer 1" viewBox="0 0 128 128" x="0px" y="0px"><title>107 Miscellaneous 32</title><path d="M16,30.81a2,2,0,0,0-1.42-1.55l-3.05-.86-1-3A2,2,0,0,0,6.9,24.9L5.14,27.56,2,27.61A2,2,0,0,0,.43,30.85l2,2.52-.94,3.08A2,2,0,0,0,4.08,38.9l3-1.11,2.59,1.84a2,2,0,0,0,1.16.37h0a2,2,0,0,0,2-2.36l-.12-2.93,2.55-1.93A2,2,0,0,0,16,30.81Z"></path><path d="M29,6.81a2,2,0,0,0-1.42-1.55l-3.05-.86-1-3A2,2,0,0,0,19.9.9L18.14,3.56,15,3.61a2,2,0,0,0-1.54,3.23l2,2.52-.94,3.08a2,2,0,0,0,2.61,2.46l3-1.11,2.59,1.84a2,2,0,0,0,1.16.37h0a2,2,0,0,0,2-2.36l-.12-2.93,2.55-1.93A2,2,0,0,0,29,6.81Z"></path><path d="M128,6.81a2,2,0,0,0-1.42-1.55l-3.05-.86-1-3A2,2,0,0,0,118.9.9l-1.76,2.67-3.17,0a2,2,0,0,0-1.54,3.23l2,2.52-.94,3.08a2,2,0,0,0,2.61,2.46l3-1.11,2.59,1.84a2,2,0,0,0,1.16.37h0a2,2,0,0,0,2-2.36l-.12-2.93,2.55-1.93A2,2,0,0,0,128,6.81Z"></path><path d="M120,36.81a2,2,0,0,0-1.42-1.55l-3.06-.86-1-3a2,2,0,0,0-3.56-.46l-1.76,2.67-3.17,0a2,2,0,0,0-1.54,3.23l2,2.52-.94,3.08a2,2,0,0,0,2.61,2.46l3-1.11,2.59,1.84a2,2,0,0,0,1.16.37h0a2,2,0,0,0,2-2.36l-.12-2.93,2.55-1.93A2,2,0,0,0,120,36.81Z"></path><path d="M34.57,70.56c-23,13.65-30.83,4.27-31,4.09A2,2,0,0,0,.39,77c.24.32,3.83,5,12.61,5,5.6,0,13.3-1.89,23.58-8a131.13,131.13,0,0,1,13.87-6.53A13.88,13.88,0,0,1,50,64c0-.26,0-.51,0-.77A135,135,0,0,0,34.57,70.56Z"></path><path d="M2.45,50.63c.2,0,19.49-4.31,25.71,10.16a2,2,0,0,0,3.67-1.58,20.49,20.49,0,0,0-5.32-7.42C33.84,48,56.11,39.08,77.06,55.34l-1.83.33a13.93,13.93,0,0,1,2,3.85c15.88-2.84,33.58-2.28,47.56,8a2,2,0,1,0,2.38-3.22c-13.43-9.91-29.68-11.58-44.81-9.78l-.05-.06c-25.28-22.38-54-8.31-59.46-5.27C13.49,44.1,1.71,46.7,1.55,46.73a2,2,0,0,0,.9,3.9Z"></path><path d="M64,74A10,10,0,1,0,54,64,10,10,0,0,0,64,74Z"></path><path d="M44.87,85.68l-.09.08a5.39,5.39,0,0,0-.15,7.86l4.83,5.67A2,2,0,0,0,51,100h0c0,4.38,0,4.43,0,4.49A2,2,0,0,0,52,106v16.48c0,3.33,2,5.47,5,5.47,2.42,0,5-1.44,5-5.47V106.33h4v16.19c0,3.33,2,5.47,5,5.47,2.42,0,5-1.44,5-5.47V106a2,2,0,0,0,1-1.56c0-.06,0-.11,0-4.49h0a2,2,0,0,0,1.52-.7l4.83-5.67a5.39,5.39,0,0,0-.15-7.86l-.09-.08-8.87-7.23a2,2,0,0,0-1.77-.38,5.17,5.17,0,0,0-.82-.07H56.47a5.26,5.26,0,0,0-.9.08,2,2,0,0,0-1.84.37ZM47.62,91l-.15-.16a1.39,1.39,0,0,1,0-2.06L51,85.84c0,3.74,0,6.72,0,9.11ZM77,85.84l3.55,2.9a1.39,1.39,0,0,1,0,2.06l-.15.16-3.4,4C77,92.56,77,89.58,77,85.84Zm-7,20.49h2v16.19c0,1.47-.49,1.47-1,1.47s-1,0-1-1.47Zm-14,0h2v16.19c0,1.47-.49,1.47-1,1.47s-1,0-1-1.47Z"></path><circle cx="92" cy="90" r="2" transform="translate(-28.84 134.28) rotate(-64.49)"></circle><path d="M100.86,75.46a2.89,2.89,0,0,1-2.27-.14,2,2,0,0,0-2.71,1l-2.7,5.89a2,2,0,1,0,3.64,1.67l2-4.29a6.87,6.87,0,0,0,3.4-.31,7.14,7.14,0,0,0,4.13-3.8,7.42,7.42,0,0,0-3.32-9.7,6.94,6.94,0,0,0-8.18,1.51A2,2,0,1,0,97.73,70a3,3,0,0,1,3.49-.67,3.39,3.39,0,0,1,1.46,4.45A3.18,3.18,0,0,1,100.86,75.46Z"></path><circle cx="39" cy="110" r="2" transform="translate(-67.73 62.79) rotate(-46.62)"></circle><path d="M26.81,100.74l4.79,4.69a2,2,0,0,0,2.8-2.86L30.8,99a7.72,7.72,0,0,0-1.5-8.92A7.29,7.29,0,0,0,24,88a7,7,0,0,0-5,2.31,7.58,7.58,0,0,0-1.06,8.57A2,2,0,1,0,21.42,97a3.57,3.57,0,0,1,.46-4,3.06,3.06,0,0,1,2.19-1,3.31,3.31,0,0,1,2.43,1,3.62,3.62,0,0,1,.24,5A2,2,0,0,0,26.81,100.74Z"></path><path d="M32.6,40.7l.1,0c.62-.19,1.25-.37,1.89-.54h0c13.82-3.7,32.5-3.55,49.08,10.32A89.28,89.28,0,0,1,94,50h0a34,34,0,1,0-63.22-8.71Q31.68,41,32.6,40.7Z"></path></svg>