<svg height='100px' width='100px'  fill="#000000" xmlns="http://www.w3.org/2000/svg" xmlns:xlink="http://www.w3.org/1999/xlink" version="1.1" x="0px" y="0px" viewBox="0 0 64 64" style="enable-background:new 0 0 64 64;" xml:space="preserve"><circle cx="14" cy="14" r="6"></circle><circle cx="36" cy="48" r="4"></circle><path d="M31,56v6h10h10h10v-6c0-2.209-1.791-4-4-4h-1h-1c-2.209,0-4,1.791-4,4c0-2.209-1.791-4-4-4h-1h-1c-2.209,0-4,1.791-4,4  c0-2.209-1.791-4-4-4h-1h-1C32.791,52,31,53.791,31,56z"></path><circle cx="46" cy="48" r="4"></circle><circle cx="56" cy="48" r="4"></circle><polygon points="60,25 58,25 58,31 56,31 56,20 54,20 54,31 52,31 52,27 50,27 50,31 48,31 48,23 46,23 46,31 44,31 44,27 42,27   42,31 40,31 40,33 62,33 62,31 60,31 "></polygon><rect x="48" y="6" width="14" height="2"></rect><rect x="48" y="10" width="14" height="2"></rect><rect x="57" y="14" width="5" height="2"></rect><rect x="48" y="35" width="14" height="2"></rect><rect x="52" y="39" width="2" height="2"></rect><rect x="56" y="39" width="2" height="2"></rect><rect x="60" y="39" width="2" height="2"></rect><path d="M7,26h1v36h6V41l4,21h6l-4-24V26l6,6h11v-3.586l9.707-9.707l-1.414-1.414L35.586,27H29l-5.828-5.828  C22.421,20.421,21.404,20,20.343,20H14H8c-3.314,0-6,2.686-6,6v13h5V26z M12,23h4v2h-1v9h-2v-9h-1V23z"></path><path d="M43,10V6c0-2.209-1.791-4-4-4h-8c-2.209,0-4,1.791-4,4v5l-3,3h15C41.209,14,43,12.209,43,10z M30,5h10v2H30V5z M30,9h10v2  H30V9z"></path></svg>