<svg height='100px' width='100px'  fill="#000000" xmlns="http://www.w3.org/2000/svg" xmlns:xlink="http://www.w3.org/1999/xlink" version="1.1" x="0px" y="0px" viewBox="0 0 512 512" style="enable-background:new 0 0 512 512;" xml:space="preserve"><g><g><g><g><path d="M78.703,213.437l95.275-95.274c1.474-3.446,3.548-6.65,6.17-9.455c6.513-6.966,15.718-10.724,25.241-10.31      l107.247,4.663c2.759,0.12,4.898,2.454,4.778,5.212c-0.119,2.759-2.473,4.921-5.212,4.778l-107.248-4.663      c-6.609-0.28-12.986,2.318-17.503,7.149c-1.358,1.454-2.505,3.062-3.425,4.779c-0.032,1.234-0.521,2.459-1.462,3.401      l-0.019,0.019c-1.047,3.094-1.421,6.415-1.052,9.743c1.188,10.691,9.829,19.118,20.546,20.036l163.285,13.996      c15.382,1.32,30.854-3.783,42.435-14.001l61.112-53.917l-72.042-72.041l-27.88,20.227l45.337,39.449      c2.083,1.813,2.303,4.971,0.49,7.054C413.789,95.418,412.4,96,411.004,96c-1.164,0-2.333-0.404-3.28-1.228l-48.811-42.471      L206.681,42.151c-1.264-0.084-2.525-0.126-3.783-0.126c-15.013,0-29.476,5.95-40.164,16.639L43.332,178.066      c-4.725,4.724-7.326,11.005-7.326,17.686c0,6.681,2.602,12.962,7.326,17.686C53.083,223.189,68.951,223.189,78.703,213.437z"></path><path d="M468.681,298.563c-4.725-4.724-11.006-7.326-17.687-7.326s-12.961,2.603-17.685,7.326l-95.276,95.274      c-1.474,3.446-3.548,6.651-6.17,9.455c-6.513,6.967-15.711,10.722-25.24,10.311l-107.249-4.663      c-2.759-0.12-4.897-2.453-4.777-5.212c0.12-2.76,2.456-4.898,5.212-4.778l107.248,4.663c6.617,0.276,12.985-2.318,17.502-7.149      c1.359-1.454,2.506-3.063,3.426-4.78c0.033-1.234,0.521-2.459,1.463-3.4l0.019-0.019c1.046-3.095,1.421-6.415,1.051-9.744      c-1.188-10.69-9.828-19.116-20.546-20.036l-163.285-13.995c-15.389-1.32-30.854,3.784-42.434,14.001L43.14,412.406      l72.041,72.041l27.88-20.227l-45.337-39.449c-2.083-1.813-2.302-4.971-0.489-7.054c1.813-2.082,4.971-2.302,7.054-0.489      l48.809,42.471l152.235,10.148c16.345,1.096,32.363-4.929,43.947-16.512l119.401-119.401      C478.432,324.182,478.432,308.314,468.681,298.563z"></path><path d="M369.836,292.88c2.45,0,4.59-1.811,4.939-4.311c0.04-0.229,0.05-0.46,0.05-0.689c0-2.46-1.8-4.6-4.3-4.95      c-2.739-0.39-5.26,1.51-5.649,4.25c-0.03,0.23-0.051,0.47-0.051,0.7c0,2.45,1.801,4.6,4.301,4.95      C369.365,292.859,369.596,292.88,369.836,292.88z"></path><path d="M331.735,182.07c-0.96,0.97-1.439,2.22-1.449,3.48c0,1.3,0.489,2.61,1.489,3.59c0.971,0.96,2.24,1.44,3.511,1.44      c1.289,0,2.579-0.5,3.56-1.49c0.96-0.96,1.43-2.22,1.44-3.48c0.01-1.3-0.49-2.6-1.48-3.59      C336.836,180.08,333.666,180.1,331.735,182.07z"></path><path d="M375.485,259.5c-0.26-2.76-2.689-4.78-5.439-4.53c-2.601,0.24-4.55,2.431-4.54,4.99c0,0.14,0.01,0.29,0.02,0.439      c0.23,2.601,2.41,4.551,4.971,4.551c0.159,0,0.31-0.011,0.46-0.021c2.6-0.24,4.55-2.42,4.55-4.99      C375.506,259.8,375.496,259.649,375.485,259.5z"></path><path d="M357.766,207.36c0-0.9-0.25-1.82-0.76-2.64c-1.47-2.34-4.55-3.05-6.891-1.58c-1.52,0.95-2.35,2.58-2.35,4.25      c0,0.9,0.25,1.82,0.76,2.64c0.95,1.51,2.58,2.34,4.25,2.34c0.9,0,1.82-0.24,2.65-0.76      C356.936,210.66,357.775,209.03,357.766,207.36z"></path><path d="M364.735,237.62c0.53,0,1.07-0.09,1.601-0.27c2.08-0.7,3.399-2.64,3.399-4.73c0-0.53-0.08-1.07-0.26-1.6      c-0.89-2.62-3.72-4.02-6.34-3.14c-2.09,0.7-3.4,2.65-3.4,4.73c0,0.53,0.08,1.07,0.261,1.6      C360.706,236.3,362.646,237.62,364.735,237.62z"></path><path d="M345.426,336.64c-0.61,0.87-0.9,1.86-0.9,2.84c0,1.59,0.74,3.15,2.141,4.12c0.87,0.61,1.87,0.9,2.859,0.9      c1.58,0,3.13-0.75,4.101-2.141c0.609-0.869,0.899-1.859,0.899-2.84c0-1.59-0.739-3.149-2.14-4.12      C350.115,333.819,347.006,334.37,345.426,336.64z"></path><path d="M360.886,319.54c0.61,0.229,1.22,0.34,1.83,0.34c2,0,3.88-1.2,4.66-3.17c0.229-0.601,0.35-1.22,0.35-1.83      c-0.01-1.99-1.21-3.87-3.17-4.65c-2.57-1.01-5.48,0.25-6.49,2.82c-0.24,0.6-0.35,1.22-0.35,1.84      C357.716,316.88,358.926,318.76,360.886,319.54z"></path><path d="M154.796,191.19c-0.77,0.93-1.15,2.05-1.15,3.17c-0.01,1.45,0.61,2.88,1.811,3.87c0.93,0.77,2.06,1.15,3.189,1.15      c1.431,0,2.86-0.61,3.851-1.8c0.77-0.93,1.149-2.06,1.149-3.18c0-1.44-0.609-2.87-1.81-3.86      C159.716,188.77,156.566,189.06,154.796,191.19z"></path><path d="M135.146,239.23c-2.689-0.62-5.369,1.07-5.989,3.76c-0.08,0.38-0.13,0.75-0.13,1.13c0.01,2.27,1.579,4.33,3.89,4.86      c0.38,0.08,0.75,0.13,1.12,0.13c2.28,0,4.34-1.57,4.87-3.89c0.09-0.38,0.13-0.76,0.13-1.13      C139.026,241.81,137.466,239.76,135.146,239.23z"></path><path d="M126.006,271.84c0,0.02,0,0.05,0,0.07c0.021,2.75,2.26,4.96,5,4.96c0.01,0,0.03,0,0.04,0      c2.74-0.021,4.95-2.24,4.96-4.971c0-0.02,0-0.04,0-0.06c-0.02-2.76-2.27-4.99-5.03-4.97      C128.236,266.89,126.026,269.109,126.006,271.84z"></path><path d="M134.436,304.6c0.391,0,0.79-0.05,1.19-0.149c2.28-0.551,3.82-2.601,3.81-4.851c0-0.39-0.04-0.79-0.14-1.189      c-0.66-2.681-3.36-4.32-6.05-3.67c-2.28,0.56-3.811,2.609-3.811,4.859c0,0.391,0.051,0.79,0.15,1.19      C130.136,303.069,132.186,304.6,134.436,304.6z"></path><path d="M144.216,330.77c0.78,0,1.561-0.18,2.29-0.56c1.72-0.891,2.71-2.641,2.71-4.46c0-0.76-0.18-1.54-0.55-2.271      c-1.26-2.46-4.28-3.42-6.74-2.16c-1.72,0.891-2.71,2.641-2.71,4.461c0,0.77,0.18,1.539,0.561,2.27h-0.011      C140.656,329.78,142.406,330.77,144.216,330.77z"></path><path d="M138.416,217.8c0,1.84,1.02,3.6,2.78,4.48c0.71,0.35,1.47,0.52,2.22,0.52c1.84,0,3.61-1.02,4.479-2.78      c0.36-0.72,0.521-1.48,0.521-2.23c0-1.83-1.021-3.6-2.78-4.47c-2.479-1.23-5.47-0.22-6.7,2.26v-0.01      C138.576,216.29,138.416,217.05,138.416,217.8z"></path><path d="M175.846,171.11c-1.31,0.99-1.99,2.49-1.99,4.01c0,1.05,0.33,2.1,1.011,2.99c0.979,1.31,2.479,1.99,4,1.99      c1.04,0,2.1-0.32,3-1c1.31-0.99,2-2.5,1.989-4.02c0-1.04-0.329-2.09-1-2.99C181.186,169.89,178.056,169.45,175.846,171.11z"></path><path d="M256.907,321.242v-16.105c4.443-0.188,8.678-0.883,12.704-2.084c4.027-1.201,7.59-2.984,10.692-5.346      c3.1-2.359,5.575-5.391,7.428-9.094c1.851-3.703,2.777-8.193,2.777-13.471c0-4.533-0.719-8.42-2.152-11.662      c-1.437-3.238-3.471-5.992-6.109-8.262c-2.638-2.267-5.855-4.165-9.65-5.692c-3.797-1.527-8.053-2.938-12.774-4.236l-4.442-1.11      v-18.884c2.591,0.371,5.159,0.996,7.706,1.874c2.545,0.882,4.859,1.806,6.942,2.777c2.083,0.973,3.794,1.875,5.138,2.707      c1.341,0.834,2.151,1.438,2.43,1.807l9.997-18.884c-3.888-2.223-8.47-4.396-13.746-6.527      c-5.276-2.127-10.924-3.471-16.939-4.026V191h-9.581v14.024c-4.442,0.464-8.587,1.458-12.427,2.985      c-3.843,1.527-7.175,3.635-9.997,6.318c-2.825,2.686-5.068,5.901-6.734,9.649c-1.666,3.75-2.499,8.033-2.499,12.844      c0,3.703,0.531,6.942,1.597,9.719c1.063,2.777,2.684,5.23,4.859,7.359c2.174,2.131,4.93,4.006,8.262,5.624      c3.332,1.621,7.266,3.123,11.803,4.512l6.664,1.945v18.467c-3.332-0.463-6.573-1.227-9.719-2.291      c-3.148-1.064-5.972-2.174-8.471-3.334c-2.499-1.156-4.561-2.266-6.179-3.332c-1.62-1.063-2.616-1.826-2.985-2.291      l-9.997,19.857c4.999,3.332,10.622,6.018,16.87,8.053c6.249,2.037,12.566,3.332,18.953,3.889v16.244H256.907z"></path></g></g></g></g></svg>