<svg height='100px' width='100px'  fill="#000000" xmlns="http://www.w3.org/2000/svg" data-name="Layer 1" viewBox="0 0 64 64" x="0px" y="0px"><title>complementary-include-jigsaw-supplement-join</title><path d="M17,54.5A3.50424,3.50424,0,0,1,20.5,51H22V47.5H17a.49971.49971,0,0,1-.5-.5V45.125A2.41435,2.41435,0,0,0,14,42.8125a2.41435,2.41435,0,0,0-2.5,2.3125V47a.49971.49971,0,0,1-.5.5H5V62H22V58H20.5A3.50424,3.50424,0,0,1,17,54.5Z"></path><path d="M23,46.5V42l2,.3125a2.81836,2.81836,0,1,0,0-5.625L23,37V32H5V46.5h5.5V45.125A3.41436,3.41436,0,0,1,14,41.8125a3.41436,3.41436,0,0,1,3.5,3.3125V46.5Z"></path><path d="M41,37l-2-.3125a2.81836,2.81836,0,1,0,0,5.625L41,42v4.5h5.5V45.125a3.50531,3.50531,0,0,1,7,0V46.5H59V32H41Z"></path><path d="M23,15.07935l2-.31745a2.86055,2.86055,0,1,1,0,5.7143l-2-.31751V25h6v2.14282a3.00357,3.00357,0,0,0,6,0V25h6V20.15869l-2,.31751a2.86055,2.86055,0,1,1,0-5.7143l2,.31745V10H23Z"></path><rect x="31.5" y="2" width="1" height="5"></rect><rect x="18.22241" y="3.99401" width="0.99952" height="4.56765" transform="translate(0.47881 13.83499) rotate(-41.03847)"></rect><rect x="42.84544" y="6.00008" width="4.56839" height="0.99984" transform="matrix(0.75403, -0.65684, 0.65684, 0.75403, 6.83119, 31.24193)"></rect><rect x="15" y="17.5" width="5" height="1"></rect><rect x="44" y="17.5" width="5" height="1"></rect><path d="M46,54.5A2.5,2.5,0,0,0,43.5,52H41V47H35v1.875a3.00625,3.00625,0,0,1-6,0V47H23v5H20.5a2.5,2.5,0,0,0,0,5H23v5H41V57h2.5A2.5,2.5,0,0,0,46,54.5Z"></path><path d="M52.5,47V45.125a2.5076,2.5076,0,0,0-5,0V47a.49971.49971,0,0,1-.5.5H42V51h1.5a3.5,3.5,0,0,1,0,7H42v4H59V47.5H53A.49971.49971,0,0,1,52.5,47Z"></path></svg>