<svg height='100px' width='100px'  fill="#000000" xmlns="http://www.w3.org/2000/svg" data-name="Layer 1" viewBox="0 0 128 128" x="0px" y="0px"><title>Miscellaneous 44 solid</title><circle cx="64" cy="64" r="2"></circle><circle cx="31" cy="64" r="2"></circle><circle cx="97" cy="64" r="2"></circle><circle cx="64" cy="108" r="2"></circle><circle cx="31" cy="108" r="2"></circle><circle cx="97" cy="108" r="2"></circle><circle cx="64" cy="13" r="2"></circle><circle cx="31" cy="13" r="2"></circle><circle cx="97" cy="13" r="2"></circle><path d="M2.87,29H26.13c2.45,0,3.54-1.73,2.45-3.86L16.48,1.6C15.93.53,15.22,0,14.5,0s-1.43.53-2,1.6L.42,25.14C-.67,27.27.43,29,2.87,29Z"></path><path d="M127.58,25.14,115.48,1.6c-.55-1.06-1.26-1.6-2-1.6s-1.43.53-2,1.6L99.42,25.14c-1.09,2.13,0,3.86,2.45,3.86h23.25C127.57,29,128.67,27.27,127.58,25.14ZM104,25l9.5-18.5L123,25Z"></path><path d="M94.58,25.14,82.48,1.6C81.93.53,81.22,0,80.5,0s-1.43.53-2,1.6L66.42,25.14c-1.09,2.13,0,3.86,2.45,3.86H92.13C94.57,29,95.67,27.27,94.58,25.14Z"></path><path d="M61.58,25.14,49.48,1.6C48.93.53,48.22,0,47.5,0s-1.43.53-2,1.6L33.42,25.14c-1.09,2.13,0,3.86,2.45,3.86H59.13C61.57,29,62.67,27.27,61.58,25.14ZM38,25,47.5,6.5,57,25Z"></path><path d="M125.13,33H101.87c-2.45,0-3.54,1.73-2.45,3.86L111.52,60.4c.55,1.06,1.26,1.6,2,1.6s1.43-.53,2-1.6l12.09-23.55C128.67,34.73,127.57,33,125.13,33Z"></path><path d="M92.13,33H68.87c-2.45,0-3.54,1.73-2.45,3.86L78.52,60.4c.55,1.06,1.26,1.6,2,1.6s1.43-.53,2-1.6L94.58,36.86C95.67,34.73,94.57,33,92.13,33ZM80.5,55.5,71,37H90Z"></path><path d="M.42,36.86,12.52,60.4c.55,1.06,1.26,1.6,2,1.6s1.43-.53,2-1.6L28.58,36.86c1.09-2.13,0-3.86-2.45-3.86H2.87C.43,33-.67,34.73.42,36.86ZM24,37,14.5,55.5,5,37Z"></path><path d="M59.13,33H35.87c-2.45,0-3.54,1.73-2.45,3.86L45.52,60.4c.55,1.06,1.26,1.6,2,1.6s1.43-.53,2-1.6L61.58,36.86C62.67,34.73,61.57,33,59.13,33Z"></path><path d="M2.87,95H26.13c2.45,0,3.54-1.73,2.45-3.86L16.48,67.6c-.55-1.06-1.26-1.6-2-1.6s-1.43.53-2,1.6L.42,91.14C-.67,93.27.43,95,2.87,95Z"></path><path d="M127.58,91.14,115.48,67.6c-.55-1.06-1.26-1.6-2-1.6s-1.43.53-2,1.6L99.42,91.14c-1.09,2.13,0,3.86,2.45,3.86h23.25C127.57,95,128.67,93.27,127.58,91.14ZM104,91l9.5-18.5L123,91Z"></path><path d="M94.58,91.14,82.48,67.6c-.55-1.06-1.26-1.6-2-1.6s-1.43.53-2,1.6L66.42,91.14c-1.09,2.13,0,3.86,2.45,3.86H92.13C94.57,95,95.67,93.27,94.58,91.14Z"></path><path d="M61.58,91.14,49.48,67.6c-.55-1.06-1.26-1.6-2-1.6s-1.43.53-2,1.6L33.42,91.14c-1.09,2.13,0,3.86,2.45,3.86H59.13C61.57,95,62.67,93.27,61.58,91.14ZM38,91l9.5-18.5L57,91Z"></path><path d="M2.87,128H26.13c2.45,0,3.54-1.73,2.45-3.86L16.48,100.6c-.55-1.06-1.26-1.6-2-1.6s-1.43.53-2,1.6L.42,124.14C-.67,126.27.43,128,2.87,128ZM14.5,105.5,24,124H5Z"></path><path d="M113.5,99c-.72,0-1.43.53-2,1.6L99.42,124.14c-1.09,2.13,0,3.86,2.45,3.86h23.25c2.45,0,3.54-1.73,2.45-3.86L115.48,100.6C114.93,99.53,114.22,99,113.5,99Z"></path><path d="M80.5,99c-.72,0-1.43.53-2,1.6L66.42,124.14c-1.09,2.13,0,3.86,2.45,3.86H92.13c2.45,0,3.54-1.73,2.45-3.86L82.48,100.6C81.93,99.53,81.22,99,80.5,99ZM71,124l9.5-18.5L90,124Z"></path><path d="M61.58,124.14,49.48,100.6c-.55-1.06-1.26-1.6-2-1.6s-1.43.53-2,1.6L33.42,124.14c-1.09,2.13,0,3.86,2.45,3.86H59.13C61.57,128,62.67,126.27,61.58,124.14Z"></path></svg>